<svg xmlns="http://www.w3.org/2000/svg" xmlns:xlink="http://www.w3.org/1999/xlink" viewBox="0 0 2656.41 2878.69"><defs><style>.cls-1,.cls-3{fill:none;}.cls-2{clip-path:url(#clip-path);}.cls-3{stroke:#47929f;stroke-miterlimit:10;stroke-width:10px;}.cls-4{fill:url(#linear-gradient);}.cls-5{fill:#02965f;}</style><clipPath id="clip-path" transform="translate(771.84 1650.54)"><rect class="cls-1" x="29.79" y="497.3" width="2275.4" height="698.95" transform="translate(-261.83 654.18) rotate(-28.28)"/></clipPath><linearGradient id="linear-gradient" x1="2556.32" y1="1732.82" x2="2888.6" y2="1732.82" gradientUnits="userSpaceOnUse"><stop offset="0" stop-color="#4057a3"/><stop offset="0.29" stop-color="#4057a3"/><stop offset="0.56" stop-color="#439587"/><stop offset="0.67" stop-color="#45b279"/><stop offset="1" stop-color="#45b279"/></linearGradient></defs><g id="Layer_2" data-name="Layer 2"><g id="Layer_1-2" data-name="Layer 1"><g class="cls-2"><path class="cls-3" d="M-766.84-711.18v1000A434.36,434.36,0,0,0-549.65,665l866,500a434.36,434.36,0,0,0,434.36,0l866-500A434.37,434.37,0,0,0,1833.91,288.8v-1000a434.37,434.37,0,0,0-217.18-376.17l-866-500a434.36,434.36,0,0,0-434.36,0l-866,500A434.36,434.36,0,0,0-766.84-711.18Z" transform="translate(771.84 1650.54)"/></g><circle class="cls-4" cx="2606.37" cy="1732.82" r="50.04"/><circle class="cls-5" cx="842.64" cy="2668.91" r="50.04"/></g></g></svg>