<svg xmlns="http://www.w3.org/2000/svg" viewBox="0 0 5485.06 1706.47"><defs><style>.cls-1{isolation:isolate;}.cls-2{mix-blend-mode:overlay;}.cls-3{fill:#fff;}.cls-4{opacity:0.75;}</style></defs><g class="cls-1"><g id="Layer_2" data-name="Layer 2"><g id="Layer_1-2" data-name="Layer 1"><g class="cls-2"><path class="cls-3" d="M89.79,1151.54c-3,10-5.58,20.16-8.41,30.23a307,307,0,0,1-9.68,29.73c-16.85,42.68-25.36,85.09-24.26,127.07s11.8,83.53,33.39,124.5c18.17,34.47,42.06,61,70.92,80.74s62.72,32.5,100.8,39.44c39.27,7.16,77.77,7,115.72,2.27s75.36-14,112.45-25.09a1120.62,1120.62,0,0,0,164.09-63.74,1311.1,1311.1,0,0,0,153.14-87,120.55,120.55,0,0,0,20.48-16.82c6.09-6.45,10.52-13.33,10.47-19.41-.09-9.5-6-15.48-14.08-19.55s-18.18-6.25-26.66-8.14c-15-3.35-30.18-6.27-45.37-8.91s-30.44-5-45.69-7.22c-24.48-3.56-49-6.52-72.72-12.47s-46.46-14.89-67.37-30.42c-11.62-8.63-21.7-22.87-27.85-38.39s-8.38-32.34-4.33-46.13c4.71-16,9.36-32.11,14.4-48s10.44-31.75,16.66-47.22A307.26,307.26,0,0,1,601,1030.36c18.34-23.08,39.63-43.92,62.76-63.18a225.05,225.05,0,0,1,34.38-24,163.81,163.81,0,0,1,39.39-15.86c18.9-4.84,34.82-4.87,48.15.61s24.09,16.48,32.67,33.69c5.69,11.43,11.49,22.81,17.29,34.18s11.61,22.75,17.32,34.18c6.85,13.7,16.79,22.91,28.35,29.61s24.73,10.88,38,14.52c3.54,1,8.35.67,12.88-.53s8.75-3.31,11.12-6q22.13-24.88,43.55-50.4t42.09-51.62c2.73-3.45,4.36-8,5.42-12.87a126.25,126.25,0,0,0,2-14.78c1.24-13.3,2.71-26.64,3.77-40a371.23,371.23,0,0,0,1.33-40c-.56-19.08-1.89-38.15-3.51-57.2s-3.52-38.1-5.21-57.14q-1.35-15.24-3.07-30.45t-4-30.34q-6.33-43.27-12.9-86.52t-13.2-86.48q-5.54-36-11.07-72.08t-11.48-72c-4-24.39-9.67-56.27-15-86s-10.45-57.22-13.32-72.88c-3.06-16.64-3.12-34.11-5.67-51s-7.59-33.13-20.61-47.33c-1.65-1.79-2.42-5.12-2.49-8.67a25.69,25.69,0,0,1,1.67-10c6.34-15,13-29.9,20.15-44.82S956.64,15.24,965.2.1c23.27,35.69,39.47,74.15,54.32,113.33s28.37,79.07,46.29,117.62c-11.51-.17-17.26-.25-25.06-5.79s-17.62-16.54-37.28-38.53c2.22,13.83,9,46.3,16.67,83.77s16.36,80,22.4,113.84c4.49,25.2,9.23,50.37,13.75,75.57s8.82,50.43,12.45,75.75c2.83,19.77,4.79,39.66,6.5,59.58s3.2,39.89,5.07,59.79c.88,9.29,2.1,18.56,3.14,27.84s1.89,18.57,2,27.86c.48,35.15,1.2,70.33-.79,105.91s-6.69,71.53-17,108.23c14.83-12.29,28.58-23.9,41.89-35s26.2-21.74,39.33-32.07c19.91-15.65,40.52-30.29,62.24-42.92A336.63,336.63,0,0,1,1279.92,784a165.61,165.61,0,0,1,72.72-5.89c23.78,3.26,46.95,11.27,69,22.58,14.77,7.57,28.56,17.1,42,27.21s26.65,20.81,40.21,30.72a48,48,0,0,1,18.64,26.43c2.76,10,2.43,20.81.08,31.52-7.66,34.79-19.7,66.36-38.33,93.31s-43.84,49.28-77.82,65.6A942.68,942.68,0,0,1,1281,1125.09a959.5,959.5,0,0,1-131,31.19c-22.69,3.75-45.53,6.7-68.43,9.28s-45.84,4.77-68.75,7c-15.07,1.49-30.2,2.57-45.34,3.43s-30.3,1.48-45.44,2c-26.23,1-48.66-4.55-67.51-16.08s-34.13-29.07-46-52.09c-4.68-9.05-9.24-18.17-13.8-27.29s-9.11-18.25-13.77-27.32c-6.67-13-15.31-22-25.71-26.55s-22.56-4.4-36.28,1a328.66,328.66,0,0,0-34.63,16,308.4,308.4,0,0,0-32.46,20c-15.61,11-30.68,22.84-44.07,36.3s-25.11,28.54-34,46.11c-5.86,11.52-8.38,18.65-6.62,24.28s7.79,9.75,19,15.28a276.85,276.85,0,0,0,49.33,18.62A336.41,336.41,0,0,0,687.5,1216c19.7,2.16,39.58,4.26,59.26,7.22a435.44,435.44,0,0,1,58,12.29c30.3,8.9,50.69,21.18,62.75,38.92s15.79,40.94,12.78,71.66c-2.66,27.1-8.8,52.59-19.86,75.52a162.84,162.84,0,0,1-49.33,60.15c-18,13.58-36,27.12-54.41,40.2s-37.05,25.7-56.25,37.41c-37.75,23-76.08,44.93-115.71,64.14s-80.58,35.71-123.56,48c-32.79,9.36-65.83,17.08-99.15,21.69s-66.89,6.1-100.74,3C194,1690,138.45,1668,96.27,1630.93s-71-89.35-85.07-156.13c-9.47-45-10.35-89.58-4.53-133.52S25,1254.07,42.36,1211.69c3.82-9.33,8.18-18.46,12.81-27.46s9.52-17.89,14.4-26.74a18.84,18.84,0,0,1,5.85-5.88c2.4-1.72,5-3.3,7.28-5.1l3.55,2.51Zm892-68.52c27-2.45,52.7-4,77.6-5.9s49-4.3,72.76-8.46q67.72-11.87,134.25-29.08t131.37-40.49c7-2.53,14.14-5.09,21.09-7.91a194.79,194.79,0,0,0,20.33-9.47c8.21-4.5,12.42-8.91,13-14s-2.45-10.71-8.76-17.72a229.11,229.11,0,0,0-33.3-30.72,174.51,174.51,0,0,0-39.43-22.24c-20.32-8.15-40.64-15.44-61.51-19.11s-42.27-3.72-64.76,2.63a310.09,310.09,0,0,0-60.18,24A357,357,0,0,0,1130.06,940c-26.21,20.55-52.27,41.2-77.28,64.27S1003.82,1052.82,981.81,1083Z"/><path class="cls-3" d="M4686.81,440.2c3.89-12.81,7.13-25.91,10.76-38.84s7.63-25.69,13.06-37.81c15.91-35.53,32.32-70.83,48.95-106s33.46-70.32,50.23-105.46c8.77-18.4,10-33.19,4-42.7s-19.46-13.74-40-11a380.79,380.79,0,0,0-54.15,11.39A487.26,487.26,0,0,0,4667.2,128q-80.77,33.32-161.12,67.73t-159.94,70.42c-38.24,17.3-76.08,35.52-113.7,54.21s-75,37.85-112.38,57c-13.23,6.79-25.81,14.83-38.72,23.54s-26.17,18.1-40.73,27.58l69.14,62.9,66,60c-.54,1-1.08,1.95-1.63,2.92l-1.62,2.92-23.72-3.12-28.05-3.69c12.21,14.45,23.31,28.32,34.22,41.52s21.65,25.76,33.12,37.6c26.63,27.47,53.72,54.5,80.86,81.49S4323.22,765,4350,792.33c26.18,26.68,51.92,53.87,75.81,82.5s46,58.68,64.8,91.12c22.2,38.25,35.34,78,38.31,118.19s-4.21,81-22.64,121.46a172.16,172.16,0,0,1-59.83,71.39c-25.28,17.44-55.23,28.88-87.79,35.38a279.92,279.92,0,0,1-34.34,4.5c-11.57.84-23.21,1.1-34.73,1.05-26.31-.14-50.15-5.36-71.43-15.92s-40-26.47-56.07-48a364,364,0,0,0-25.15-29.49c-8.82-9.49-17.87-18.82-26.51-28.47-12.74-14.24-25.44-19.31-37.56-19.22s-23.68,5.35-34.14,11.79c-23.8,14.67-42.05,33.72-57.07,55.25s-26.81,45.57-37.67,70.19c-11.55,26.17-22.62,52.59-34,78.84s-23.12,52.34-36,77.85c-4.5,8.92-11.31,17.12-19.15,24.53a191.38,191.38,0,0,1-25.33,19.73c-12,8-26.17,10.49-40.15,8.65a75.88,75.88,0,0,1-38.92-17.57,234.88,234.88,0,0,1-52.53-64.12c-13.36-23.77-22.76-49.62-28.83-76.59-8.12-36.12-9.92-72.34-7-108.36s10.74-71.84,21.74-107.17a39.8,39.8,0,0,1,4-8.4c1.61-2.71,3.37-5.37,4.88-8.12l4.16,1.15,4.17,1.15Q3699,1152.79,3697,1170t-4.26,34.28c-4.81,36.85-5.39,73,1.06,107.44s19.93,67.33,43.26,97.67c5.72,7.44,13.75,13.72,22.66,18.94a155.1,155.1,0,0,0,27.95,12.5c10.88,3.71,20.89,2,29.77-2.74s16.6-12.42,22.92-20.66c8-10.48,15.74-21.3,23-32.43s14-22.56,20.06-34.26c11.43-22,22.3-44.26,33-66.62s21.23-44.82,32-67.15a414.22,414.22,0,0,1,34-58.77,290.15,290.15,0,0,1,44.92-50.78c5.91-5.24,12.1-10.3,18.51-15a207.07,207.07,0,0,1,19.92-13c15.79-9,28.76-12.06,40.4-9.21s22,11.57,32.46,26c11,15,21.79,30.28,33.12,45.08a453.62,453.62,0,0,0,36.13,42.32c13.69,13.93,29,24.74,46.19,30.73s36.19,7.16,57.23,1.8c12.78-3.26,25.95-4.9,39.16-6.4s26.47-2.88,39.42-5.59a204.25,204.25,0,0,0,48.59-16.91,240.75,240.75,0,0,0,43.41-27.83,32.75,32.75,0,0,0,12.16-20.07c1.46-7.55.73-15.76-.94-24.08-5.35-26.53-15.27-50.73-28.31-73.07s-29.2-42.83-47-61.93c-44.09-47.19-88.86-93.74-133.7-140.24S4194.2,747,4149.85,700a506.66,506.66,0,0,1-33.18-39.74c-10.54-13.74-20.81-27.73-31.55-41.28-9.9-12.49-19.61-25.15-29.47-37.68s-19.84-24.95-30.29-37c-5.58-6.42-10.34-12.79-13.48-19.74a43.92,43.92,0,0,1-3.76-23.23c1.59-15.43,2.6-31,3.9-46.43s2.9-30.9,5.65-46.11c5.15-28.44,17.44-51.32,34.41-70.57s38.61-34.89,62.47-48.82c48.6-28.4,98.28-54.57,148.63-79.4s101.37-48.3,152.68-71.29c51.57-23.11,103.2-46,155.48-67.23s105.21-40.75,159.37-57.14a363.5,363.5,0,0,1,38.54-9.44A307.75,307.75,0,0,1,4808.56.1c18.92-1,34.73,5.82,45.22,17.62S4869.43,46.27,4867,65a352.3,352.3,0,0,1-12.48,58,361.06,361.06,0,0,1-22,55.19q-21.3,42.9-42.76,85.71t-42.61,85.77c-5.66,11.5-10.92,23.19-16.2,34.87s-10.59,23.36-16.33,34.81a76.67,76.67,0,0,1-8.4,12.67c-3.17,4-6.54,8-9.58,12.08l-4.93-2Z"/><path class="cls-3" d="M3326.42,1087.53c-3.29,20,.81,36.32,9,50.4s20.61,26,33.89,37.09c8.14,6.82,16.68,12.63,26.18,15.75s20,3.54,31.95-.41c8.25-2.72,17.11-3.49,26-4.12s17.92-1.1,26.45-3.23c16.37-4.1,31.68-10.11,44.82-19.11a92.89,92.89,0,0,0,31.84-37,71.4,71.4,0,0,0,5-13.71A46,46,0,0,0,3563,1099c-1.46-19.49-3-39-4.92-58.43s-4-38.88-6.65-58.23c-2.83-21-6.25-41.92-9.8-62.82s-7.23-41.79-10.56-62.73c-3.81-24-7.41-48.07-11.05-72.12s-7.35-48.08-11.37-72.06c-4.08-24.37-8.46-48.69-12.9-73s-9-48.6-13.33-72.92c-6.24-34.75-12.64-69.47-18.92-104.22s-12.44-69.5-18.21-104.33c-4.27-25.75-7.53-51.68-11-77.57s-7.1-51.73-12.14-77.31c-2.81-14.27-2.77-29.54-5-44.22s-6.81-28.76-18.82-40.64a9,9,0,0,1-2-4.75,10.94,10.94,0,0,1,.31-5.36C3403.25,91.1,3410,74,3417.1,57S3431.75,23,3440,6.12c24.3,40.09,45,81.21,63.84,123.4s35.71,85.45,52.35,129.82c-18.61-1.33-28.93-11.2-37.94-22.27s-16.72-23.34-30.11-29.44c2.19,14.37,4.21,28.25,6.24,41.87s4.09,27,6.34,40.3q6.18,36.57,12.64,73.08t12.85,73q7.08,40.45,14.21,80.9t14.16,80.9q6.47,37.18,12.93,74.38t12.62,74.43c3.68,22.23,7.7,44.43,11.37,66.68s7,44.52,9.2,66.91c2.93,29.26,6.16,58.66,8.37,88s3.39,58.78,2.23,88a302.45,302.45,0,0,1-18.47,94.11,272.36,272.36,0,0,1-49.32,83.24,172.77,172.77,0,0,1-78,51.36c-29.83,9.5-62.17,10.73-93,1.78a98.8,98.8,0,0,1-47-29.6c-12.27-13.59-21.74-30.46-30.19-49.32-4,8.66-7.92,17.06-11.76,25.33s-7.62,16.39-11.44,24.5c-8.49,18.08-19.81,32.79-33.87,43.91s-30.87,18.63-50.34,22.32c-6.39,1.21-12.61,1.51-18.88,0s-12.59-4.93-19.18-11.1c-5.57-5.21-13.27-8.62-21.23-12.34s-16.18-7.77-22.8-14.24a101.6,101.6,0,0,1-19.22-25.39,92.7,92.7,0,0,1-9.57-30,23.4,23.4,0,0,0-1.93-6c-.89-2-1.95-4.15-2.87-6.5-8.79,11.75-16.76,23.77-25,35.29s-16.63,22.54-26.35,32.26c-30.17,30.17-63.16,49.86-98.89,57.66s-74.17,3.71-115.24-13.67c-32-13.54-55.89-34-74.63-58.62s-32.33-53.6-43.71-84.19a524.14,524.14,0,0,1-22.08-77.53,656.83,656.83,0,0,1-11.17-80.13c-2.29-28.68-5.8-57.25-9.56-85.81s-7.75-57.1-11-85.7c-2.23-19.42-3.87-38.91-5.57-58.39s-3.47-39-5.92-58.33c-2.94-23.24-6.34-46.42-9.88-69.58s-7.2-46.31-10.66-69.48c-2.82-18.81-7.92-51.52-13.2-84.19s-10.74-65.32-14.27-84c-7-36.83-14-73.67-21.33-110.43s-15-73.45-23.35-110c-3.59-15.81-8.94-31.2-14.6-46.53s-11.64-30.6-16.5-46.15a66.61,66.61,0,0,1-2.83-15.14,48.61,48.61,0,0,1,1.17-15.11c3.57-14,7.69-28,12.23-42.71s9.52-30.3,14.81-47.64c5.63,11.13,11,20.9,15.85,30.15a281.94,281.94,0,0,1,12.77,27c16,40.36,28.3,81.73,38.63,123.61s18.67,84.28,26.69,126.72c6,31.67,14.31,77.25,22.27,122.88s15.58,91.32,20.14,123.23c3.7,25.9,6.42,51.94,9,78s5,52.15,8,78.15c2.23,18.89,5,37.72,7.76,56.54s5.53,37.65,7.74,56.54c2.28,19.42,4.09,38.88,5.85,58.35s3.49,39,5.58,58.38c3.36,31.25,7.2,62.52,13.31,93.23s14.48,60.86,26.91,89.88c12.55,29.29,29,54.85,50.57,75s48.19,34.83,81.09,42.41c24.91,5.74,59.48,3.45,91.39-7s61.16-29,75.44-55.88a330.49,330.49,0,0,1,18.66-30.42c6.72-9.87,13.8-19.54,20.77-29.19,3.47-4.78,6.7-10.39,11.15-14.45s10.12-6.57,18.42-5.15c.33,1.22,1,2.61,1.44,3.89s.74,2.46.3,3.24c-5.31,9.58-8.19,19.06-8.41,28.62s2.22,19.2,7.52,29.09a88.27,88.27,0,0,0,26.47,30.27,109.76,109.76,0,0,0,35.57,16.49c19.21,5.25,37.94,6.27,54.79,1.51s31.82-15.32,43.56-33.23c5.65-8.63,9.76-18.26,13.53-28.12s7.21-20,11.52-29.52c2.73-6.07,5.79-12,8.93-17.87s6.37-11.73,9.46-17.63l4.51,1.38Z"/><path class="cls-3" d="M4220.92,1284.38c-10.65,15.14-21.66,30-32.45,45.09s-21.35,30.24-31.1,45.93c-15.87,25.54-27.82,51.93-34.06,79.61a195.43,195.43,0,0,0,.17,87.39c7,30.86,24.16,51.59,46.68,63s50.38,13.51,78.73,7.13c22.34-5,42.35-14.32,60.95-25.94s35.79-25.57,52.5-39.93c18.33-15.74,36.22-32,53.77-48.69s34.74-33.71,51.66-51a770.42,770.42,0,0,1,155.36-122c56.07-33.58,116.18-60.5,179.59-82.11,13.33-4.54,26.57-9.37,40.25-14.44s27.8-10.4,42.9-15.94c-11.2-8.58-22.22-16.89-33.08-25.15s-21.55-16.49-32.1-24.88q-18.75-14.91-37.24-30.13t-36.94-30.5c-17.63-14.61-27.54-31.94-32.08-50.65s-3.73-38.79.09-58.9c4.25-22.36,14.16-40.48,28.51-54.37s33.13-23.53,55.12-28.94a229.55,229.55,0,0,1,51.14-6.67,241.83,241.83,0,0,1,51.95,4.84c44.11,8.86,88.46,16.58,132.76,24.52s88.56,16.07,132.48,25.73c51.58,11.35,102.92,23.84,154.18,36.67s102.45,26,153.73,38.71a15.34,15.34,0,0,1,4.76,2.4c1.68,1.13,3.55,2.51,5.91,3.95-5.56,12.19-11.12,24.21-16.6,36.17s-10.89,23.88-16.15,35.85a48.3,48.3,0,0,1-12.84,17.84c-5.38,4.59-11.94,7.92-19.93,10.29Q5363.19,1156,5307,1173.37t-112.41,34.55q-48,14.65-96,29.31t-96.22,28.66c-10.36,3-18.14,7.13-22.07,14.14s-4,16.89,1,31.43c-5.61-4.68-9.52-8.43-12.76-11.31s-5.78-4.89-8.67-6.1a96.26,96.26,0,0,0-12.26-4.43c-4.21-1.09-8.33-1.52-11.73-.39-46.86,15.58-94,30.5-140.42,47.29S4703.33,1372,4659.37,1395a598.16,598.16,0,0,0-66.86,40.53,478.58,478.58,0,0,0-60.43,50.21q-37.77,37.14-76.6,73.22t-78.58,71.09c-14.86,13.1-30.31,25.68-47,36.4s-34.52,19.57-54.21,25.19c-31.5,9-62,8.35-89.62-1.39s-52.41-28.6-72.48-56c-15.07-20.59-23-42.76-26.37-65.9s-2.14-47.23,1.1-71.67a376.88,376.88,0,0,1,14.08-64.87,259.66,259.66,0,0,1,27.43-59.8,448.43,448.43,0,0,1,31.21-42.84c11.17-13.79,22.84-27.24,34.27-40.76,2.28-2.7,6-4.18,10.09-5.34s8.58-2,12.41-3.38l1.54,2.36Zm731-91.41,166.21-51.78L5282.31,1090l-.25-3.59-.24-3.6c-17.91-4.06-35.78-8.26-53.67-12.37s-35.81-8.14-53.79-11.82q-40.09-8.19-80.28-15.92t-80.4-15.31c-19.47-3.67-38.92-7.62-58.42-11.25s-39-6.95-58.66-9.36c-17.65-2.16-35.43-3.5-53.25-4.34s-35.67-1.19-53.48-1.37c-4.93-.05-9.88,1.79-15.22,4.3s-11.07,5.69-17.56,8.31c33.71,31.19,72.07,55,107.19,81.59S4931.24,1151.07,4951.92,1193Z"/><path class="cls-3" d="M1689.53,1279c-27.93,9.52-56.09,16-84.46,18.49a269,269,0,0,1-85.76-6c-21.61-5.12-38.94-19.3-49.6-38.33s-14.66-42.92-9.59-67.45c5-24.25,12.77-47.26,24.56-67.86a161.11,161.11,0,0,1,48.75-53.39c12.72-8.78,25.93-14.34,39.71-16s28.15.66,43.18,7.59c21.74,10,39.28,23.89,54.13,40.27s27,35.26,38,55.33c6.29,11.5,9.32,17.42,13.74,19.44s10.24.15,22.07-3.93q13.11-4.52,26.08-9.48t25.73-10.4c15.54-6.61,24.54-12.65,29-21s4.27-19.07,1.53-35c-3.08-17.85-5.75-35.77-8.3-53.71s-5-35.91-7.58-53.84c-2.91-20.14-5.71-40.3-8.57-60.45s-5.77-40.28-8.89-60.39q-4.79-30.75-10-61.44T1772.78,740c-4.12-24.37-8.35-48.73-12.54-73.1s-8.34-48.73-12.31-73.13c-3.26-20.08-10.35-60.39-17.38-100.72s-14-80.66-17-100.77q-5-33.45-10-66.89t-9.77-66.93c-2.25-15.77-4.12-31.62-6.12-47.43s-4.16-31.6-7-47.27a139.39,139.39,0,0,0-6.8-23.41c-2.83-7.7-6-15.35-8.64-23.07a80.88,80.88,0,0,0-3.56-7.54c-1.17-2.5-2-4.85-1.32-6.69,6.13-17.27,12.5-34.45,19.35-51.59S1693.89,17.21,1701.89.1a1277.89,1277.89,0,0,1,61.17,124.08c18.13,42.06,34.35,84.74,49.66,127.81l-2.93,2-2.93,2c-4.71-3.67-9.56-7.19-14.32-10.81a169.68,169.68,0,0,1-13.76-11.42c-4.09-3.85-7.83-8.07-12.08-12.13a65.53,65.53,0,0,0-15.17-11.16c1.06,9.4,1.92,18.83,2.9,28.25s2.08,18.8,3.6,28.12q7.7,47.06,15.61,94.06t16.22,94c5.07,28.67,14.54,77.49,24,126.31s18.77,97.66,23.62,126.36c4.2,24.86,7.87,49.79,11.46,74.75s7.1,49.92,11,74.83c3.26,20.94,7.13,41.81,10.76,62.7s7,41.8,9.3,62.84a281.24,281.24,0,0,1,1.37,38.79,358.61,358.61,0,0,1-3.42,38.76c-2.15,15.17-4.82,30.38-8.17,45.42a431,431,0,0,1-12.29,44.41c-8.76,25.92-21.54,48.54-38.68,67.21s-38.62,33.41-64.79,43.54a32.56,32.56,0,0,0-5.83,3.12c-1.9,1.23-3.83,2.58-5.91,3.83-1.9,22.77-3.41,45.78-7.3,68.27s-10.18,44.45-21.63,65.15c-5.53,10-11.36,20.08-17.77,29.7a193.06,193.06,0,0,1-21.26,26.93c-25,26-50.2,51.88-76.75,76.24s-54.52,47.24-85.15,67.3c-21.54,14.11-43,28.08-65.06,40.88s-44.79,24.42-68.88,33.83c-31.71,12.38-63.62,20.34-95.53,21.67a210.28,210.28,0,0,1-95.55-18,153.8,153.8,0,0,1-61-48.34c-15.45-20.35-26.34-44.41-33.71-70.6-10.55-37.49-13.72-74.84-11.52-112s9.77-74.14,20.71-110.9c2.76-9.26,5.54-18.53,8.45-27.75s6-18.39,9.25-27.47a31.3,31.3,0,0,1,5.1-8.52c2.1-2.7,4.42-5.31,6.37-8.06l2.58,1,2.58,1c-2.15,10.91-4.17,21.84-6.27,32.76s-4.28,21.82-6.74,32.66c-6.11,26.91-9.92,53.69-9.41,80.26s5.33,53,16.48,79.1c12.76,29.9,30.84,53.87,53.56,71s50.07,27.52,81.37,30.19c25,2.14,49.12-.29,72.62-5.81s46.38-14.14,68.84-24.38a771.39,771.39,0,0,0,108.86-60.9,908.79,908.79,0,0,0,98.48-76.52c10.68-9.49,21.81-18.65,32.55-28.14s21.09-19.31,30.21-30.16c15.17-18.06,24-28.93,26.29-41S1700.83,1301.76,1689.53,1279Zm-165-99.15c15.83,10.17,32.14,13.8,48.88,14.72s33.93-.87,51.51-1.54c-17-23.58-39.72-37.23-59.38-39.8S1529.26,1159.11,1524.52,1179.81Z"/><path class="cls-3" d="M1998.67.1c23.85,42.13,45.29,84,64.88,126.64s37.32,86,53.76,131c-18.13-2.47-29.19-11.29-38.88-22s-18-23.45-30.67-33.67c1.21,7.17,2.17,12.9,3,17.92s1.57,9.31,2.3,13.6q9.77,57.42,19.42,114.87t19.75,114.82c5,28.65,10.53,57.23,15.95,85.82S2119,606.25,2123.76,635c5.09,30.5,9.72,61.08,14.24,91.68s8.94,61.22,13.59,91.8q5.17,34.05,10.56,68.07c3.54,22.69,7.06,45.38,10.41,68.09,1.3,8.77,2.37,17.59,3.3,26.41s1.72,17.68,2.49,26.52c1.06,12.41,2.62,24.86,3.75,37.3a264.93,264.93,0,0,1,1.22,37.21c-.87,17.2-2.57,34.39-4.71,51.53s-4.73,34.26-7.38,51.31a299,299,0,0,1-6.36,29.58c-2.56,9.79-5.43,19.52-8.19,29.24a74.8,74.8,0,0,1-4.92,12.19c-2.06,4.27-4.47,8.92-7,14.5-2.44-3.38-4.69-5.83-6.36-7.86s-2.75-3.63-2.88-5.31c-1.21-15.1-2.05-30.23-2.95-45.36s-1.87-30.24-3.35-45.31c-2.21-22.47-4.68-44.91-7.28-67.35s-5.33-44.84-8.06-67.26q-4-33-8.22-65.88t-8.77-65.81q-4-28.89-8.39-57.73t-9-57.64q-4.87-30.72-10-61.4t-10.34-61.34q-6.16-36.54-12.48-73.07T2034.27,516q-6.09-36.58-12-73.2t-11.8-73.22q-6-37.26-12.07-74.52t-12-74.53c-1.53-9.6-2.65-19.29-3.93-28.93s-2.68-19.27-4.78-28.73a151.17,151.17,0,0,0-6.58-20.84c-2.6-6.86-5.4-13.68-7.75-20.6-1.22-3.6-3.18-7.6-4.57-11.41s-2.21-7.44-1.14-10.31c5.93-15.92,12.34-31.67,19.18-48S1991,18.41,1998.67.1Z"/><path class="cls-3" d="M3843.17,1266.87c-1.08-1.77-2.56-3.51-3.81-5.28a11.51,11.51,0,0,1-2.44-5.42c-1.18-13.3-2-26.64-2.9-40s-1.79-26.65-3.1-39.94q-3.59-36.37-7.52-72.71t-8.18-72.64q-3.84-33-8-65.92t-8.74-65.82c-2.68-19.25-5.61-38.46-8.64-57.66s-6.15-38.38-9.24-57.57q-4.83-30.06-9.79-60.11t-10-60.07c-4.18-24.8-8.49-49.57-12.77-74.35s-8.53-49.56-12.62-74.37q-6-36.6-11.73-73.25t-11.52-73.29q-5.82-36.63-11.68-73.26T3688.78,222c-1.52-9.59-2.76-19.25-4.16-28.87s-3-19.19-5.18-28.62a170.93,170.93,0,0,0-7.16-22c-2.76-7.25-5.65-14.47-7.89-21.86-1.19-3.92-2.65-8.3-3.49-12.54s-1.08-8.37.17-11.79c5.59-15.29,11.66-30.39,18.19-46.16S3692.77,18,3700.17,0c23.71,42,45.24,83.69,64.79,126.11s37.14,85.56,52.94,130.35c-10.15.44-17.43-2.21-23.32-6.2s-10.39-9.33-15-14.27c-4.39-4.74-8.48-9.76-12.49-14.85s-7.94-10.26-12-15.31l-2.48,1.1-2.47,1.09c1.05,7.62,2,15.25,3,22.87s2.07,15.24,3.4,22.8q7.83,44.28,15.81,88.52t16.06,88.48c5.23,28.63,10.68,57.21,16,85.81s10.64,57.21,15.5,85.89c5,29.62,9.66,59.3,14.2,89s9,59.4,13.67,89.08c3.44,21.8,7.21,43.55,10.84,65.32s7.1,43.56,9.92,65.44c2.61,20.25,4.54,40.58,6.31,60.94s3.37,40.74,5.34,61.08c.68,7,2.05,14.09,3.18,21.12a108.55,108.55,0,0,1,1.77,21,733.13,733.13,0,0,1-8.54,89.61,556.13,556.13,0,0,1-21.26,87.52,28.52,28.52,0,0,1-2.86,5.85c-1.17,1.88-2.48,3.69-3.73,5.48a5.07,5.07,0,0,1-2.19,1.49C3845.64,1265.77,3844.46,1266.2,3843.17,1266.87Z"/><path class="cls-3" d="M2324.61,1123.57c3.45,11.3,8.14,19.66,13.89,26.29s12.54,11.51,20.21,15.85c11.5,6.52,22.57,14.1,34.32,19.84s24.2,9.66,38.45,8.83a136.5,136.5,0,0,0,15.08-1.57,57.6,57.6,0,0,0,14.28-4.16c21.62-9.89,43.12-20.05,64.58-30.3s42.89-20.58,64.35-30.82l2.88,2.31,2.88,2.3c-4.73,12.88-9.3,25.82-14,38.71s-9.58,25.71-14.9,38.34c-1.14,2.72-3.82,5-7,6.88s-6.86,3.55-10,5.07q-25.66,12.42-51.38,24.73t-51.65,24.18a553.8,553.8,0,0,0-73.2,40.29,520.83,520.83,0,0,0-66,51.2,41.19,41.19,0,0,1-8.67,5.69c-3.4,1.79-7.32,3.69-11.84,6.27,1.92-21,10.09-37.8,19.84-53.35s21.09-29.84,29.33-45.78a200.88,200.88,0,0,1-40.53-30.4,287.7,287.7,0,0,1-32.91-38.27c-4.88-6.67-7.33-13.19-7.75-19.75s1.21-13.13,4.5-19.93c2.68-5.54,5.15-11.4,8-17a64.1,64.1,0,0,1,10.09-15.16c21.06-22.36,41.64-45.29,64-66.17s46.57-39.74,74.85-53.94c9.09-4.56,18-7.81,26.71-8.47a39.59,39.59,0,0,1,26,7.08,31.6,31.6,0,0,1,13.8,21.19c1.55,8.15.68,17-.73,25.18a148.33,148.33,0,0,1-15.2,44.56c-7.39,14.06-17.07,27.45-28.9,40.57-1.64-4.34-3-7.86-4.16-11s-2.21-5.84-3.2-8.57c-5.23-14.34-9.62-22.41-16.51-25.63s-16.27-1.58-31.47,3.48c-9.5,3.16-18.9,6.61-28.47,10.22S2334.8,1119.78,2324.61,1123.57Z"/><path class="cls-3" d="M4071.87,730.7l-54.1-30.51-53.4-30.1c-8.69,15.49-17,30.37-25.3,45.1l-24.79,44.21,54.17,31L4023,821.68l25.23-47Z"/><path class="cls-3" d="M4022.45,821.68l-25.3,45.11L3972.35,911l54.18,31,54.53,31.24,25.23-47c8.07-15,15.86-29.52,23.65-44l-54.1-30.5Z"/><path class="cls-3" d="M464.62,1478.29c-17.71-10.8-34.46-21-50.92-31l-49.12-29.94-20.95,37.21-21.57,38.28-53.12-32.52-53.29-32.63,24-43.52,22.79-41.32L312,1373l51,31.07c8.21-14.2,16-27.69,23.68-40.91l22.78-39.35,53.13,32.74,53.1,32.73q-13,22.56-25.67,44.72Z"/><path class="cls-3" d="M725.72,649.37l25.11-44.14L776.9,559.4l52.49,30.23L883.79,621,859.35,665.9l-24.58,45.18-53.83-30.46Z"/><path class="cls-3" d="M3144.15,897.48l-54.53-31.24-54.18-31,24.8-44.21,25.3-45.11L3138.93,776l54.1,30.5-23.65,44Z"/><path class="cls-3" d="M3498,1434.89l-25.45,45.29L3447.34,1525l-53.84-31-53.42-30.74,24.27-44.28,25-45.52,53.84,30.41C3461.16,1414.08,3479.34,1424.34,3498,1434.89Z"/><g class="cls-4"><path class="cls-3" d="M437.58,619.67c-10.41,23.68-11.59,44-8.07,62.67s11.75,35.71,20.17,52.82c2.12,4.31,5.59,9.12,7.18,14.06s1.29,10-4.12,14.84a23.85,23.85,0,0,1-16.09,6.14c-5.73.07-11.67-1.55-17.35-4a50.09,50.09,0,0,1-23.85-20.57c-5.28-8.7-8.28-19-10.2-29.94-1.53-8.69-2.76-17.49-4.27-26.21a193.16,193.16,0,0,0-6-25.69c-1.5-4.71-2.26-11.63-4.84-16.71s-7-8.31-15.71-5.65c-7.69,2.33-9.87,7.5-10,13.34s1.83,12.35,2.41,17.37c1.13,9.88,3.78,19.6,6.39,29.32s5.15,19.44,6.08,29.33c2,21.21-3.35,36.19-14.22,43.9s-27.24,8.13-47.29.24a62.74,62.74,0,0,1-7-20,60.75,60.75,0,0,1,.37-21.15,298.41,298.41,0,0,0,4.56-29.8,111.6,111.6,0,0,0-1-30.06c-.92-5-1.25-11.33-3-16.24s-5-8.43-11.79-7.82c-5.87.52-9.84,5-11.92,10.42s-2.24,11.61-.5,15.58c8.29,18.95,8.42,38.23,7.34,57.52s-3.39,38.58,0,57.55c1.92,12,6.32,21.84,13.28,28.86s16.45,11.21,28.59,11.9c16.83,1,27.56-5.66,35.66-15.72S366,792.4,372.3,779.61l5.86,6.79,4.65,5.41c8.18,9.53,17.15,17.66,27.33,22.39s21.57,6.06,34.59,2c12.33-3.84,18.92-11.51,22.85-20.88s5.17-20.44,6.81-31.08c4-25.78-2.14-48.6-10.78-71.64S443.77,646.31,437.58,619.67Z"/><path class="cls-3" d="M2404.73,485.53c0,.12,0,.24,0,.37a1.61,1.61,0,0,0,.07.37l-4.69-4.33c-1.56-1.44-3.1-2.89-4.63-4.33l0,0,0,0q-4.15-2.05-8.24-4.1t-8.18-4.15q-12.73-5.94-25.49-11.92T2328,445.44q7.8-30.31,15.55-60.67t15.55-60.68c16.46-65,11.53-122.43-9.07-174.25S2293.16,51.79,2246.93,9.06C2239,1.72,2232.76-1,2227.54.5s-9.45,7.24-13.45,16.81-5.11,17.51-3.22,24.8,6.77,14,14.77,21.4c27.55,25.36,53.21,52.11,73.44,82.26s35,63.7,40.89,102.68c3.63,34.19-.57,67.33-6.93,100.18s-14.84,65.42-19.79,98.46c-.46,1.11-9.14,20.54-17.88,44.89s-17.55,53.64-18.25,74.47c-.62,19.26,6.16,35.33,17.93,46.2s28.51,16.53,47.81,15c34.07-2.72,58.71-21.57,70.25-48.08S2423.08,518.89,2404.73,485.53ZM2319.35,566c-17.53-7.76-22.35-19.39-21.22-32.32s8.23-27.16,14.54-40.11c11.88,11.06,26,17.61,40.56,23.47s29.39,11,42.67,19.26c-7.88,17.57-19.94,28.13-33.57,32.73S2333.5,572.31,2319.35,566Z"/><path class="cls-3" d="M3044.94,242.52c-6.94-44.27-22.2-83.84-43.67-119.85s-49.14-68.45-80.91-98.47c-4.91-4.65-10.09-12.56-15.78-17.79s-11.87-7.81-18.79-1.78a40.08,40.08,0,0,0-13.24,26.5,48.86,48.86,0,0,0,7.87,31.31,88.32,88.32,0,0,0,12.9,15.32A175.36,175.36,0,0,0,2908.88,91c73.37,56.21,99.17,133.63,107.41,200.23s-1.1,122.37,2,135.28c11.44-17.22,19-57.28,23.29-96S3046.79,254.37,3044.94,242.52Z"/><path class="cls-3" d="M3018.37,426.77l0-.15,0-.15c-.09.13-.16.26-.24.39a4.1,4.1,0,0,1-.23.4l.25-.24Z"/><path class="cls-3" d="M2674.41,1323.31l-1.31-1.2-1.3-1.19c-70.86,35.93-140.39,74.16-209.07,113.89s-136.49,81-203.89,122.9c-12,7.48-19.34,17.17-23.49,28.86s-5.16,25.35-4.54,40.77c67-44.85,135.37-85.49,204-124.83s137.37-77.38,205.22-117c12.6-7.36,21.85-15.78,27.63-25.92S2675.69,1337.56,2674.41,1323.31Z"/><path class="cls-3" d="M1598.72,379.77l-1.3-1.19-1.31-1.19c-70.85,35.93-140.39,74.16-209.07,113.89s-136.48,81-203.89,122.9c-12,7.47-19.33,17.17-23.49,28.85s-5.16,25.35-4.54,40.77c67-44.85,135.38-85.49,204-124.83s137.37-77.38,205.22-117c12.6-7.36,21.85-15.77,27.62-25.91S1600,394,1598.72,379.77Z"/><path class="cls-3" d="M1574.37,210.11l-1.3-1.19-1.31-1.19c-70.85,35.93-140.39,74.16-209.07,113.89s-136.49,81-203.89,122.9c-12,7.47-19.33,17.17-23.49,28.86s-5.16,25.35-4.54,40.77c67-44.85,135.38-85.49,204-124.83s137.36-77.38,205.22-117c12.6-7.36,21.84-15.78,27.62-25.92S1575.65,224.37,1574.37,210.11Z"/><path class="cls-3" d="M3674.83,1462.08l-1.31-1.19-1.31-1.19c-70.85,35.93-109.54,57.08-147.37,79.74s-74.8,46.81-142.21,88.74c-12,7.48-19.33,17.18-23.49,28.86s-5.16,25.35-4.53,40.77c67-44.85,104.52-68.41,142.26-90.68s75.68-43.23,143.53-82.88c12.6-7.36,21.85-15.77,27.63-25.91S3676.11,1476.34,3674.83,1462.08Z"/><path class="cls-3" d="M5271.51,725.38c0-1.16.05-2.32.07-3.48s.05-2.31.08-3.47a34.41,34.41,0,0,0,4.08-11.4c.84-4,1.48-8,2.93-11.78,2.73-7.15,6.07-11.74,10.53-13.83s10-1.68,17.16,1.15a81.21,81.21,0,0,1,28.28,19.22c7.9,8.06,14.52,17.43,20.63,27.17a426.35,426.35,0,0,1,22.37,40,317.83,317.83,0,0,1,17.18,42.58,19.87,19.87,0,0,0,1.35,3c.65,1.26,1.53,2.92,2.76,5.43,1-14.65,2.19-28.4,3.19-41.72s1.85-26.21,2.32-39.1c.27-7.3,1.88-14.39,3.28-21.49s2.58-14.22,2-21.56l-.14.08-.15.09c1.5.56,2.06.18,2.33-.49s.22-1.66.5-2.32a5.82,5.82,0,0,0,2-3.4,18.82,18.82,0,0,0,.19-3.92l1.88-3.69c.63-1.23,1.26-2.46,1.88-3.69l1-2.1,1-2.1c10.26-12.88,18-19.49,26.33-20.09s17.09,4.77,29.42,15.88a25.25,25.25,0,0,1,7.28,11.31,44.11,44.11,0,0,1,1.79,12.91,67.93,67.93,0,0,1-1.36,12.08,48.65,48.65,0,0,0-.91,12.23,5.55,5.55,0,0,1-.82,3.54,4.8,4.8,0,0,1-3,2,3.24,3.24,0,0,1-3.3-.91,20.17,20.17,0,0,1-2.08-3,44.88,44.88,0,0,0-8.65-9.46,86.89,86.89,0,0,0-10.47-7.33c-6.67-4.06-12.64-5.15-17.8-3.44s-9.51,6.23-12.93,13.38c-4.29,9-6.31,18.32-7.46,27.81s-1.43,19.11-2.26,28.63c-1.15,13.22-1.72,26.51-2.81,39.73s-2.73,26.4-6,39.39c-.35,1.39-.62,2.79-.9,4.2s-.56,2.81-.94,4.19a37.43,37.43,0,0,1-2.5,7.67,7.66,7.66,0,0,1-6.25,4.38,7.26,7.26,0,0,1-7-2.88c-1.59-2-2.62-4.66-3.68-7.08-4.75-10.84-9.44-21.71-14.16-32.57s-9.49-21.69-14.41-32.46A96,96,0,0,0,5349.5,784c-2.17-3.48-4.44-6.9-6.59-10.37a25.22,25.22,0,0,0-1.95-3,5.09,5.09,0,0,0-3.14-1.87c-11.86-1.95-21.81-7.56-31.41-13.86s-18.85-13.27-29.3-17.95a8.49,8.49,0,0,1-4.4-4.73A18.42,18.42,0,0,1,5271.51,725.38Z"/><path class="cls-3" d="M4896.74,1553.58c0-1.15.05-2.31.08-3.47s.05-2.31.07-3.47a34.41,34.41,0,0,0,4.08-11.4,78.92,78.92,0,0,1,2.93-11.78c2.73-7.15,6.08-11.74,10.53-13.83s10-1.68,17.16,1.15a81.25,81.25,0,0,1,28.29,19.22c7.89,8,14.51,17.43,20.62,27.17a427.45,427.45,0,0,1,22.37,40,317.57,317.57,0,0,1,17.18,42.58,20.36,20.36,0,0,0,1.35,3c.65,1.26,1.53,2.92,2.76,5.42,1.05-14.64,2.19-28.4,3.19-41.72s1.85-26.2,2.32-39.1c.27-7.29,1.89-14.39,3.29-21.49s2.58-14.21,2-21.55l-.14.08-.14.08c1.49.56,2.06.19,2.32-.49s.22-1.65.5-2.32a5.77,5.77,0,0,0,2-3.39,18.16,18.16,0,0,0,.19-3.92c.63-1.23,1.26-2.46,1.88-3.69s1.26-2.46,1.88-3.69l1-2.1,1-2.1c10.27-12.88,18-19.49,26.33-20.1s17.09,4.78,29.42,15.89a25.19,25.19,0,0,1,7.28,11.31,44.07,44.07,0,0,1,1.79,12.91,67.93,67.93,0,0,1-1.36,12.08,48.62,48.62,0,0,0-.91,12.23,5.49,5.49,0,0,1-.82,3.54,4.8,4.8,0,0,1-3,2,3.23,3.23,0,0,1-3.3-.92,20.29,20.29,0,0,1-2.08-3,44.64,44.64,0,0,0-8.65-9.46,85.77,85.77,0,0,0-10.47-7.33c-6.67-4.07-12.64-5.15-17.8-3.44s-9.51,6.23-12.93,13.38c-4.29,9-6.31,18.32-7.46,27.81s-1.43,19.11-2.26,28.62c-1.15,13.23-1.72,26.52-2.81,39.74s-2.72,26.4-6,39.38c-.35,1.39-.63,2.8-.9,4.21s-.57,2.81-.94,4.19a38.05,38.05,0,0,1-2.5,7.67,7.7,7.7,0,0,1-6.26,4.38,7.25,7.25,0,0,1-7-2.89c-1.58-2-2.62-4.65-3.68-7.07-4.75-10.84-9.43-21.72-14.16-32.57s-9.49-21.69-14.41-32.46a95.4,95.4,0,0,0-5.89-10.7c-2.16-3.47-4.44-6.89-6.58-10.37a24.75,24.75,0,0,0-2-3,5,5,0,0,0-3.14-1.87c-11.86-2-21.81-7.56-31.41-13.86s-18.85-13.27-29.3-17.95a8.49,8.49,0,0,1-4.4-4.73A18.48,18.48,0,0,1,4896.74,1553.58Z"/><path class="cls-3" d="M3893.58,76.55c0-1.23.05-2.46.08-3.69s.05-2.46.07-3.69c2.36-3.77,3.45-7.91,4.35-12.13s1.57-8.49,3.11-12.53c2.9-7.6,6.46-12.48,11.2-14.7S3923,28,3930.64,31a86.43,86.43,0,0,1,30.09,20.44c8.39,8.57,15.43,18.54,21.93,28.89a455.3,455.3,0,0,1,23.8,42.58,340,340,0,0,1,18.27,45.28,20.27,20.27,0,0,0,1.43,3.22c.69,1.34,1.63,3.11,2.94,5.77,1.11-15.57,2.33-30.2,3.39-44.37s2-27.87,2.47-41.59c.28-7.76,2-15.3,3.49-22.85s2.75-15.12,2.1-22.93l-.15.09-.15.09c1.59.59,2.19.2,2.47-.52s.24-1.77.54-2.47a6.2,6.2,0,0,0,2.09-3.61,19.17,19.17,0,0,0,.2-4.17c.67-1.31,1.34-2.62,2-3.93s1.34-2.61,2-3.92l1.11-2.23,1.11-2.24c10.91-13.7,19.18-20.72,28-21.37s18.19,5.08,31.29,16.89a26.77,26.77,0,0,1,7.75,12,46.6,46.6,0,0,1,1.9,13.74,72.76,72.76,0,0,1-1.44,12.84,51.54,51.54,0,0,0-1,13,5.81,5.81,0,0,1-.88,3.76,5.11,5.11,0,0,1-3.18,2.12,3.46,3.46,0,0,1-3.51-1,20.93,20.93,0,0,1-2.21-3.17,47.75,47.75,0,0,0-9.2-10.06,91.82,91.82,0,0,0-11.14-7.79c-7.09-4.33-13.44-5.48-18.93-3.66s-10.12,6.63-13.76,14.22c-4.56,9.55-6.7,19.49-7.93,29.59s-1.52,20.32-2.4,30.44c-1.23,14.07-1.83,28.2-3,42.27s-2.89,28.07-6.38,41.88c-.37,1.48-.66,3-1,4.47s-.59,3-1,4.46c-.75,2.73-1.37,5.74-2.67,8.16a8.18,8.18,0,0,1-6.65,4.66,7.73,7.73,0,0,1-7.41-3.07c-1.69-2.11-2.78-4.95-3.91-7.52-5.06-11.53-10-23.1-15.06-34.65s-10.1-23.07-15.33-34.52a101,101,0,0,0-6.27-11.38c-2.3-3.69-4.72-7.33-7-11a27.93,27.93,0,0,0-2.08-3.21,5.34,5.34,0,0,0-3.33-2c-12.62-2.08-23.21-8-33.42-14.74s-20-14.12-31.16-19.09a9.09,9.09,0,0,1-4.68-5A19.65,19.65,0,0,1,3893.58,76.55Z"/><path class="cls-3" d="M3078,76.55c0-1.23.05-2.46.08-3.69s0-2.46.08-3.69c2.35-3.77,3.45-7.91,4.34-12.13s1.58-8.49,3.12-12.53c2.9-7.6,6.46-12.48,11.19-14.7S3107.43,28,3115,31a86.33,86.33,0,0,1,30.09,20.44c8.4,8.57,15.44,18.54,21.93,28.89a455.3,455.3,0,0,1,23.8,42.58,338.68,338.68,0,0,1,18.27,45.28,21.42,21.42,0,0,0,1.44,3.22c.69,1.34,1.63,3.11,2.93,5.77,1.11-15.57,2.33-30.2,3.39-44.37s2-27.87,2.48-41.59c.28-7.76,2-15.3,3.49-22.85s2.74-15.12,2.1-22.93l-.15.09-.16.09c1.59.59,2.2.2,2.48-.52s.23-1.77.53-2.47a6.14,6.14,0,0,0,2.09-3.61,19.81,19.81,0,0,0,.21-4.17c.66-1.31,1.33-2.62,2-3.93s1.33-2.61,2-3.92l1.1-2.23,1.11-2.24c10.91-13.7,19.18-20.72,28-21.37s18.18,5.08,31.29,16.89a26.94,26.94,0,0,1,7.75,12,47.27,47.27,0,0,1,1.9,13.74,71.85,71.85,0,0,1-1.45,12.84,52.48,52.48,0,0,0-1,13,5.8,5.8,0,0,1-.87,3.76,5.13,5.13,0,0,1-3.19,2.12,3.46,3.46,0,0,1-3.51-1,21.68,21.68,0,0,1-2.21-3.17,47.48,47.48,0,0,0-9.2-10.06,91,91,0,0,0-11.14-7.79c-7.09-4.33-13.44-5.48-18.93-3.66s-10.12,6.63-13.75,14.22c-4.57,9.55-6.71,19.49-7.93,29.59s-1.53,20.32-2.41,30.44c-1.22,14.07-1.82,28.2-3,42.27s-2.9,28.07-6.38,41.88c-.38,1.48-.66,3-1,4.47s-.6,3-1,4.46c-.74,2.73-1.37,5.74-2.66,8.16a8.19,8.19,0,0,1-6.65,4.66,7.74,7.74,0,0,1-7.42-3.07c-1.68-2.11-2.78-4.95-3.91-7.52-5.06-11.53-10-23.1-15.06-34.65s-10.09-23.07-15.32-34.52a104.28,104.28,0,0,0-6.27-11.38c-2.3-3.69-4.72-7.33-7-11a26.73,26.73,0,0,0-2.09-3.21,5.32,5.32,0,0,0-3.33-2c-12.62-2.08-23.2-8-33.41-14.74S3095,93.85,3083.93,88.88a9.08,9.08,0,0,1-4.69-5A19.86,19.86,0,0,1,3078,76.55Z"/><path class="cls-3" d="M1113.22,76.55c0-1.23,0-2.46.07-3.69s.06-2.46.08-3.69c2.36-3.77,3.45-7.91,4.34-12.13s1.58-8.49,3.12-12.53c2.9-7.6,6.46-12.48,11.2-14.7s10.65-1.8,18.25,1.22a86.29,86.29,0,0,1,30.08,20.44c8.4,8.57,15.44,18.54,21.94,28.89a452.94,452.94,0,0,1,23.79,42.58,338.73,338.73,0,0,1,18.28,45.28,20.27,20.27,0,0,0,1.43,3.22c.69,1.34,1.63,3.11,2.94,5.77,1.11-15.57,2.32-30.2,3.39-44.37s2-27.87,2.47-41.59c.28-7.76,2-15.3,3.49-22.85s2.74-15.12,2.1-22.93l-.15.09-.15.09c1.59.59,2.19.2,2.47-.52s.24-1.77.54-2.47a6.13,6.13,0,0,0,2.08-3.61,18.55,18.55,0,0,0,.21-4.17l2-3.93c.67-1.3,1.34-2.61,2-3.92l1.11-2.23,1.1-2.24c10.92-13.7,19.19-20.72,28-21.37s18.19,5.08,31.29,16.89a26.94,26.94,0,0,1,7.75,12,46.6,46.6,0,0,1,1.9,13.74,72.76,72.76,0,0,1-1.44,12.84,52,52,0,0,0-1,13,5.74,5.74,0,0,1-.87,3.76,5.1,5.1,0,0,1-3.19,2.12,3.44,3.44,0,0,1-3.5-1,21.72,21.72,0,0,1-2.22-3.17,47.48,47.48,0,0,0-9.2-10.06,91.71,91.71,0,0,0-11.13-7.79c-7.09-4.33-13.45-5.48-18.94-3.66s-10.11,6.63-13.75,14.22c-4.56,9.55-6.7,19.49-7.93,29.59s-1.52,20.32-2.4,30.44c-1.23,14.07-1.83,28.2-3,42.27s-2.89,28.07-6.38,41.88c-.37,1.48-.66,3-1,4.47s-.6,3-1,4.46c-.74,2.73-1.37,5.74-2.66,8.16a8.18,8.18,0,0,1-6.65,4.66,7.73,7.73,0,0,1-7.41-3.07c-1.69-2.11-2.79-4.95-3.91-7.52-5.06-11.53-10-23.1-15.07-34.65s-10.09-23.07-15.32-34.52a101,101,0,0,0-6.27-11.38c-2.3-3.69-4.72-7.33-7-11a27.93,27.93,0,0,0-2.08-3.21,5.34,5.34,0,0,0-3.34-2c-12.61-2.08-23.2-8-33.41-14.74s-20-14.12-31.16-19.09a9.09,9.09,0,0,1-4.68-5A19.65,19.65,0,0,1,1113.22,76.55Z"/><path class="cls-3" d="M1460.81,644.72c0-1.23,0-2.46.08-3.7s0-2.46.07-3.69c2.36-3.77,3.45-7.91,4.34-12.12s1.58-8.5,3.12-12.53c2.9-7.61,6.46-12.49,11.2-14.71s10.65-1.79,18.25,1.22A86.31,86.31,0,0,1,1528,619.64c8.39,8.56,15.43,18.53,21.93,28.89a455.14,455.14,0,0,1,23.8,42.57A339.61,339.61,0,0,1,1592,736.39a20.62,20.62,0,0,0,1.43,3.21c.69,1.34,1.63,3.11,2.94,5.77,1.11-15.57,2.33-30.2,3.39-44.37s2-27.87,2.47-41.59c.28-7.76,2-15.3,3.49-22.85s2.75-15.12,2.1-22.93l-.15.09-.15.09c1.59.59,2.19.2,2.47-.52s.24-1.77.54-2.47a6.2,6.2,0,0,0,2.09-3.61,19.17,19.17,0,0,0,.2-4.17l2-3.92c.67-1.31,1.34-2.62,2-3.93l1.11-2.23,1.11-2.24c10.91-13.7,19.18-20.72,28-21.37s18.19,5.08,31.29,16.89a26.77,26.77,0,0,1,7.75,12,46.6,46.6,0,0,1,1.9,13.74,72.87,72.87,0,0,1-1.44,12.85,51.47,51.47,0,0,0-1,13,5.84,5.84,0,0,1-.88,3.77,5.15,5.15,0,0,1-3.18,2.12,3.44,3.44,0,0,1-3.51-1,20.44,20.44,0,0,1-2.21-3.17,48,48,0,0,0-9.2-10.06,91.82,91.82,0,0,0-11.14-7.79c-7.09-4.32-13.45-5.48-18.93-3.66s-10.12,6.63-13.76,14.23c-4.56,9.54-6.7,19.49-7.93,29.58s-1.52,20.33-2.4,30.44c-1.23,14.07-1.83,28.2-3,42.27s-2.89,28.07-6.38,41.89c-.37,1.47-.66,3-1,4.47s-.59,3-1,4.45c-.74,2.73-1.36,5.74-2.66,8.16a8.14,8.14,0,0,1-6.65,4.66,7.69,7.69,0,0,1-7.41-3.07c-1.69-2.1-2.79-4.95-3.91-7.52-5.06-11.53-10-23.1-15.06-34.64s-10.1-23.08-15.33-34.53a100.88,100.88,0,0,0-6.27-11.37c-2.3-3.7-4.72-7.34-7-11a27.21,27.21,0,0,0-2.08-3.22,5.39,5.39,0,0,0-3.33-2c-12.62-2.07-23.21-8-33.42-14.74s-20-14.11-31.16-19.09a9.08,9.08,0,0,1-4.68-5A19.69,19.69,0,0,1,1460.81,644.72Z"/><path class="cls-3" d="M2254.78,774.19c0-1.23,0-2.46.08-3.69s0-2.46.08-3.69c2.35-3.77,3.44-7.92,4.34-12.13s1.58-8.49,3.11-12.53c2.9-7.61,6.46-12.48,11.2-14.71s10.65-1.79,18.25,1.22a86.58,86.58,0,0,1,30.09,20.45c8.39,8.57,15.43,18.54,21.93,28.89a455.3,455.3,0,0,1,23.8,42.58,338.94,338.94,0,0,1,18.27,45.28,20.27,20.27,0,0,0,1.43,3.22c.69,1.34,1.63,3.11,2.94,5.77,1.11-15.57,2.33-30.2,3.39-44.37s2-27.87,2.47-41.59c.29-7.76,2-15.3,3.49-22.86s2.75-15.11,2.11-22.92l-.16.09-.15.08c1.59.6,2.19.2,2.47-.52s.24-1.76.54-2.46a6.22,6.22,0,0,0,2.09-3.62,19.07,19.07,0,0,0,.2-4.16c.67-1.31,1.34-2.62,2-3.93l2-3.92,1.1-2.24,1.11-2.23c10.91-13.7,19.18-20.73,28-21.37s18.18,5.08,31.29,16.89a26.83,26.83,0,0,1,7.74,12,46.6,46.6,0,0,1,1.9,13.74,72.86,72.86,0,0,1-1.44,12.84,52,52,0,0,0-1,13,5.8,5.8,0,0,1-.87,3.76,5.13,5.13,0,0,1-3.19,2.12,3.46,3.46,0,0,1-3.51-1,20.93,20.93,0,0,1-2.21-3.17,47.5,47.5,0,0,0-9.2-10.06,91.82,91.82,0,0,0-11.14-7.79c-7.09-4.33-13.44-5.49-18.93-3.66s-10.12,6.62-13.75,14.22c-4.57,9.54-6.71,19.49-7.94,29.58s-1.52,20.33-2.4,30.45c-1.23,14.07-1.83,28.2-3,42.27s-2.9,28.07-6.39,41.88c-.37,1.48-.66,3-.95,4.47s-.6,3-1,4.46c-.75,2.73-1.37,5.73-2.66,8.16a8.18,8.18,0,0,1-6.66,4.65,7.7,7.7,0,0,1-7.41-3.06c-1.68-2.11-2.78-4.95-3.91-7.53-5.06-11.53-10-23.09-15.06-34.64S2349.23,859.41,2344,848a101,101,0,0,0-6.27-11.38c-2.3-3.69-4.72-7.33-7-11a26.77,26.77,0,0,0-2.08-3.22,5.38,5.38,0,0,0-3.33-2c-12.62-2.08-23.2-8.05-33.41-14.74s-20.05-14.12-31.17-19.1a9,9,0,0,1-4.68-5A19.69,19.69,0,0,1,2254.78,774.19Z"/><path class="cls-3" d="M1911.39,1496.82c0-1.23.06-2.47.08-3.7s0-2.46.08-3.69c2.35-3.77,3.45-7.91,4.34-12.12s1.58-8.5,3.12-12.54c2.9-7.6,6.46-12.48,11.19-14.7s10.65-1.79,18.25,1.22a86.22,86.22,0,0,1,30.09,20.45c8.4,8.56,15.44,18.53,21.93,28.89a451.62,451.62,0,0,1,23.8,42.57,337,337,0,0,1,18.27,45.29,21.83,21.83,0,0,0,1.44,3.21c.69,1.34,1.63,3.11,2.94,5.77,1.11-15.57,2.32-30.2,3.38-44.37s2-27.87,2.48-41.59c.28-7.76,2-15.3,3.49-22.85s2.74-15.12,2.1-22.93l-.15.09-.15.09c1.58.59,2.19.2,2.47-.52s.24-1.77.53-2.47a6.14,6.14,0,0,0,2.09-3.61,19.81,19.81,0,0,0,.21-4.17c.66-1.31,1.33-2.62,2-3.92l2-3.93,1.11-2.23,1.1-2.24c10.92-13.7,19.18-20.72,28-21.37s18.18,5.08,31.29,16.89a26.94,26.94,0,0,1,7.75,12,47.27,47.27,0,0,1,1.9,13.74,72,72,0,0,1-1.45,12.85,52.4,52.4,0,0,0-1,13,5.85,5.85,0,0,1-.87,3.77,5.17,5.17,0,0,1-3.19,2.12,3.42,3.42,0,0,1-3.5-1,20.48,20.48,0,0,1-2.22-3.17,47.73,47.73,0,0,0-9.2-10.06,91,91,0,0,0-11.14-7.79c-7.09-4.32-13.44-5.48-18.93-3.66s-10.11,6.63-13.75,14.23c-4.56,9.54-6.71,19.49-7.93,29.58s-1.52,20.33-2.41,30.44c-1.22,14.07-1.82,28.2-3,42.27s-2.9,28.07-6.38,41.89c-.37,1.47-.66,3-1,4.47s-.6,3-1,4.45c-.74,2.73-1.37,5.74-2.66,8.16a8.15,8.15,0,0,1-6.65,4.66,7.72,7.72,0,0,1-7.42-3.07c-1.68-2.1-2.78-5-3.91-7.52-5-11.53-10-23.1-15.06-34.64s-10.09-23.08-15.32-34.53a102.48,102.48,0,0,0-6.27-11.37c-2.3-3.7-4.72-7.34-7-11a26.07,26.07,0,0,0-2.09-3.22,5.36,5.36,0,0,0-3.33-2c-12.61-2.07-23.2-8-33.41-14.74s-20-14.11-31.16-19.09a9,9,0,0,1-4.68-5A19.73,19.73,0,0,1,1911.39,1496.82Z"/><path class="cls-3" d="M3023.72,1435c0-1.23.05-2.46.08-3.69s0-2.46.08-3.69c2.35-3.77,3.44-7.91,4.34-12.13s1.58-8.49,3.11-12.53c2.9-7.6,6.46-12.48,11.2-14.7s10.65-1.79,18.25,1.22a86.43,86.43,0,0,1,30.09,20.44c8.39,8.57,15.43,18.54,21.93,28.89a455.3,455.3,0,0,1,23.8,42.58,339.61,339.61,0,0,1,18.27,45.29,20.62,20.62,0,0,0,1.43,3.21c.69,1.34,1.63,3.11,2.94,5.77,1.11-15.57,2.33-30.2,3.39-44.37s2-27.87,2.47-41.59c.29-7.76,2-15.3,3.49-22.85s2.75-15.12,2.11-22.93l-.16.09-.15.09c1.59.59,2.19.2,2.47-.52s.24-1.77.54-2.47a6.2,6.2,0,0,0,2.09-3.61,19.17,19.17,0,0,0,.2-4.17c.67-1.31,1.34-2.62,2-3.93l2-3.92,1.1-2.23,1.11-2.24c10.91-13.7,19.18-20.72,28-21.37s18.18,5.08,31.29,16.89a26.83,26.83,0,0,1,7.74,12,46.6,46.6,0,0,1,1.9,13.74,72.76,72.76,0,0,1-1.44,12.84,52,52,0,0,0-1,13,5.8,5.8,0,0,1-.87,3.76,5.13,5.13,0,0,1-3.19,2.12,3.46,3.46,0,0,1-3.51-1,21.68,21.68,0,0,1-2.21-3.17,47.75,47.75,0,0,0-9.2-10.06,91.82,91.82,0,0,0-11.14-7.79c-7.09-4.33-13.44-5.48-18.93-3.66s-10.12,6.63-13.75,14.22c-4.57,9.55-6.71,19.49-7.93,29.59s-1.53,20.32-2.41,30.44c-1.23,14.07-1.83,28.2-3,42.27s-2.9,28.07-6.39,41.88c-.37,1.48-.66,3-.95,4.47s-.6,3-1,4.46c-.75,2.73-1.37,5.74-2.66,8.16a8.21,8.21,0,0,1-6.66,4.66,7.73,7.73,0,0,1-7.41-3.07c-1.68-2.11-2.78-5-3.91-7.52-5.06-11.53-10-23.1-15.06-34.65s-10.09-23.07-15.33-34.52a101,101,0,0,0-6.27-11.38c-2.3-3.69-4.72-7.33-7-11a26.65,26.65,0,0,0-2.08-3.21,5.34,5.34,0,0,0-3.33-2c-12.62-2.08-23.2-8-33.41-14.74s-20.05-14.12-31.17-19.09a9.09,9.09,0,0,1-4.68-5A19.65,19.65,0,0,1,3023.72,1435Z"/><path class="cls-3" d="M2835.64,283.69c-2.85,8.72-5.63,17.43-9.34,25.71a82.18,82.18,0,0,1-14.87,23.12c-7.68,8.2-15.64,12.85-24,13.84s-17.18-1.69-26.53-8.18a83.89,83.89,0,0,1-22.72-23.37A101.57,101.57,0,0,1,2725.3,285a217,217,0,0,1-6.72-59.87,328.51,328.51,0,0,1,7.24-59.69c4.9-23.69,10.13-47.33,16-70.82S2754,47.8,2761.29,24.69c1.24-3.94,1.76-8.4,3.37-12.58a19.51,19.51,0,0,1,9.88-11,125.87,125.87,0,0,1-1.27,35.73c-1.91,11.49-4.9,22.62-7.79,33.66-6.17,23.56-11.69,47.14-15.14,71s-4.84,47.92-2.75,72.51a92.74,92.74,0,0,0,28.6,60.5c10.15,9.94,19.39,12.47,27.16,9.42s14.05-11.66,18.29-24c2.15-6.27,3.88-12.7,5.47-19.16s3-13,4.67-19.44c.48-1.93.82-4,1.73-5.53s2.36-2.39,5.08-1.91a3.64,3.64,0,0,1,3.29,3.3c.26,1.58,0,3.44.17,4.95,1,9.3.33,18.43-1,27.51s-3.13,18.11-4.36,27.19l-.54,3.43C2836,281.4,2835.82,282.54,2835.64,283.69Z"/><path class="cls-3" d="M1361.09,1380.22c-2.85,8.72-5.63,17.43-9.34,25.71a82,82,0,0,1-14.88,23.12c-7.67,8.2-15.64,12.86-24,13.84s-17.18-1.69-26.53-8.18a83.89,83.89,0,0,1-22.72-23.37,101.31,101.31,0,0,1-12.85-29.8,216.64,216.64,0,0,1-6.72-59.87,328.51,328.51,0,0,1,7.24-59.69c4.9-23.69,10.13-47.33,16-70.82s12.25-46.83,19.51-69.94c1.24-3.94,1.76-8.4,3.37-12.58a19.51,19.51,0,0,1,9.88-11,125.87,125.87,0,0,1-1.27,35.73c-1.91,11.49-4.91,22.62-7.8,33.66-6.16,23.56-11.68,47.14-15.14,71s-4.84,47.92-2.74,72.51a92.85,92.85,0,0,0,28.59,60.51c10.16,9.93,19.4,12.46,27.17,9.41s14-11.66,18.28-24c2.16-6.27,3.88-12.7,5.48-19.16s3-13,4.66-19.44c.49-1.93.83-4,1.73-5.53s2.37-2.39,5.09-1.91a3.62,3.62,0,0,1,3.28,3.3c.27,1.58,0,3.45.18,5,1,9.29.33,18.42-1,27.5s-3.13,18.11-4.36,27.19c-.18,1.14-.37,2.28-.55,3.43Z"/><path class="cls-3" d="M181.35,1111.15c-4.42,13.51-8.73,27-14.46,39.82s-12.9,25-23,35.8c-11.88,12.69-24.22,19.9-37.2,21.44s-26.6-2.63-41.08-12.67a130,130,0,0,1-35.18-36.2,156.93,156.93,0,0,1-19.9-46.14c-8.08-30.82-11-61.78-10.41-92.7S5,958.71,11.3,928.07C18.88,891.39,27,854.79,36,818.42s19-72.51,30.21-108.3c1.92-6.1,2.73-13,5.22-19.48a30.24,30.24,0,0,1,15.3-17c2.26,19.24,1,37.56-2,55.34s-7.59,35-12.07,52.12c-9.55,36.48-18.1,73-23.44,109.88s-7.5,74.2-4.25,112.28A143.78,143.78,0,0,0,89.28,1097c15.73,15.39,30,19.3,42.06,14.58s21.76-18,28.32-37.17c3.33-9.72,6-19.66,8.48-29.68s4.72-20.09,7.22-30.09c.75-3,1.28-6.25,2.68-8.57s3.66-3.7,7.87-2.95a5.62,5.62,0,0,1,5.09,5.1c.4,2.46,0,5.34.27,7.68,1.62,14.39.51,28.53-1.48,42.59s-4.86,28-6.76,42.1l-.84,5.3Z"/><path class="cls-3" d="M405.65,380.12c1.37,12.67-.27,25-5.56,36.13s-14.27,21.21-27.56,29.38c-11.35,7-25.91,10.28-39.7,9.84s-26.8-4.61-35.05-12.59A47.56,47.56,0,0,1,286,423.77c-2.42-7-3.65-14.41-4.7-21.79-3.23-22.76-2.51-45.14.47-67.28s8.2-44.06,14-65.88q3.47-13.11,6.94-26.2t7.13-26.14c.9-3.22,1.94-6.41,3.07-9.56s2.38-6.28,3.7-9.35a22.54,22.54,0,0,1,3-5.57,4.9,4.9,0,0,1,5.53-1.75,4.44,4.44,0,0,1,3.49,4.59,28.79,28.79,0,0,1-1,6.1c-1.48,7.32-3,14.64-4.61,21.93s-3.39,14.55-5.39,21.74c-1.82,6.52-2.75,12.07-1.15,16.47s5.72,7.64,14,9.54c5.14,1.17,10,3.51,14.81,6.07s9.59,5.33,14.58,7.38c17.09,7,27.89,17.8,34.73,30.93s9.74,28.63,11,45.08c.2,2.58.22,5.16.18,8.32S405.65,375.27,405.65,380.12ZM304.1,317.69c-1.07,6.87-2.15,13.36-3.17,19.67S299,349.8,298.2,355.94c-1.9,15.06,3.06,27.78,12.21,35.81s22.48,11.38,37.32,7.71A73.15,73.15,0,0,0,367,391.55a102.74,102.74,0,0,0,16.78-12.44c3.62-3.26,5.6-6.18,5.74-9.22s-1.56-6.2-5.29-9.91c-11-11-23.66-18.84-37.22-25.3S318.93,323.13,304.1,317.69Z"/><path class="cls-3" d="M2718.52,599.54c3.17-14.7,6-28.43,10.81-40.79s11.62-23.34,22.73-32.55c18.73-15.53,39.05-28.24,60.18-39.45s43.08-20.92,65.05-30.46c57.33-24.9,167.73-70,268.72-110.57s192.55-76.5,212.2-83.05c1.9-.63,3.84-1.11,6.21-1.65s5.15-1.14,8.74-2c-6.51,10-12.47,19.25-18.22,28.07s-11.31,17.23-17,25.53a10.85,10.85,0,0,1-4.31,3.31,51.24,51.24,0,0,1-5.54,2.14c-36.88,12.69-113.14,42.82-188.2,73.49s-148.91,61.88-181,76.72c-35.14,16.27-69.82,33.55-104.32,51.22s-68.81,35.72-103.22,53.54c-5.37,2.77-10.19,6.62-15.36,11.15S2725.31,594,2718.52,599.54Z"/><path class="cls-3" d="M4581.76,857.83c3.44-16,6.51-30.87,11.73-44.28s12.62-25.34,24.68-35.35c20.33-16.86,30.11-23.84,40.78-29.19s22.21-9.09,46.05-19.44c62.25-27,124.44-54.24,186.79-81S5016.68,595.4,5079.61,570c42.89-17.29,62.14-25.63,81.59-33.49s39.07-15.24,82.73-30.61c21.21-7.46,42.52-14.65,63.86-21.74s42.72-14.1,64.05-21.21a68.21,68.21,0,0,1,6.74-1.79c2.57-.59,5.6-1.24,9.49-2.18-7.07,10.85-13.54,20.9-19.79,30.48s-12.27,18.71-18.46,27.72a11.74,11.74,0,0,1-4.68,3.59,53.74,53.74,0,0,1-6,2.32c-40,13.78-56,19.72-71.83,25.89s-31.62,12.57-71.32,27.27c-32,11.86-63.69,24.74-95.24,37.91s-63,26.65-94.59,39.69c-35.48,14.65-71.21,28.77-106.77,43.25s-70.95,29.32-105.75,45.44c-38.16,17.66-63.53,29.61-88.7,42s-50.14,25.15-87.51,44.49c-5.82,3-11.05,7.19-16.67,12.12S4589.13,851.78,4581.76,857.83Z"/><path class="cls-3" d="M5307.41,1380.13c-17.76-4-34.8-7.07-50.4-4.83s-29.73,9.74-41.69,26.81c-.84-1.2-1.58-2.06-2.1-2.71s-.81-1.12-.76-1.53c3.43-28.24,18.24-50,38.85-62.16s47-14.59,73.66-4.15c6.48,2.54,10.08,6.48,12,11.2s2.2,10.21,2,15.85a64,64,0,0,1-7.52,27.67,110.33,110.33,0,0,1-16.83,23.16q-9.06,9.9-18.72,19.31t-19.81,18.2a81.46,81.46,0,0,0-15.51,18,99.42,99.42,0,0,0-10,21.44c-1.33,3.94-1.41,7.24-.38,10.16s3.14,5.48,6.2,7.93a71.8,71.8,0,0,0,28.49,13.71c10.07,2.42,20.63,3,31.43,2.65,28-.89,54.55-6.88,80.25-15.56s50.59-20,75.41-31.63a21.35,21.35,0,0,1,6.34-1.62c2.23-.29,4.53-.45,6.71-.83-.93,2.08-1.64,4.35-2.48,6.51a19,19,0,0,1-3.25,5.84,270.8,270.8,0,0,1-50.21,44.11,306.92,306.92,0,0,1-58.67,31.12c-16.41,6.6-33.49,11.64-50.94,13.71a130.16,130.16,0,0,1-53.17-4.23,90,90,0,0,1-14.08-5.62,124.26,124.26,0,0,1-13.19-7.62,35.5,35.5,0,0,1-13.62-15.64,31.85,31.85,0,0,1-1.26-20.5c5.83-23.16,12.29-46,22.49-66.85s24.13-39.58,44.91-54.53a54.06,54.06,0,0,0,6.44-5.6c2-2,4-4.12,6-6.14a8.69,8.69,0,0,0,1.42-2.1C5306,1382.8,5306.53,1381.65,5307.41,1380.13Z"/><path class="cls-3" d="M4420,675.63c2.55-10.29,4.19-21.08,6.42-31.55s5.08-20.59,10-29.56c4-7.2,10.14-13.77,17.23-19.48a123.83,123.83,0,0,1,22.87-14.37q39.32-19.26,79.15-37.51t80.17-35.32C4660,497.62,4684.42,488,4709,478.66s49.17-18.46,73.74-27.68q33.33-12.51,66.77-24.72t67.09-23.83c18-6.23,73.15-24.16,133.23-43.64s125.13-40.52,163.05-52.94c4.93-1.62,9.77-3.49,14.62-5.33s9.7-3.68,14.64-5.23a30.32,30.32,0,0,1,7-1.13c2.36-.11,4.34.12,4.71.88a21.5,21.5,0,0,1,1.95,7,12.82,12.82,0,0,1-.85,6.8c-4.38,8.92-8.35,17.54-14.23,24.79S5227,346.74,5215,350.21c-30.59,8.86-103,33.26-177.81,59.14s-152.14,53.23-192.57,68q-61,22.29-121.77,45.49t-121,47.54c-23.37,9.46-46.4,19.81-69.26,30.55s-45.56,21.89-68.26,32.93c-12.15,5.91-18.15,11.28-18.19,17s5.89,11.84,17.61,19.23c10.05,6.33,20.11,12.68,30.27,18.85s20.43,12.15,30.9,17.74c6.19,3.31,10.54,7,12.95,11.56s2.87,10,1.3,16.69a11.59,11.59,0,0,0-.24,2.21,20.88,20.88,0,0,1-.13,2.24c-2.3,17.3-5,26.73-10.75,29.63s-14.57-.74-29.11-9.58c-8.67-5.28-17.39-10.48-26.06-15.76s-17.29-10.64-25.75-16.24c-9.05-6-16.5-12.93-21.37-21.38S4418.66,687.68,4420,675.63Z"/><path class="cls-3" d="M4612.29,210.56c-3,7.59-5.88,15.24-8.84,22.85s-6,15.19-9.31,22.64c-4.08,9.17-9,18-12.54,27.29s-5.86,19-4.73,29.75a120.83,120.83,0,0,0,4,22.2,57.93,57.93,0,0,0,10.31,20.08c5.31,6.61,11.44,9.54,17.12,8.88s10.91-4.93,14.42-12.72q2.13-4.74,4.27-9.49t4.35-9.45c.12-.25.45-.41,1-.59s1.21-.38,2.06-.74c.38,1.2,1,2.41,1.42,3.59a6.61,6.61,0,0,1,.61,3.37,151.43,151.43,0,0,1-8.7,32.48,109.34,109.34,0,0,1-17,29,22.47,22.47,0,0,1-18.57,8.47,25,25,0,0,1-18.28-9.66c-10.65-13.39-16.45-27.62-18.24-42.26s.44-29.68,5.86-44.71c6-16.75,13.06-33.14,20.37-49.44s14.92-32.47,22.12-48.8a9,9,0,0,1,1.82-2.49c.73-.77,1.54-1.51,2.23-2.3l2.17,1Z"/><path class="cls-3" d="M4653,1007.24c-3,7.59-5.88,15.24-8.84,22.85s-6,15.19-9.31,22.64c-4.08,9.17-9,18-12.54,27.29s-5.85,18.94-4.73,29.75a120.88,120.88,0,0,0,4,22.19,57.73,57.73,0,0,0,10.3,20.08c5.31,6.61,11.44,9.55,17.12,8.88s10.91-4.92,14.42-12.71q2.13-4.76,4.27-9.49t4.35-9.46c.12-.25.45-.4,1-.58s1.21-.39,2.06-.75c.38,1.21,1,2.42,1.43,3.59a6.76,6.76,0,0,1,.6,3.38,151.9,151.9,0,0,1-8.69,32.47,109.54,109.54,0,0,1-17,29,22.43,22.43,0,0,1-18.57,8.46,24.9,24.9,0,0,1-18.28-9.65c-10.65-13.4-16.45-27.63-18.24-42.26s.44-29.69,5.86-44.71c6-16.75,13.06-33.15,20.38-49.44s14.91-32.48,22.12-48.8a8.76,8.76,0,0,1,1.81-2.49c.74-.77,1.54-1.51,2.23-2.3l2.17,1Z"/><path class="cls-3" d="M4693.76,1500.36c-3,7.59-5.89,15.23-8.84,22.84s-6,15.19-9.31,22.64c-4.09,9.17-9,18-12.55,27.3s-5.85,18.94-4.73,29.75a120.88,120.88,0,0,0,4,22.19,57.73,57.73,0,0,0,10.3,20.08c5.31,6.61,11.45,9.55,17.13,8.88s10.9-4.93,14.41-12.72q2.13-4.74,4.27-9.48t4.35-9.46c.12-.25.45-.4,1-.58s1.21-.39,2.06-.75c.38,1.21,1,2.42,1.43,3.59a6.72,6.72,0,0,1,.6,3.37,152,152,0,0,1-8.69,32.48,109.54,109.54,0,0,1-17,29,22.46,22.46,0,0,1-18.57,8.46,24.88,24.88,0,0,1-18.27-9.66c-10.65-13.39-16.46-27.62-18.25-42.26s.44-29.68,5.86-44.7c6-16.75,13.06-33.15,20.38-49.44s14.91-32.48,22.12-48.8a8.76,8.76,0,0,1,1.81-2.49c.74-.77,1.55-1.51,2.23-2.31l2.17,1Z"/><path class="cls-3" d="M4301.57,197.64c3-7.59,5.88-15.24,8.84-22.85s6-15.19,9.31-22.64c4.08-9.17,9-18,12.54-27.3s5.86-18.94,4.74-29.74a121.68,121.68,0,0,0-4-22.2,57.84,57.84,0,0,0-10.31-20.08c-5.31-6.61-11.44-9.54-17.12-8.88s-10.91,4.93-14.41,12.72q-2.15,4.74-4.28,9.49c-1.43,3.16-2.87,6.31-4.35,9.45-.12.25-.44.41-1,.59s-1.21.38-2.06.74c-.37-1.2-1-2.41-1.42-3.59a6.61,6.61,0,0,1-.61-3.37,151.43,151.43,0,0,1,8.7-32.48,109.61,109.61,0,0,1,17-29A22.47,22.47,0,0,1,4321.79,0a25,25,0,0,1,18.28,9.66c10.65,13.39,16.45,27.62,18.24,42.26s-.44,29.68-5.86,44.7c-6,16.75-13.06,33.15-20.37,49.44s-14.92,32.48-22.12,48.81a9.32,9.32,0,0,1-1.81,2.49c-.74.77-1.55,1.5-2.24,2.3l-2.17-1Z"/><path class="cls-3" d="M1464.31,197.64c3-7.59,5.88-15.24,8.84-22.85s6-15.19,9.31-22.64c4.08-9.17,9-18,12.54-27.3s5.86-18.94,4.74-29.74a121.68,121.68,0,0,0-4-22.2,57.84,57.84,0,0,0-10.31-20.08c-5.31-6.61-11.44-9.54-17.12-8.88s-10.91,4.93-14.41,12.72q-2.14,4.74-4.28,9.49c-1.43,3.16-2.87,6.31-4.35,9.45-.12.25-.44.41-1,.59s-1.21.38-2.06.74c-.37-1.2-1-2.41-1.42-3.59a6.61,6.61,0,0,1-.61-3.37,151.43,151.43,0,0,1,8.7-32.48,109.61,109.61,0,0,1,17-29A22.47,22.47,0,0,1,1484.53,0a25,25,0,0,1,18.28,9.66c10.65,13.39,16.45,27.62,18.24,42.26s-.44,29.68-5.86,44.7c-6,16.75-13.06,33.15-20.37,49.44s-14.92,32.48-22.12,48.81a9.32,9.32,0,0,1-1.81,2.49c-.74.77-1.55,1.5-2.24,2.3l-2.17-1Z"/><path class="cls-3" d="M1691,815.32c-3,7.59-5.88,15.24-8.84,22.85s-6,15.19-9.31,22.64c-4.08,9.17-9,18-12.54,27.29s-5.86,18.95-4.74,29.75a121.83,121.83,0,0,0,4,22.2,57.93,57.93,0,0,0,10.31,20.08c5.31,6.61,11.44,9.54,17.12,8.88s10.91-4.93,14.41-12.72q2.14-4.74,4.28-9.49t4.35-9.45c.12-.26.45-.41,1-.59s1.21-.38,2.06-.74c.37,1.2,1,2.41,1.42,3.59A6.61,6.61,0,0,1,1715,943a151.43,151.43,0,0,1-8.7,32.48,109.34,109.34,0,0,1-17,29,22.43,22.43,0,0,1-18.57,8.46,24.9,24.9,0,0,1-18.28-9.65c-10.65-13.39-16.45-27.62-18.24-42.26s.44-29.68,5.86-44.71c6-16.75,13.06-33.14,20.37-49.44s14.92-32.47,22.12-48.8a9,9,0,0,1,1.82-2.49c.73-.77,1.54-1.51,2.23-2.3l2.17,1Z"/><path class="cls-3" d="M1942.26,413.3c-.81.44-1.49.7-2,.92s-.81.41-.91.67c-1.2,3.26-2.36,6.52-3.51,9.79s-2.3,6.55-3.44,9.83c-2.82,8.06-7.66,12.76-13.26,13.92s-12-1.24-17.83-7.37a57.69,57.69,0,0,1-12-19.11,120.67,120.67,0,0,1-5.89-21.77c-2-10.66-.62-20.5,2.14-30s6.86-18.79,10.13-28.28c2.66-7.71,5-15.52,7.32-23.36s4.49-15.71,6.83-23.53l-2.26-.83-2.25-.83c-.61.85-1.36,1.66-2,2.49a8.82,8.82,0,0,0-1.59,2.64c-5.77,16.88-11.94,33.67-17.81,50.53s-11.45,33.81-16,51c-4.1,15.44-5,30.62-2,45s10.06,28.1,21.83,40.53a24.94,24.94,0,0,0,19,8,22.41,22.41,0,0,0,17.76-10A109.32,109.32,0,0,0,1939,453.17a151.46,151.46,0,0,0,5.85-33.11,6.58,6.58,0,0,0-.9-3.3C1943.44,415.63,1942.74,414.47,1942.26,413.3Z"/><path class="cls-3" d="M1995,778.85c-.81.44-1.49.7-2,.93s-.81.4-.91.66c-1.2,3.26-2.36,6.52-3.51,9.8s-2.3,6.55-3.44,9.82c-2.82,8.06-7.66,12.77-13.26,13.92s-12-1.24-17.83-7.37a57.75,57.75,0,0,1-12-19.11,120.79,120.79,0,0,1-5.89-21.76c-2.05-10.67-.62-20.51,2.14-30s6.86-18.79,10.13-28.28c2.66-7.71,5-15.52,7.32-23.36s4.49-15.71,6.83-23.53l-2.26-.83-2.25-.83c-.61.85-1.35,1.66-2,2.49a8.82,8.82,0,0,0-1.59,2.64c-5.77,16.89-11.94,33.67-17.81,50.53s-11.45,33.81-16,51c-4.1,15.44-5,30.62-2,45.05s10.06,28.1,21.83,40.52a24.94,24.94,0,0,0,19,8,22.41,22.41,0,0,0,17.76-10,109.32,109.32,0,0,0,14.45-30.38,151.47,151.47,0,0,0,5.85-33.1,6.61,6.61,0,0,0-.9-3.31C1996.15,781.18,1995.45,780,1995,778.85Z"/><path class="cls-3" d="M2897.82,1563.2c-1.2.78-2.2,1.25-2.93,1.65s-1.2.72-1.34,1.19q-2.64,8.7-5.18,17.47c-1.71,5.84-3.39,11.68-5.08,17.52-4.15,14.39-11.3,22.77-19.56,24.83s-17.66-2.21-26.32-13.14c-8.16-10.3-13.69-21.8-17.72-34.09s-6.54-25.37-8.69-38.83c-3-19-.91-36.57,3.17-53.6s10.12-33.51,14.95-50.44c3.92-13.75,7.42-27.69,10.79-41.67s6.63-28,10.08-42l-3.32-1.48-3.33-1.48c-.91,1.51-2,2.95-3,4.44a16.94,16.94,0,0,0-2.34,4.7c-8.51,30.13-17.62,60.06-26.29,90.15s-16.9,60.31-23.64,91c-6,27.53-7.4,54.61-2.9,80.35a160.47,160.47,0,0,0,32.23,72.29c7.81,10,18.12,14.83,28.11,14.33s19.67-6.37,26.22-17.91a215.09,215.09,0,0,0,21.32-54.2,321.06,321.06,0,0,0,8.64-59.06,13.89,13.89,0,0,0-1.32-5.89C2899.56,1567.35,2898.53,1565.29,2897.82,1563.2Z"/><path class="cls-3" d="M2042.32,1233.48c-.82.43-1.49.7-2,.92s-.81.41-.9.67q-1.8,4.88-3.52,9.79t-3.43,9.83c-2.82,8.06-7.66,12.76-13.26,13.92s-12-1.24-17.83-7.37a57.88,57.88,0,0,1-12-19.11,121.48,121.48,0,0,1-5.88-21.77c-2.06-10.66-.62-20.5,2.14-30s6.86-18.79,10.13-28.28c2.66-7.71,5-15.52,7.31-23.36s4.5-15.71,6.83-23.53l-2.25-.83-2.25-.83c-.62.85-1.36,1.66-2,2.49a9.11,9.11,0,0,0-1.59,2.63c-5.76,16.89-11.93,33.68-17.81,50.54s-11.44,33.81-16,51c-4.1,15.44-5,30.62-2,45s10.07,28.1,21.84,40.53a24.92,24.92,0,0,0,19,8,22.45,22.45,0,0,0,17.77-10,109.29,109.29,0,0,0,14.44-30.38,151.68,151.68,0,0,0,5.86-33.11,6.68,6.68,0,0,0-.9-3.3C2043.49,1235.81,2042.8,1234.65,2042.32,1233.48Z"/><path class="cls-3" d="M387.59,1015c-3,7.59-5.89,15.24-8.84,22.85s-6,15.19-9.31,22.64c-4.08,9.17-9,18-12.54,27.29s-5.86,19-4.74,29.75a120.88,120.88,0,0,0,4,22.19,57.73,57.73,0,0,0,10.3,20.08c5.32,6.61,11.45,9.55,17.13,8.89s10.91-4.93,14.41-12.72q2.13-4.76,4.27-9.49c1.44-3.16,2.88-6.32,4.35-9.46.12-.25.45-.4,1-.58s1.21-.39,2.06-.75c.38,1.21,1,2.42,1.43,3.6a6.7,6.7,0,0,1,.6,3.37,150.74,150.74,0,0,1-8.69,32.47,109.54,109.54,0,0,1-17,29,22.41,22.41,0,0,1-18.56,8.46,24.89,24.89,0,0,1-18.28-9.65c-10.65-13.4-16.46-27.63-18.25-42.26s.45-29.68,5.86-44.71c6.05-16.75,13.07-33.15,20.38-49.44s14.91-32.48,22.12-48.8a8.76,8.76,0,0,1,1.81-2.49c.74-.77,1.55-1.51,2.23-2.3l2.18,1Z"/><path class="cls-3" d="M5086.18,672.21c-3,7.59-5.88,15.24-8.84,22.85s-6,15.19-9.31,22.64c-4.08,9.17-9,18-12.54,27.29s-5.86,19-4.74,29.75a121.73,121.73,0,0,0,4,22.19A57.75,57.75,0,0,0,5065,817c5.31,6.61,11.44,9.55,17.12,8.89s10.91-4.93,14.41-12.72q2.15-4.75,4.28-9.49c1.43-3.16,2.87-6.32,4.35-9.46.11-.25.44-.4,1-.58s1.21-.39,2.06-.75c.37,1.21,1,2.42,1.42,3.59a6.66,6.66,0,0,1,.61,3.38,151.34,151.34,0,0,1-8.7,32.47,109.5,109.5,0,0,1-17,29,22.43,22.43,0,0,1-18.57,8.46,24.9,24.9,0,0,1-18.28-9.65c-10.65-13.4-16.45-27.63-18.24-42.26s.44-29.68,5.86-44.71c6-16.75,13.06-33.15,20.37-49.44s14.92-32.48,22.12-48.8a9,9,0,0,1,1.81-2.49c.74-.77,1.55-1.51,2.24-2.3l2.17,1Z"/><path class="cls-3" d="M5001.53,132.35c-3,7.59-5.88,15.23-8.84,22.85s-6,15.18-9.31,22.64c-4.08,9.17-9,18-12.54,27.29s-5.86,18.94-4.73,29.75a120.87,120.87,0,0,0,4,22.19,57.75,57.75,0,0,0,10.31,20.08c5.31,6.61,11.44,9.55,17.12,8.88s10.91-4.92,14.42-12.71q2.13-4.76,4.27-9.49t4.35-9.46c.12-.25.45-.4,1-.58s1.21-.39,2.06-.75c.38,1.21,1,2.42,1.42,3.59a6.65,6.65,0,0,1,.61,3.37,151.27,151.27,0,0,1-8.7,32.48,109.24,109.24,0,0,1-17,29,22.46,22.46,0,0,1-18.57,8.46,24.94,24.94,0,0,1-18.28-9.65c-10.65-13.4-16.45-27.63-18.24-42.27s.44-29.68,5.86-44.7c6-16.75,13.06-33.15,20.37-49.44s14.92-32.48,22.13-48.8a8.76,8.76,0,0,1,1.81-2.49c.73-.77,1.54-1.51,2.23-2.3l2.17,1Z"/><path class="cls-3" d="M2927.53,644.05a.36.36,0,0,0,.16,0h.14a.45.45,0,0,1,0-.11v-.11l-.15.09Z"/><path class="cls-3" d="M2998.34,616.49c-13.11-11.81-22.47-17.54-31.29-16.9s-17.09,7.68-28,21.38l-1.11,2.23c-.36.75-.73,1.49-1.1,2.24-.67,1.3-1.34,2.61-2,3.92l-2,3.92a19.81,19.81,0,0,1-.21,4.17,6.12,6.12,0,0,1-2.09,3.61c-.28.68-.28,1.64-.55,2.33s-.8,1.11-2.16.7c.61,7.77-.65,15.3-2.13,22.82s-3.17,15-3.45,22.75c-.51,13.72-1.42,27.42-2.48,41.59s-2.28,28.79-3.39,44.37c-1.3-2.67-2.25-4.43-2.93-5.77a21.87,21.87,0,0,1-1.44-3.22,338.28,338.28,0,0,0-18.27-45.29,456.42,456.42,0,0,0-23.8-42.57c-6.49-10.35-13.53-20.33-21.93-28.89a86.58,86.58,0,0,0-30.09-20.45c-7.6-3-13.51-3.44-18.25-1.22s-8.29,7.1-11.19,14.71c-1.54,4-2.23,8.32-3.12,12.53s-2,8.36-4.34,12.13l-.08,3.69-.08,3.69a19.69,19.69,0,0,0,1.27,7.29,9.06,9.06,0,0,0,4.69,5c11.11,5,20.95,12.4,31.16,19.1s20.79,12.66,33.41,14.74a5.31,5.31,0,0,1,3.33,2,26.07,26.07,0,0,1,2.09,3.22c2.28,3.7,4.7,7.33,7,11a104.28,104.28,0,0,1,6.27,11.38c5.23,11.45,10.3,23,15.32,34.52s10,23.11,15.06,34.64a47.69,47.69,0,0,0,2.87,5.93,9.6,9.6,0,0,0,4.44,4.12c-.35,1.33-.7,2.66-1.08,4s-.82,2.61-1.33,3.87c-2.3,5.7-4.91,11.28-7.44,16.89s-5,11.24-7,17c-3.82,11.14-7.84,22.28-11.52,33.49a334.28,334.28,0,0,0-9.47,34,429.78,429.78,0,0,0-7.67,49.66,403.84,403.84,0,0,0-1.64,50.31,122.16,122.16,0,0,0,7.16,38.55,110.25,110.25,0,0,0,20,34,24.85,24.85,0,0,0,11.77,8,29.67,29.67,0,0,0,14,.44,25.37,25.37,0,0,0,12.34-6.09,62.65,62.65,0,0,0,9.06-10.38,136.19,136.19,0,0,0,17.57-32.39,199.68,199.68,0,0,0,9.68-35.46c1.2-6.54,1.94-13.17,2.5-19.82s.94-13.33,1.45-20a14.65,14.65,0,0,0-.53-4.51c-.37-1.52-.85-3-1.16-4.56l-1.12,0-1.12,0c-.55,1-1.2,1.93-1.8,2.9a11.78,11.78,0,0,0-1.39,3c-1,3.63-1.86,7.29-2.73,11s-1.73,7.32-2.68,11a89.36,89.36,0,0,1-6.12,17.32,45.26,45.26,0,0,1-11.23,14.67c-7.61,1.47-14.05.44-19.63-2.41s-10.28-7.54-14.42-13.36a70.79,70.79,0,0,1-9-17.61,129.28,129.28,0,0,1-5-19.37,182.51,182.51,0,0,1-2.93-21.92,103.46,103.46,0,0,1,.73-21.88,453.15,453.15,0,0,1,9.68-48.25,412.58,412.58,0,0,1,15.12-46.88,129.38,129.38,0,0,0,4.61-14.67c1.29-5,2.4-10,3.55-15a3.11,3.11,0,0,0,.06-.69,5.32,5.32,0,0,1,0-.69c.39-1,.74-2.07,1-3.14s.61-2.14.9-3.19c.4-1.47.7-3,1-4.46s.58-3,1-4.47c3.48-13.82,5.21-27.82,6.38-41.89s1.76-28.19,3-42.26c.88-10.12,1.19-20.36,2.41-30.45s3.36-20,7.93-29.58c3.63-7.6,8.26-12.4,13.75-14.22s11.84-.67,18.93,3.65a91.12,91.12,0,0,1,11.14,7.8,47.24,47.24,0,0,1,9.2,10.06A21.68,21.68,0,0,0,2998,673a3.46,3.46,0,0,0,3.51,1,5.13,5.13,0,0,0,3.19-2.12,5.82,5.82,0,0,0,.87-3.76,52,52,0,0,1,1-13,72,72,0,0,0,1.45-12.85,47.2,47.2,0,0,0-1.9-13.73A26.88,26.88,0,0,0,2998.34,616.49Z"/><path class="cls-3" d="M285.23,84.67a.33.33,0,0,0,.15,0,.41.41,0,0,1,.15,0v-.11a.4.4,0,0,0,0-.11l-.15.09Z"/><path class="cls-3" d="M3338.21,530.77a.34.34,0,0,0,.16,0h.14v-.11a.2.2,0,0,0,0-.11s-.07,0-.15.09Z"/><path class="cls-3" d="M3409,503.21c-13.1-11.81-22.47-17.54-31.29-16.9s-17.08,7.68-28,21.38l-1.11,2.23-1.11,2.24-2,3.92c-.66,1.31-1.33,2.62-2,3.92a19.17,19.17,0,0,1-.2,4.17,6.17,6.17,0,0,1-2.09,3.61c-.29.68-.28,1.64-.55,2.33s-.8,1.11-2.16.7c.6,7.77-.65,15.3-2.13,22.82s-3.18,15-3.46,22.75c-.5,13.72-1.41,27.42-2.47,41.59s-2.28,28.8-3.39,44.37c-1.31-2.66-2.25-4.43-2.94-5.77a20.67,20.67,0,0,1-1.43-3.22,339.61,339.61,0,0,0-18.27-45.29,456.42,456.42,0,0,0-23.8-42.57c-6.5-10.35-13.54-20.33-21.93-28.89a86.58,86.58,0,0,0-30.09-20.45c-7.6-3-13.52-3.44-18.25-1.22s-8.3,7.1-11.2,14.71c-1.53,4-2.22,8.32-3.11,12.53s-2,8.36-4.35,12.13l-.07,3.69-.08,3.69a19.69,19.69,0,0,0,1.27,7.29,9.08,9.08,0,0,0,4.68,5c11.12,5,21,12.4,31.17,19.1s20.79,12.66,33.41,14.74a5.33,5.33,0,0,1,3.33,2,27.21,27.21,0,0,1,2.08,3.22c2.28,3.7,4.7,7.34,7,11a101,101,0,0,1,6.27,11.38c5.23,11.45,10.3,23,15.33,34.52s10,23.11,15.06,34.64a47.63,47.63,0,0,0,2.86,5.93,9.65,9.65,0,0,0,4.44,4.12c-.34,1.33-.69,2.66-1.08,4a40.13,40.13,0,0,1-1.33,3.87c-2.29,5.7-4.9,11.28-7.44,16.89s-5,11.24-7,17c-3.82,11.14-7.84,22.28-11.52,33.49a331.71,331.71,0,0,0-9.47,34,427.63,427.63,0,0,0-7.67,49.66,405.77,405.77,0,0,0-1.65,50.31,121.89,121.89,0,0,0,7.17,38.55,110.42,110.42,0,0,0,20,34,24.9,24.9,0,0,0,11.77,8,29.71,29.71,0,0,0,14,.44,25.42,25.42,0,0,0,12.34-6.09,63.12,63.12,0,0,0,9.06-10.38A135.6,135.6,0,0,0,3363.22,956a198.84,198.84,0,0,0,9.68-35.46c1.21-6.54,1.94-13.17,2.5-19.82s.95-13.33,1.45-20a14.35,14.35,0,0,0-.53-4.51c-.37-1.52-.85-3-1.15-4.56l-1.12,0-1.13,0c-.54,1-1.2,1.93-1.79,2.9a11.78,11.78,0,0,0-1.39,3c-1,3.63-1.87,7.29-2.74,11s-1.72,7.32-2.67,11a89.36,89.36,0,0,1-6.12,17.32A45.54,45.54,0,0,1,3347,931.47c-7.61,1.47-14.06.44-19.63-2.41s-10.29-7.54-14.42-13.36a70.79,70.79,0,0,1-9-17.61,126.9,126.9,0,0,1-5-19.37A182.55,182.55,0,0,1,3296,856.8a104.13,104.13,0,0,1,.74-21.88,453.12,453.12,0,0,1,9.67-48.25,416.61,416.61,0,0,1,15.12-46.88,129.43,129.43,0,0,0,4.62-14.67c1.28-5,2.39-10,3.55-15a3.11,3.11,0,0,0,.06-.69,5.31,5.31,0,0,1,0-.69c.4-1,.74-2.07,1.06-3.14s.61-2.14.9-3.19c.4-1.47.7-3,1-4.46s.59-3,1-4.47c3.49-13.81,5.22-27.82,6.38-41.89s1.77-28.19,3-42.26c.88-10.12,1.18-20.36,2.4-30.45s3.37-20,7.93-29.58c3.64-7.6,8.27-12.4,13.76-14.22s11.84-.67,18.93,3.65a91.89,91.89,0,0,1,11.14,7.8,47.5,47.5,0,0,1,9.2,10.06,20.93,20.93,0,0,0,2.21,3.17,3.46,3.46,0,0,0,3.51,1,5.11,5.11,0,0,0,3.18-2.12,5.81,5.81,0,0,0,.88-3.76,51.54,51.54,0,0,1,1-13,72.87,72.87,0,0,0,1.44-12.85,46.53,46.53,0,0,0-1.9-13.73A26.72,26.72,0,0,0,3409,503.21Z"/><path class="cls-3" d="M4270.35,415.77c13.12,2.48,25.11,5.18,36.57,7.51a315,315,0,0,0,33.45,5.32c16,1.5,32.07,2.25,48.16,2.85s32.19,1.05,48.26,1.91A48,48,0,0,1,4466,445.91c7.56,6.95,12.11,15.86,11.12,24.26a53.17,53.17,0,0,1-16.69,32.36c-8.81,8.16-20,12.94-31.21,12.07-25.61-2-51.25-3.6-76.87-5.45s-51.21-3.95-76.71-6.88a205.78,205.78,0,0,1-34.15-7.2c-11.28-3.29-22.41-7.27-33.31-11.35-11.58-4.34-18-12.15-22.38-21.62s-6.51-20.6-9.53-31.56c42.75,30.24,88.18,42.7,134.57,48.29s93.74,4.31,140.32,7.06l1.47-3.65c.49-1.22,1-2.44,1.46-3.66-5-2.41-9.94-5.6-14.92-8.33s-10-5-15.23-5.58c-19.14-2.12-38.34-3.65-57.56-5s-38.46-2.61-57.67-4.11c-3.52-.28-7-.72-10.55-1.3s-7-1.27-10.44-2.06c-22.23-5.06-34-10-36.51-18.11s4.3-19.37,19.25-37.07c14.11-16.71,31.2-27.25,49.65-35s38.24-12.58,57.77-17.93c2.66-.73,7.16.32,11,1.91s7.06,3.72,7.12,5.13a67,67,0,0,1-1.49,15.9c-1,5.43-2.4,11-3.47,17-13.69-9.07-36.56-9.63-59.66-3.68S4284.94,398.79,4270.35,415.77Z"/><path class="cls-3" d="M546.09,84.75l.09-4.09c0-1.37.06-2.73.08-4.1,2.61-4.17,3.83-8.77,4.82-13.44s1.75-9.42,3.45-13.89c3.22-8.44,7.17-13.84,12.42-16.31s11.8-2,20.23,1.35c13.23,5.24,24,13.18,33.36,22.67s17.11,20.55,24.31,32a502.86,502.86,0,0,1,26.38,47.2,375.76,375.76,0,0,1,20.26,50.21,23.65,23.65,0,0,0,1.59,3.56c.77,1.49,1.81,3.45,3.26,6.4,1.23-17.26,2.58-33.48,3.76-49.19s2.18-30.9,2.74-46.11c.31-8.6,2.22-17,3.87-25.34s3-16.76,2.33-25.41l-.17.09-.17.1c1.76.66,2.43.22,2.74-.57s.27-2,.6-2.74a6.82,6.82,0,0,0,2.31-4,21.47,21.47,0,0,0,.23-4.63l2.22-4.35L719,29.84l1.22-2.47,1.23-2.48c12.1-15.19,21.26-23,31-23.7s20.16,5.64,34.69,18.73a29.83,29.83,0,0,1,8.59,13.34,52.19,52.19,0,0,1,2.11,15.23,80.16,80.16,0,0,1-1.61,14.24,57.56,57.56,0,0,0-1.07,14.42,6.43,6.43,0,0,1-1,4.17,5.66,5.66,0,0,1-3.53,2.35,3.81,3.81,0,0,1-3.89-1.08,23.25,23.25,0,0,1-2.46-3.51,52.43,52.43,0,0,0-10.2-11.15,100.4,100.4,0,0,0-12.35-8.64c-7.85-4.8-14.9-6.08-21-4.06S729.62,62.58,725.59,71c-5.06,10.58-7.44,21.61-8.79,32.8s-1.69,22.53-2.67,33.75c-1.36,15.6-2,31.26-3.32,46.86s-3.21,31.12-7.07,46.44c-.42,1.63-.74,3.29-1.06,5s-.67,3.32-1.11,4.94c-.83,3-1.52,6.36-3,9a9,9,0,0,1-7.38,5.16,8.56,8.56,0,0,1-8.22-3.4c-1.86-2.33-3.08-5.49-4.33-8.34-5.61-12.78-11.13-25.6-16.7-38.41s-11.19-25.57-17-38.27a113.19,113.19,0,0,0-7-12.61c-2.55-4.1-5.23-8.13-7.76-12.23a29.8,29.8,0,0,0-2.31-3.57,5.92,5.92,0,0,0-3.7-2.2c-14-2.3-25.72-8.92-37-16.34S565,103.93,552.69,98.41a10.06,10.06,0,0,1-5.19-5.58A21.74,21.74,0,0,1,546.09,84.75Z"/><path class="cls-3" d="M708.38,330.83c-15.47-12.37-28-14.5-38.76-10.45s-19.77,14.25-28.19,26.56c-1-1.69-2-3-2.66-3.92s-1-1.55-.83-1.88c6.08-11.62,11.57-23.69,17.5-35.43s12.3-23.16,20.12-33.46c6.28-8.29,14.82-12.46,23.74-12.75s18.24,3.29,26.08,10.53a389.83,389.83,0,0,1,28.45,29.71c9.06,10.35,17.86,21,26.86,31.37a13,13,0,0,1,2.52,5.64,11.86,11.86,0,0,1-.1,6.07c-2.83,7.94-5.9,15.79-9.13,23.79s-6.62,16.18-10.07,24.75c-22.58-13.17-43.31-13.6-63.26-8.84S661.51,397.25,642,404.87c-6.39,2.5-10.57,5.9-12.84,10.42s-2.65,10.17-1.46,17.17C634.33,471.2,640.65,510,647,548.78s12.63,77.58,19.26,116.31c4.63,27.07,8.82,54.12,10.65,81.26s1.28,54.38-3.54,81.81a35.26,35.26,0,0,1-2.21,7.89,26.47,26.47,0,0,1-5.16,7.8c-.46-1.05-1.13-2.1-1.68-3.15a7,7,0,0,1-1-3.16c-.06-34.07-4.66-67.44-10.75-100.59s-13.66-66.06-19.67-99.23c-5.15-28.49-10.34-57-15.19-85.54s-9.36-57.14-13.16-85.83c-3-22.31-.71-46.76,9.58-68.54s28.61-40.88,57.79-52.5l17.26-6.85Z"/><path class="cls-3" d="M3989.58,1530.68q-.59,7.9-1.69,15.33t-2.75,14.39a50.06,50.06,0,0,1-4.72,12.53,38.35,38.35,0,0,1-7.5,9.72,29.47,29.47,0,0,1-4.45,3,53.09,53.09,0,0,1-5.88,2.84,13.93,13.93,0,0,1-6.47,1.12,13.65,13.65,0,0,1-6.17-2.12l-1.22-1.08-1.21-1.07-1.08-1.23-1.07-1.23-2.52,2.23-2.51,2.23-1.09,2.08-1.08,2.08a118.1,118.1,0,0,1,7.94,16.41,122.84,122.84,0,0,1,5.42,17.62,104.76,104.76,0,0,1,2.55,18.2,102.89,102.89,0,0,1-.68,18.14,79.26,79.26,0,0,1-4.31,17.58,85.53,85.53,0,0,1-8.33,16.58l-.86.72-.87.71-.71.15-.71.15a123.16,123.16,0,0,0,.42-19.46,94.49,94.49,0,0,0-2.71-17.6,148.27,148.27,0,0,0-5.1-16,130.29,130.29,0,0,0-6.68-14.6q-3.73-7-7.47-13.45t-7.46-12.53q-2.88-4.89-6-9.63c-2.06-3.16-4.19-6.26-6.4-9.33a94.93,94.93,0,0,1-6.09-9.69,103.58,103.58,0,0,1-5.1-10.71q1.57-4.44,3.24-8.93t3.37-9q1.73-4.53,3.58-8.94t3.88-8.71q1.58,3.3,3.3,6.82c1.16,2.34,2.35,4.76,3.59,7.25a35.22,35.22,0,0,0,4.25,6.61,26.4,26.4,0,0,0,5.24,4.87,20,20,0,0,0,5.77,2.77,20.9,20.9,0,0,0,6.43.82,31.82,31.82,0,0,0,12.92-3,29.05,29.05,0,0,0,5.35-3.16,17.87,17.87,0,0,0,3.7-3.73,9.38,9.38,0,0,0,1.18-2.16,35.25,35.25,0,0,0,1.25-3.59c.43-1.44.85-2.66,1.26-3.67a13.12,13.12,0,0,1,1.19-2.36H3956l.3,1,.29,1a13.15,13.15,0,0,0,.1,4.27,10.31,10.31,0,0,0,1.46,3.63,11,11,0,0,0,2.35,2.62,6.41,6.41,0,0,0,2.7,1.26,21.38,21.38,0,0,0,8.54.24,17.13,17.13,0,0,0,7.24-3.26,21.34,21.34,0,0,0,5.31-5.71,20,20,0,0,0,2.73-7.07l.79-1.65.79-1.65.51-.36Z"/><path class="cls-3" d="M2525.91,1654.44c-1.53,2.58-3,5.21-4.56,7.86s-3,5.36-4.48,8.08-3,5.43-4.56,8.08-3.16,5.27-4.79,7.86a30.78,30.78,0,0,1-5.95,4.34,42,42,0,0,1-7.54,3.27,65.76,65.76,0,0,1-8.58,2.2,76.11,76.11,0,0,1-9.08,1.1,61.91,61.91,0,0,1-9.15-.11,56.14,56.14,0,0,1-8.8-1.48,37.18,37.18,0,0,1-7.89-2.89,29.88,29.88,0,0,1-6.46-4.42,15,15,0,0,1-3.16-4.23,23.65,23.65,0,0,1-2-5.82,19.21,19.21,0,0,1-.37-6.31,16.39,16.39,0,0,1,1.79-5.75q2.45-4.17,4.92-8.33l5-8.33a83.55,83.55,0,0,0,4.63-8.9,102.18,102.18,0,0,0,3.85-10.06,25.48,25.48,0,0,0-2.7-5.27,16.45,16.45,0,0,0-3.49-3.77q-1.92-1.5-3.83-2.72c-1.27-.81-2.52-1.53-3.76-2.16a15.41,15.41,0,0,1-3.32-2.19,13.12,13.12,0,0,1-2.43-2.84,8.64,8.64,0,0,1-1.22-3.94,20.54,20.54,0,0,1,.35-5.52,39.57,39.57,0,0,1,2.45-7.68q1.86-4.52,5-10.41,3.72-7,8.13-14.19t9.51-14.39a89.69,89.69,0,0,1,11.1-13,78.14,78.14,0,0,1,12.88-10.07l1.51-.87,1.51-.86,1.8-.71,1.79-.72c-1.34,2.11-2.61,4.28-3.8,6.53s-2.32,4.56-3.37,7-2.12,4.81-3.17,7.25-2.11,4.91-3.16,7.4q-2.58,1.86-5.52,3.66c-2,1.19-4,2.37-6.24,3.51a18.57,18.57,0,0,0-5.54,4.31,17.64,17.64,0,0,0-3.36,6,5.71,5.71,0,0,0-.08,3.88,6.27,6.27,0,0,0,2.65,3,57,57,0,0,1,9.7,7.22,25.43,25.43,0,0,1,5.54,7.29,21.23,21.23,0,0,1,2,7.39,20.61,20.61,0,0,1-.86,7.54,52.67,52.67,0,0,1-3.13,7.82,77.24,77.24,0,0,1-4.77,8.26q-2.8,4.25-5.78,8.87t-6.14,9.64a15.66,15.66,0,0,0,2.91,6.76,16.73,16.73,0,0,0,5.86,4.74,53.82,53.82,0,0,0,7.49,3.16,56.92,56.92,0,0,0,7.86,2,56.15,56.15,0,0,0,11.63.79,46.3,46.3,0,0,0,10.76-1.66,79.26,79.26,0,0,0,9.76-3.36,67,67,0,0,0,8.63-4.37l1,.28Z"/><path class="cls-3" d="M1819.28,1654.44c-1.53,2.58-3,5.21-4.56,7.86s-3,5.36-4.49,8.08-3,5.43-4.56,8.08-3.15,5.27-4.79,7.86a30.18,30.18,0,0,1-6,4.34,41.87,41.87,0,0,1-7.53,3.27,65.5,65.5,0,0,1-8.59,2.2,75.86,75.86,0,0,1-9.08,1.1,61.79,61.79,0,0,1-9.14-.11,56,56,0,0,1-8.8-1.48,37.07,37.07,0,0,1-7.9-2.89,29.58,29.58,0,0,1-6.45-4.42,15,15,0,0,1-3.16-4.23,23.65,23.65,0,0,1-2-5.82,18.93,18.93,0,0,1-.36-6.31,16.18,16.18,0,0,1,1.79-5.75q2.43-4.17,4.92-8.33t5-8.33a81.72,81.72,0,0,0,4.62-8.9,102.19,102.19,0,0,0,3.86-10.06,25.48,25.48,0,0,0-2.7-5.27,16.67,16.67,0,0,0-3.49-3.77q-1.94-1.5-3.83-2.72c-1.27-.81-2.53-1.53-3.77-2.16a15.34,15.34,0,0,1-3.31-2.19,13.16,13.16,0,0,1-2.44-2.84,8.89,8.89,0,0,1-1.22-3.94,20.58,20.58,0,0,1,.36-5.52,39.45,39.45,0,0,1,2.44-7.68c1.25-3,2.92-6.48,5-10.41q3.7-7,8.13-14.19t9.51-14.39a89.69,89.69,0,0,1,11.1-13,77.73,77.73,0,0,1,12.88-10.07l1.5-.87,1.51-.86,1.8-.71,1.8-.72c-1.34,2.11-2.61,4.28-3.81,6.53s-2.31,4.56-3.36,7-2.12,4.81-3.18,7.25-2.1,4.91-3.16,7.4q-2.57,1.86-5.51,3.66c-2,1.19-4,2.37-6.24,3.51a18.44,18.44,0,0,0-5.54,4.31,17.48,17.48,0,0,0-3.36,6,5.77,5.77,0,0,0-.09,3.88,6.3,6.3,0,0,0,2.66,3,57.26,57.26,0,0,1,9.69,7.22,25.08,25.08,0,0,1,5.54,7.29,21,21,0,0,1,2,7.39,20.6,20.6,0,0,1-.85,7.54,51.7,51.7,0,0,1-3.14,7.82,75.43,75.43,0,0,1-4.76,8.26q-2.8,4.25-5.78,8.87t-6.14,9.64a15.66,15.66,0,0,0,2.91,6.76,16.7,16.7,0,0,0,5.85,4.74,53.94,53.94,0,0,0,7.5,3.16,54.58,54.58,0,0,0,19.49,2.79,46.39,46.39,0,0,0,10.76-1.66,79.84,79.84,0,0,0,9.76-3.36,67.65,67.65,0,0,0,8.63-4.37l1,.28Z"/><path class="cls-3" d="M927.14,1616.54a154.18,154.18,0,0,1,.61,22.43,114.68,114.68,0,0,1-2.76,20.21,185.39,185.39,0,0,1-5.14,18.06,144.49,144.49,0,0,1-6.5,16l-.86,1.44-.87,1.43-1.43.58-1.44.57a253.34,253.34,0,0,0,1.94-36.14,209.12,209.12,0,0,0-3.37-33.78,275.35,275.35,0,0,0-7.46-30.76,211.64,211.64,0,0,0-10.34-27.1q1.58-4.74,3.34-9.73c1.17-3.32,2.4-6.74,3.69-10.23s2.6-6.93,3.91-10.3,2.64-6.69,4-9.94q3.74,9.2,7.08,18.77t6.29,19.56q2.92,10,5.11,20.78t3.63,22.43l.15,1.43.15,1.44.14,1.44Z"/></g></g></g></g></g></svg>