<svg xmlns="http://www.w3.org/2000/svg" viewBox="0 0 697.58 266"><defs><style>.cls-1{fill:#47929f;}</style></defs><g id="Layer_2" data-name="Layer 2"><g id="Layer_1-2" data-name="Layer 1"><circle class="cls-1" cx="36.19" cy="10.51" r="10.42"/><circle class="cls-1" cx="88.23" cy="10.51" r="10.42"/><path class="cls-1" d="M140.27.1a10.42,10.42,0,1,0,10.41,10.41A10.41,10.41,0,0,0,140.27.1Z"/><path class="cls-1" d="M192.3.1a10.42,10.42,0,1,0,10.42,10.41A10.41,10.41,0,0,0,192.3.1Z"/><path class="cls-1" d="M36.06,70.11A10.42,10.42,0,1,0,46.48,80.53,10.43,10.43,0,0,0,36.06,70.11Z"/><path class="cls-1" d="M88.1,70.11A10.42,10.42,0,1,0,98.52,80.53,10.43,10.43,0,0,0,88.1,70.11Z"/><path class="cls-1" d="M140.14,70.11a10.42,10.42,0,1,0,10.42,10.42A10.43,10.43,0,0,0,140.14,70.11Z"/><path class="cls-1" d="M192.18,70.11A10.42,10.42,0,1,0,202.6,80.53,10.42,10.42,0,0,0,192.18,70.11Z"/><path class="cls-1" d="M35.93,140.13a10.42,10.42,0,1,0,10.42,10.42A10.42,10.42,0,0,0,35.93,140.13Z"/><path class="cls-1" d="M88,140.13a10.42,10.42,0,1,0,10.42,10.42A10.42,10.42,0,0,0,88,140.13Z"/><path class="cls-1" d="M140,140.13a10.42,10.42,0,1,0,10.42,10.42A10.43,10.43,0,0,0,140,140.13Z"/><path class="cls-1" d="M192.05,140.13a10.42,10.42,0,1,0,10.42,10.42A10.43,10.43,0,0,0,192.05,140.13Z"/><path class="cls-1" d="M35.81,210.15a10.42,10.42,0,1,0,10.42,10.42A10.41,10.41,0,0,0,35.81,210.15Z"/><path class="cls-1" d="M87.85,210.15a10.42,10.42,0,1,0,10.42,10.42A10.41,10.41,0,0,0,87.85,210.15Z"/><circle class="cls-1" cx="139.89" cy="220.57" r="10.42"/><path class="cls-1" d="M191.93,210.15a10.42,10.42,0,1,0,10.42,10.42A10.41,10.41,0,0,0,191.93,210.15Z"/><path class="cls-1" d="M10.42,35.1A10.42,10.42,0,1,0,20.84,45.52,10.42,10.42,0,0,0,10.42,35.1Z"/><path class="cls-1" d="M62.46,35.1A10.42,10.42,0,1,0,72.88,45.52,10.42,10.42,0,0,0,62.46,35.1Z"/><path class="cls-1" d="M114.5,35.1a10.42,10.42,0,1,0,10.42,10.42A10.42,10.42,0,0,0,114.5,35.1Z"/><path class="cls-1" d="M166.54,35.1A10.42,10.42,0,1,0,177,45.52,10.42,10.42,0,0,0,166.54,35.1Z"/><path class="cls-1" d="M10.42,105.12a10.42,10.42,0,1,0,10.42,10.42A10.42,10.42,0,0,0,10.42,105.12Z"/><path class="cls-1" d="M62.46,105.12a10.42,10.42,0,1,0,10.42,10.42A10.42,10.42,0,0,0,62.46,105.12Z"/><path class="cls-1" d="M114.5,105.12a10.42,10.42,0,1,0,10.42,10.42A10.42,10.42,0,0,0,114.5,105.12Z"/><path class="cls-1" d="M166.54,105.12A10.42,10.42,0,1,0,177,115.54,10.42,10.42,0,0,0,166.54,105.12Z"/><path class="cls-1" d="M10.42,175.14a10.42,10.42,0,1,0,10.42,10.42A10.42,10.42,0,0,0,10.42,175.14Z"/><path class="cls-1" d="M62.46,175.14a10.42,10.42,0,1,0,10.42,10.42A10.42,10.42,0,0,0,62.46,175.14Z"/><path class="cls-1" d="M114.5,175.14a10.42,10.42,0,1,0,10.42,10.42A10.42,10.42,0,0,0,114.5,175.14Z"/><path class="cls-1" d="M166.54,175.14A10.42,10.42,0,1,0,177,185.56,10.42,10.42,0,0,0,166.54,175.14Z"/><path class="cls-1" d="M220.58,175.34a10.07,10.07,0,0,0-2.41-.29,10.47,10.47,0,0,0,.38,20.93h0a10.42,10.42,0,0,0,2-20.64Z"/><path class="cls-1" d="M10.42,245.16a10.42,10.42,0,1,0,10.42,10.42A10.41,10.41,0,0,0,10.42,245.16Z"/><path class="cls-1" d="M62.46,245.16a10.42,10.42,0,1,0,10.42,10.42A10.41,10.41,0,0,0,62.46,245.16Z"/><path class="cls-1" d="M114.5,245.16a10.42,10.42,0,1,0,10.42,10.42A10.41,10.41,0,0,0,114.5,245.16Z"/><path class="cls-1" d="M166.54,245.16A10.42,10.42,0,1,0,177,255.58,10.41,10.41,0,0,0,166.54,245.16Z"/><path class="cls-1" d="M220.27,245.31a10.23,10.23,0,0,0-2.23-.25,10.48,10.48,0,0,0,.38,20.94h.16a10.41,10.41,0,0,0,1.69-20.69Z"/><path class="cls-1" d="M220.88,35.31a10.41,10.41,0,0,0-8.13,18.85,10.32,10.32,0,0,0,5.83,1.78h.22a10.42,10.42,0,0,0,2.08-20.63Z"/><path class="cls-1" d="M272.92,35.31a10.42,10.42,0,1,0-4.53,20.33,10.42,10.42,0,1,0,4.53-20.33Z"/><path class="cls-1" d="M325,35.31a10.42,10.42,0,1,0,8.34,10.21A10.49,10.49,0,0,0,325,35.31Z"/><path class="cls-1" d="M377,35.31a10.42,10.42,0,1,0-4.53,20.33A10.42,10.42,0,1,0,377,35.31Z"/><path class="cls-1" d="M429,35.31a10.42,10.42,0,1,0,8.35,10.21A10.4,10.4,0,0,0,429,35.31Z"/><path class="cls-1" d="M481.07,35.31a10.42,10.42,0,1,0,8.35,10.21A10.47,10.47,0,0,0,481.07,35.31Z"/><path class="cls-1" d="M533.11,35.31a10.42,10.42,0,1,0,8.35,10.21A10.47,10.47,0,0,0,533.11,35.31Z"/><path class="cls-1" d="M585.15,35.31a10.42,10.42,0,1,0,8.35,10.21A10.47,10.47,0,0,0,585.15,35.31Z"/><path class="cls-1" d="M637.19,35.31a10.42,10.42,0,1,0,8.35,10.21A10.47,10.47,0,0,0,637.19,35.31Z"/><path class="cls-1" d="M689.23,35.31a10.42,10.42,0,1,0,8.35,10.21A10.49,10.49,0,0,0,689.23,35.31Z"/><path class="cls-1" d="M220.75,105.33a10.42,10.42,0,0,0-5.48,20.09,10.63,10.63,0,0,0,3.31.54h.1a10.42,10.42,0,0,0,2.07-20.63Z"/><path class="cls-1" d="M272.79,105.33a10.42,10.42,0,1,0,8.34,10.21A10.49,10.49,0,0,0,272.79,105.33Z"/><path class="cls-1" d="M324.83,105.33a10.42,10.42,0,1,0,8.34,10.21A10.49,10.49,0,0,0,324.83,105.33Z"/><path class="cls-1" d="M376.87,105.33a10.42,10.42,0,1,0,8.34,10.21A10.49,10.49,0,0,0,376.87,105.33Z"/><path class="cls-1" d="M428.91,105.33a10.42,10.42,0,1,0,8.34,10.21A10.49,10.49,0,0,0,428.91,105.33Z"/><path class="cls-1" d="M481,105.33a10.42,10.42,0,1,0,8.34,10.21A10.49,10.49,0,0,0,481,105.33Z"/><path class="cls-1" d="M533,105.33a10.42,10.42,0,1,0,8.34,10.21A10.49,10.49,0,0,0,533,105.33Z"/><path class="cls-1" d="M585,105.33a10.42,10.42,0,1,0,8.34,10.21A10.49,10.49,0,0,0,585,105.33Z"/><path class="cls-1" d="M637.07,105.33a10.42,10.42,0,1,0-4.53,20.33,10.42,10.42,0,1,0,4.53-20.33Z"/><path class="cls-1" d="M689.11,105.33a10.42,10.42,0,1,0-4.53,20.33,10.42,10.42,0,1,0,4.53-20.33Z"/><path class="cls-1" d="M272.66,175.35A10.42,10.42,0,1,0,281,185.56,10.47,10.47,0,0,0,272.66,175.35Z"/><path class="cls-1" d="M324.7,175.35a10.42,10.42,0,1,0,8.35,10.21A10.47,10.47,0,0,0,324.7,175.35Z"/><path class="cls-1" d="M376.74,175.35a10.42,10.42,0,1,0,8.35,10.21A10.47,10.47,0,0,0,376.74,175.35Z"/><path class="cls-1" d="M428.78,175.35a10.42,10.42,0,1,0,8.35,10.21A10.47,10.47,0,0,0,428.78,175.35Z"/><path class="cls-1" d="M480.82,175.35a10.42,10.42,0,1,0,8.35,10.21A10.49,10.49,0,0,0,480.82,175.35Z"/><path class="cls-1" d="M532.86,175.35a10.42,10.42,0,1,0,8.35,10.21A10.49,10.49,0,0,0,532.86,175.35Z"/><path class="cls-1" d="M584.9,175.35a10.42,10.42,0,1,0,8.35,10.21A10.49,10.49,0,0,0,584.9,175.35Z"/><path class="cls-1" d="M636.94,175.35a10.42,10.42,0,1,0,8.34,10.21A10.49,10.49,0,0,0,636.94,175.35Z"/><path class="cls-1" d="M689,175.35a10.42,10.42,0,1,0,8.34,10.21A10.49,10.49,0,0,0,689,175.35Z"/><path class="cls-1" d="M272.54,245.37a10.42,10.42,0,1,0,8.34,10.21A10.49,10.49,0,0,0,272.54,245.37Z"/><path class="cls-1" d="M324.58,245.37a10.42,10.42,0,1,0,8.34,10.21A10.49,10.49,0,0,0,324.58,245.37Z"/><path class="cls-1" d="M376.62,245.37A10.42,10.42,0,1,0,385,255.58,10.49,10.49,0,0,0,376.62,245.37Z"/><path class="cls-1" d="M428.66,245.37A10.42,10.42,0,1,0,437,255.58,10.49,10.49,0,0,0,428.66,245.37Z"/><path class="cls-1" d="M480.69,245.37a10.41,10.41,0,1,0-4.53,20.32,10.41,10.41,0,1,0,4.53-20.32Z"/><path class="cls-1" d="M532.73,245.37a10.41,10.41,0,1,0-4.53,20.32,10.41,10.41,0,1,0,4.53-20.32Z"/><path class="cls-1" d="M584.77,245.37a10.42,10.42,0,1,0,8.35,10.21A10.41,10.41,0,0,0,584.77,245.37Z"/><path class="cls-1" d="M636.81,245.37a10.42,10.42,0,1,0,8.35,10.21A10.47,10.47,0,0,0,636.81,245.37Z"/><path class="cls-1" d="M688.85,245.37a10.42,10.42,0,1,0,8.35,10.21A10.47,10.47,0,0,0,688.85,245.37Z"/><path class="cls-1" d="M247.27.3a10.4,10.4,0,0,0-2.45-.3,10.53,10.53,0,0,0-2.33.27,10.41,10.41,0,0,0,1.85,20.66l.43,0,.43,0A10.42,10.42,0,0,0,247.27.3Z"/><path class="cls-1" d="M299.31.3a10.42,10.42,0,1,0,8.35,10.21A10.47,10.47,0,0,0,299.31.3Z"/><path class="cls-1" d="M351.35.3a10.42,10.42,0,1,0,8.35,10.21A10.47,10.47,0,0,0,351.35.3Z"/><path class="cls-1" d="M403.39.3a10.42,10.42,0,1,0,8.35,10.21A10.47,10.47,0,0,0,403.39.3Z"/><path class="cls-1" d="M455.43.3a10.42,10.42,0,1,0,8.35,10.21A10.47,10.47,0,0,0,455.43.3Z"/><path class="cls-1" d="M507.47.3a10.42,10.42,0,1,0,8.35,10.21A10.47,10.47,0,0,0,507.47.3Z"/><path class="cls-1" d="M559.51.3a10.42,10.42,0,1,0,8.35,10.21A10.49,10.49,0,0,0,559.51.3Z"/><path class="cls-1" d="M611.55.3a10.42,10.42,0,1,0,8.35,10.21A10.49,10.49,0,0,0,611.55.3Z"/><path class="cls-1" d="M663.59.3a10.42,10.42,0,1,0,8.35,10.21A10.49,10.49,0,0,0,663.59.3Z"/><path class="cls-1" d="M247.27,70.32a10.4,10.4,0,0,0-2.45-.3,10.71,10.71,0,0,0-2.14.22A10.41,10.41,0,0,0,244.22,91l.49,0,.49,0a10.42,10.42,0,0,0,2.07-20.63Z"/><path class="cls-1" d="M299.31,70.32a10.42,10.42,0,1,0,8.35,10.21A10.47,10.47,0,0,0,299.31,70.32Z"/><path class="cls-1" d="M351.35,70.32a10.42,10.42,0,1,0,8.35,10.21A10.47,10.47,0,0,0,351.35,70.32Z"/><path class="cls-1" d="M403.39,70.32a10.42,10.42,0,1,0,8.35,10.21A10.47,10.47,0,0,0,403.39,70.32Z"/><path class="cls-1" d="M455.43,70.32a10.42,10.42,0,1,0,8.35,10.21A10.47,10.47,0,0,0,455.43,70.32Z"/><path class="cls-1" d="M507.47,70.32a10.42,10.42,0,1,0,8.35,10.21A10.47,10.47,0,0,0,507.47,70.32Z"/><path class="cls-1" d="M559.51,70.32a10.42,10.42,0,1,0,8.35,10.21A10.49,10.49,0,0,0,559.51,70.32Z"/><path class="cls-1" d="M611.55,70.32a10.42,10.42,0,1,0,8.35,10.21A10.49,10.49,0,0,0,611.55,70.32Z"/><path class="cls-1" d="M663.59,70.32a10.42,10.42,0,1,0,8.35,10.21A10.49,10.49,0,0,0,663.59,70.32Z"/><path class="cls-1" d="M247.27,140.34a10.34,10.34,0,0,0-2.45-.3,10,10,0,0,0-1.65.14,10.42,10.42,0,0,0,.92,20.79c.19,0,.37,0,.56,0s.36,0,.55,0a10.42,10.42,0,0,0,2.07-20.63Z"/><path class="cls-1" d="M299.31,140.34a10.42,10.42,0,1,0,8.35,10.21A10.4,10.4,0,0,0,299.31,140.34Z"/><path class="cls-1" d="M351.35,140.34a10.42,10.42,0,1,0,8.35,10.21A10.47,10.47,0,0,0,351.35,140.34Z"/><path class="cls-1" d="M403.39,140.34a10.42,10.42,0,1,0,8.35,10.21A10.47,10.47,0,0,0,403.39,140.34Z"/><path class="cls-1" d="M455.43,140.34a10.42,10.42,0,1,0,8.35,10.21A10.47,10.47,0,0,0,455.43,140.34Z"/><path class="cls-1" d="M507.47,140.34a10.42,10.42,0,1,0,8.35,10.21A10.47,10.47,0,0,0,507.47,140.34Z"/><path class="cls-1" d="M559.51,140.34a10.42,10.42,0,1,0,8.35,10.21A10.49,10.49,0,0,0,559.51,140.34Z"/><path class="cls-1" d="M611.55,140.34a10.42,10.42,0,1,0,8.35,10.21A10.49,10.49,0,0,0,611.55,140.34Z"/><path class="cls-1" d="M663.59,140.34a10.42,10.42,0,1,0,8.35,10.21A10.49,10.49,0,0,0,663.59,140.34Z"/><path class="cls-1" d="M247.27,210.36a10.41,10.41,0,0,0-2.45-.31,10.2,10.2,0,0,0-1.58.14A10.41,10.41,0,0,0,244,231l.61,0c.21,0,.41,0,.62,0a10.42,10.42,0,0,0,2.07-20.63Z"/><path class="cls-1" d="M299.31,210.36a10.41,10.41,0,1,0-4.53,20.32,10,10,0,0,0,2.46.31,10.42,10.42,0,0,0,2.07-20.63Z"/><path class="cls-1" d="M351.35,210.36a10.41,10.41,0,1,0-4.53,20.32,10,10,0,0,0,2.46.31,10.42,10.42,0,0,0,2.07-20.63Z"/><path class="cls-1" d="M403.39,210.36a10.41,10.41,0,1,0-4.53,20.32,10,10,0,0,0,2.46.31,10.42,10.42,0,0,0,2.07-20.63Z"/><path class="cls-1" d="M455.43,210.36a10.41,10.41,0,1,0-4.53,20.32,10,10,0,0,0,2.46.31,10.42,10.42,0,0,0,2.07-20.63Z"/><path class="cls-1" d="M507.47,210.36a10.41,10.41,0,1,0-4.53,20.32,10,10,0,0,0,2.46.31,10.42,10.42,0,0,0,2.07-20.63Z"/><path class="cls-1" d="M559.51,210.36A10.41,10.41,0,1,0,555,230.68a10,10,0,0,0,2.46.31,10.42,10.42,0,0,0,2.07-20.63Z"/><path class="cls-1" d="M611.55,210.36A10.41,10.41,0,1,0,607,230.68a10,10,0,0,0,2.46.31,10.42,10.42,0,0,0,2.07-20.63Z"/><path class="cls-1" d="M663.59,210.36a10.41,10.41,0,1,0-4.53,20.32,10,10,0,0,0,2.46.31,10.42,10.42,0,0,0,2.07-20.63Z"/></g></g></svg>