<svg xmlns="http://www.w3.org/2000/svg" xmlns:xlink="http://www.w3.org/1999/xlink" viewBox="0 0 508.83 215.42"><defs><style>.cls-1{fill:url(#linear-gradient);}.cls-2{fill:url(#linear-gradient-2);}.cls-3{fill:url(#linear-gradient-3);}.cls-4{fill:url(#linear-gradient-4);}.cls-5{fill:url(#linear-gradient-5);}.cls-6{fill:url(#linear-gradient-6);}.cls-7{fill:url(#linear-gradient-7);}.cls-8{fill:url(#linear-gradient-8);}.cls-9{fill:url(#linear-gradient-9);}.cls-10{fill:url(#linear-gradient-10);}.cls-11{fill:url(#linear-gradient-11);}.cls-12{fill:url(#linear-gradient-12);}.cls-13{fill:url(#linear-gradient-13);}.cls-14{fill:url(#linear-gradient-14);}.cls-15{fill:url(#linear-gradient-15);}.cls-16{fill:url(#linear-gradient-16);}.cls-17{fill:url(#linear-gradient-17);}.cls-18{fill:url(#linear-gradient-18);}.cls-19{fill:url(#linear-gradient-19);}.cls-20{fill:url(#linear-gradient-20);}.cls-21{fill:url(#linear-gradient-21);}.cls-22{fill:url(#linear-gradient-22);}.cls-23{fill:url(#linear-gradient-23);}.cls-24{fill:url(#linear-gradient-24);}.cls-25{fill:url(#linear-gradient-25);}.cls-26{fill:url(#linear-gradient-26);}.cls-27{fill:url(#linear-gradient-27);}.cls-28{fill:url(#linear-gradient-28);}.cls-29{fill:url(#linear-gradient-29);}.cls-30{fill:url(#linear-gradient-30);}.cls-31{fill:url(#linear-gradient-31);}.cls-32{fill:url(#linear-gradient-32);}.cls-33{fill:url(#linear-gradient-33);}.cls-34{fill:url(#linear-gradient-34);}.cls-35{fill:url(#linear-gradient-35);}.cls-36{fill:url(#linear-gradient-36);}.cls-37{fill:url(#linear-gradient-37);}.cls-38{fill:url(#linear-gradient-38);}.cls-39{fill:url(#linear-gradient-39);}.cls-40{fill:url(#linear-gradient-40);}.cls-41{fill:url(#linear-gradient-41);}.cls-42{fill:url(#linear-gradient-42);}.cls-43{fill:url(#linear-gradient-43);}.cls-44{fill:url(#linear-gradient-44);}.cls-45{fill:url(#linear-gradient-45);}.cls-46{fill:url(#linear-gradient-46);}.cls-47{fill:url(#linear-gradient-47);}.cls-48{fill:url(#linear-gradient-48);}.cls-49{fill:url(#linear-gradient-49);}.cls-50{fill:url(#linear-gradient-50);}.cls-51{fill:url(#linear-gradient-51);}.cls-52{fill:url(#linear-gradient-52);}.cls-53{fill:url(#linear-gradient-53);}.cls-54{fill:url(#linear-gradient-54);}.cls-55{fill:url(#linear-gradient-55);}.cls-56{fill:url(#linear-gradient-56);}.cls-57{fill:url(#linear-gradient-57);}.cls-58{fill:url(#linear-gradient-58);}.cls-59{fill:url(#linear-gradient-59);}.cls-60{fill:#22b573;}.cls-61{fill:url(#linear-gradient-60);}.cls-62{fill:url(#linear-gradient-61);}.cls-63{fill:url(#linear-gradient-62);}.cls-64{fill:url(#linear-gradient-63);}.cls-65{fill:url(#linear-gradient-64);}.cls-66{fill:url(#linear-gradient-65);}.cls-67{fill:url(#linear-gradient-66);}.cls-68{fill:url(#linear-gradient-67);}.cls-69{fill:url(#linear-gradient-68);}.cls-70{fill:url(#linear-gradient-69);}.cls-71{fill:url(#linear-gradient-70);}.cls-72{fill:url(#linear-gradient-71);}.cls-73{fill:url(#linear-gradient-72);}.cls-74{fill:url(#linear-gradient-73);}.cls-75{fill:url(#linear-gradient-74);}.cls-76{fill:url(#linear-gradient-75);}.cls-77{fill:url(#linear-gradient-76);}.cls-78{fill:url(#linear-gradient-77);}.cls-79{fill:url(#linear-gradient-78);}.cls-80{fill:url(#linear-gradient-79);}.cls-81{fill:url(#linear-gradient-80);}.cls-82{fill:url(#linear-gradient-81);}.cls-83{fill:url(#linear-gradient-82);}.cls-84{fill:url(#linear-gradient-83);}.cls-85{fill:url(#linear-gradient-84);}.cls-86{fill:url(#linear-gradient-85);}.cls-87{fill:url(#linear-gradient-86);}.cls-88{fill:url(#linear-gradient-87);}.cls-89{fill:url(#linear-gradient-88);}.cls-90{fill:url(#linear-gradient-89);}.cls-91{fill:url(#linear-gradient-90);}.cls-92{fill:url(#linear-gradient-91);}.cls-93{fill:url(#linear-gradient-92);}.cls-94{fill:url(#linear-gradient-93);}.cls-95{fill:url(#linear-gradient-94);}.cls-96{fill:url(#linear-gradient-95);}.cls-97{fill:url(#linear-gradient-96);}.cls-98{fill:url(#linear-gradient-97);}.cls-99{fill:url(#linear-gradient-98);}.cls-100{fill:url(#linear-gradient-99);}.cls-101{fill:url(#linear-gradient-100);}.cls-102{fill:url(#linear-gradient-101);}.cls-103{fill:url(#linear-gradient-102);}.cls-104{fill:url(#linear-gradient-103);}.cls-105{fill:url(#linear-gradient-104);}.cls-106{fill:url(#linear-gradient-105);}.cls-107{fill:url(#linear-gradient-106);}.cls-108{fill:url(#linear-gradient-107);}.cls-109{fill:url(#linear-gradient-108);}.cls-110{fill:url(#linear-gradient-109);}.cls-111{fill:url(#linear-gradient-110);}.cls-112{fill:url(#linear-gradient-111);}.cls-113{fill:url(#linear-gradient-112);}.cls-114{fill:url(#linear-gradient-113);}.cls-115{fill:url(#linear-gradient-114);}.cls-116{fill:url(#linear-gradient-115);}.cls-117{fill:url(#linear-gradient-116);}.cls-118{fill:url(#linear-gradient-117);}.cls-119{fill:url(#linear-gradient-118);}.cls-120{fill:url(#linear-gradient-119);}.cls-121{fill:url(#linear-gradient-120);}.cls-122{fill:url(#linear-gradient-121);}.cls-123{fill:url(#linear-gradient-122);}.cls-124{fill:url(#linear-gradient-123);}.cls-125{fill:url(#linear-gradient-124);}.cls-126{fill:url(#linear-gradient-125);}.cls-127{fill:url(#linear-gradient-126);}.cls-128{fill:url(#linear-gradient-127);}.cls-129{fill:url(#linear-gradient-128);}.cls-130{fill:url(#linear-gradient-129);}.cls-131{fill:url(#linear-gradient-130);}.cls-132{fill:url(#linear-gradient-131);}.cls-133{fill:url(#linear-gradient-132);}.cls-134{fill:url(#linear-gradient-133);}.cls-135{fill:url(#linear-gradient-134);}.cls-136{fill:url(#linear-gradient-135);}.cls-137{fill:url(#linear-gradient-136);}.cls-138{fill:url(#linear-gradient-137);}.cls-139{fill:url(#linear-gradient-138);}.cls-140{fill:url(#linear-gradient-139);}.cls-141{fill:url(#linear-gradient-140);}.cls-142{fill:url(#linear-gradient-141);}.cls-143{fill:url(#linear-gradient-142);}</style><linearGradient id="linear-gradient" x1="608.16" y1="-435.73" x2="720.52" y2="-147.8" gradientTransform="matrix(1, 0, 0, -1, -296.49, -168.85)" gradientUnits="userSpaceOnUse"><stop offset="0.12" stop-color="#25c17b"/><stop offset="0.18" stop-color="#28b288"/><stop offset="0.34" stop-color="#2e90a4"/><stop offset="0.49" stop-color="#3476ba"/><stop offset="0.65" stop-color="#3764ca"/><stop offset="0.82" stop-color="#3959d3"/><stop offset="1" stop-color="#3a55d6"/></linearGradient><linearGradient id="linear-gradient-2" x1="629.76" y1="-444.17" x2="742.13" y2="-156.23" xlink:href="#linear-gradient"/><linearGradient id="linear-gradient-3" x1="619.8" y1="-440.28" x2="732.17" y2="-152.35" xlink:href="#linear-gradient"/><linearGradient id="linear-gradient-4" x1="567.27" y1="-419.78" x2="679.64" y2="-131.85" xlink:href="#linear-gradient"/><linearGradient id="linear-gradient-5" x1="554.5" y1="-414.8" x2="666.87" y2="-126.86" xlink:href="#linear-gradient"/><linearGradient id="linear-gradient-6" x1="544.38" y1="-410.85" x2="656.74" y2="-122.92" xlink:href="#linear-gradient"/><linearGradient id="linear-gradient-7" x1="531.15" y1="-405.69" x2="643.51" y2="-117.76" xlink:href="#linear-gradient"/><linearGradient id="linear-gradient-8" x1="673.33" y1="-461.17" x2="785.69" y2="-173.23" xlink:href="#linear-gradient"/><linearGradient id="linear-gradient-9" x1="676.34" y1="-462.35" x2="788.71" y2="-174.41" xlink:href="#linear-gradient"/><linearGradient id="linear-gradient-10" x1="676.08" y1="-462.24" x2="788.45" y2="-174.31" xlink:href="#linear-gradient"/><linearGradient id="linear-gradient-11" x1="651.54" y1="-452.67" x2="763.91" y2="-164.73" xlink:href="#linear-gradient"/><linearGradient id="linear-gradient-12" x1="523.26" y1="-402.6" x2="635.62" y2="-114.67" xlink:href="#linear-gradient"/><linearGradient id="linear-gradient-13" x1="528.06" y1="-404.48" x2="640.43" y2="-116.54" xlink:href="#linear-gradient"/><linearGradient id="linear-gradient-14" x1="555.47" y1="-415.18" x2="667.83" y2="-127.24" xlink:href="#linear-gradient"/><linearGradient id="linear-gradient-15" x1="588.1" y1="-427.91" x2="700.46" y2="-139.98" xlink:href="#linear-gradient"/><linearGradient id="linear-gradient-16" x1="700.17" y1="-471.64" x2="812.54" y2="-183.71" xlink:href="#linear-gradient"/><linearGradient id="linear-gradient-17" x1="518.73" y1="-400.84" x2="631.1" y2="-112.9" xlink:href="#linear-gradient"/><linearGradient id="linear-gradient-18" x1="517.79" y1="-400.48" x2="630.15" y2="-112.54" xlink:href="#linear-gradient"/><linearGradient id="linear-gradient-19" x1="519.89" y1="-401.3" x2="632.26" y2="-113.36" xlink:href="#linear-gradient"/><linearGradient id="linear-gradient-20" x1="518.11" y1="-400.59" x2="630.48" y2="-112.66" xlink:href="#linear-gradient"/><linearGradient id="linear-gradient-21" x1="520.31" y1="-401.46" x2="632.67" y2="-113.53" xlink:href="#linear-gradient"/><linearGradient id="linear-gradient-22" x1="688.17" y1="-466.96" x2="800.53" y2="-179.03" xlink:href="#linear-gradient"/><linearGradient id="linear-gradient-23" x1="671.53" y1="-460.47" x2="783.9" y2="-172.54" xlink:href="#linear-gradient"/><linearGradient id="linear-gradient-24" x1="569.87" y1="-420.8" x2="682.23" y2="-132.86" xlink:href="#linear-gradient"/><linearGradient id="linear-gradient-25" x1="543.85" y1="-410.64" x2="656.22" y2="-122.71" xlink:href="#linear-gradient"/><linearGradient id="linear-gradient-26" x1="534.82" y1="-407.12" x2="647.19" y2="-119.18" xlink:href="#linear-gradient"/><linearGradient id="linear-gradient-27" x1="706.58" y1="-474.15" x2="818.95" y2="-186.22" xlink:href="#linear-gradient"/><linearGradient id="linear-gradient-28" x1="708.08" y1="-474.73" x2="820.45" y2="-186.8" xlink:href="#linear-gradient"/><linearGradient id="linear-gradient-29" x1="528.72" y1="-404.73" x2="641.08" y2="-116.8" xlink:href="#linear-gradient"/><linearGradient id="linear-gradient-30" x1="533.24" y1="-406.5" x2="645.61" y2="-118.57" xlink:href="#linear-gradient"/><linearGradient id="linear-gradient-31" x1="522.71" y1="-402.39" x2="635.08" y2="-114.46" xlink:href="#linear-gradient"/><linearGradient id="linear-gradient-32" x1="525.63" y1="-403.53" x2="637.99" y2="-115.6" xlink:href="#linear-gradient"/><linearGradient id="linear-gradient-33" x1="529.92" y1="-405.21" x2="642.29" y2="-117.27" xlink:href="#linear-gradient"/><linearGradient id="linear-gradient-34" x1="525.79" y1="-403.59" x2="638.16" y2="-115.66" xlink:href="#linear-gradient"/><linearGradient id="linear-gradient-35" x1="225.15" y1="-11.19" x2="337.51" y2="276.74" gradientTransform="matrix(1, 0, 0, -1, 0, 221.92)" xlink:href="#linear-gradient"/><linearGradient id="linear-gradient-36" x1="524.55" y1="-403.11" x2="636.91" y2="-115.18" xlink:href="#linear-gradient"/><linearGradient id="linear-gradient-37" x1="525.07" y1="-403.31" x2="637.44" y2="-115.38" xlink:href="#linear-gradient"/><linearGradient id="linear-gradient-38" x1="524.11" y1="-402.94" x2="636.48" y2="-115.01" xlink:href="#linear-gradient"/><linearGradient id="linear-gradient-39" x1="601.25" y1="-433.04" x2="713.62" y2="-145.11" xlink:href="#linear-gradient"/><linearGradient id="linear-gradient-40" x1="526.95" y1="-404.05" x2="639.31" y2="-116.11" xlink:href="#linear-gradient"/><linearGradient id="linear-gradient-41" x1="583.59" y1="-426.15" x2="695.95" y2="-138.22" xlink:href="#linear-gradient"/><linearGradient id="linear-gradient-42" x1="527.79" y1="-404.37" x2="640.15" y2="-116.44" xlink:href="#linear-gradient"/><linearGradient id="linear-gradient-43" x1="653.7" y1="-453.52" x2="766.07" y2="-165.58" xlink:href="#linear-gradient"/><linearGradient id="linear-gradient-44" x1="637.84" y1="-447.32" x2="750.2" y2="-159.39" xlink:href="#linear-gradient"/><linearGradient id="linear-gradient-45" x1="536.76" y1="-407.87" x2="649.13" y2="-119.94" xlink:href="#linear-gradient"/><linearGradient id="linear-gradient-46" x1="665.68" y1="-458.18" x2="778.04" y2="-170.25" xlink:href="#linear-gradient"/><linearGradient id="linear-gradient-47" x1="676.64" y1="-462.47" x2="789.01" y2="-174.53" xlink:href="#linear-gradient"/><linearGradient id="linear-gradient-48" x1="671.52" y1="-460.47" x2="783.89" y2="-172.54" xlink:href="#linear-gradient"/><linearGradient id="linear-gradient-49" x1="704.64" y1="-473.39" x2="817.01" y2="-185.45" xlink:href="#linear-gradient"/><linearGradient id="linear-gradient-50" x1="653.88" y1="-453.58" x2="766.25" y2="-165.65" xlink:href="#linear-gradient"/><linearGradient id="linear-gradient-51" x1="664.65" y1="-457.78" x2="777.02" y2="-169.85" xlink:href="#linear-gradient"/><linearGradient id="linear-gradient-52" x1="687.22" y1="-466.59" x2="799.59" y2="-178.66" xlink:href="#linear-gradient"/><linearGradient id="linear-gradient-53" x1="697.57" y1="-470.63" x2="809.94" y2="-182.69" xlink:href="#linear-gradient"/><linearGradient id="linear-gradient-54" x1="631.35" y1="-444.78" x2="743.71" y2="-156.85" xlink:href="#linear-gradient"/><linearGradient id="linear-gradient-55" x1="653.38" y1="-453.39" x2="765.75" y2="-165.45" xlink:href="#linear-gradient"/><linearGradient id="linear-gradient-56" x1="642.65" y1="-449.19" x2="755.01" y2="-161.26" xlink:href="#linear-gradient"/><linearGradient id="linear-gradient-57" x1="663.45" y1="-457.32" x2="775.82" y2="-169.38" xlink:href="#linear-gradient"/><linearGradient id="linear-gradient-58" x1="642.17" y1="-449.01" x2="754.53" y2="-161.07" xlink:href="#linear-gradient"/><linearGradient id="linear-gradient-59" x1="619.85" y1="-440.3" x2="732.21" y2="-152.37" xlink:href="#linear-gradient"/><linearGradient id="linear-gradient-60" x1="299.07" y1="-300.16" x2="390.75" y2="-65.24" xlink:href="#linear-gradient"/><linearGradient id="linear-gradient-61" x1="308.78" y1="-303.95" x2="400.46" y2="-69.03" xlink:href="#linear-gradient"/><linearGradient id="linear-gradient-62" x1="314.87" y1="-306.33" x2="406.55" y2="-71.41" xlink:href="#linear-gradient"/><linearGradient id="linear-gradient-63" x1="320.98" y1="-308.71" x2="412.66" y2="-73.79" xlink:href="#linear-gradient"/><linearGradient id="linear-gradient-64" x1="327.08" y1="-311.09" x2="418.76" y2="-76.17" xlink:href="#linear-gradient"/><linearGradient id="linear-gradient-65" x1="333.18" y1="-313.47" x2="424.86" y2="-78.55" xlink:href="#linear-gradient"/><linearGradient id="linear-gradient-66" x1="337.35" y1="-315.1" x2="429.03" y2="-80.18" xlink:href="#linear-gradient"/><linearGradient id="linear-gradient-67" x1="344.2" y1="-317.77" x2="435.88" y2="-82.85" xlink:href="#linear-gradient"/><linearGradient id="linear-gradient-68" x1="351.35" y1="-320.56" x2="443.03" y2="-85.64" xlink:href="#linear-gradient"/><linearGradient id="linear-gradient-69" x1="357.45" y1="-322.94" x2="449.13" y2="-88.02" xlink:href="#linear-gradient"/><linearGradient id="linear-gradient-70" x1="363.55" y1="-325.32" x2="455.23" y2="-90.4" xlink:href="#linear-gradient"/><linearGradient id="linear-gradient-71" x1="369.68" y1="-327.71" x2="461.36" y2="-92.79" xlink:href="#linear-gradient"/><linearGradient id="linear-gradient-72" x1="375.76" y1="-330.08" x2="467.44" y2="-95.16" xlink:href="#linear-gradient"/><linearGradient id="linear-gradient-73" x1="381.06" y1="-332.15" x2="472.74" y2="-97.23" xlink:href="#linear-gradient"/><linearGradient id="linear-gradient-74" x1="386.2" y1="-334.16" x2="477.88" y2="-99.24" xlink:href="#linear-gradient"/><linearGradient id="linear-gradient-75" x1="391.51" y1="-336.23" x2="483.19" y2="-101.31" xlink:href="#linear-gradient"/><linearGradient id="linear-gradient-76" x1="409.09" y1="-343.09" x2="500.77" y2="-108.17" xlink:href="#linear-gradient"/><linearGradient id="linear-gradient-77" x1="415.55" y1="-345.62" x2="507.23" y2="-110.7" xlink:href="#linear-gradient"/><linearGradient id="linear-gradient-78" x1="421.65" y1="-348" x2="513.33" y2="-113.08" xlink:href="#linear-gradient"/><linearGradient id="linear-gradient-79" x1="430.62" y1="-351.5" x2="522.3" y2="-116.58" xlink:href="#linear-gradient"/><linearGradient id="linear-gradient-80" x1="439.6" y1="-355" x2="531.28" y2="-120.08" xlink:href="#linear-gradient"/><linearGradient id="linear-gradient-81" x1="445.7" y1="-357.38" x2="537.38" y2="-122.46" xlink:href="#linear-gradient"/><linearGradient id="linear-gradient-82" x1="451.8" y1="-359.76" x2="543.48" y2="-124.84" xlink:href="#linear-gradient"/><linearGradient id="linear-gradient-83" x1="455.27" y1="-361.12" x2="546.95" y2="-126.2" xlink:href="#linear-gradient"/><linearGradient id="linear-gradient-84" x1="465.71" y1="-365.19" x2="557.39" y2="-130.27" xlink:href="#linear-gradient"/><linearGradient id="linear-gradient-85" x1="477.12" y1="-369.64" x2="568.8" y2="-134.72" xlink:href="#linear-gradient"/><linearGradient id="linear-gradient-86" x1="486.08" y1="-373.14" x2="577.76" y2="-138.22" xlink:href="#linear-gradient"/><linearGradient id="linear-gradient-87" x1="492.18" y1="-375.52" x2="583.86" y2="-140.6" xlink:href="#linear-gradient"/><linearGradient id="linear-gradient-88" x1="495.74" y1="-376.91" x2="587.42" y2="-141.99" xlink:href="#linear-gradient"/><linearGradient id="linear-gradient-89" x1="501.06" y1="-378.99" x2="592.74" y2="-144.07" xlink:href="#linear-gradient"/><linearGradient id="linear-gradient-90" x1="364.18" y1="-327.17" x2="421.45" y2="-180.41" xlink:href="#linear-gradient"/><linearGradient id="linear-gradient-91" x1="368.25" y1="-328.75" x2="425.52" y2="-181.99" xlink:href="#linear-gradient"/><linearGradient id="linear-gradient-92" x1="371.57" y1="-330.05" x2="428.84" y2="-183.29" xlink:href="#linear-gradient"/><linearGradient id="linear-gradient-93" x1="375.25" y1="-331.49" x2="432.52" y2="-184.73" xlink:href="#linear-gradient"/><linearGradient id="linear-gradient-94" x1="378.02" y1="-332.57" x2="435.29" y2="-185.81" xlink:href="#linear-gradient"/><linearGradient id="linear-gradient-95" x1="381.93" y1="-334.09" x2="439.2" y2="-187.33" xlink:href="#linear-gradient"/><linearGradient id="linear-gradient-96" x1="386.25" y1="-335.78" x2="443.52" y2="-189.02" xlink:href="#linear-gradient"/><linearGradient id="linear-gradient-97" x1="392.66" y1="-338.28" x2="449.93" y2="-191.52" xlink:href="#linear-gradient"/><linearGradient id="linear-gradient-98" x1="395.02" y1="-339.2" x2="452.29" y2="-192.44" xlink:href="#linear-gradient"/><linearGradient id="linear-gradient-99" x1="399.05" y1="-340.77" x2="456.32" y2="-194.01" xlink:href="#linear-gradient"/><linearGradient id="linear-gradient-100" x1="402.64" y1="-342.17" x2="459.91" y2="-195.41" xlink:href="#linear-gradient"/><linearGradient id="linear-gradient-101" x1="410.74" y1="-345.33" x2="468.01" y2="-198.57" xlink:href="#linear-gradient"/><linearGradient id="linear-gradient-102" x1="416.17" y1="-347.45" x2="473.44" y2="-200.69" xlink:href="#linear-gradient"/><linearGradient id="linear-gradient-103" x1="421.79" y1="-349.65" x2="479.06" y2="-202.89" xlink:href="#linear-gradient"/><linearGradient id="linear-gradient-104" x1="426.45" y1="-351.46" x2="483.72" y2="-204.7" xlink:href="#linear-gradient"/><linearGradient id="linear-gradient-105" x1="429.96" y1="-352.84" x2="487.23" y2="-206.08" xlink:href="#linear-gradient"/><linearGradient id="linear-gradient-106" x1="438.11" y1="-356.01" x2="495.38" y2="-209.25" xlink:href="#linear-gradient"/><linearGradient id="linear-gradient-107" x1="442.05" y1="-357.55" x2="499.32" y2="-210.79" xlink:href="#linear-gradient"/><linearGradient id="linear-gradient-108" x1="445.13" y1="-358.76" x2="502.4" y2="-212" xlink:href="#linear-gradient"/><linearGradient id="linear-gradient-109" x1="449.73" y1="-360.55" x2="507" y2="-213.79" xlink:href="#linear-gradient"/><linearGradient id="linear-gradient-110" x1="454.09" y1="-362.25" x2="511.36" y2="-215.49" xlink:href="#linear-gradient"/><linearGradient id="linear-gradient-111" x1="461.39" y1="-365.1" x2="518.66" y2="-218.34" xlink:href="#linear-gradient"/><linearGradient id="linear-gradient-112" x1="464.62" y1="-366.36" x2="521.89" y2="-219.6" xlink:href="#linear-gradient"/><linearGradient id="linear-gradient-113" x1="467.44" y1="-367.46" x2="524.71" y2="-220.7" xlink:href="#linear-gradient"/><linearGradient id="linear-gradient-114" x1="470.66" y1="-368.72" x2="527.93" y2="-221.96" xlink:href="#linear-gradient"/><linearGradient id="linear-gradient-115" x1="479.59" y1="-372.2" x2="536.86" y2="-225.44" xlink:href="#linear-gradient"/><linearGradient id="linear-gradient-116" x1="483.17" y1="-373.6" x2="540.44" y2="-226.84" xlink:href="#linear-gradient"/><linearGradient id="linear-gradient-117" x1="485.79" y1="-374.62" x2="543.06" y2="-227.86" xlink:href="#linear-gradient"/><linearGradient id="linear-gradient-118" x1="491.75" y1="-376.95" x2="549.02" y2="-230.19" xlink:href="#linear-gradient"/><linearGradient id="linear-gradient-119" x1="501.51" y1="-380.76" x2="558.78" y2="-234" xlink:href="#linear-gradient"/><linearGradient id="linear-gradient-120" x1="505.51" y1="-382.32" x2="562.78" y2="-235.56" xlink:href="#linear-gradient"/><linearGradient id="linear-gradient-121" x1="508.49" y1="-383.48" x2="565.76" y2="-236.72" xlink:href="#linear-gradient"/><linearGradient id="linear-gradient-122" x1="510.88" y1="-384.41" x2="568.15" y2="-237.65" xlink:href="#linear-gradient"/><linearGradient id="linear-gradient-123" x1="519.51" y1="-387.78" x2="576.78" y2="-241.02" xlink:href="#linear-gradient"/><linearGradient id="linear-gradient-124" x1="523.31" y1="-389.26" x2="580.58" y2="-242.5" xlink:href="#linear-gradient"/><linearGradient id="linear-gradient-125" x1="527.1" y1="-390.74" x2="584.37" y2="-243.98" xlink:href="#linear-gradient"/><linearGradient id="linear-gradient-126" x1="531.36" y1="-392.4" x2="588.63" y2="-245.64" xlink:href="#linear-gradient"/><linearGradient id="linear-gradient-127" x1="534.56" y1="-393.65" x2="591.83" y2="-246.89" xlink:href="#linear-gradient"/><linearGradient id="linear-gradient-128" x1="382.77" y1="-306.51" x2="427.65" y2="-191.49" xlink:href="#linear-gradient"/><linearGradient id="linear-gradient-129" x1="391.44" y1="-309.9" x2="436.32" y2="-194.88" xlink:href="#linear-gradient"/><linearGradient id="linear-gradient-130" x1="400.64" y1="-313.49" x2="445.52" y2="-198.47" xlink:href="#linear-gradient"/><linearGradient id="linear-gradient-131" x1="410.98" y1="-317.52" x2="455.86" y2="-202.5" xlink:href="#linear-gradient"/><linearGradient id="linear-gradient-132" x1="430.34" y1="-325.08" x2="475.22" y2="-210.06" xlink:href="#linear-gradient"/><linearGradient id="linear-gradient-133" x1="438.49" y1="-328.25" x2="483.37" y2="-213.23" xlink:href="#linear-gradient"/><linearGradient id="linear-gradient-134" x1="446.71" y1="-331.46" x2="491.59" y2="-216.44" xlink:href="#linear-gradient"/><linearGradient id="linear-gradient-135" x1="466.81" y1="-339.31" x2="511.69" y2="-224.29" xlink:href="#linear-gradient"/><linearGradient id="linear-gradient-136" x1="481.32" y1="-344.97" x2="526.2" y2="-229.95" xlink:href="#linear-gradient"/><linearGradient id="linear-gradient-137" x1="488.37" y1="-347.72" x2="533.25" y2="-232.7" xlink:href="#linear-gradient"/><linearGradient id="linear-gradient-138" x1="494.35" y1="-350.05" x2="539.23" y2="-235.03" xlink:href="#linear-gradient"/><linearGradient id="linear-gradient-139" x1="504.27" y1="-353.92" x2="549.15" y2="-238.9" xlink:href="#linear-gradient"/><linearGradient id="linear-gradient-140" x1="517.86" y1="-359.23" x2="562.74" y2="-244.21" xlink:href="#linear-gradient"/><linearGradient id="linear-gradient-141" x1="528.97" y1="-363.56" x2="573.85" y2="-248.54" xlink:href="#linear-gradient"/><linearGradient id="linear-gradient-142" x1="594.19" y1="-430.29" x2="706.56" y2="-142.36" xlink:href="#linear-gradient"/></defs><g id="Layer_2" data-name="Layer 2"><g id="Layer_1-2" data-name="Layer 1"><path class="cls-1" d="M411.4,24.19l17.3-24a129.73,129.73,0,0,0-21.23.6L393.71,23.48A99.67,99.67,0,0,1,411.4,24.19Z"/><path class="cls-2" d="M431.82,29.55l22.86-24.8A104.25,104.25,0,0,0,434.3.6L415.22,24.81A82.13,82.13,0,0,1,431.82,29.55Z"/><path class="cls-3" d="M427.33,39.78a76.1,76.1,0,0,0-16.6-6.24L394.94,53l13.64,6.15Z"/><path class="cls-4" d="M362.1,35.1c-1.44.4-2.87.82-4.31,1.27a130.56,130.56,0,0,0-12.73,4.75L341.3,56l14.88-4.35Z"/><path class="cls-5" d="M325.73,63.24l13.46-6.45L342,42.5a140.73,140.73,0,0,0-15.08,8.07Z"/><path class="cls-6" d="M312.38,71.86l11.71-7.7.43-12.1a150,150,0,0,0-12.89,9.21Z"/><path class="cls-7" d="M289.12,83.73l3,6.91,8.3-8.74-2.54-8.19A128.18,128.18,0,0,0,289.12,83.73Z"/><path class="cls-8" d="M461,96.05l-23.59,8.52-.32,15.2,22-5.79A86.4,86.4,0,0,0,461,96.05Z"/><path class="cls-9" d="M439.92,154.67h0a114.71,114.71,0,0,0,9.76-15.19l-17.95.85-7.22,13.86,15.36.54Z"/><path class="cls-10" d="M434.72,189.35l-.51-.18-.34-.13h-.1l-14.17-5.17h0l-1.55-.56q-7.17,4.5-13.85,8l15.63,7.28c5.19-2.69,10.46-5.82,15.5-9l-.44-.15Z"/><path class="cls-11" d="M449.71,39.83l28.23-24.12A92,92,0,0,0,460,6.6L435.41,31.12Z"/><path class="cls-12" d="M294.89,72.19l-2.84-8.26c-3,3.55-5.71,7.13-8.32,10.9l3.18,6.94Z"/><path class="cls-13" d="M305.19,62c-.8.72-1.6,1.45-2.38,2.18.78-.73,1.58-1.46,2.38-2.18h0l.11-.09-1.88-10.22q-5.39,5.25-10.2,10.88l2.49,8.74Z"/><path class="cls-14" d="M354.07,16.46a186.28,186.28,0,0,0-16.81,9.08L334.82,41l15-7.2Z"/><path class="cls-15" d="M390,23.71,402.17,1.45A158.14,158.14,0,0,0,381.51,6l-9.15,20.49Z"/><path class="cls-16" d="M507.33,61.4,473.12,77.05l1.72,16.86,33.87-12.42A81.53,81.53,0,0,0,507.33,61.4Z"/><path class="cls-17" d="M265.89,113.79c-.21.87-.39,1.74-.57,2.61-.14.69-.28,1.39-.4,2.08-.17.94-.33,1.89-.46,2.83l2.55,2.31c.19-.9.38-1.79.61-2.68h0c.08-.33.16-.67.25-1s.17-.64.26-1h0c.22-.83.46-1.66.71-2.49Z"/><path class="cls-18" d="M270.6,111.19c.21-.61.44-1.22.68-1.83.34-.87.69-1.74,1.06-2.61l-3.49-3.16c-.32.91-.62,1.82-.91,2.74-.21.64-.4,1.28-.59,1.92-.35,1.17-.67,2.35-1,3.53l3.06,2.78C269.81,113.43,270.19,112.31,270.6,111.19Z"/><path class="cls-19" d="M286.41,82.41,283,75.91a127.67,127.67,0,0,0-9,15.53l4.1,3.73A119.48,119.48,0,0,1,286.41,82.41Z"/><path class="cls-20" d="M275,101c.27-.56.56-1.13.84-1.69.43-.84.88-1.68,1.34-2.51l-4-3.65c-.41.88-.82,1.76-1.2,2.64-.26.59-.51,1.18-.76,1.77-.58,1.38-1.14,2.78-1.65,4.18L273.1,105C273.68,103.65,274.31,102.32,275,101Z"/><path class="cls-21" d="M264,125.48c-.07.76-.13,1.52-.19,2.27s-.1,1.58-.13,2.37l1.8,1.64.44-2.09.19-1c.06-.38.13-.77.19-1.15.1-.63.21-1.25.33-1.87l-2.41-2.19C264.09,124.19,264,124.82,264,125.48Z"/><path class="cls-22" d="M472.11,73.19,506,55.91a75,75,0,0,0-7.59-17.85l-32.9,20Z"/><path class="cls-23" d="M463.42,54.77l32-21.39c-3.54-5-7.72-10.29-12.85-14.43L452.74,42.32Z"/><path class="cls-24" d="M369.09,27.25l7.8-19.87a173.9,173.9,0,0,0-19,7.3l-5.38,18Z"/><path class="cls-25" d="M334.24,27.41a176.3,176.3,0,0,0-14.53,10.12l-.22,13,13.14-8.34Z"/><path class="cls-26" d="M317.82,51.73l-.42-12.4Q311,44.4,305.11,50l1.4,10.78Z"/><path class="cls-27" d="M471.51,115.32l32-7.44a104.72,104.72,0,0,0,4.71-20.61L474.66,97.93Z"/><path class="cls-28" d="M470.31,119.19l-7.22,16.65,28.78-3c2.27-3.8,4.35-7.69,6.25-11.64h0c1.17-2.45,2.41-5.34,3.48-7.85Z"/><path class="cls-29" d="M264.87,148.11c.31,1.78.71,3.56,1.15,5.32-.26-1.77-.49-3.53-.63-5.3Z"/><path class="cls-30" d="M269.65,148.59a49,49,0,0,0,1.56,5.54,51.42,51.42,0,0,1-.9-5.51Z"/><path class="cls-31" d="M265.14,139.19q0-.84.06-1.68c0-.78.07-1.55.14-2.33a4.91,4.91,0,0,1,.07-1l-1.85-1.68V136h0a15.39,15.39,0,0,0,.07,1.79h0Z"/><path class="cls-32" d="M265.1,141.6l-1.26-1.14h0c.18,2.28.48,4.56.88,6.82h.61C265.18,145.39,265.11,143.49,265.1,141.6Z"/><path class="cls-33" d="M270.19,146.19l-.06-2.51v-1.77l-1.52-1.38h-.1c0,.6.09,1.19.15,1.79.1.93.22,1.86.38,2.79h0q.21,1.37.51,2.73h.74Z"/><path class="cls-34" d="M280.13,97.06l-.94,1.6-1.43,2.43,4,3.68c.55-.89,1.1-1.77,1.69-2.65.27-.42.54-.84.82-1.26.73-1.06,1.47-2.11,2.23-3.16L283.06,92Z"/><polygon class="cls-35" points="274.21 107.55 274.12 107.45 274.21 107.55 274.21 107.55"/><path class="cls-36" d="M275,106.71c-.27.59-.52,1.18-.77,1.77-.35.83-.68,1.67-1,2.51v.1l3.54,3.22c.38-.84.78-1.66,1.19-2.49.27-.56.56-1.12.85-1.67.67-1.27,1.36-2.53,2.11-3.78l-4-3.63C276.21,104.06,275.59,105.38,275,106.71Z"/><path class="cls-37" d="M269.17,125.59c-.11.72-.23,1.44-.32,2.16h0c-.09.66-.16,1.3-.23,1.95l2.42,2.2q.15-.92.36-1.83h0c.15-.68.3-1.36.47-2,.22-.87.44-1.74.69-2.61h0l-2.85-2.6Q269.41,124.18,269.17,125.59Z"/><path class="cls-38" d="M271.38,116.32c-.2.65-.39,1.3-.56,1.94-.24.85-.46,1.69-.65,2.54h0l3,2.7q.38-1.2.81-2.4c.21-.61.44-1.22.68-1.83.41-1.08.84-2.15,1.31-3.22l-3.46-3.12C272.11,114.06,271.73,115.19,271.38,116.32Z"/><path class="cls-39" d="M406.51,32.62a86.77,86.77,0,0,0-15.91-1.5h-2.3L377.05,49.86l15.17,2.33Z"/><path class="cls-40" d="M270.18,138.53c.05-.76.12-1.51.21-2.27s.18-1.48.29-2.22l-2.26-2c0,.8-.09,1.59-.12,2.38s0,1.63,0,2.43h0v1.07l1.82,1.64C270.13,139.19,270.15,138.86,270.18,138.53Z"/><path class="cls-41" d="M384.13,31.32a107.28,107.28,0,0,0-18.27,2.81l-7.14,17,15.57-1.34Z"/><path class="cls-42" d="M288.31,84.76c-.85,1.1-1.68,2.21-2.49,3.32s-1.58,2.24-2.34,3.38L287.1,97l4.55-5.73Z"/><path class="cls-43" d="M424.51,72.11l7.84,12.36,24.23-14.28a39.88,39.88,0,0,0-8.7-14.73Z"/><path class="cls-44" d="M444.9,52.34a75.4,75.4,0,0,0-13.8-10.46L411,60.69,422.51,70Z"/><path class="cls-45" d="M301.24,81.19l10-8.39-1.32-10.07c-3.74,3.09-7.34,6.36-10.76,9.79l2.12,8.67Z"/><path class="cls-46" d="M460.89,91.68a78.18,78.18,0,0,0-3-17.31L433.51,87.19l3.61,14.42Z"/><path class="cls-47" d="M458.11,118.19l-21.42,4.48-3.94,15,19-2.17A99.75,99.75,0,0,0,458.11,118.19Z"/><path class="cls-48" d="M437.51,157.7,423,156.42a83.29,83.29,0,0,1-10.09,12c.43.07,11.82,2.26,12.26,2.33C429.33,166.49,433.56,162.46,437.51,157.7Z"/><path class="cls-49" d="M461.22,139.19l-10.15,15,24,.64h1a177.29,177.29,0,0,0,13-17.25s-5.85.34-5.87.33Z"/><path class="cls-50" d="M399,206.89l-.31-.23-.7-.53-.16-.12-.84-.64-.44-.33-2-1.54-4.95-3.75h0l-1.47-1.11c-2.34.92-4.61,1.77-6.81,2.53-1.26.43-2.5.84-3.72,1.21.14.17,1.93,2.43,3.72,4.65l3.59,4.5q7.38-1.78,14.62-4.29l-.28-.2Z"/><path class="cls-51" d="M389.4,198.13c.28.06,12.21,8.42,12.56,8.24a145.78,145.78,0,0,0,15.13-6.43L402.64,192Q395.74,195.57,389.4,198.13Z"/><path class="cls-52" d="M420.26,181.84l4.71,1.48-3.25-1h-.06l16.66,5.15L434,186.19l4.33,1.35C443.61,184,448.92,180,454,176l-19.3-4.11Q427.25,177.36,420.26,181.84Z"/><path class="cls-53" d="M436.88,169.72l20.45,3.33c5.27-4.47,10.45-9.42,15.35-14.41l-23.8-1.77Z"/><path class="cls-54" d="M361.78,193.92c-1.56.33-3.14.63-4.75.91h0c.28.44.57.9.89,1.38l4.25,6.68h0q6-1.11,11.74-2.74c-2.28-2.87-4.3-5.61-6-7.64C365.9,193,363.87,193.5,361.78,193.92Z"/><path class="cls-55" d="M407,184.93l-9.81-4.28c-2,1.18-4,2.28-6.06,3.3a60.09,60.09,0,0,1-5.82,2.64h-.06l-1.65.69,1,.54,1.42.8c2.44,1.38,5.52,3.17,7.15,4.13A124.59,124.59,0,0,0,407,184.93Z"/><path class="cls-56" d="M381.29,197.77c3.38-1.21,6.72-2.57,10-4.11-1.6-1-7.38-4.74-9.07-5.81l-1,.39a115.86,115.86,0,0,1-11.92,3.87l6,7.59C377.4,199.1,379.35,198.46,381.29,197.77Z"/><path class="cls-57" d="M422.6,173l-11.39-2.85a84,84,0,0,1-12.31,9.5l10.53,3.69A139.6,139.6,0,0,0,422.6,173Z"/><path class="cls-58" d="M376,202.86a121.28,121.28,0,0,1-12,2.93h0c2.08,3.24,4,6.2,5.15,8l.34.54h-.16v.06h.16c.92-.12,1.83-.25,2.73-.4l2.31-.36,2.24-.4h.07l1.46-.28q1.46-.28,2.91-.6l1.68-.38H383l-1.75-2.28Z"/><path class="cls-59" d="M353.84,193.55l-.09-.15h0Z"/><path class="cls-60" d="M16.29,115.79V118h-1c0,.42.07.84.07,1.26a6.67,6.67,0,0,1-.79,2.2,13.27,13.27,0,0,1-8.19,3.27,6.19,6.19,0,0,1-4.83-1.9A7.08,7.08,0,0,1,0,118a12.58,12.58,0,0,1,1.65-5.8l.67.29a11.86,11.86,0,0,0-1.07,4.42,5.5,5.5,0,0,0,1.4,3.83,5.85,5.85,0,0,0,4.26,1.65,12.94,12.94,0,0,0,5.6-1.51,4,4,0,0,0,1.59-1.21c-.41-.85-2.32-1.6-5.12-1.6l-.1-.25,1.21-2ZM5.59,130c-.72-.68-1.35-1.24-2.06-1.82a13.83,13.83,0,0,1,1.39-1.67,17.74,17.74,0,0,1,2,1.88A10.25,10.25,0,0,1,5.59,130ZM9,129.73c-.72-.69-1.35-1.25-2.05-1.83a14.14,14.14,0,0,1,1.38-1.71,17.74,17.74,0,0,1,2,1.88A10.19,10.19,0,0,1,9,129.73Z"/><path class="cls-60" d="M23.33,115.79V118h-7A1.14,1.14,0,0,1,15.1,117a.29.29,0,0,1,0-.13,1.08,1.08,0,0,1,1.1-1.08h7.13Z"/><path class="cls-60" d="M30.36,115.79V118h-7a1.14,1.14,0,0,1-1.24-1,.33.33,0,0,1,0-.14,1.1,1.1,0,0,1,1.12-1.08h7.12Z"/><path class="cls-60" d="M37.39,115.79V118h-7a1.13,1.13,0,0,1-1.23-1,.38.38,0,0,1,0-.15,1.08,1.08,0,0,1,1.1-1.08h7.13Z"/><path class="cls-60" d="M44.42,115.79V118h-7a1.13,1.13,0,0,1-1.23-1,.38.38,0,0,1,0-.15,1.08,1.08,0,0,1,1.1-1.08h7.13Z"/><path class="cls-60" d="M51.45,115.79V118h-7a1.13,1.13,0,0,1-1.23-1,.38.38,0,0,1,0-.15,1.08,1.08,0,0,1,1.1-1.08h7.13Z"/><path class="cls-60" d="M51.75,115.79a11.54,11.54,0,0,0,3.46-.34c.62-.23,1-.47,1-.77,0-.83-.84-2.55-1.75-4.34a13,13,0,0,1,1.31-2h.09a12.45,12.45,0,0,1,1.76,5.36A5.35,5.35,0,0,1,56.39,117c-.79.79-2,1.06-4.73,1.06h-.21a1.13,1.13,0,0,1-1.23-1,.38.38,0,0,1,0-.15,1.08,1.08,0,0,1,1.1-1.08h.43Zm2.44-13.08a16.3,16.3,0,0,1,2.11,1.88,7.32,7.32,0,0,1-1.46,1.72c-.68-.65-1.37-1.21-2.07-1.81.47-.63.95-1.25,1.42-1.79Z"/><path class="cls-60" d="M65.35,118h-.19a3.83,3.83,0,0,1-3-1c-1.08-1.09-1.09-2.33-1.09-4.92,0-3.34-.2-6.84-.46-10.56a16,16,0,0,1,1.65-1.64l.12.07c.29,3.85.29,8.41.29,12.73v1A1.81,1.81,0,0,0,64,115.6a3.58,3.58,0,0,0,1.13.2h.24Z"/><path class="cls-60" d="M72.39,115.79V118h-7A1.14,1.14,0,0,1,64.16,117a.29.29,0,0,1,0-.13,1.1,1.1,0,0,1,1.12-1.08h7.11Z"/><path class="cls-60" d="M79.42,115.79V118h-7a1.13,1.13,0,0,1-1.23-1,.38.38,0,0,1,0-.15,1.08,1.08,0,0,1,1.1-1.08h7.13Z"/><path class="cls-60" d="M86.45,115.79V118h-7a1.13,1.13,0,0,1-1.23-1,.38.38,0,0,1,0-.15,1.08,1.08,0,0,1,1.1-1.08h7.13Z"/><path class="cls-60" d="M93.51,115.79V118h-7a1.13,1.13,0,0,1-1.23-1,.38.38,0,0,1,0-.15,1.08,1.08,0,0,1,1.1-1.08h7.13Z"/><path class="cls-60" d="M100.51,115.79V118h-7a1.13,1.13,0,0,1-1.23-1,.38.38,0,0,1,0-.15,1.08,1.08,0,0,1,1.1-1.08h7.13Z"/><path class="cls-60" d="M100.9,115.79c1.35,0,2.76-.55,3-1.55l.51-1.9,1.21-.88.11.13a8.53,8.53,0,0,0-.39,2,1.73,1.73,0,0,0,.58,1.46,3.29,3.29,0,0,0,2.18.71h.32V118H108c-1.72,0-3-.48-3.62-1.8h-.07a3.79,3.79,0,0,1-3.5,1.8h-.31a1.13,1.13,0,0,1-1.23-1,.38.38,0,0,1,0-.15,1.09,1.09,0,0,1,1.13-1h.49Zm1.93-6.67c-.72-.68-1.35-1.24-2.06-1.82a13.83,13.83,0,0,1,1.39-1.67,17.74,17.74,0,0,1,2,1.88A9.73,9.73,0,0,1,102.83,109.12Zm1-3.74c-.72-.69-1.35-1.25-2.06-1.83a14.83,14.83,0,0,1,1.39-1.67,17.74,17.74,0,0,1,2,1.88,10.33,10.33,0,0,1-1.33,1.62Zm2.44,3.52c-.72-.69-1.35-1.25-2-1.83a13.83,13.83,0,0,1,1.39-1.67,17.74,17.74,0,0,1,2,1.88,9.75,9.75,0,0,1-1.39,1.62Z"/><path class="cls-60" d="M108.83,115.79a3.92,3.92,0,0,0,2-.48,2,2,0,0,0,.94-1.9c0-2.81-.23-5.89-.51-9.12-.07-.81-.18-1.55-.18-2.2a1.74,1.74,0,0,1,.53-1.17,7.27,7.27,0,0,1,1-1l.13.09a7.8,7.8,0,0,0,1.42,4,10.64,10.64,0,0,1-1.11.9c.07,2,.23,4.15.23,6.1a10.54,10.54,0,0,1-.7,4.41,3.61,3.61,0,0,1-1.6,2,5.13,5.13,0,0,1-2.2.53h-.26a1.13,1.13,0,0,1-1.23-1,.38.38,0,0,1,0-.15,1.08,1.08,0,0,1,1.1-1.08h.13Z"/><path class="cls-60" d="M117.12,118.34a24.44,24.44,0,0,0,.2-3.52V113.1c0-3.22-.36-7.9-.64-10.94a14.5,14.5,0,0,1,1.73-1.86l.15,0c.37,3.84.46,8.28.46,12.38a28.12,28.12,0,0,1-.12,2.9,4.63,4.63,0,0,1-1.55,2.83Z"/><path class="cls-60" d="M135.07,112c1,2.41,1.92,3.8,4,3.8h.32V118H139a2.41,2.41,0,0,1-1.77-.57h-.07v.62a6.14,6.14,0,0,1-.7,2.72c-1.39,2.45-2.9,3.5-4.2,3.5a10.31,10.31,0,0,1-4.4-1.37l.27-.6a4.55,4.55,0,0,0,2,.39c2.35,0,5.45-2.67,5.83-5.27a3.3,3.3,0,0,0-.47-.79,16,16,0,0,1-1.53-2.62,16.11,16.11,0,0,1,1-2Z"/><path class="cls-60" d="M146.37,115.79V118h-7a1.13,1.13,0,0,1-1.23-1,.38.38,0,0,1,0-.15,1.08,1.08,0,0,1,1.1-1.08h7.13Z"/><path class="cls-60" d="M153.4,115.79V118h-7a1.14,1.14,0,0,1-1.23-1.05.29.29,0,0,1,0-.13,1.08,1.08,0,0,1,1.1-1.08h7.13Z"/><path class="cls-60" d="M153.91,115.79c1.85,0,2.45-.92,3-2.59.69-2.19,2.08-3.34,3.26-3.34a2.39,2.39,0,0,1,2.11,1.18,23.75,23.75,0,0,1,1.75,3.31,2.85,2.85,0,0,0,2.75,1.44h.29V118h-.33a3,3,0,0,1-2.71-1.53H164a2.86,2.86,0,0,1-.56,1.33,1.6,1.6,0,0,1-1.16.58,7.77,7.77,0,0,1-5-2.46h-.07a3.56,3.56,0,0,1-3.5,2.08h-.27a1.14,1.14,0,0,1-1.23-1.05.29.29,0,0,1,0-.13,1.08,1.08,0,0,1,1.1-1.08h.64Zm5.93-.3a5.83,5.83,0,0,0,2.42.77c.34,0,.65,0,.65-.44a5.18,5.18,0,0,0-.88-2.34,3,3,0,0,0-2.25-1.58,2.17,2.17,0,0,0-2,1.58,5,5,0,0,0,2.06,2Z"/><path class="cls-60" d="M174.08,115.79V118h-7a1.14,1.14,0,0,1-1.23-1.05.29.29,0,0,1,0-.13,1.08,1.08,0,0,1,1.1-1.08h7.13Z"/><path class="cls-60" d="M181.11,115.79V118h-7a1.14,1.14,0,0,1-1.24-1,.33.33,0,0,1,0-.14,1.1,1.1,0,0,1,1.12-1.08h7.12Z"/><path class="cls-60" d="M188.14,115.79V118h-7a1.13,1.13,0,0,1-1.23-1,.38.38,0,0,1,0-.15,1.08,1.08,0,0,1,1.1-1.08h7.13Z"/><path class="cls-60" d="M188.44,115.79a11.54,11.54,0,0,0,3.46-.34c.61-.23,1-.47,1-.77,0-.83-.84-2.55-1.76-4.34a13.83,13.83,0,0,1,1.32-2h0a12.45,12.45,0,0,1,1.76,5.36A5.35,5.35,0,0,1,193,117c-.79.79-2,1.06-4.73,1.06h-.21a1.13,1.13,0,0,1-1.23-1,.38.38,0,0,1,0-.15,1.08,1.08,0,0,1,1.1-1.08h.47Zm1.32-9c-.73-.69-1.36-1.25-2.06-1.83a14.83,14.83,0,0,1,1.39-1.67,16.14,16.14,0,0,1,2,1.88,10.16,10.16,0,0,1-1.33,1.67Zm3.39-.23c-.72-.68-1.36-1.25-2.06-1.83a14.83,14.83,0,0,1,1.39-1.67,17.74,17.74,0,0,1,2,1.88,10.16,10.16,0,0,1-1.33,1.67Z"/><path class="cls-60" d="M207,115.79V118h-1.45a8.34,8.34,0,0,1-1.34,3.6,6.27,6.27,0,0,1-4.24,3,10.19,10.19,0,0,1-5.06-1.78l.3-.58a5.38,5.38,0,0,0,2.58.63,6.89,6.89,0,0,0,4.89-2.42,5.83,5.83,0,0,0,1.65-2.46h-.86c-3.59,0-5.41-1.15-5.41-3.61a4.69,4.69,0,0,1,.89-2.83,3.42,3.42,0,0,1,2.71-1.68c1.62,0,3.29,2.26,3.78,5.87Zm-3.83-10.34a11.89,11.89,0,0,1-.68,1.2,17.6,17.6,0,0,0-4.57,1.31h0l.42-.74a2.23,2.23,0,0,1,.81-.58h0a1.65,1.65,0,0,1-1.37-1.53,2.3,2.3,0,0,1,.83-1.55,3.28,3.28,0,0,1,2.12-1c.71,0,1.11.41,1.11.86a1.93,1.93,0,0,1-.56,1.15h0c-.19-.39-.37-.64-.56-.69a2.44,2.44,0,0,0-.54,0c-.62,0-1.23.35-1.23.61,0,.85,1.47,1.13,2.51,1.13a15.31,15.31,0,0,0,1.79-.07Zm-.16,7.77a2.56,2.56,0,0,0-1.86-1c-1,0-2,.84-2,1.54,0,.9.83,1.43,1.92,1.74a11.93,11.93,0,0,0,3.16.27,5.38,5.38,0,0,0-1.22-2.58Z"/><path class="cls-60" d="M207.51,115.79c1.85,0,2.45-.92,3-2.59.69-2.19,2.08-3.34,3.26-3.34a2.39,2.39,0,0,1,2.11,1.18,22.74,22.74,0,0,1,1.75,3.31,2.85,2.85,0,0,0,2.75,1.44h.29V118h-.33a3,3,0,0,1-2.71-1.53h-.12a2.86,2.86,0,0,1-.56,1.33,1.6,1.6,0,0,1-1.16.58,7.77,7.77,0,0,1-5-2.46h-.07a3.56,3.56,0,0,1-3.5,2.08H207a1.14,1.14,0,0,1-1.23-1.05.29.29,0,0,1,0-.13,1.08,1.08,0,0,1,1.1-1.08h.69Zm5.93-.3a5.83,5.83,0,0,0,2.42.77c.34,0,.65,0,.65-.44a5.18,5.18,0,0,0-.88-2.34,3,3,0,0,0-2.25-1.58,2.17,2.17,0,0,0-2,1.58,5,5,0,0,0,2,2Z"/><path class="cls-60" d="M227.64,115.79V118h-7a1.14,1.14,0,0,1-1.23-1.05.29.29,0,0,1,0-.13,1.1,1.1,0,0,1,1.12-1.08h7.11Z"/><path class="cls-60" d="M234.67,115.79V118h-7a1.13,1.13,0,0,1-1.23-1,.38.38,0,0,1,0-.15,1.08,1.08,0,0,1,1.1-1.08h7.13Z"/><path class="cls-60" d="M235.05,115.79a3.92,3.92,0,0,0,2-.48,2,2,0,0,0,.93-1.9c0-2.81-.22-5.89-.51-9.12-.07-.81-.17-1.55-.17-2.2a1.72,1.72,0,0,1,.53-1.17,7.27,7.27,0,0,1,1-1l.13.09a7.8,7.8,0,0,0,1.42,4,13.63,13.63,0,0,1-1.11.9c.07,2,.23,4.15.23,6.1a10.54,10.54,0,0,1-.7,4.41,3.61,3.61,0,0,1-1.6,2,5.13,5.13,0,0,1-2.2.53h-.26a1.13,1.13,0,0,1-1.23-1,.38.38,0,0,1,0-.15,1.08,1.08,0,0,1,1.1-1.08h.13Z"/><path class="cls-60" d="M243.35,118.34a24.43,24.43,0,0,0,.19-3.52V113.1c0-3.22-.35-7.9-.63-10.94a14.42,14.42,0,0,1,1.72-1.86l.16,0c.37,3.84.46,8.28.46,12.38a21.13,21.13,0,0,1-.12,2.9,4.63,4.63,0,0,1-1.55,2.83Z"/><path class="cls-61" d="M16.29,115.79V118h-1c0,.42.07.84.07,1.26a6.67,6.67,0,0,1-.79,2.2,13.27,13.27,0,0,1-8.19,3.27,6.19,6.19,0,0,1-4.83-1.9A7.08,7.08,0,0,1,0,118a12.58,12.58,0,0,1,1.65-5.8l.67.29a11.86,11.86,0,0,0-1.07,4.42,5.5,5.5,0,0,0,1.4,3.83,5.85,5.85,0,0,0,4.26,1.65,12.94,12.94,0,0,0,5.6-1.51,4,4,0,0,0,1.59-1.21c-.41-.85-2.32-1.6-5.12-1.6l-.1-.25,1.21-2ZM5.59,130c-.72-.68-1.35-1.24-2.06-1.82a13.83,13.83,0,0,1,1.39-1.67,17.74,17.74,0,0,1,2,1.88A10.25,10.25,0,0,1,5.59,130ZM9,129.73c-.72-.69-1.35-1.25-2.05-1.83a14.14,14.14,0,0,1,1.38-1.71,17.74,17.74,0,0,1,2,1.88A10.19,10.19,0,0,1,9,129.73Z"/><path class="cls-62" d="M23.33,115.79V118h-7A1.14,1.14,0,0,1,15.1,117a.29.29,0,0,1,0-.13,1.08,1.08,0,0,1,1.1-1.08h7.13Z"/><path class="cls-63" d="M30.36,115.79V118h-7a1.14,1.14,0,0,1-1.24-1,.33.33,0,0,1,0-.14,1.1,1.1,0,0,1,1.12-1.08h7.12Z"/><path class="cls-64" d="M37.39,115.79V118h-7a1.13,1.13,0,0,1-1.23-1,.38.38,0,0,1,0-.15,1.08,1.08,0,0,1,1.1-1.08h7.13Z"/><path class="cls-65" d="M44.42,115.79V118h-7a1.13,1.13,0,0,1-1.23-1,.38.38,0,0,1,0-.15,1.08,1.08,0,0,1,1.1-1.08h7.13Z"/><path class="cls-66" d="M51.45,115.79V118h-7a1.13,1.13,0,0,1-1.23-1,.38.38,0,0,1,0-.15,1.08,1.08,0,0,1,1.1-1.08h7.13Z"/><path class="cls-67" d="M51.75,115.79a11.54,11.54,0,0,0,3.46-.34c.62-.23,1-.47,1-.77,0-.83-.84-2.55-1.75-4.34a13,13,0,0,1,1.31-2h.09a12.45,12.45,0,0,1,1.76,5.36A5.35,5.35,0,0,1,56.39,117c-.79.79-2,1.06-4.73,1.06h-.21a1.13,1.13,0,0,1-1.23-1,.38.38,0,0,1,0-.15,1.08,1.08,0,0,1,1.1-1.08h.43Zm2.44-13.08a16.3,16.3,0,0,1,2.11,1.88,7.32,7.32,0,0,1-1.46,1.72c-.68-.65-1.37-1.21-2.07-1.81.47-.63.95-1.25,1.42-1.79Z"/><path class="cls-68" d="M65.35,118h-.19a3.83,3.83,0,0,1-3-1c-1.08-1.09-1.09-2.33-1.09-4.92,0-3.34-.2-6.84-.46-10.56a16,16,0,0,1,1.65-1.64l.12.07c.29,3.85.29,8.41.29,12.73v1A1.81,1.81,0,0,0,64,115.6a3.58,3.58,0,0,0,1.13.2h.24Z"/><path class="cls-69" d="M72.39,115.79V118h-7A1.14,1.14,0,0,1,64.16,117a.29.29,0,0,1,0-.13,1.1,1.1,0,0,1,1.12-1.08h7.11Z"/><path class="cls-70" d="M79.42,115.79V118h-7a1.13,1.13,0,0,1-1.23-1,.38.38,0,0,1,0-.15,1.08,1.08,0,0,1,1.1-1.08h7.13Z"/><path class="cls-71" d="M86.45,115.79V118h-7a1.13,1.13,0,0,1-1.23-1,.38.38,0,0,1,0-.15,1.08,1.08,0,0,1,1.1-1.08h7.13Z"/><path class="cls-72" d="M93.51,115.79V118h-7a1.13,1.13,0,0,1-1.23-1,.38.38,0,0,1,0-.15,1.08,1.08,0,0,1,1.1-1.08h7.13Z"/><path class="cls-73" d="M100.51,115.79V118h-7a1.13,1.13,0,0,1-1.23-1,.38.38,0,0,1,0-.15,1.08,1.08,0,0,1,1.1-1.08h7.13Z"/><path class="cls-74" d="M100.9,115.79c1.35,0,2.76-.55,3-1.55l.51-1.9,1.21-.88.11.13a8.53,8.53,0,0,0-.39,2,1.73,1.73,0,0,0,.58,1.46,3.29,3.29,0,0,0,2.18.71h.32V118H108c-1.72,0-3-.48-3.62-1.8h-.07a3.79,3.79,0,0,1-3.5,1.8h-.31a1.13,1.13,0,0,1-1.23-1,.38.38,0,0,1,0-.15,1.09,1.09,0,0,1,1.13-1h.49Zm1.93-6.67c-.72-.68-1.35-1.24-2.06-1.82a13.83,13.83,0,0,1,1.39-1.67,17.74,17.74,0,0,1,2,1.88A9.73,9.73,0,0,1,102.83,109.12Zm1-3.74c-.72-.69-1.35-1.25-2.06-1.83a14.83,14.83,0,0,1,1.39-1.67,17.74,17.74,0,0,1,2,1.88,10.33,10.33,0,0,1-1.33,1.62Zm2.44,3.52c-.72-.69-1.35-1.25-2-1.83a13.83,13.83,0,0,1,1.39-1.67,17.74,17.74,0,0,1,2,1.88,9.75,9.75,0,0,1-1.39,1.62Z"/><path class="cls-75" d="M108.83,115.79a3.92,3.92,0,0,0,2-.48,2,2,0,0,0,.94-1.9c0-2.81-.23-5.89-.51-9.12-.07-.81-.18-1.55-.18-2.2a1.74,1.74,0,0,1,.53-1.17,7.27,7.27,0,0,1,1-1l.13.09a7.8,7.8,0,0,0,1.42,4,10.64,10.64,0,0,1-1.11.9c.07,2,.23,4.15.23,6.1a10.54,10.54,0,0,1-.7,4.41,3.61,3.61,0,0,1-1.6,2,5.13,5.13,0,0,1-2.2.53h-.26a1.13,1.13,0,0,1-1.23-1,.38.38,0,0,1,0-.15,1.08,1.08,0,0,1,1.1-1.08h.13Z"/><path class="cls-76" d="M117.12,118.34a24.44,24.44,0,0,0,.2-3.52V113.1c0-3.22-.36-7.9-.64-10.94a14.5,14.5,0,0,1,1.73-1.86l.15,0c.37,3.84.46,8.28.46,12.38a28.12,28.12,0,0,1-.12,2.9,4.63,4.63,0,0,1-1.55,2.83Z"/><path class="cls-77" d="M135.07,112c1,2.41,1.92,3.8,4,3.8h.32V118H139a2.41,2.41,0,0,1-1.77-.57h-.07v.62a6.14,6.14,0,0,1-.7,2.72c-1.39,2.45-2.9,3.5-4.2,3.5a10.31,10.31,0,0,1-4.4-1.37l.27-.6a4.55,4.55,0,0,0,2,.39c2.35,0,5.45-2.67,5.83-5.27a3.3,3.3,0,0,0-.47-.79,16,16,0,0,1-1.53-2.62,16.11,16.11,0,0,1,1-2Z"/><path class="cls-78" d="M146.37,115.79V118h-7a1.13,1.13,0,0,1-1.23-1,.38.38,0,0,1,0-.15,1.08,1.08,0,0,1,1.1-1.08h7.13Z"/><path class="cls-79" d="M153.4,115.79V118h-7a1.14,1.14,0,0,1-1.23-1.05.29.29,0,0,1,0-.13,1.08,1.08,0,0,1,1.1-1.08h7.13Z"/><path class="cls-80" d="M153.91,115.79c1.85,0,2.45-.92,3-2.59.69-2.19,2.08-3.34,3.26-3.34a2.39,2.39,0,0,1,2.11,1.18,23.75,23.75,0,0,1,1.75,3.31,2.85,2.85,0,0,0,2.75,1.44h.29V118h-.33a3,3,0,0,1-2.71-1.53H164a2.86,2.86,0,0,1-.56,1.33,1.6,1.6,0,0,1-1.16.58,7.77,7.77,0,0,1-5-2.46h-.07a3.56,3.56,0,0,1-3.5,2.08h-.27a1.14,1.14,0,0,1-1.23-1.05.29.29,0,0,1,0-.13,1.08,1.08,0,0,1,1.1-1.08h.64Zm5.93-.3a5.83,5.83,0,0,0,2.42.77c.34,0,.65,0,.65-.44a5.18,5.18,0,0,0-.88-2.34,3,3,0,0,0-2.25-1.58,2.17,2.17,0,0,0-2,1.58,5,5,0,0,0,2.06,2Z"/><path class="cls-81" d="M174.08,115.79V118h-7a1.14,1.14,0,0,1-1.23-1.05.29.29,0,0,1,0-.13,1.08,1.08,0,0,1,1.1-1.08h7.13Z"/><path class="cls-82" d="M181.11,115.79V118h-7a1.14,1.14,0,0,1-1.24-1,.33.33,0,0,1,0-.14,1.1,1.1,0,0,1,1.12-1.08h7.12Z"/><path class="cls-83" d="M188.14,115.79V118h-7a1.13,1.13,0,0,1-1.23-1,.38.38,0,0,1,0-.15,1.08,1.08,0,0,1,1.1-1.08h7.13Z"/><path class="cls-84" d="M188.44,115.79a11.54,11.54,0,0,0,3.46-.34c.61-.23,1-.47,1-.77,0-.83-.84-2.55-1.76-4.34a13.83,13.83,0,0,1,1.32-2h0a12.45,12.45,0,0,1,1.76,5.36A5.35,5.35,0,0,1,193,117c-.79.79-2,1.06-4.73,1.06h-.21a1.13,1.13,0,0,1-1.23-1,.38.38,0,0,1,0-.15,1.08,1.08,0,0,1,1.1-1.08h.47Zm1.32-9c-.73-.69-1.36-1.25-2.06-1.83a14.83,14.83,0,0,1,1.39-1.67,16.14,16.14,0,0,1,2,1.88,10.16,10.16,0,0,1-1.33,1.67Zm3.39-.23c-.72-.68-1.36-1.25-2.06-1.83a14.83,14.83,0,0,1,1.39-1.67,17.74,17.74,0,0,1,2,1.88,10.16,10.16,0,0,1-1.33,1.67Z"/><path class="cls-85" d="M207,115.79V118h-1.45a8.34,8.34,0,0,1-1.34,3.6,6.27,6.27,0,0,1-4.24,3,10.19,10.19,0,0,1-5.06-1.78l.3-.58a5.38,5.38,0,0,0,2.58.63,6.89,6.89,0,0,0,4.89-2.42,5.83,5.83,0,0,0,1.65-2.46h-.86c-3.59,0-5.41-1.15-5.41-3.61a4.69,4.69,0,0,1,.89-2.83,3.42,3.42,0,0,1,2.71-1.68c1.62,0,3.29,2.26,3.78,5.87Zm-3.83-10.34a11.89,11.89,0,0,1-.68,1.2,17.6,17.6,0,0,0-4.57,1.31h0l.42-.74a2.23,2.23,0,0,1,.81-.58h0a1.65,1.65,0,0,1-1.37-1.53,2.3,2.3,0,0,1,.83-1.55,3.28,3.28,0,0,1,2.12-1c.71,0,1.11.41,1.11.86a1.93,1.93,0,0,1-.56,1.15h0c-.19-.39-.37-.64-.56-.69a2.44,2.44,0,0,0-.54,0c-.62,0-1.23.35-1.23.61,0,.85,1.47,1.13,2.51,1.13a15.31,15.31,0,0,0,1.79-.07Zm-.16,7.77a2.56,2.56,0,0,0-1.86-1c-1,0-2,.84-2,1.54,0,.9.83,1.43,1.92,1.74a11.93,11.93,0,0,0,3.16.27,5.38,5.38,0,0,0-1.22-2.58Z"/><path class="cls-86" d="M207.51,115.79c1.85,0,2.45-.92,3-2.59.69-2.19,2.08-3.34,3.26-3.34a2.39,2.39,0,0,1,2.11,1.18,22.74,22.74,0,0,1,1.75,3.31,2.85,2.85,0,0,0,2.75,1.44h.29V118h-.33a3,3,0,0,1-2.71-1.53h-.12a2.86,2.86,0,0,1-.56,1.33,1.6,1.6,0,0,1-1.16.58,7.77,7.77,0,0,1-5-2.46h-.07a3.56,3.56,0,0,1-3.5,2.08H207a1.14,1.14,0,0,1-1.23-1.05.29.29,0,0,1,0-.13,1.08,1.08,0,0,1,1.1-1.08h.69Zm5.93-.3a5.83,5.83,0,0,0,2.42.77c.34,0,.65,0,.65-.44a5.18,5.18,0,0,0-.88-2.34,3,3,0,0,0-2.25-1.58,2.17,2.17,0,0,0-2,1.58,5,5,0,0,0,2,2Z"/><path class="cls-87" d="M227.64,115.79V118h-7a1.14,1.14,0,0,1-1.23-1.05.29.29,0,0,1,0-.13,1.1,1.1,0,0,1,1.12-1.08h7.11Z"/><path class="cls-88" d="M234.67,115.79V118h-7a1.13,1.13,0,0,1-1.23-1,.38.38,0,0,1,0-.15,1.08,1.08,0,0,1,1.1-1.08h7.13Z"/><path class="cls-89" d="M235.05,115.79a3.92,3.92,0,0,0,2-.48,2,2,0,0,0,.93-1.9c0-2.81-.22-5.89-.51-9.12-.07-.81-.17-1.55-.17-2.2a1.72,1.72,0,0,1,.53-1.17,7.27,7.27,0,0,1,1-1l.13.09a7.8,7.8,0,0,0,1.42,4,13.63,13.63,0,0,1-1.11.9c.07,2,.23,4.15.23,6.1a10.54,10.54,0,0,1-.7,4.41,3.61,3.61,0,0,1-1.6,2,5.13,5.13,0,0,1-2.2.53h-.26a1.13,1.13,0,0,1-1.23-1,.38.38,0,0,1,0-.15,1.08,1.08,0,0,1,1.1-1.08h.13Z"/><path class="cls-90" d="M243.35,118.34a24.43,24.43,0,0,0,.19-3.52V113.1c0-3.22-.35-7.9-.63-10.94a14.42,14.42,0,0,1,1.72-1.86l.16,0c.37,3.84.46,8.28.46,12.38a21.13,21.13,0,0,1-.12,2.9,4.63,4.63,0,0,1-1.55,2.83Z"/><path class="cls-91" d="M47.87,209.19c-.72,0-1.24-.32-1.24-1a3.15,3.15,0,0,1,.22-1A5.61,5.61,0,0,1,49,204.78v-.66a4.83,4.83,0,0,1,.54-.72h.07v4.09a1.78,1.78,0,0,0,.26,1.23.88.88,0,0,0,.71.23h.17v1.13h-.15c-.67,0-1.16-.23-1.42-1.22A2.67,2.67,0,0,1,47.87,209.19Zm1.22-3.49c-1.22.81-1.86,1.46-1.86,1.92s.41.49.88.49a2.53,2.53,0,0,0,1-.24Zm-.81-3.11c-.28-.34-.53-.62-.8-.91a7.36,7.36,0,0,1,.54-.83,7.94,7.94,0,0,1,.78.94,4.6,4.6,0,0,1-.52.78Zm1.32-.11c-.28-.34-.53-.62-.8-.91a6.56,6.56,0,0,1,.54-.83,8.73,8.73,0,0,1,.78.93,6,6,0,0,1-.52.79Z"/><path class="cls-92" d="M50.92,208.88a3.66,3.66,0,0,0,1.35-.16c.24-.12.39-.24.39-.39a9.15,9.15,0,0,0-.69-2.17,6.27,6.27,0,0,1,.51-1h0a7.73,7.73,0,0,1,.68,2.68,3,3,0,0,1-.48,1.63c-.3.39-.79.53-1.84.53h-.08c-.38,0-.48-.35-.48-.59a.49.49,0,0,1,.43-.54h.21Zm.67,4.63c-.28-.35-.53-.63-.8-.92a6.56,6.56,0,0,1,.54-.83,7.94,7.94,0,0,1,.78.94,4.86,4.86,0,0,1-.52.81Zm1.32-.12c-.28-.34-.53-.62-.8-.91a6.56,6.56,0,0,1,.54-.83,7.94,7.94,0,0,1,.78.94,5.22,5.22,0,0,1-.52.8Z"/><path class="cls-93" d="M56.75,205.48l.49,1.18a4.12,4.12,0,0,1,.34,1.67v1a4.73,4.73,0,0,1-.86,2.43c-.42.57-.79.8-1.13.8a3.4,3.4,0,0,1-1.76-.67l.07-.3a1.91,1.91,0,0,0,.76.16c1,0,2-1.07,2.41-2.37a1.78,1.78,0,0,0,.07-.39,3.4,3.4,0,0,0-.09-.46,15,15,0,0,0-.83-1.93c.16-.38.32-.74.49-1.1Z"/><path class="cls-94" d="M62.51,208.88V210h-.57a4.91,4.91,0,0,1-.52,1.8,2.54,2.54,0,0,1-1.65,1.5,3.4,3.4,0,0,1-2-.89l.11-.29a1.85,1.85,0,0,0,1,.32,2.53,2.53,0,0,0,1.9-1.22,3,3,0,0,0,.65-1.22h-.34c-1.4,0-2.11-.57-2.11-1.8a2.78,2.78,0,0,1,.35-1.41,1.31,1.31,0,0,1,1.06-.85c.63,0,1.28,1.13,1.47,2.93ZM61,207.6a1,1,0,0,0-.72-.49.85.85,0,0,0-.78.77c0,.45.33.71.75.87a3.91,3.91,0,0,0,1.23.13,3.14,3.14,0,0,0-.53-1.28Z"/><path class="cls-95" d="M65.2,208.88V210H62.51c-.38,0-.48-.35-.48-.59a.49.49,0,0,1,.43-.54H65.2Z"/><path class="cls-96" d="M69.28,207.26a5.11,5.11,0,0,0-2.15-.61,1,1,0,0,0-.87.43l.08.44-.2.79h-.07l-.34-1.16a1.5,1.5,0,0,1,1.44-1.57h0a5.5,5.5,0,0,1,2.25.75,2.63,2.63,0,0,0,1.17.29h.6l-.43.9a1.81,1.81,0,0,0-1.15.33l-1.15,1a4.63,4.63,0,0,1-3,1.18H65.2c-.38,0-.48-.35-.48-.59a.49.49,0,0,1,.43-.54h.47a6.2,6.2,0,0,0,3.66-1.58Zm.77.6h0c0,.74.51,1,1.21,1h.25V210H71.3a1.31,1.31,0,0,1-1.48-1.1,1,1,0,0,1,0-.35v-.49Z"/><path class="cls-97" d="M71.62,208.88c.51,0,.9-.44,1.15-1.55a2.61,2.61,0,0,1,.51-1.06,1.15,1.15,0,0,1,.86-.51c.84,0,1.33,1.47,1.44,3-.15.8-.4,1.13-.73,1.13a3.11,3.11,0,0,1-2-1h0c-.18.77-.57,1.14-1.19,1.14h-.1c-.38,0-.48-.35-.48-.59a.49.49,0,0,1,.43-.54h.05Zm2.4-.35a1.76,1.76,0,0,0,.81.26c.1,0,.19,0,.22-.1-.2-1.32-.65-1.91-1.08-1.91s-.72.28-.92.86a2.26,2.26,0,0,0,1,.89Z"/><path class="cls-98" d="M80.69,209.19c-.72,0-1.25-.32-1.25-1a3.1,3.1,0,0,1,.23-1,5.58,5.58,0,0,1,2.18-2.41v-.66a6.14,6.14,0,0,1,.54-.72h.08v4.09a1.84,1.84,0,0,0,.26,1.23.93.93,0,0,0,.72.23h.16v1.13h-.1c-.67,0-1.15-.23-1.41-1.22A2.79,2.79,0,0,1,80.69,209.19Zm1.21-3.49c-1.22.81-1.86,1.46-1.86,1.92s.42.49.88.49a2.71,2.71,0,0,0,1-.24Zm-.81-3.11c-.28-.34-.52-.62-.8-.91a7.36,7.36,0,0,1,.54-.83,7.94,7.94,0,0,1,.78.94,4.6,4.6,0,0,1-.52.78Zm1.32-.11c-.28-.34-.52-.62-.8-.91a6.56,6.56,0,0,1,.54-.83,8.81,8.81,0,0,1,.79.93,5.19,5.19,0,0,1-.53.79Z"/><path class="cls-99" d="M83.76,208.88a1.27,1.27,0,0,0,.77-.23,1.14,1.14,0,0,0,.36-1c0-1.4-.08-2.94-.19-4.55,0-.41-.07-.78-.07-1.1a1,1,0,0,1,.2-.59,3.48,3.48,0,0,1,.38-.48h.05a4.68,4.68,0,0,0,.55,2,4.57,4.57,0,0,1-.43.45c0,1,.09,2.07.09,3a6.91,6.91,0,0,1-.27,2.21,1.83,1.83,0,0,1-.63,1,1.64,1.64,0,0,1-.85.27h-.11c-.37,0-.48-.35-.48-.59a.49.49,0,0,1,.43-.54h0Z"/><path class="cls-100" d="M88.43,209.09a1.46,1.46,0,0,1-1.51-1.4,1.06,1.06,0,0,1,0-.25,2.76,2.76,0,0,1,.43-1.51c.32-.44.66-.73,1-.73s.77.36,1,1a6.36,6.36,0,0,1,.44,2.41,5.14,5.14,0,0,1-.52,2.31c-.61,1.18-1.2,1.67-1.76,1.67a3,3,0,0,1-2-.86l.1-.28a1.83,1.83,0,0,0,1,.29,2.65,2.65,0,0,0,2-1.34,3.31,3.31,0,0,0,.64-1.46A3.1,3.1,0,0,1,88.43,209.09Zm-.3-2.79a1,1,0,0,0-.77.78,1.1,1.1,0,0,0,1.17.94,2.53,2.53,0,0,0,.77-.12c-.19-.89-.58-1.6-1.17-1.6Z"/><path class="cls-101" d="M91.31,207.62c0,.75.26,1.35,1.12,1.35a2.51,2.51,0,0,0,1.49-.57.3.3,0,0,0,.13-.21,3.24,3.24,0,0,0-.64-1.67A5.49,5.49,0,0,0,92,205.2a.4.4,0,0,1-.22-.33,3,3,0,0,1,.35-1h.06a7.65,7.65,0,0,1,1.63,1.82,3.93,3.93,0,0,1,.68,2.08,4.81,4.81,0,0,1-.28,1.54,3.41,3.41,0,0,1-1.91.81c-.78,0-1.31-.55-1.31-1.85a3.42,3.42,0,0,1,0-.64Z"/><path class="cls-102" d="M104,200.93c.07,1.49.1,3.18.1,5.51a4.74,4.74,0,0,0,.27,1.9.83.83,0,0,0,.76.54h.13V210h-.16c-.7,0-1.2-.47-1.4-1.62h0a2.53,2.53,0,0,1-1,1,3.93,3.93,0,0,1-2.13.61c-1,0-2.1-.77-2.1-2.78a4.79,4.79,0,0,1,.38-1.91l.29.13a3.72,3.72,0,0,0-.24,1.28,1.8,1.8,0,0,0,1.52,2.05,2.06,2.06,0,0,0,.35,0,3.55,3.55,0,0,0,1.94-.58,2.18,2.18,0,0,0,.77-.77,3.84,3.84,0,0,0,0-.48c0-1.68-.11-3.64-.22-5.22a5.38,5.38,0,0,1,.66-.85Zm-2.17,2.92h-.07a1.28,1.28,0,0,0-.74.85h.54a.59.59,0,0,1,.68.52.81.81,0,0,1,0,.16,1.21,1.21,0,0,1-1.15,1.25H101a1.69,1.69,0,0,1-.45,0l-.45-.34v-.1c.88,0,1.76-.33,1.76-.67,0-.09-.16-.09-.62-.09s-.6,0-.6-.11V205a2.2,2.2,0,0,1,.44-1.21c.26-.4.6-.71.77-.71s.16.07.16.21a3.6,3.6,0,0,1-.15.63Z"/><path class="cls-103" d="M110.81,206.25c.06.52.1,1,.11,1.56a3.9,3.9,0,0,1-.25,1.21c-.26.55-.61,1-1,1s-.61-.28-.86-.73h0a1.54,1.54,0,0,1-1.2.76c-.38,0-.62-.23-.66-.75h0a1.66,1.66,0,0,1-1.45.75h-.12c-.38,0-.48-.35-.48-.59a.49.49,0,0,1,.43-.54h.23a1.53,1.53,0,0,0,1.45-.81l.37-.7.53-.23h0a3.76,3.76,0,0,0-.47,1.26c0,.28.15.44.36.44a1,1,0,0,0,.61-.25c.24-.23.27-.48.49-1.4l.41-.3h0a4.12,4.12,0,0,0-.09.86c0,.67.38,1,.71,1a.35.35,0,0,0,.36-.34v0a11.39,11.39,0,0,0-.17-1.43,5.18,5.18,0,0,1,.62-.78Z"/><path class="cls-104" d="M114.51,208.68a3,3,0,0,0,.78-1.39,8.29,8.29,0,0,1,.63-1.35H116a23.69,23.69,0,0,0,1.31,2,1.87,1.87,0,0,0,1.42.94h.08V210h-.08a1.6,1.6,0,0,1-1.39-.92h0v.14c0,1.21-.47,1.82-.86,1.82-.66,0-1.29-.85-1.44-1.89h0a1.34,1.34,0,0,1-1.16.84,1.23,1.23,0,0,1-1-.51c-.42-.55-.45-1.16-.45-2.45,0-1.67-.08-3.41-.18-5.27a5.71,5.71,0,0,1,.65-.82h0c.11,1.92.11,4.19.11,6.35v.5a.91.91,0,0,0,.52.94,1,1,0,0,0,.44.09A1.42,1.42,0,0,0,114.51,208.68Zm1.26-1.54a2.9,2.9,0,0,0-.33,1.19c0,.69.44,1.56,1.07,1.56.17,0,.37-.26.37-.64a1.45,1.45,0,0,0-.24-.76c-.25-.46-.55-.88-.83-1.35Z"/><path class="cls-105" d="M118.89,208.88a1.14,1.14,0,0,0,1.18-.77l.2-1,.47-.43v.06a5.62,5.62,0,0,0-.15,1,.94.94,0,0,0,.23.73,1.1,1.1,0,0,0,.85.35h.12V210h-.15a1.34,1.34,0,0,1-1.42-.9h0a1.47,1.47,0,0,1-1.37.9h-.13c-.37,0-.48-.35-.48-.59a.49.49,0,0,1,.43-.54h.22Zm.76-3.32c-.28-.34-.53-.62-.8-.91a5.71,5.71,0,0,1,.54-.84,7.94,7.94,0,0,1,.78.94A4.86,4.86,0,0,1,119.65,205.56Zm1.32-.12c-.28-.34-.53-.62-.8-.91a7.36,7.36,0,0,1,.54-.83,7.94,7.94,0,0,1,.78.94,5.22,5.22,0,0,1-.52.8Z"/><path class="cls-106" d="M122,208.88c.51,0,.91-.44,1.15-1.55a2.75,2.75,0,0,1,.51-1.06,1.15,1.15,0,0,1,.86-.51c.84,0,1.33,1.47,1.44,3-.14.8-.39,1.13-.72,1.13a3.13,3.13,0,0,1-2-1h0c-.17.77-.56,1.14-1.18,1.14h-.12c-.37,0-.48-.35-.48-.59a.49.49,0,0,1,.43-.54h.05Zm2.4-.35a1.76,1.76,0,0,0,.82.26c.1,0,.19,0,.22-.1-.2-1.32-.66-1.91-1.09-1.91s-.72.28-.91.86A2.12,2.12,0,0,0,124.38,208.53Z"/><path class="cls-107" d="M132.23,208.88c-1.22.79-2,1.64-2,2.58,0,1.48,1.27,2.49,3.14,2.49a6.06,6.06,0,0,0,1.74-.26l0,.16c-.37.35-.75.69-1.15,1a2.1,2.1,0,0,1-1.17.26,2.94,2.94,0,0,1-3.09-2.79,2.68,2.68,0,0,1,0-.49,4.55,4.55,0,0,1,1.91-3.54,9.67,9.67,0,0,1-.82-1c-.17-.2-.32-.43-.46-.43a.8.8,0,0,0-.34.11v-.08l.3-1,.32-.07a6.67,6.67,0,0,1,1.84-.29,4,4,0,0,1,1.95.41l-.16,1L133,208.39h0a2.86,2.86,0,0,0,1.64.47h.4V210h-.32a3.61,3.61,0,0,1-2.37-1.14Zm.11-.94a9.48,9.48,0,0,0,1.41-1.28v0a5.33,5.33,0,0,0-1.31-.2,4.47,4.47,0,0,0-1.32.17v0l.51.55.68.76Z"/><path class="cls-108" d="M135.16,208.88c.72,0,1-.45,1.16-1.29.26-1.09.8-1.66,1.26-1.66a.9.9,0,0,1,.83.58,13.29,13.29,0,0,1,.68,1.65,1.07,1.07,0,0,0,1.07.72h.12V210h-.13a1.14,1.14,0,0,1-1.06-.77h0a1.77,1.77,0,0,1-.22.67.62.62,0,0,1-.45.29,2.8,2.8,0,0,1-1.94-1.23h0a1.44,1.44,0,0,1-1.37,1H135c-.38,0-.48-.35-.48-.59a.49.49,0,0,1,.43-.54h0Zm2.31-.15a1.87,1.87,0,0,0,.94.39c.13,0,.26,0,.26-.22a3.18,3.18,0,0,0-.35-1.17c-.26-.51-.58-.79-.87-.79a1,1,0,0,0-.79.79,2.12,2.12,0,0,0,.85,1Z"/><path class="cls-109" d="M140.43,208.88a1.15,1.15,0,0,0,1.17-.77l.2-1,.48-.43v.06a4.24,4.24,0,0,0-.15,1,1,1,0,0,0,.22.73,1.1,1.1,0,0,0,.85.35h.12V210h-.15a1.31,1.31,0,0,1-1.41-.9h0a1.45,1.45,0,0,1-1.36.9h-.14c-.37,0-.47-.35-.47-.59a.49.49,0,0,1,.43-.54h.21Zm.75-3.32c-.28-.34-.53-.62-.8-.91a7.48,7.48,0,0,1,.54-.84,7.94,7.94,0,0,1,.78.94A4.86,4.86,0,0,1,141.18,205.56Zm1.32-.12c-.28-.34-.53-.62-.8-.91a7.36,7.36,0,0,1,.54-.83,7.94,7.94,0,0,1,.78.94,5.16,5.16,0,0,1-.51.8Z"/><path class="cls-110" d="M147.45,207.26a5.11,5.11,0,0,0-2.15-.61,1,1,0,0,0-.87.43l.08.44-.21.79h-.07l-.33-1.16a1.48,1.48,0,0,1,1.4-1.57h.09a5.46,5.46,0,0,1,2.24.75,2.63,2.63,0,0,0,1.17.29h.6l-.42.9a1.82,1.82,0,0,0-1.16.33l-1.14,1a4.63,4.63,0,0,1-3,1.18h-.32c-.37,0-.47-.35-.47-.59a.49.49,0,0,1,.43-.54h.46a6.17,6.17,0,0,0,3.66-1.58Zm-1.58,4a7.37,7.37,0,0,1,.82.94,4.1,4.1,0,0,1-.56.86c-.27-.32-.54-.6-.81-.9.19-.27.37-.57.55-.85Zm2.35-3.45h0c0,.74.5,1,1.21,1h.18v1.13h-.21a1.3,1.3,0,0,1-1.47-1.11,1,1,0,0,1,0-.34,4,4,0,0,1,0-.49Z"/><path class="cls-111" d="M149.78,208.88c.51,0,.91-.44,1.15-1.55a2.75,2.75,0,0,1,.51-1.06,1.15,1.15,0,0,1,.86-.51c.84,0,1.33,1.47,1.44,3-.14.8-.39,1.13-.72,1.13a3.13,3.13,0,0,1-2-1H151c-.17.77-.56,1.14-1.18,1.14h-.12c-.37,0-.48-.35-.48-.59a.49.49,0,0,1,.43-.54h0Zm2.4-.35a1.76,1.76,0,0,0,.82.26c.1,0,.19,0,.22-.1-.2-1.32-.66-1.91-1.09-1.91s-.72.28-.91.86a2.12,2.12,0,0,0,1,.89Z"/><path class="cls-112" d="M162.27,210h-.14c-.61,0-1.13-.34-1.39-1.43h0a1.35,1.35,0,0,1-.49.84,2.38,2.38,0,0,1-1.38.59c-.76,0-1.19-.6-1.19-1.63v-.65H158c0,.73.31,1.17,1,1.17a2,2,0,0,0,1.12-.44,1,1,0,0,0,.45-.65,22.59,22.59,0,0,0-.57-3.27c.16-.3.31-.62.48-.9h0c.25,1.27.46,2.62.65,3.91.12.87.56,1.32,1.08,1.32h.12Z"/><path class="cls-113" d="M165,208.88V210h-2.74c-.38,0-.48-.35-.48-.59a.49.49,0,0,1,.43-.54H165Z"/><path class="cls-114" d="M165.16,208.88a1.15,1.15,0,0,0,1.17-.77l.2-1,.48-.43v.06a4.24,4.24,0,0,0-.15,1,1,1,0,0,0,.22.73,1.1,1.1,0,0,0,.85.35h.13V210h-.16a1.31,1.31,0,0,1-1.41-.9h0a1.45,1.45,0,0,1-1.36.9H165c-.38,0-.48-.35-.48-.59a.49.49,0,0,1,.43-.54h.21Zm.77,4.63c-.28-.35-.53-.63-.8-.92a7.36,7.36,0,0,1,.54-.83,7.94,7.94,0,0,1,.78.94,4.86,4.86,0,0,1-.52.81Zm1.32-.12c-.28-.34-.52-.62-.8-.91a6.56,6.56,0,0,1,.54-.83,7.94,7.94,0,0,1,.78.94A5.22,5.22,0,0,1,167.25,213.39Z"/><path class="cls-115" d="M173.62,206.25c.06.52.1,1,.11,1.56a4.21,4.21,0,0,1-.25,1.21c-.26.55-.62,1-1,1s-.61-.28-.86-.73h-.11a1.54,1.54,0,0,1-1.19.76c-.38,0-.62-.23-.66-.75h0a1.69,1.69,0,0,1-1.46.75h-.12c-.37,0-.47-.35-.47-.59a.49.49,0,0,1,.43-.54h.28a1.52,1.52,0,0,0,1.44-.81l.38-.7.53-.23h0a3.38,3.38,0,0,0-.47,1.26c0,.28.14.44.36.44a1,1,0,0,0,.61-.25c.24-.23.27-.48.48-1.4l.41-.3h0a4.12,4.12,0,0,0-.09.86c0,.67.39,1,.72,1a.35.35,0,0,0,.36-.34v0a11.39,11.39,0,0,0-.17-1.43,5.18,5.18,0,0,1,.62-.78Z"/><path class="cls-116" d="M181.76,206.3a13.94,13.94,0,0,1,.56,1.69c.2.77.57.89,1.23.89h.1V210h-.14a1.28,1.28,0,0,1-1-.4h0a5.47,5.47,0,0,1-.42,2,3.12,3.12,0,0,1-2.33,1.42c-1.28,0-2.1-1.1-2.1-2.66a5.49,5.49,0,0,1,.59-2.55l.26.18a4.85,4.85,0,0,0-.38,1.64,2.18,2.18,0,0,0,.46,1.53,1.74,1.74,0,0,0,1.29.59,2.65,2.65,0,0,0,1.66-.77,1.32,1.32,0,0,0,.5-.9,5.52,5.52,0,0,0-.25-1.46c-.22-.64-.39-1.09-.54-1.43a6.76,6.76,0,0,1,.47-.93Zm-1.63-2.67a6.74,6.74,0,0,1,.82.94,4.1,4.1,0,0,1-.56.86c-.27-.33-.54-.61-.81-.91C179.76,204.19,180,203.9,180.13,203.63Z"/><path class="cls-117" d="M186.39,208.88V210h-2.74c-.38,0-.48-.35-.48-.59a.49.49,0,0,1,.43-.54h2.79Z"/><path class="cls-118" d="M187,208.88l.37-.8a9.24,9.24,0,0,0,.1-1.74c0-1.19-.1-3-.17-4v-.86a1.32,1.32,0,0,1,.53-1l.05.06a4.56,4.56,0,0,0,.58,1.93l-.44.44c0,1,.06,1.9.06,2.85a5.78,5.78,0,0,1-.24,1.75h0a9.71,9.71,0,0,1,1.5-1.64,2.12,2.12,0,0,1,1.29-.53,1.42,1.42,0,0,1,1,.49,2.43,2.43,0,0,1,.52,1.56c0,.31-.09.62-.16.93-.34,1.52-2.74,1.73-4.09,1.73h-1.54c-.38,0-.48-.35-.48-.59a.49.49,0,0,1,.43-.54h0Zm1.07,0a5.78,5.78,0,0,0,3.16-.65,1.34,1.34,0,0,0,.41-.41,1.41,1.41,0,0,0-1.31-1.35c-.89,0-1.87.92-2.86,2.41Z"/><path class="cls-119" d="M195.25,209.09a1.46,1.46,0,0,1-1.51-1.4,1.06,1.06,0,0,1,0-.25,2.69,2.69,0,0,1,.44-1.51c.31-.44.65-.73,1-.73s.76.36,1,1a6.36,6.36,0,0,1,.44,2.41,5.14,5.14,0,0,1-.52,2.31c-.61,1.18-1.19,1.67-1.76,1.67a3,3,0,0,1-2-.86l.1-.28a1.83,1.83,0,0,0,1,.29,2.6,2.6,0,0,0,2-1.34,3.31,3.31,0,0,0,.64-1.46A3.17,3.17,0,0,1,195.25,209.09Zm-.3-2.79a1,1,0,0,0-.77.78,1.1,1.1,0,0,0,1.17.94,2.53,2.53,0,0,0,.77-.12c-.18-.89-.61-1.6-1.17-1.6Z"/><path class="cls-120" d="M207.68,201.35c.06,2.16.1,4.07.1,6.16a1.78,1.78,0,0,0,.34,1.13,1,1,0,0,0,.67.24h.08V210h-.13a1.11,1.11,0,0,1-1.08-.66h0a9.73,9.73,0,0,1-.24,1.31,3.33,3.33,0,0,1-.79,1,2.28,2.28,0,0,1-1.43.54,1.64,1.64,0,0,1-1.42-.75,3.51,3.51,0,0,1-.49-2,6.19,6.19,0,0,1,.46-2.21l.25.13a4.66,4.66,0,0,0-.29,1.52,2.41,2.41,0,0,0,.35,1.36,1.32,1.32,0,0,0,1.19.71,2,2,0,0,0,1.18-.41,2.14,2.14,0,0,0,.75-.83,5.61,5.61,0,0,0,0-.58c0-1.37-.05-3.64-.2-7.07a4.61,4.61,0,0,1,.63-.77Z"/><path class="cls-121" d="M209.3,208.88a3.45,3.45,0,0,0,1-.18h0a2.12,2.12,0,0,1-.81-1.71,2.56,2.56,0,0,1,.3-1.15,1.69,1.69,0,0,1,1.42-1.18c.63,0,1.16.54,1.52,1.43l-.13.18a1.49,1.49,0,0,0-1.23-.57c-.73,0-1.25.43-1.25.74a1.77,1.77,0,0,0,.59,1.25,1.57,1.57,0,0,0,.83.47,5.74,5.74,0,0,0,2-.62h0l-.36,1.09c-1.08.49-1.6.56-2.44.91a4.46,4.46,0,0,1-1.67.48h-.21c-.38,0-.48-.35-.48-.59a.49.49,0,0,1,.43-.54h.49Z"/><path class="cls-122" d="M216.34,210h-.07a1.34,1.34,0,0,1-1.17-.5c-.42-.55-.43-1.17-.43-2.46,0-1.67-.07-3.41-.18-5.27a6.32,6.32,0,0,1,.65-.82h.05c.11,1.92.11,4.19.11,6.35v.5a.91.91,0,0,0,.51.94,1,1,0,0,0,.44.09h.09Z"/><path class="cls-123" d="M216.92,208.88a4.44,4.44,0,0,0,1.49-.17c.44-.17.81-.5.81-.73v-.19q-.39,0-.78,0a1.54,1.54,0,0,1-1.64-1,1.73,1.73,0,0,1-.1-.63,2.88,2.88,0,0,1,.51-1.73,1.18,1.18,0,0,1,.88-.58c.56,0,1,.67,1.31,1.73a7.75,7.75,0,0,1,.29,2.09,2.59,2.59,0,0,1-.34,1.39c-.43.63-1.22.87-2.44.87h-.56c-.37,0-.48-.35-.48-.59a.49.49,0,0,1,.43-.54h0Zm1-3.8a.86.86,0,0,0-.82.78c0,.71.91.93,2,.92-.14-.84-.59-1.7-1.17-1.7Zm-.14-3.94a9.09,9.09,0,0,1,.82.93,3.63,3.63,0,0,1-.57.87c-.26-.33-.53-.61-.81-.91a8.11,8.11,0,0,1,.57-.84Z"/><path class="cls-124" d="M227.74,206.3a13.94,13.94,0,0,1,.56,1.69c.2.77.57.89,1.23.89h.1V210h-.12a1.28,1.28,0,0,1-1-.4h0a5.47,5.47,0,0,1-.42,2,3.08,3.08,0,0,1-2.32,1.42c-1.29,0-2.11-1.1-2.11-2.66a5.49,5.49,0,0,1,.59-2.55l.26.18a4.85,4.85,0,0,0-.38,1.64,2.18,2.18,0,0,0,.46,1.53,1.74,1.74,0,0,0,1.29.59,2.65,2.65,0,0,0,1.66-.77,1.32,1.32,0,0,0,.5-.9,5.52,5.52,0,0,0-.25-1.46c-.22-.64-.39-1.09-.54-1.43a6.76,6.76,0,0,1,.47-.93Zm-1.63-2.67a7.44,7.44,0,0,1,.83.94,4.58,4.58,0,0,1-.57.86c-.27-.33-.54-.61-.81-.91C225.74,204.19,225.93,203.9,226.11,203.63Z"/><path class="cls-125" d="M230.26,208.88l.37-.8a9.24,9.24,0,0,0,.1-1.74c0-1.19-.1-3-.17-4v-.86a1.32,1.32,0,0,1,.53-1l0,.06a4.56,4.56,0,0,0,.58,1.93l-.44.44c0,1,.06,1.9.06,2.85a5.78,5.78,0,0,1-.24,1.75h0a9.71,9.71,0,0,1,1.5-1.64,2.12,2.12,0,0,1,1.29-.53,1.36,1.36,0,0,1,1,.49,2.43,2.43,0,0,1,.52,1.56c0,.31-.09.62-.16.93-.34,1.52-2.73,1.73-4.09,1.73h-1.54c-.38,0-.48-.35-.48-.59a.49.49,0,0,1,.43-.54h.05Zm1.07,0a5.79,5.79,0,0,0,3.18-.69,1.34,1.34,0,0,0,.41-.41,1.41,1.41,0,0,0-1.31-1.35c-.89,0-1.87.92-2.86,2.41Z"/><path class="cls-126" d="M236.72,210.19a17.26,17.26,0,0,0,.07-1.76v-.86c0-1.6-.13-3.94-.24-5.46a6.09,6.09,0,0,1,.67-.93h.06c.14,1.91.18,4.13.18,6.18a12.48,12.48,0,0,1-.05,1.44,2.58,2.58,0,0,1-.6,1.42Z"/><path class="cls-127" d="M242.39,208.88V210h-.57a4.91,4.91,0,0,1-.52,1.8,2.54,2.54,0,0,1-1.65,1.5,3.46,3.46,0,0,1-2-.89l.11-.29a1.85,1.85,0,0,0,1,.32,2.5,2.5,0,0,0,1.9-1.22,3,3,0,0,0,.65-1.22H241c-1.4,0-2.11-.57-2.11-1.8a2.78,2.78,0,0,1,.35-1.41,1.31,1.31,0,0,1,1.06-.85c.63,0,1.28,1.13,1.47,2.93Zm-1.56-1.28a1,1,0,0,0-.72-.49.86.86,0,0,0-.78.77c0,.45.33.71.75.87a3.91,3.91,0,0,0,1.23.13A3.06,3.06,0,0,0,240.83,207.6Z"/><path class="cls-128" d="M242.51,208.88c.51,0,.9-.44,1.15-1.55a2.75,2.75,0,0,1,.51-1.06,1.15,1.15,0,0,1,.86-.51c.84,0,1.33,1.47,1.44,3-.14.8-.4,1.13-.73,1.13a3.13,3.13,0,0,1-2-1h-.05c-.18.77-.57,1.14-1.18,1.14h-.12c-.38,0-.48-.35-.48-.59a.49.49,0,0,1,.43-.54h0Zm2.4-.35a1.76,1.76,0,0,0,.81.26c.11,0,.2,0,.22-.1-.2-1.32-.65-1.91-1.08-1.91s-.72.28-.92.86a2.22,2.22,0,0,0,1,.89Z"/><path class="cls-129" d="M80.69,168.9h-.33c-1.53,0-2.8-.65-3.47-2.77h-.08a2.42,2.42,0,0,1-1.22,1.63,6.77,6.77,0,0,1-3.42,1.14,2.81,2.81,0,0,1-3-3.14,10.53,10.53,0,0,1,0-1.26h.67a2.12,2.12,0,0,0,1.92,2.29,2.5,2.5,0,0,0,.47,0,6,6,0,0,0,2.77-.85c.63-.35,1.11-.86,1.11-1.27a34.35,34.35,0,0,0-1.41-6.32,17,17,0,0,1,1.2-1.75l.11.06c.62,2.45,1.15,5.07,1.61,7.57a2.77,2.77,0,0,0,2.69,2.56h.29Z"/><path class="cls-130" d="M81,166.72a10.84,10.84,0,0,0,3.35-.32c.6-.22,1-.46,1-.75,0-.8-.82-2.46-1.7-4.2a13.36,13.36,0,0,1,1.28-1.92H85a12.29,12.29,0,0,1,1.7,5.19,5.12,5.12,0,0,1-1.19,3.16c-.76.77-2,1-4.57,1h-.21a1.08,1.08,0,0,1-1.19-1,.43.43,0,0,1,0-.16,1,1,0,0,1,1.11-1h.08Zm1.67,9c-.7-.66-1.31-1.2-2-1.77A15.66,15.66,0,0,1,82,172.34a16.66,16.66,0,0,1,1.94,1.82,10.4,10.4,0,0,1-1.28,1.52Zm3.28-.22c-.7-.66-1.31-1.21-2-1.77a15.66,15.66,0,0,1,1.34-1.61,15.9,15.9,0,0,1,1.94,1.82,8.52,8.52,0,0,1-1.28,1.52Z"/><path class="cls-131" d="M101.27,168.9H101c-1.53,0-2.81-.65-3.47-2.77h-.09a2.39,2.39,0,0,1-1.22,1.63,6.68,6.68,0,0,1-3.42,1.14,2.81,2.81,0,0,1-3-3.14,8.79,8.79,0,0,1,.06-1.26h.66a2.12,2.12,0,0,0,1.94,2.29,2.4,2.4,0,0,0,.46,0,6,6,0,0,0,2.77-.85c.62-.35,1.1-.86,1.1-1.27a34.35,34.35,0,0,0-1.41-6.32,17.06,17.06,0,0,1,1.21-1.75l.1.06c.63,2.45,1.15,5.07,1.61,7.57a2.77,2.77,0,0,0,2.69,2.56h.29Z"/><path class="cls-132" d="M102.3,166.72c2.76,0,5.58-1,9.08-3.07v-.07a16.11,16.11,0,0,0-5.34-1.19,2.76,2.76,0,0,0-2.16.85l.21.85-.52,1.53h-.16l-.84-2.24c.14-1.89,1.65-3.06,3.69-3.06a16.65,16.65,0,0,1,5.58,1.47,8,8,0,0,0,2.9.55h1.43l-.9,1.78a5.25,5.25,0,0,0-2.94.63l-2.82,1.87a13.26,13.26,0,0,1-7.36,2.28h-.88a1.08,1.08,0,0,1-1.19-1,.43.43,0,0,1,0-.16,1,1,0,0,1,1.11-1h.08Zm5.19,4.71a17.2,17.2,0,0,1,2,1.82,7.31,7.31,0,0,1-1.41,1.67c-.67-.63-1.33-1.18-2-1.75.49-.62,1-1.21,1.43-1.74Z"/><path class="cls-133" d="M126.66,167.24c0,3,2.58,8.08,2.58,10.65a9.27,9.27,0,0,1-.39,2.1h-.29c0-2.07-3.23-8.75-3.23-11.33a5.85,5.85,0,0,1,.6-2.62,6.17,6.17,0,0,1,3.58-3.27c-.22-3.6-.28-6.42-.28-7.31,0-.68-.31-2-.31-2.75a1.75,1.75,0,0,1,.46-1.39,6.18,6.18,0,0,1,1-.89l.17.11a2.81,2.81,0,0,0,0,.71c0,.53.34,1.38,1.46,3.11l-1.26.82c0,2.34.07,5.25.24,7.29a6.21,6.21,0,0,1,1.78-.22c2.11,0,3.67,1.25,3.67,3.35a3.32,3.32,0,0,1-3,3.51c-2.7,0-3.57-2.75-3.81-4.38C128,165.24,126.66,166.38,126.66,167.24Zm7.32-.15a2,2,0,0,0,1.25-.44c.06-1.68-1.76-2.41-3-2.41a4.88,4.88,0,0,0-1.15.11,3.07,3.07,0,0,0,2.9,2.73Z"/><path class="cls-134" d="M143.71,168.9h-.2a3.72,3.72,0,0,1-2.91-1c-1-1.05-1-2.26-1-4.76,0-3.23-.19-6.61-.44-10.21a15.91,15.91,0,0,1,1.59-1.59l.12.07c.28,3.73.28,8.13.28,12.31v1a1.76,1.76,0,0,0,1.27,1.82,3.32,3.32,0,0,0,1.09.18h.24Z"/><path class="cls-135" d="M144.78,166.72a9.33,9.33,0,0,0,2.51-.35v-.13a3.86,3.86,0,0,1-2-3.33,4.29,4.29,0,0,1,.73-2.23,4.21,4.21,0,0,1,3.52-2.27c1.58,0,2.89,1,3.78,2.77l-.33.34a4.36,4.36,0,0,0-3-1.09c-1.8,0-3.11.83-3.11,1.43a3.15,3.15,0,0,0,1.46,2.41,4.15,4.15,0,0,0,2.06.92,17.07,17.07,0,0,0,4.86-1.21l.09.09-.91,2.1c-2.66,1-4,1.09-6,1.77a13.21,13.21,0,0,1-4.15.92h-.52a1.08,1.08,0,0,1-1.19-1,.43.43,0,0,1,0-.16,1,1,0,0,1,1.11-1h1.09Z"/><path class="cls-136" d="M176.65,163.16a7.6,7.6,0,0,1-1.77.18c-1.84,0-3.25-.47-3.79-1.7a2.53,2.53,0,0,1-.24-1.15,4.49,4.49,0,0,1,1.19-3.15,3,3,0,0,1,2.06-1.05c1.29,0,2.32,1.2,3.06,3.14a11.84,11.84,0,0,1,.64,4,4.22,4.22,0,0,1-.78,2.41c1.6.53,1.8,1,1.8,2.24a4.46,4.46,0,0,1-.46,1.94,6.34,6.34,0,0,1-2.09,2,9.77,9.77,0,0,1-5.81,1.82,6.09,6.09,0,0,1-4.22-1.61,6.28,6.28,0,0,1-1.75-4.54,12.92,12.92,0,0,1,1.12-5.34l.68.26a10.42,10.42,0,0,0-.64,3.57,5.62,5.62,0,0,0,1,3.35,5,5,0,0,0,4,1.93,9.41,9.41,0,0,0,4.91-1.25,7.17,7.17,0,0,0,2.25-1.74c0-.64-3.11-1.26-6-1.26l-.06-.11.74-1.76c2.79-.32,4.24-.79,4.24-1.68A2.48,2.48,0,0,1,176.65,163.16ZM170,179.07c-.7-.67-1.31-1.21-2-1.77a14.77,14.77,0,0,1,1.34-1.62,18.56,18.56,0,0,1,1.94,1.82,10.83,10.83,0,0,1-1.28,1.57Zm3.28-.23c-.7-.66-1.31-1.2-2-1.76a13.71,13.71,0,0,1,1.34-1.62,18.56,18.56,0,0,1,1.94,1.82,8.8,8.8,0,0,1-1.28,1.56ZM173.16,151a17.2,17.2,0,0,1,2,1.82,6.66,6.66,0,0,1-1.41,1.67c-.66-.63-1.33-1.17-2-1.75.49-.61.95-1.21,1.41-1.74Zm.58,7.35a1.94,1.94,0,0,0-1.94,1.49c0,.85,1.63,1.48,3.23,1.48a8.15,8.15,0,0,0,1.39-.07c-.61-1.9-1.53-2.9-2.68-2.9Z"/><path class="cls-137" d="M193.06,168.9h-.18a3.72,3.72,0,0,1-2.91-1c-1-1.05-1.06-2.26-1.06-4.76,0-3.23-.18-6.61-.44-10.21a17.16,17.16,0,0,1,1.6-1.59l.12.07c.27,3.73.27,8.13.27,12.31v1a1.75,1.75,0,0,0,1.28,1.82,3.26,3.26,0,0,0,1.08.18h.24Z"/><path class="cls-138" d="M193.44,166.72c1.3,0,2.67-.52,2.92-1.49l.49-1.84,1.18-.85.1.12a8.52,8.52,0,0,0-.38,2,1.64,1.64,0,0,0,.57,1.41,3.07,3.07,0,0,0,2.1.68h.31v2.18h-.39c-1.67,0-2.93-.46-3.5-1.73h-.07a3.65,3.65,0,0,1-3.38,1.73h-.33a1.08,1.08,0,0,1-1.19-1,.43.43,0,0,1,0-.16,1,1,0,0,1,1.11-1h.08Zm2.95-10.26a15.72,15.72,0,0,1,2,1.82,6.83,6.83,0,0,1-1.41,1.66c-.66-.63-1.32-1.17-2-1.75C195.51,157.58,195.94,157,196.39,156.46Z"/><path class="cls-139" d="M201.1,166.72c1.31,0,2.67-.52,2.93-1.49l.49-1.84,1.17-.85.1.12a8.5,8.5,0,0,0-.37,2,1.64,1.64,0,0,0,.56,1.41,3.08,3.08,0,0,0,2.11.68h.3v2.18H208c-1.66,0-2.92-.46-3.5-1.73h-.07a3.63,3.63,0,0,1-3.38,1.73h-.32a1.08,1.08,0,0,1-1.19-1,.43.43,0,0,1,0-.16,1,1,0,0,1,1.11-1h.08Zm1.87-6.44c-.7-.66-1.31-1.21-2-1.77a15.66,15.66,0,0,1,1.34-1.61,15.9,15.9,0,0,1,1.94,1.82,8.52,8.52,0,0,1-1.28,1.52Zm3.28-.22c-.7-.66-1.31-1.21-2-1.77a14.76,14.76,0,0,1,1.35-1.61,15.81,15.81,0,0,1,1.93,1.82A8.8,8.8,0,0,1,206.25,160.06Z"/><path class="cls-140" d="M208.89,166.72c1.78,0,2.36-.88,2.87-2.49.66-2.13,2-3.23,3.14-3.23a2.29,2.29,0,0,1,2,1.13,22.79,22.79,0,0,1,1.7,3.2,2.71,2.71,0,0,0,2.65,1.39h.29v2.18h-.32a2.86,2.86,0,0,1-2.62-1.48h-.07a2.65,2.65,0,0,1-.54,1.29,1.55,1.55,0,0,1-1.12.56,7.45,7.45,0,0,1-4.81-2.38H212a3.43,3.43,0,0,1-3.38,2h-.26a1.08,1.08,0,0,1-1.19-1,.43.43,0,0,1,0-.16,1,1,0,0,1,1.11-1h.08Zm5.72-.28a5.4,5.4,0,0,0,2.35.74c.32,0,.63,0,.63-.42a5,5,0,0,0-.85-2.26,2.86,2.86,0,0,0-2.18-1.53,2.09,2.09,0,0,0-1.95,1.53c.17.63,1.26,1.51,2,1.94Z"/><path class="cls-141" d="M222,166.72c1.45,0,2.61-.47,2.81-1.49.14-.66.27-1.31.44-1.94a8,8,0,0,1,1.12-.88l.11.1a5.49,5.49,0,0,0-.28,1.6,1.91,1.91,0,0,0,.94,1.88,19.79,19.79,0,0,1,3.52-4.28,5.82,5.82,0,0,1,3.8-1.75,3.68,3.68,0,0,1,3.84,3.51,2.09,2.09,0,0,1,0,.25,7.13,7.13,0,0,1-.87,3h2.26v2.18h-.44a21.13,21.13,0,0,1-5.08-.59,12.68,12.68,0,0,1-4,.59c-2.21,0-3.87-.53-4.81-1.78h0a4,4,0,0,1-3.52,1.78h-.2a1.08,1.08,0,0,1-1.19-1,.43.43,0,0,1,0-.16,1,1,0,0,1,1.11-1h.08Zm9.2,0a13.34,13.34,0,0,0,4.42-.76c.83-.34,1.39-.78,1.39-1.28a3.2,3.2,0,0,0-3.17-2.53c-2,0-3.88,1.65-5.75,4.22A10.51,10.51,0,0,0,231.15,166.72Z"/><path class="cls-142" d="M239.94,166.72a10.84,10.84,0,0,0,3.35-.32c.59-.22,1-.46,1-.75,0-.8-.81-2.46-1.7-4.2a14.24,14.24,0,0,1,1.28-1.92H244a12,12,0,0,1,1.7,5.19,5.12,5.12,0,0,1-1.19,3.16c-.76.77-2,1-4.57,1h-.2a1.08,1.08,0,0,1-1.19-1,.43.43,0,0,1,0-.16,1,1,0,0,1,1.11-1h.08Zm3.21,5.39a17.2,17.2,0,0,1,2,1.82,7.07,7.07,0,0,1-1.41,1.67c-.66-.63-1.33-1.18-2-1.75C242.23,173.24,242.69,172.64,243.15,172.11Z"/><path class="cls-143" d="M367.13,214.09c-1.26-2-3.13-4.85-5.13-7.93h0a93.75,93.75,0,0,1-9.58,1.15l-1.86-3.72,9.51-.41h0l-.15-.22-1.9-3-1.45-2.23-.51-.8-.5-.77-.31-.48-.36-.55c-2.52.4-5.1.75-7.73,1H306.81l48.29-30.12,27.24-16.75c15.11-9.3,35.91-29.22,27-49.08-8.18-18.26-33.75-20.78-50.9-18.09-32.24,4.59-66,30.19-66.48,53.41v1a23.22,23.22,0,0,0,3.42,12.35,26.39,26.39,0,0,0,7.13,8.18l20-11.81,28.87-17,3.21,3.44,16.24-22.3-31,6.54,2.7,2.91-30.45,17.59-.36.21a15.42,15.42,0,0,1-2.16-8.81l1.2-6c4.88-14.11,24.67-27.21,44.24-30,18.55-2.69,34.25,4.23,34.88,17.26.79,16.29-15.94,25.47-27.57,32.88-15.15,9.63-31.69,16.85-46.84,26.49-9,5.7-18.31,12.45-23.85,21.72-4.84,8.11-6.78,25.2,6.59,25.22h59.71c3.07-.16,6.13-.43,9.17-.79h.34A2.54,2.54,0,0,0,367.13,214.09Z"/><polygon class="cls-35" points="274.12 107.45 274.21 107.55 274.21 107.55 274.12 107.45"/></g></g></svg>