<svg id="Layer_1" data-name="Layer 1" xmlns="http://www.w3.org/2000/svg" xmlns:xlink="http://www.w3.org/1999/xlink" viewBox="0 0 511.83 219.88"><defs><style>.cls-1,.cls-3,.cls-5{fill:#22b573;}.cls-2{fill:url(#linear-gradient);}.cls-3{font-size:17.97px;font-family:FFShamelFamily-SansOneBook, FFShamelFamily SansOneBook;}.cls-4{fill:url(#linear-gradient-31);}.cls-5{font-size:34.81px;font-family:FFShamelFamily-SansOneBold, FFShamelFamily SansOneBold;font-weight:700;}.cls-6{fill:url(#linear-gradient-69);}.cls-7{fill:url(#linear-gradient-83);}.cls-8{fill:url(#linear-gradient-84);}.cls-9{fill:url(#linear-gradient-85);}.cls-10{fill:url(#linear-gradient-86);}.cls-11{fill:url(#linear-gradient-87);}.cls-12{fill:url(#linear-gradient-88);}.cls-13{fill:url(#linear-gradient-89);}.cls-14{fill:url(#linear-gradient-90);}.cls-15{fill:url(#linear-gradient-91);}.cls-16{fill:url(#linear-gradient-92);}.cls-17{fill:url(#linear-gradient-93);}.cls-18{fill:url(#linear-gradient-94);}.cls-19{fill:url(#linear-gradient-95);}.cls-20{fill:url(#linear-gradient-96);}.cls-21{fill:url(#linear-gradient-97);}.cls-22{fill:url(#linear-gradient-98);}.cls-23{fill:url(#linear-gradient-99);}.cls-24{fill:url(#linear-gradient-100);}.cls-25{fill:url(#linear-gradient-101);}.cls-26{fill:url(#linear-gradient-102);}.cls-27{fill:url(#linear-gradient-103);}.cls-28{fill:url(#linear-gradient-104);}.cls-29{fill:url(#linear-gradient-105);}.cls-30{fill:url(#linear-gradient-106);}.cls-31{fill:url(#linear-gradient-107);}.cls-32{fill:url(#linear-gradient-108);}.cls-33{fill:url(#linear-gradient-109);}.cls-34{fill:url(#linear-gradient-110);}.cls-35{fill:url(#linear-gradient-111);}.cls-36{fill:url(#linear-gradient-112);}.cls-37{fill:url(#linear-gradient-113);}.cls-38{fill:url(#linear-gradient-114);}.cls-39{fill:url(#linear-gradient-115);}.cls-40{fill:url(#linear-gradient-116);}.cls-41{fill:url(#linear-gradient-117);}.cls-42{fill:url(#linear-gradient-118);}.cls-43{fill:url(#linear-gradient-119);}.cls-44{fill:url(#linear-gradient-120);}.cls-45{fill:url(#linear-gradient-121);}.cls-46{fill:url(#linear-gradient-122);}.cls-47{fill:url(#linear-gradient-123);}.cls-48{fill:url(#linear-gradient-124);}.cls-49{fill:url(#linear-gradient-125);}.cls-50{fill:url(#linear-gradient-126);}.cls-51{fill:url(#linear-gradient-127);}.cls-52{fill:url(#linear-gradient-128);}.cls-53{fill:url(#linear-gradient-129);}.cls-54{fill:url(#linear-gradient-130);}.cls-55{fill:url(#linear-gradient-131);}.cls-56{fill:url(#linear-gradient-132);}.cls-57{fill:url(#linear-gradient-133);}.cls-58{fill:url(#linear-gradient-134);}.cls-59{fill:url(#linear-gradient-135);}.cls-60{fill:url(#linear-gradient-136);}.cls-61{fill:url(#linear-gradient-137);}.cls-62{fill:url(#linear-gradient-138);}.cls-63{fill:url(#linear-gradient-139);}.cls-64{fill:url(#linear-gradient-140);}.cls-65{fill:url(#linear-gradient-141);}.cls-66{fill:url(#linear-gradient-142);}</style><linearGradient id="linear-gradient" x1="398.02" y1="560.73" x2="489.7" y2="325.81" gradientUnits="userSpaceOnUse"><stop offset="0.12" stop-color="#25c17b"/><stop offset="0.18" stop-color="#28b288"/><stop offset="0.34" stop-color="#2e90a4"/><stop offset="0.49" stop-color="#3476ba"/><stop offset="0.65" stop-color="#3764ca"/><stop offset="0.82" stop-color="#3959d3"/><stop offset="1" stop-color="#3a55d6"/></linearGradient><linearGradient id="linear-gradient-31" x1="448.92" y1="582.19" x2="506.19" y2="435.43" xlink:href="#linear-gradient"/><linearGradient id="linear-gradient-69" x1="455.03" y1="558.61" x2="499.91" y2="443.59" xlink:href="#linear-gradient"/><linearGradient id="linear-gradient-83" x1="611.16" y1="657.69" x2="723.52" y2="369.76" xlink:href="#linear-gradient"/><linearGradient id="linear-gradient-84" x1="632.76" y1="666.13" x2="745.13" y2="378.19" xlink:href="#linear-gradient"/><linearGradient id="linear-gradient-85" x1="622.81" y1="662.24" x2="735.18" y2="374.31" xlink:href="#linear-gradient"/><linearGradient id="linear-gradient-86" x1="570.28" y1="641.74" x2="682.65" y2="353.81" xlink:href="#linear-gradient"/><linearGradient id="linear-gradient-87" x1="557.5" y1="636.76" x2="669.87" y2="348.82" xlink:href="#linear-gradient"/><linearGradient id="linear-gradient-88" x1="547.39" y1="632.81" x2="659.75" y2="344.88" xlink:href="#linear-gradient"/><linearGradient id="linear-gradient-89" x1="534.17" y1="627.65" x2="646.53" y2="339.72" xlink:href="#linear-gradient"/><linearGradient id="linear-gradient-90" x1="676.33" y1="683.13" x2="788.69" y2="395.19" xlink:href="#linear-gradient"/><linearGradient id="linear-gradient-91" x1="679.35" y1="684.31" x2="791.72" y2="396.37" xlink:href="#linear-gradient"/><linearGradient id="linear-gradient-92" x1="679.01" y1="684.17" x2="791.38" y2="396.24" xlink:href="#linear-gradient"/><linearGradient id="linear-gradient-93" x1="654.54" y1="674.63" x2="766.91" y2="386.69" xlink:href="#linear-gradient"/><linearGradient id="linear-gradient-94" x1="526.26" y1="624.56" x2="638.62" y2="336.63" xlink:href="#linear-gradient"/><linearGradient id="linear-gradient-95" x1="531.06" y1="626.44" x2="643.43" y2="338.5" xlink:href="#linear-gradient"/><linearGradient id="linear-gradient-96" x1="558.46" y1="637.13" x2="670.82" y2="349.19" xlink:href="#linear-gradient"/><linearGradient id="linear-gradient-97" x1="591.12" y1="649.87" x2="703.48" y2="361.94" xlink:href="#linear-gradient"/><linearGradient id="linear-gradient-98" x1="703.17" y1="693.6" x2="815.54" y2="405.67" xlink:href="#linear-gradient"/><linearGradient id="linear-gradient-99" x1="521.73" y1="622.8" x2="634.1" y2="334.86" xlink:href="#linear-gradient"/><linearGradient id="linear-gradient-100" x1="520.81" y1="622.44" x2="633.17" y2="334.5" xlink:href="#linear-gradient"/><linearGradient id="linear-gradient-101" x1="522.88" y1="623.25" x2="635.25" y2="335.31" xlink:href="#linear-gradient"/><linearGradient id="linear-gradient-102" x1="521.11" y1="622.55" x2="633.48" y2="334.62" xlink:href="#linear-gradient"/><linearGradient id="linear-gradient-103" x1="523.33" y1="623.42" x2="635.69" y2="335.49" xlink:href="#linear-gradient"/><linearGradient id="linear-gradient-104" x1="691.18" y1="688.92" x2="803.54" y2="400.99" xlink:href="#linear-gradient"/><linearGradient id="linear-gradient-105" x1="674.55" y1="682.43" x2="786.92" y2="394.5" xlink:href="#linear-gradient"/><linearGradient id="linear-gradient-106" x1="572.88" y1="642.76" x2="685.24" y2="354.82" xlink:href="#linear-gradient"/><linearGradient id="linear-gradient-107" x1="546.85" y1="632.6" x2="659.22" y2="344.67" xlink:href="#linear-gradient"/><linearGradient id="linear-gradient-108" x1="537.82" y1="629.08" x2="650.19" y2="341.14" xlink:href="#linear-gradient"/><linearGradient id="linear-gradient-109" x1="709.58" y1="696.1" x2="821.95" y2="408.17" xlink:href="#linear-gradient"/><linearGradient id="linear-gradient-110" x1="711.08" y1="696.69" x2="823.45" y2="408.76" xlink:href="#linear-gradient"/><linearGradient id="linear-gradient-111" x1="531.72" y1="626.69" x2="644.08" y2="338.76" xlink:href="#linear-gradient"/><linearGradient id="linear-gradient-112" x1="536.24" y1="628.46" x2="648.61" y2="340.53" xlink:href="#linear-gradient"/><linearGradient id="linear-gradient-113" x1="525.71" y1="624.35" x2="638.08" y2="336.42" xlink:href="#linear-gradient"/><linearGradient id="linear-gradient-114" x1="528.64" y1="625.49" x2="641" y2="337.56" xlink:href="#linear-gradient"/><linearGradient id="linear-gradient-115" x1="532.88" y1="627.15" x2="645.25" y2="339.21" xlink:href="#linear-gradient"/><linearGradient id="linear-gradient-116" x1="528.82" y1="625.56" x2="641.19" y2="337.63" xlink:href="#linear-gradient"/><linearGradient id="linear-gradient-117" x1="228.15" y1="233.15" x2="340.51" y2="-54.78" xlink:href="#linear-gradient"/><linearGradient id="linear-gradient-118" x1="527.54" y1="625.06" x2="639.9" y2="337.13" xlink:href="#linear-gradient"/><linearGradient id="linear-gradient-119" x1="528.07" y1="625.27" x2="640.44" y2="337.34" xlink:href="#linear-gradient"/><linearGradient id="linear-gradient-120" x1="527.1" y1="624.89" x2="639.47" y2="336.96" xlink:href="#linear-gradient"/><linearGradient id="linear-gradient-121" x1="604.28" y1="655.01" x2="716.65" y2="367.08" xlink:href="#linear-gradient"/><linearGradient id="linear-gradient-122" x1="529.96" y1="626.01" x2="642.32" y2="338.07" xlink:href="#linear-gradient"/><linearGradient id="linear-gradient-123" x1="586.6" y1="648.11" x2="698.96" y2="360.18" xlink:href="#linear-gradient"/><linearGradient id="linear-gradient-124" x1="530.79" y1="626.33" x2="643.15" y2="338.4" xlink:href="#linear-gradient"/><linearGradient id="linear-gradient-125" x1="656.72" y1="675.48" x2="769.09" y2="387.54" xlink:href="#linear-gradient"/><linearGradient id="linear-gradient-126" x1="640.85" y1="669.28" x2="753.21" y2="381.35" xlink:href="#linear-gradient"/><linearGradient id="linear-gradient-127" x1="539.71" y1="629.81" x2="652.08" y2="341.88" xlink:href="#linear-gradient"/><linearGradient id="linear-gradient-128" x1="668.69" y1="680.14" x2="781.05" y2="392.21" xlink:href="#linear-gradient"/><linearGradient id="linear-gradient-129" x1="679.63" y1="684.42" x2="792" y2="396.48" xlink:href="#linear-gradient"/><linearGradient id="linear-gradient-130" x1="674.57" y1="682.44" x2="786.94" y2="394.51" xlink:href="#linear-gradient"/><linearGradient id="linear-gradient-131" x1="707.59" y1="695.33" x2="819.96" y2="407.39" xlink:href="#linear-gradient"/><linearGradient id="linear-gradient-132" x1="656.84" y1="675.52" x2="769.21" y2="387.59" xlink:href="#linear-gradient"/><linearGradient id="linear-gradient-133" x1="667.65" y1="679.74" x2="780.02" y2="391.81" xlink:href="#linear-gradient"/><linearGradient id="linear-gradient-134" x1="690.21" y1="688.54" x2="802.58" y2="400.61" xlink:href="#linear-gradient"/><linearGradient id="linear-gradient-135" x1="700.57" y1="692.59" x2="812.94" y2="404.65" xlink:href="#linear-gradient"/><linearGradient id="linear-gradient-136" x1="634.35" y1="666.74" x2="746.71" y2="378.81" xlink:href="#linear-gradient"/><linearGradient id="linear-gradient-137" x1="656.39" y1="675.35" x2="768.76" y2="387.41" xlink:href="#linear-gradient"/><linearGradient id="linear-gradient-138" x1="645.7" y1="671.17" x2="758.06" y2="383.24" xlink:href="#linear-gradient"/><linearGradient id="linear-gradient-139" x1="666.46" y1="679.28" x2="778.83" y2="391.34" xlink:href="#linear-gradient"/><linearGradient id="linear-gradient-140" x1="645.2" y1="670.98" x2="757.56" y2="383.04" xlink:href="#linear-gradient"/><linearGradient id="linear-gradient-141" x1="622.86" y1="662.26" x2="735.22" y2="374.33" xlink:href="#linear-gradient"/><linearGradient id="linear-gradient-142" x1="597.21" y1="652.25" x2="709.58" y2="364.32" xlink:href="#linear-gradient"/></defs><path class="cls-1" d="M312.78,506.6v2.25h-1a10.12,10.12,0,0,1,.07,1.26,6.38,6.38,0,0,1-.79,2.2,13.21,13.21,0,0,1-8.19,3.27,6.2,6.2,0,0,1-4.83-1.9,7.13,7.13,0,0,1-1.53-4.9,12.71,12.71,0,0,1,1.65-5.8l.67.29a11.94,11.94,0,0,0-1.07,4.42,5.52,5.52,0,0,0,1.4,3.83,5.84,5.84,0,0,0,4.26,1.65,12.91,12.91,0,0,0,5.6-1.51,3.93,3.93,0,0,0,1.59-1.21c-.41-.85-2.32-1.6-5.12-1.6l-.1-.25,1.21-2Zm-10.7,14.16c-.72-.68-1.35-1.24-2.06-1.82a14.8,14.8,0,0,1,1.39-1.67,16.63,16.63,0,0,1,2,1.88A9.59,9.59,0,0,1,302.08,520.76Zm3.39-.22c-.72-.69-1.35-1.25-2.05-1.83A15.54,15.54,0,0,1,304.8,517a16.63,16.63,0,0,1,2,1.88A9.62,9.62,0,0,1,305.47,520.54Z" transform="translate(-296.49 -390.77)"/><path class="cls-1" d="M319.82,506.6v2.25h-7a1.14,1.14,0,0,1-1.23-1.18,1.09,1.09,0,0,1,1.23-1.07Z" transform="translate(-296.49 -390.77)"/><path class="cls-1" d="M326.85,506.6v2.25h-7a1.14,1.14,0,0,1-1.24-1.18,1.1,1.1,0,0,1,1.24-1.07Z" transform="translate(-296.49 -390.77)"/><path class="cls-1" d="M333.88,506.6v2.25h-7a1.13,1.13,0,0,1-1.23-1.18,1.09,1.09,0,0,1,1.23-1.07Z" transform="translate(-296.49 -390.77)"/><path class="cls-1" d="M340.91,506.6v2.25h-7a1.13,1.13,0,0,1-1.23-1.18,1.09,1.09,0,0,1,1.23-1.07Z" transform="translate(-296.49 -390.77)"/><path class="cls-1" d="M347.94,506.6v2.25h-7a1.13,1.13,0,0,1-1.23-1.18,1.09,1.09,0,0,1,1.23-1.07Z" transform="translate(-296.49 -390.77)"/><path class="cls-1" d="M348.24,506.6a11.36,11.36,0,0,0,3.46-.34c.62-.23,1-.47,1-.77,0-.83-.84-2.55-1.75-4.34a14,14,0,0,1,1.31-2h.09a12.37,12.37,0,0,1,1.76,5.36,5.28,5.28,0,0,1-1.23,3.27c-.79.79-2,1.06-4.73,1.06h-.21a1.13,1.13,0,0,1-1.23-1.18,1.09,1.09,0,0,1,1.23-1.07Zm2.44-13.08a15.82,15.82,0,0,1,2.11,1.88,7,7,0,0,1-1.46,1.72c-.68-.65-1.37-1.21-2.07-1.81C349.73,494.68,350.21,494.06,350.68,493.52Z" transform="translate(-296.49 -390.77)"/><path class="cls-1" d="M361.84,508.85h-.19a3.83,3.83,0,0,1-3-1c-1.08-1.09-1.09-2.33-1.09-4.92,0-3.34-.2-6.84-.46-10.56a16.82,16.82,0,0,1,1.65-1.64l.12.07c.29,3.85.29,8.41.29,12.73v1a1.82,1.82,0,0,0,1.31,1.88,3.57,3.57,0,0,0,1.13.2h.24Z" transform="translate(-296.49 -390.77)"/><path class="cls-1" d="M368.88,506.6v2.25h-7a1.14,1.14,0,0,1-1.23-1.18,1.1,1.1,0,0,1,1.23-1.07Z" transform="translate(-296.49 -390.77)"/><path class="cls-1" d="M375.91,506.6v2.25h-7a1.13,1.13,0,0,1-1.23-1.18,1.09,1.09,0,0,1,1.23-1.07Z" transform="translate(-296.49 -390.77)"/><path class="cls-1" d="M382.94,506.6v2.25h-7a1.13,1.13,0,0,1-1.23-1.18,1.09,1.09,0,0,1,1.23-1.07Z" transform="translate(-296.49 -390.77)"/><path class="cls-1" d="M390,506.6v2.25h-7a1.13,1.13,0,0,1-1.23-1.18,1.09,1.09,0,0,1,1.23-1.07Z" transform="translate(-296.49 -390.77)"/><path class="cls-1" d="M397,506.6v2.25h-7a1.13,1.13,0,0,1-1.23-1.18A1.09,1.09,0,0,1,390,506.6Z" transform="translate(-296.49 -390.77)"/><path class="cls-1" d="M397.39,506.6c1.35,0,2.76-.55,3-1.55l.51-1.9,1.21-.88.11.13a9.19,9.19,0,0,0-.39,2,1.74,1.74,0,0,0,.58,1.46,3.28,3.28,0,0,0,2.18.71h.32v2.25h-.41c-1.72,0-3-.48-3.62-1.8h-.07a3.77,3.77,0,0,1-3.5,1.8H397a1.13,1.13,0,0,1-1.23-1.18A1.09,1.09,0,0,1,397,506.6Zm1.93-6.67c-.72-.68-1.35-1.24-2.06-1.82a14.8,14.8,0,0,1,1.39-1.67,16.63,16.63,0,0,1,2,1.88A9.13,9.13,0,0,1,399.32,499.93Zm.95-3.74c-.72-.69-1.35-1.25-2.06-1.83a16.83,16.83,0,0,1,1.39-1.67,16.63,16.63,0,0,1,2,1.88A9.7,9.7,0,0,1,400.27,496.19Zm2.44,3.52c-.72-.69-1.35-1.25-2-1.83a15.55,15.55,0,0,1,1.39-1.67,16.57,16.57,0,0,1,2,1.88A9.16,9.16,0,0,1,402.71,499.71Z" transform="translate(-296.49 -390.77)"/><path class="cls-1" d="M405.32,506.6a3.87,3.87,0,0,0,2-.48,2,2,0,0,0,.94-1.9c0-2.81-.23-5.89-.51-9.12-.07-.81-.18-1.55-.18-2.2a1.77,1.77,0,0,1,.53-1.17,7.9,7.9,0,0,1,1-1l.13.09a7.88,7.88,0,0,0,1.42,4,9.82,9.82,0,0,1-1.11.9c.07,2,.23,4.15.23,6.1a10.39,10.39,0,0,1-.7,4.41,3.54,3.54,0,0,1-1.6,2,5.08,5.08,0,0,1-2.2.53h-.26a1.13,1.13,0,0,1-1.23-1.18,1.09,1.09,0,0,1,1.23-1.07Z" transform="translate(-296.49 -390.77)"/><path class="cls-1" d="M413.61,509.15a22.73,22.73,0,0,0,.2-3.52v-1.72c0-3.22-.36-7.9-.64-10.94a16.32,16.32,0,0,1,1.73-1.86l.15.05c.37,3.84.46,8.28.46,12.38a27.3,27.3,0,0,1-.12,2.9,4.6,4.6,0,0,1-1.55,2.83Z" transform="translate(-296.49 -390.77)"/><path class="cls-1" d="M431.56,502.8c1,2.41,1.92,3.8,3.95,3.8h.32v2.25h-.37a2.43,2.43,0,0,1-1.77-.57h-.07c0,.22,0,.43,0,.62a5.89,5.89,0,0,1-.7,2.72c-1.39,2.45-2.9,3.5-4.2,3.5a10.3,10.3,0,0,1-4.4-1.37l.27-.6a4.56,4.56,0,0,0,2,.39c2.35,0,5.45-2.67,5.83-5.27a3.17,3.17,0,0,0-.47-.79,16.56,16.56,0,0,1-1.53-2.62c.35-.81.67-1.46,1-2Z" transform="translate(-296.49 -390.77)"/><path class="cls-1" d="M442.86,506.6v2.25h-7a1.13,1.13,0,0,1-1.23-1.18,1.09,1.09,0,0,1,1.23-1.07Z" transform="translate(-296.49 -390.77)"/><path class="cls-1" d="M449.89,506.6v2.25h-7a1.14,1.14,0,0,1-1.23-1.18,1.09,1.09,0,0,1,1.23-1.07Z" transform="translate(-296.49 -390.77)"/><path class="cls-1" d="M450.4,506.6c1.85,0,2.45-.92,3-2.59.69-2.19,2.08-3.34,3.26-3.34a2.38,2.38,0,0,1,2.11,1.18,23.09,23.09,0,0,1,1.75,3.31,2.85,2.85,0,0,0,2.75,1.44h.29v2.25h-.33a3,3,0,0,1-2.71-1.53h-.07a2.67,2.67,0,0,1-.56,1.33,1.61,1.61,0,0,1-1.16.58,7.78,7.78,0,0,1-5-2.46h-.07a3.56,3.56,0,0,1-3.5,2.08h-.27a1.14,1.14,0,0,1-1.23-1.18,1.09,1.09,0,0,1,1.23-1.07Zm5.93-.3a5.77,5.77,0,0,0,2.42.77c.34,0,.65,0,.65-.44a5,5,0,0,0-.88-2.34,3,3,0,0,0-2.25-1.58,2.18,2.18,0,0,0-2,1.58A5,5,0,0,0,456.33,506.3Z" transform="translate(-296.49 -390.77)"/><path class="cls-1" d="M470.57,506.6v2.25h-7a1.14,1.14,0,0,1-1.23-1.18,1.09,1.09,0,0,1,1.23-1.07Z" transform="translate(-296.49 -390.77)"/><path class="cls-1" d="M477.6,506.6v2.25h-7a1.14,1.14,0,0,1-1.24-1.18,1.1,1.1,0,0,1,1.24-1.07Z" transform="translate(-296.49 -390.77)"/><path class="cls-1" d="M484.63,506.6v2.25h-7a1.13,1.13,0,0,1-1.23-1.18,1.09,1.09,0,0,1,1.23-1.07Z" transform="translate(-296.49 -390.77)"/><path class="cls-1" d="M484.93,506.6a11.36,11.36,0,0,0,3.46-.34c.61-.23,1-.47,1-.77,0-.83-.84-2.55-1.76-4.34a14.93,14.93,0,0,1,1.32-2H489a12.37,12.37,0,0,1,1.76,5.36,5.28,5.28,0,0,1-1.23,3.27c-.79.79-2,1.06-4.73,1.06h-.21a1.13,1.13,0,0,1-1.23-1.18,1.09,1.09,0,0,1,1.23-1.07Zm1.32-9c-.73-.69-1.36-1.25-2.06-1.83a16.83,16.83,0,0,1,1.39-1.67,15.86,15.86,0,0,1,2,1.88A9.22,9.22,0,0,1,486.25,497.65Zm3.39-.23c-.72-.68-1.36-1.25-2.06-1.83a16.83,16.83,0,0,1,1.39-1.67,17.46,17.46,0,0,1,2,1.88A9.22,9.22,0,0,1,489.64,497.42Z" transform="translate(-296.49 -390.77)"/><path class="cls-1" d="M503.45,506.6v2.25H502a8.22,8.22,0,0,1-1.34,3.6,6.26,6.26,0,0,1-4.24,3,10.23,10.23,0,0,1-5.06-1.78l.3-.58a5.31,5.31,0,0,0,2.58.63,6.87,6.87,0,0,0,4.89-2.42,5.65,5.65,0,0,0,1.65-2.46h-.86c-3.59,0-5.41-1.15-5.41-3.61a4.77,4.77,0,0,1,.89-2.83,3.43,3.43,0,0,1,2.71-1.68c1.62,0,3.29,2.26,3.78,5.87Zm-3.83-10.34a9.68,9.68,0,0,1-.68,1.2,17.93,17.93,0,0,0-4.57,1.31l0,0,.42-.74a2.28,2.28,0,0,1,.81-.58v0a1.65,1.65,0,0,1-1.37-1.53,2.38,2.38,0,0,1,.83-1.55,3.34,3.34,0,0,1,2.12-1c.71,0,1.11.41,1.11.86a1.85,1.85,0,0,1-.56,1.15h0c-.19-.39-.37-.64-.56-.69a2.54,2.54,0,0,0-.54,0c-.62,0-1.23.35-1.23.61,0,.85,1.47,1.13,2.51,1.13.6,0,1.19,0,1.79-.07Zm-.16,7.77a2.56,2.56,0,0,0-1.86-1c-1,0-2,.84-2,1.54,0,.9.83,1.43,1.92,1.74a11.87,11.87,0,0,0,3.16.27A5.33,5.33,0,0,0,499.46,504Z" transform="translate(-296.49 -390.77)"/><path class="cls-1" d="M504,506.6c1.85,0,2.45-.92,3-2.59.69-2.19,2.08-3.34,3.26-3.34a2.38,2.38,0,0,1,2.11,1.18,22.06,22.06,0,0,1,1.75,3.31,2.85,2.85,0,0,0,2.75,1.44h.29v2.25h-.33a3,3,0,0,1-2.71-1.53H514a2.67,2.67,0,0,1-.56,1.33,1.59,1.59,0,0,1-1.16.58,7.78,7.78,0,0,1-5-2.46h-.07a3.56,3.56,0,0,1-3.5,2.08h-.27a1.14,1.14,0,0,1-1.23-1.18,1.09,1.09,0,0,1,1.23-1.07Zm5.93-.3a5.77,5.77,0,0,0,2.42.77c.34,0,.65,0,.65-.44a5,5,0,0,0-.88-2.34,3,3,0,0,0-2.25-1.58,2.18,2.18,0,0,0-2,1.58A5,5,0,0,0,509.89,506.3Z" transform="translate(-296.49 -390.77)"/><path class="cls-1" d="M524.13,506.6v2.25h-7a1.14,1.14,0,0,1-1.23-1.18,1.1,1.1,0,0,1,1.23-1.07Z" transform="translate(-296.49 -390.77)"/><path class="cls-1" d="M531.16,506.6v2.25h-7a1.13,1.13,0,0,1-1.23-1.18,1.09,1.09,0,0,1,1.23-1.07Z" transform="translate(-296.49 -390.77)"/><path class="cls-1" d="M531.54,506.6a3.88,3.88,0,0,0,2-.48,2,2,0,0,0,.93-1.9c0-2.81-.22-5.89-.51-9.12-.07-.81-.17-1.55-.17-2.2a1.73,1.73,0,0,1,.53-1.17,7.9,7.9,0,0,1,1-1l.13.09a7.88,7.88,0,0,0,1.42,4,10.8,10.8,0,0,1-1.11.9c.07,2,.23,4.15.23,6.1a10.39,10.39,0,0,1-.7,4.41,3.54,3.54,0,0,1-1.6,2,5.08,5.08,0,0,1-2.2.53h-.26a1.13,1.13,0,0,1-1.23-1.18,1.09,1.09,0,0,1,1.23-1.07Z" transform="translate(-296.49 -390.77)"/><path class="cls-1" d="M539.84,509.15a22.74,22.74,0,0,0,.19-3.52v-1.72c0-3.22-.35-7.9-.63-10.94a16.25,16.25,0,0,1,1.72-1.86l.16.05c.37,3.84.46,8.28.46,12.38,0,1.07,0,2.13-.12,2.9a4.6,4.6,0,0,1-1.55,2.83Z" transform="translate(-296.49 -390.77)"/><path class="cls-2" d="M312.78,506.6v2.25h-1a10.12,10.12,0,0,1,.07,1.26,6.38,6.38,0,0,1-.79,2.2,13.21,13.21,0,0,1-8.19,3.27,6.2,6.2,0,0,1-4.83-1.9,7.13,7.13,0,0,1-1.53-4.9,12.71,12.71,0,0,1,1.65-5.8l.67.29a11.94,11.94,0,0,0-1.07,4.42,5.52,5.52,0,0,0,1.4,3.83,5.84,5.84,0,0,0,4.26,1.65,12.91,12.91,0,0,0,5.6-1.51,3.93,3.93,0,0,0,1.59-1.21c-.41-.85-2.32-1.6-5.12-1.6l-.1-.25,1.21-2Zm-10.7,14.16c-.72-.68-1.35-1.24-2.06-1.82a14.8,14.8,0,0,1,1.39-1.67,16.63,16.63,0,0,1,2,1.88A9.59,9.59,0,0,1,302.08,520.76Zm3.39-.22c-.72-.69-1.35-1.25-2.05-1.83A15.54,15.54,0,0,1,304.8,517a16.63,16.63,0,0,1,2,1.88A9.62,9.62,0,0,1,305.47,520.54Z" transform="translate(-296.49 -390.77)"/><path class="cls-2" d="M319.82,506.6v2.25h-7a1.14,1.14,0,0,1-1.23-1.18,1.09,1.09,0,0,1,1.23-1.07Z" transform="translate(-296.49 -390.77)"/><path class="cls-2" d="M326.85,506.6v2.25h-7a1.14,1.14,0,0,1-1.24-1.18,1.1,1.1,0,0,1,1.24-1.07Z" transform="translate(-296.49 -390.77)"/><path class="cls-2" d="M333.88,506.6v2.25h-7a1.13,1.13,0,0,1-1.23-1.18,1.09,1.09,0,0,1,1.23-1.07Z" transform="translate(-296.49 -390.77)"/><path class="cls-2" d="M340.91,506.6v2.25h-7a1.13,1.13,0,0,1-1.23-1.18,1.09,1.09,0,0,1,1.23-1.07Z" transform="translate(-296.49 -390.77)"/><path class="cls-2" d="M347.94,506.6v2.25h-7a1.13,1.13,0,0,1-1.23-1.18,1.09,1.09,0,0,1,1.23-1.07Z" transform="translate(-296.49 -390.77)"/><path class="cls-2" d="M348.24,506.6a11.36,11.36,0,0,0,3.46-.34c.62-.23,1-.47,1-.77,0-.83-.84-2.55-1.75-4.34a14,14,0,0,1,1.31-2h.09a12.37,12.37,0,0,1,1.76,5.36,5.28,5.28,0,0,1-1.23,3.27c-.79.79-2,1.06-4.73,1.06h-.21a1.13,1.13,0,0,1-1.23-1.18,1.09,1.09,0,0,1,1.23-1.07Zm2.44-13.08a15.82,15.82,0,0,1,2.11,1.88,7,7,0,0,1-1.46,1.72c-.68-.65-1.37-1.21-2.07-1.81C349.73,494.68,350.21,494.06,350.68,493.52Z" transform="translate(-296.49 -390.77)"/><path class="cls-2" d="M361.84,508.85h-.19a3.83,3.83,0,0,1-3-1c-1.08-1.09-1.09-2.33-1.09-4.92,0-3.34-.2-6.84-.46-10.56a16.82,16.82,0,0,1,1.65-1.64l.12.07c.29,3.85.29,8.41.29,12.73v1a1.82,1.82,0,0,0,1.31,1.88,3.57,3.57,0,0,0,1.13.2h.24Z" transform="translate(-296.49 -390.77)"/><path class="cls-2" d="M368.88,506.6v2.25h-7a1.14,1.14,0,0,1-1.23-1.18,1.1,1.1,0,0,1,1.23-1.07Z" transform="translate(-296.49 -390.77)"/><path class="cls-2" d="M375.91,506.6v2.25h-7a1.13,1.13,0,0,1-1.23-1.18,1.09,1.09,0,0,1,1.23-1.07Z" transform="translate(-296.49 -390.77)"/><path class="cls-2" d="M382.94,506.6v2.25h-7a1.13,1.13,0,0,1-1.23-1.18,1.09,1.09,0,0,1,1.23-1.07Z" transform="translate(-296.49 -390.77)"/><path class="cls-2" d="M390,506.6v2.25h-7a1.13,1.13,0,0,1-1.23-1.18,1.09,1.09,0,0,1,1.23-1.07Z" transform="translate(-296.49 -390.77)"/><path class="cls-2" d="M397,506.6v2.25h-7a1.13,1.13,0,0,1-1.23-1.18A1.09,1.09,0,0,1,390,506.6Z" transform="translate(-296.49 -390.77)"/><path class="cls-2" d="M397.39,506.6c1.35,0,2.76-.55,3-1.55l.51-1.9,1.21-.88.11.13a9.19,9.19,0,0,0-.39,2,1.74,1.74,0,0,0,.58,1.46,3.28,3.28,0,0,0,2.18.71h.32v2.25h-.41c-1.72,0-3-.48-3.62-1.8h-.07a3.77,3.77,0,0,1-3.5,1.8H397a1.13,1.13,0,0,1-1.23-1.18A1.09,1.09,0,0,1,397,506.6Zm1.93-6.67c-.72-.68-1.35-1.24-2.06-1.82a14.8,14.8,0,0,1,1.39-1.67,16.63,16.63,0,0,1,2,1.88A9.13,9.13,0,0,1,399.32,499.93Zm.95-3.74c-.72-.69-1.35-1.25-2.06-1.83a16.83,16.83,0,0,1,1.39-1.67,16.63,16.63,0,0,1,2,1.88A9.7,9.7,0,0,1,400.27,496.19Zm2.44,3.52c-.72-.69-1.35-1.25-2-1.83a15.55,15.55,0,0,1,1.39-1.67,16.57,16.57,0,0,1,2,1.88A9.16,9.16,0,0,1,402.71,499.71Z" transform="translate(-296.49 -390.77)"/><path class="cls-2" d="M405.32,506.6a3.87,3.87,0,0,0,2-.48,2,2,0,0,0,.94-1.9c0-2.81-.23-5.89-.51-9.12-.07-.81-.18-1.55-.18-2.2a1.77,1.77,0,0,1,.53-1.17,7.9,7.9,0,0,1,1-1l.13.09a7.88,7.88,0,0,0,1.42,4,9.82,9.82,0,0,1-1.11.9c.07,2,.23,4.15.23,6.1a10.39,10.39,0,0,1-.7,4.41,3.54,3.54,0,0,1-1.6,2,5.08,5.08,0,0,1-2.2.53h-.26a1.13,1.13,0,0,1-1.23-1.18,1.09,1.09,0,0,1,1.23-1.07Z" transform="translate(-296.49 -390.77)"/><path class="cls-2" d="M413.61,509.15a22.73,22.73,0,0,0,.2-3.52v-1.72c0-3.22-.36-7.9-.64-10.94a16.32,16.32,0,0,1,1.73-1.86l.15.05c.37,3.84.46,8.28.46,12.38a27.3,27.3,0,0,1-.12,2.9,4.6,4.6,0,0,1-1.55,2.83Z" transform="translate(-296.49 -390.77)"/><path class="cls-2" d="M431.56,502.8c1,2.41,1.92,3.8,3.95,3.8h.32v2.25h-.37a2.43,2.43,0,0,1-1.77-.57h-.07c0,.22,0,.43,0,.62a5.89,5.89,0,0,1-.7,2.72c-1.39,2.45-2.9,3.5-4.2,3.5a10.3,10.3,0,0,1-4.4-1.37l.27-.6a4.56,4.56,0,0,0,2,.39c2.35,0,5.45-2.67,5.83-5.27a3.17,3.17,0,0,0-.47-.79,16.56,16.56,0,0,1-1.53-2.62c.35-.81.67-1.46,1-2Z" transform="translate(-296.49 -390.77)"/><path class="cls-2" d="M442.86,506.6v2.25h-7a1.13,1.13,0,0,1-1.23-1.18,1.09,1.09,0,0,1,1.23-1.07Z" transform="translate(-296.49 -390.77)"/><path class="cls-2" d="M449.89,506.6v2.25h-7a1.14,1.14,0,0,1-1.23-1.18,1.09,1.09,0,0,1,1.23-1.07Z" transform="translate(-296.49 -390.77)"/><path class="cls-2" d="M450.4,506.6c1.85,0,2.45-.92,3-2.59.69-2.19,2.08-3.34,3.26-3.34a2.38,2.38,0,0,1,2.11,1.18,23.09,23.09,0,0,1,1.75,3.31,2.85,2.85,0,0,0,2.75,1.44h.29v2.25h-.33a3,3,0,0,1-2.71-1.53h-.07a2.67,2.67,0,0,1-.56,1.33,1.61,1.61,0,0,1-1.16.58,7.78,7.78,0,0,1-5-2.46h-.07a3.56,3.56,0,0,1-3.5,2.08h-.27a1.14,1.14,0,0,1-1.23-1.18,1.09,1.09,0,0,1,1.23-1.07Zm5.93-.3a5.77,5.77,0,0,0,2.42.77c.34,0,.65,0,.65-.44a5,5,0,0,0-.88-2.34,3,3,0,0,0-2.25-1.58,2.18,2.18,0,0,0-2,1.58A5,5,0,0,0,456.33,506.3Z" transform="translate(-296.49 -390.77)"/><path class="cls-2" d="M470.57,506.6v2.25h-7a1.14,1.14,0,0,1-1.23-1.18,1.09,1.09,0,0,1,1.23-1.07Z" transform="translate(-296.49 -390.77)"/><path class="cls-2" d="M477.6,506.6v2.25h-7a1.14,1.14,0,0,1-1.24-1.18,1.1,1.1,0,0,1,1.24-1.07Z" transform="translate(-296.49 -390.77)"/><path class="cls-2" d="M484.63,506.6v2.25h-7a1.13,1.13,0,0,1-1.23-1.18,1.09,1.09,0,0,1,1.23-1.07Z" transform="translate(-296.49 -390.77)"/><path class="cls-2" d="M484.93,506.6a11.36,11.36,0,0,0,3.46-.34c.61-.23,1-.47,1-.77,0-.83-.84-2.55-1.76-4.34a14.93,14.93,0,0,1,1.32-2H489a12.37,12.37,0,0,1,1.76,5.36,5.28,5.28,0,0,1-1.23,3.27c-.79.79-2,1.06-4.73,1.06h-.21a1.13,1.13,0,0,1-1.23-1.18,1.09,1.09,0,0,1,1.23-1.07Zm1.32-9c-.73-.69-1.36-1.25-2.06-1.83a16.83,16.83,0,0,1,1.39-1.67,15.86,15.86,0,0,1,2,1.88A9.22,9.22,0,0,1,486.25,497.65Zm3.39-.23c-.72-.68-1.36-1.25-2.06-1.83a16.83,16.83,0,0,1,1.39-1.67,17.46,17.46,0,0,1,2,1.88A9.22,9.22,0,0,1,489.64,497.42Z" transform="translate(-296.49 -390.77)"/><path class="cls-2" d="M503.45,506.6v2.25H502a8.22,8.22,0,0,1-1.34,3.6,6.26,6.26,0,0,1-4.24,3,10.23,10.23,0,0,1-5.06-1.78l.3-.58a5.31,5.31,0,0,0,2.58.63,6.87,6.87,0,0,0,4.89-2.42,5.65,5.65,0,0,0,1.65-2.46h-.86c-3.59,0-5.41-1.15-5.41-3.61a4.77,4.77,0,0,1,.89-2.83,3.43,3.43,0,0,1,2.71-1.68c1.62,0,3.29,2.26,3.78,5.87Zm-3.83-10.34a9.68,9.68,0,0,1-.68,1.2,17.93,17.93,0,0,0-4.57,1.31l0,0,.42-.74a2.28,2.28,0,0,1,.81-.58v0a1.65,1.65,0,0,1-1.37-1.53,2.38,2.38,0,0,1,.83-1.55,3.34,3.34,0,0,1,2.12-1c.71,0,1.11.41,1.11.86a1.85,1.85,0,0,1-.56,1.15h0c-.19-.39-.37-.64-.56-.69a2.54,2.54,0,0,0-.54,0c-.62,0-1.23.35-1.23.61,0,.85,1.47,1.13,2.51,1.13.6,0,1.19,0,1.79-.07Zm-.16,7.77a2.56,2.56,0,0,0-1.86-1c-1,0-2,.84-2,1.54,0,.9.83,1.43,1.92,1.74a11.87,11.87,0,0,0,3.16.27A5.33,5.33,0,0,0,499.46,504Z" transform="translate(-296.49 -390.77)"/><path class="cls-2" d="M504,506.6c1.85,0,2.45-.92,3-2.59.69-2.19,2.08-3.34,3.26-3.34a2.38,2.38,0,0,1,2.11,1.18,22.06,22.06,0,0,1,1.75,3.31,2.85,2.85,0,0,0,2.75,1.44h.29v2.25h-.33a3,3,0,0,1-2.71-1.53H514a2.67,2.67,0,0,1-.56,1.33,1.59,1.59,0,0,1-1.16.58,7.78,7.78,0,0,1-5-2.46h-.07a3.56,3.56,0,0,1-3.5,2.08h-.27a1.14,1.14,0,0,1-1.23-1.18,1.09,1.09,0,0,1,1.23-1.07Zm5.93-.3a5.77,5.77,0,0,0,2.42.77c.34,0,.65,0,.65-.44a5,5,0,0,0-.88-2.34,3,3,0,0,0-2.25-1.58,2.18,2.18,0,0,0-2,1.58A5,5,0,0,0,509.89,506.3Z" transform="translate(-296.49 -390.77)"/><path class="cls-2" d="M524.13,506.6v2.25h-7a1.14,1.14,0,0,1-1.23-1.18,1.1,1.1,0,0,1,1.23-1.07Z" transform="translate(-296.49 -390.77)"/><path class="cls-2" d="M531.16,506.6v2.25h-7a1.13,1.13,0,0,1-1.23-1.18,1.09,1.09,0,0,1,1.23-1.07Z" transform="translate(-296.49 -390.77)"/><path class="cls-2" d="M531.54,506.6a3.88,3.88,0,0,0,2-.48,2,2,0,0,0,.93-1.9c0-2.81-.22-5.89-.51-9.12-.07-.81-.17-1.55-.17-2.2a1.73,1.73,0,0,1,.53-1.17,7.9,7.9,0,0,1,1-1l.13.09a7.88,7.88,0,0,0,1.42,4,10.8,10.8,0,0,1-1.11.9c.07,2,.23,4.15.23,6.1a10.39,10.39,0,0,1-.7,4.41,3.54,3.54,0,0,1-1.6,2,5.08,5.08,0,0,1-2.2.53h-.26a1.13,1.13,0,0,1-1.23-1.18,1.09,1.09,0,0,1,1.23-1.07Z" transform="translate(-296.49 -390.77)"/><path class="cls-2" d="M539.84,509.15a22.74,22.74,0,0,0,.19-3.52v-1.72c0-3.22-.35-7.9-.63-10.94a16.25,16.25,0,0,1,1.72-1.86l.16.05c.37,3.84.46,8.28.46,12.38,0,1.07,0,2.13-.12,2.9a4.6,4.6,0,0,1-1.55,2.83Z" transform="translate(-296.49 -390.77)"/><text class="cls-3" transform="translate(43.27 210.04) scale(0.78 1)"><tspan xml:space="preserve">ةيروـحم ةلود كسمتم عمتجم دـيس نـطو  لعاف نطاوم</tspan></text><path class="cls-4" d="M344.36,600c-.72,0-1.24-.32-1.24-1a3.39,3.39,0,0,1,.22-1,5.66,5.66,0,0,1,2.19-2.41l0-.66a5.88,5.88,0,0,1,.54-.72h.07c0,1.36,0,2.73,0,4.09a1.82,1.82,0,0,0,.26,1.23.89.89,0,0,0,.71.23h.17v1.13h-.15c-.67,0-1.16-.23-1.42-1.22A2.68,2.68,0,0,1,344.36,600Zm1.22-3.49c-1.22.81-1.86,1.46-1.86,1.92s.41.49.88.49a2.56,2.56,0,0,0,1-.24Zm-.81-3.11c-.28-.34-.53-.62-.8-.91a9.25,9.25,0,0,1,.54-.83,7.63,7.63,0,0,1,.78.94A4.27,4.27,0,0,1,344.77,593.38Zm1.32-.11c-.28-.34-.53-.62-.8-.91a7.06,7.06,0,0,1,.54-.83,8.32,8.32,0,0,1,.78.93A4.75,4.75,0,0,1,346.09,593.27Z" transform="translate(-296.49 -390.77)"/><path class="cls-4" d="M347.41,599.69a3.57,3.57,0,0,0,1.35-.16c.24-.12.39-.24.39-.39a8.6,8.6,0,0,0-.69-2.17,8.24,8.24,0,0,1,.51-1h0a7.56,7.56,0,0,1,.68,2.68,3,3,0,0,1-.48,1.63c-.3.39-.79.53-1.84.53h-.08c-.38,0-.48-.35-.48-.59a.49.49,0,0,1,.48-.54Zm.67,4.63c-.28-.35-.53-.63-.8-.92a7.48,7.48,0,0,1,.54-.83,7.63,7.63,0,0,1,.78.94A4.75,4.75,0,0,1,348.08,604.32Zm1.32-.12c-.28-.34-.53-.62-.8-.91a8,8,0,0,1,.54-.83,7.63,7.63,0,0,1,.78.94A4.62,4.62,0,0,1,349.4,604.2Z" transform="translate(-296.49 -390.77)"/><path class="cls-4" d="M353.24,596.29l.49,1.18a4.05,4.05,0,0,1,.34,1.67v1a4.63,4.63,0,0,1-.86,2.43c-.42.57-.79.8-1.13.8a3.36,3.36,0,0,1-1.76-.67l.07-.3a1.9,1.9,0,0,0,.76.16c1,0,2-1.07,2.41-2.37a1.29,1.29,0,0,0,.07-.39,1.87,1.87,0,0,0-.09-.46,14.36,14.36,0,0,0-.83-1.93c.16-.38.32-.74.49-1.1Z" transform="translate(-296.49 -390.77)"/><path class="cls-4" d="M359,599.69v1.13h-.57a4.78,4.78,0,0,1-.52,1.8,2.53,2.53,0,0,1-1.65,1.5,3.41,3.41,0,0,1-2-.89l.11-.29a1.78,1.78,0,0,0,1,.32,2.5,2.5,0,0,0,1.9-1.22,2.91,2.91,0,0,0,.65-1.22h-.34c-1.4,0-2.11-.57-2.11-1.8a2.79,2.79,0,0,1,.35-1.41,1.33,1.33,0,0,1,1.06-.85c.63,0,1.28,1.13,1.47,2.93Zm-1.56-1.28a1,1,0,0,0-.72-.49.86.86,0,0,0-.78.77c0,.45.33.71.75.87a3.78,3.78,0,0,0,1.23.13A2.93,2.93,0,0,0,357.39,598.41Z" transform="translate(-296.49 -390.77)"/><path class="cls-4" d="M361.69,599.69v1.13H359c-.38,0-.48-.35-.48-.59a.49.49,0,0,1,.48-.54Z" transform="translate(-296.49 -390.77)"/><path class="cls-4" d="M365.77,598.07a5.19,5.19,0,0,0-2.15-.61,1,1,0,0,0-.87.43l.08.44-.2.79h-.07l-.34-1.16a1.51,1.51,0,0,1,1.49-1.57,5.49,5.49,0,0,1,2.25.75,2.59,2.59,0,0,0,1.17.29h.6v0l-.43.9a1.83,1.83,0,0,0-1.15.33l-1.15,1a4.58,4.58,0,0,1-3,1.18h-.31c-.38,0-.48-.35-.48-.59a.49.49,0,0,1,.48-.54h.42a6.16,6.16,0,0,0,3.66-1.58Zm.77.6h0c0,.74.51,1,1.21,1H368v1.13h-.21a1.3,1.3,0,0,1-1.48-1.45c0-.17,0-.33,0-.49Z" transform="translate(-296.49 -390.77)"/><path class="cls-4" d="M368.11,599.69c.51,0,.9-.44,1.15-1.55a2.72,2.72,0,0,1,.51-1.06,1.17,1.17,0,0,1,.86-.51c.84,0,1.33,1.47,1.44,3-.15.8-.4,1.13-.73,1.13a3.11,3.11,0,0,1-2-1h-.05c-.18.77-.57,1.14-1.19,1.14H368c-.38,0-.48-.35-.48-.59a.49.49,0,0,1,.48-.54Zm2.4-.35a1.79,1.79,0,0,0,.81.26c.1,0,.19,0,.22-.1-.2-1.32-.65-1.91-1.08-1.91s-.72.28-.92.86A2.27,2.27,0,0,0,370.51,599.34Z" transform="translate(-296.49 -390.77)"/><path class="cls-4" d="M377.18,600c-.72,0-1.25-.32-1.25-1a3.18,3.18,0,0,1,.23-1,5.62,5.62,0,0,1,2.18-2.41l0-.66a7.11,7.11,0,0,1,.54-.72h.08c0,1.36,0,2.73,0,4.09,0,.61.05,1,.26,1.23a.92.92,0,0,0,.72.23h.16v1.13H380c-.67,0-1.15-.23-1.41-1.22A2.74,2.74,0,0,1,377.18,600Zm1.21-3.49c-1.22.81-1.86,1.46-1.86,1.92s.42.49.88.49a2.61,2.61,0,0,0,1-.24Zm-.81-3.11c-.28-.34-.52-.62-.8-.91a9.25,9.25,0,0,1,.54-.83,6.83,6.83,0,0,1,.78.94A4.27,4.27,0,0,1,377.58,593.38Zm1.32-.11c-.28-.34-.52-.62-.8-.91a7.06,7.06,0,0,1,.54-.83,7.41,7.41,0,0,1,.79.93A4.74,4.74,0,0,1,378.9,593.27Z" transform="translate(-296.49 -390.77)"/><path class="cls-4" d="M380.25,599.69a1.27,1.27,0,0,0,.77-.23,1.12,1.12,0,0,0,.36-1c0-1.4-.08-2.94-.19-4.55,0-.41-.07-.78-.07-1.1a1.07,1.07,0,0,1,.2-.59,4.65,4.65,0,0,1,.38-.48l.05,0a4.69,4.69,0,0,0,.55,2,3.57,3.57,0,0,1-.43.45c0,1,.09,2.07.09,3a6.82,6.82,0,0,1-.27,2.21,1.78,1.78,0,0,1-.63,1,1.57,1.57,0,0,1-.85.27h-.11c-.37,0-.48-.35-.48-.59a.49.49,0,0,1,.48-.54Z" transform="translate(-296.49 -390.77)"/><path class="cls-4" d="M384.92,599.9a1.45,1.45,0,0,1-1.49-1.65,2.87,2.87,0,0,1,.43-1.51c.32-.44.66-.73,1-.73s.77.36,1,1a6.25,6.25,0,0,1,.44,2.41,5.08,5.08,0,0,1-.52,2.31c-.61,1.18-1.2,1.67-1.76,1.67a3,3,0,0,1-2-.86l.1-.28a1.77,1.77,0,0,0,1,.29,2.61,2.61,0,0,0,2-1.34,3.18,3.18,0,0,0,.64-1.46A2.81,2.81,0,0,1,384.92,599.9Zm-.3-2.79a1,1,0,0,0-.77.78,1.1,1.1,0,0,0,1.17.94,2.53,2.53,0,0,0,.77-.12C385.6,597.82,385.21,597.11,384.62,597.11Z" transform="translate(-296.49 -390.77)"/><path class="cls-4" d="M387.8,598.43c0,.75.26,1.35,1.12,1.35a2.5,2.5,0,0,0,1.49-.57.26.26,0,0,0,.13-.21,3.19,3.19,0,0,0-.64-1.67,5.43,5.43,0,0,0-1.4-1.32.41.41,0,0,1-.22-.33,3.24,3.24,0,0,1,.35-1h.06a7.46,7.46,0,0,1,1.63,1.82,3.87,3.87,0,0,1,.68,2.08,4.62,4.62,0,0,1-.28,1.54,3.37,3.37,0,0,1-1.91.81c-.78,0-1.31-.55-1.31-1.85a5.69,5.69,0,0,1,0-.64Z" transform="translate(-296.49 -390.77)"/><path class="cls-4" d="M400.52,591.74c.07,1.49.1,3.18.1,5.51a4.92,4.92,0,0,0,.27,1.9.84.84,0,0,0,.76.54h.13v1.13h-.16c-.7,0-1.2-.47-1.4-1.62h0a2.44,2.44,0,0,1-1,1,3.89,3.89,0,0,1-2.13.61c-1,0-2.1-.77-2.1-2.78a5,5,0,0,1,.38-1.91l.29.13a4,4,0,0,0-.24,1.28,1.81,1.81,0,0,0,1.87,2.07,3.51,3.51,0,0,0,1.94-.58,2.07,2.07,0,0,0,.77-.77,2.53,2.53,0,0,0,0-.48c0-1.68-.11-3.64-.22-5.22a6.48,6.48,0,0,1,.66-.85Zm-2.17,2.92-.07,0a1.33,1.33,0,0,0-.74.85h.54a.61.61,0,0,1,.69.68,1.2,1.2,0,0,1-1.25,1.25,1.54,1.54,0,0,1-.45,0l-.45-.34V597c.88,0,1.76-.33,1.76-.67,0-.09-.16-.09-.62-.09s-.6,0-.6-.11v-.34a2.31,2.31,0,0,1,.44-1.21c.26-.4.6-.71.77-.71s.16.07.16.21a3.22,3.22,0,0,1-.15.63Z" transform="translate(-296.49 -390.77)"/><path class="cls-4" d="M407.3,597.06a13.46,13.46,0,0,1,.11,1.56,3.52,3.52,0,0,1-.25,1.21c-.26.55-.61,1-1,1s-.61-.28-.86-.73h-.05a1.52,1.52,0,0,1-1.2.76c-.38,0-.62-.23-.66-.75h0a1.64,1.64,0,0,1-1.45.75h-.12c-.38,0-.48-.35-.48-.59a.49.49,0,0,1,.48-.54H402a1.51,1.51,0,0,0,1.45-.81l.37-.7.53-.23,0,0a3.92,3.92,0,0,0-.47,1.26c0,.28.15.44.36.44a.93.93,0,0,0,.61-.25c.24-.23.27-.48.49-1.4l.41-.3,0,0a4.49,4.49,0,0,0-.09.86c0,.67.38,1,.71,1a.35.35,0,0,0,.36-.39,9.9,9.9,0,0,0-.17-1.43,6.07,6.07,0,0,1,.62-.78Z" transform="translate(-296.49 -390.77)"/><path class="cls-4" d="M411,599.49a2.91,2.91,0,0,0,.78-1.39,9.25,9.25,0,0,1,.63-1.35h.06a23.69,23.69,0,0,0,1.31,2,1.85,1.85,0,0,0,1.42.94h.08v1.13h-.08a1.6,1.6,0,0,1-1.39-.92h0v.14c0,1.21-.47,1.82-.86,1.82-.66,0-1.29-.85-1.44-1.89h0a1.31,1.31,0,0,1-1.16.84,1.24,1.24,0,0,1-1-.51c-.42-.55-.45-1.16-.45-2.45,0-1.67-.08-3.41-.18-5.27a6.34,6.34,0,0,1,.65-.82l0,0c.11,1.92.11,4.19.11,6.35v.5a.93.93,0,0,0,.52.94,1.06,1.06,0,0,0,.44.09A1.22,1.22,0,0,0,411,599.49Zm1.26-1.54a3.12,3.12,0,0,0-.33,1.19c0,.69.44,1.56,1.07,1.56.17,0,.37-.26.37-.64a1.38,1.38,0,0,0-.24-.76c-.25-.46-.55-.88-.83-1.35Z" transform="translate(-296.49 -390.77)"/><path class="cls-4" d="M415.38,599.69a1.13,1.13,0,0,0,1.18-.77l.2-.95.47-.43,0,.06a6.41,6.41,0,0,0-.15,1,1,1,0,0,0,.23.73,1.11,1.11,0,0,0,.85.35h.12v1.13h-.15a1.34,1.34,0,0,1-1.42-.9h0a1.44,1.44,0,0,1-1.37.9h-.13c-.37,0-.48-.35-.48-.59a.49.49,0,0,1,.48-.54Zm.76-3.32c-.28-.34-.53-.62-.8-.91a6.82,6.82,0,0,1,.54-.84,7.63,7.63,0,0,1,.78.94A4.75,4.75,0,0,1,416.14,596.37Zm1.32-.12c-.28-.34-.53-.62-.8-.91a9.25,9.25,0,0,1,.54-.83,7.63,7.63,0,0,1,.78.94A4.27,4.27,0,0,1,417.46,596.25Z" transform="translate(-296.49 -390.77)"/><path class="cls-4" d="M418.47,599.69c.51,0,.91-.44,1.15-1.55a3,3,0,0,1,.51-1.06,1.18,1.18,0,0,1,.86-.51c.84,0,1.33,1.47,1.44,3-.14.8-.39,1.13-.72,1.13a3.13,3.13,0,0,1-2-1h-.05c-.17.77-.56,1.14-1.18,1.14h-.12c-.37,0-.48-.35-.48-.59a.49.49,0,0,1,.48-.54Zm2.4-.35a1.79,1.79,0,0,0,.82.26c.1,0,.19,0,.22-.1-.2-1.32-.66-1.91-1.09-1.91s-.72.28-.91.86A2.19,2.19,0,0,0,420.87,599.34Z" transform="translate(-296.49 -390.77)"/><path class="cls-4" d="M428.72,599.69c-1.22.79-2,1.64-2,2.58,0,1.48,1.27,2.49,3.14,2.49a5.7,5.7,0,0,0,1.74-.26l.05.16a12.56,12.56,0,0,1-1.15,1,2.08,2.08,0,0,1-1.17.26,2.94,2.94,0,0,1-3.07-3.28,4.57,4.57,0,0,1,1.91-3.54,10.9,10.9,0,0,1-.82-1c-.17-.2-.32-.43-.46-.43a1,1,0,0,0-.34.11l0-.08.3-1,.32-.07a6.76,6.76,0,0,1,1.84-.29,4,4,0,0,1,1.95.41l-.16,1-1.32,1.45v0a2.91,2.91,0,0,0,1.64.47h.4v1.14h-.32a3.61,3.61,0,0,1-2.37-1.14Zm.11-.94a8.64,8.64,0,0,0,1.41-1.28v-.05a5.22,5.22,0,0,0-1.31-.2,4.65,4.65,0,0,0-1.32.17v.05l.51.55.68.76Z" transform="translate(-296.49 -390.77)"/><path class="cls-4" d="M431.65,599.69c.72,0,1-.45,1.16-1.29.26-1.09.8-1.66,1.26-1.66a.9.9,0,0,1,.83.58,13.07,13.07,0,0,1,.68,1.65,1.07,1.07,0,0,0,1.07.72h.12v1.13h-.13a1.14,1.14,0,0,1-1.06-.77h0a1.6,1.6,0,0,1-.22.67.58.58,0,0,1-.45.29,2.82,2.82,0,0,1-1.94-1.23h0a1.42,1.42,0,0,1-1.37,1h-.1c-.38,0-.48-.35-.48-.59a.49.49,0,0,1,.48-.54Zm2.31-.15a1.84,1.84,0,0,0,.94.39c.13,0,.26,0,.26-.22a3,3,0,0,0-.35-1.17c-.26-.51-.58-.79-.87-.79s-.67.34-.79.79A2.15,2.15,0,0,0,434,599.54Z" transform="translate(-296.49 -390.77)"/><path class="cls-4" d="M436.92,599.69a1.13,1.13,0,0,0,1.17-.77l.2-.95.48-.43,0,.06a5.39,5.39,0,0,0-.15,1,1,1,0,0,0,.22.73,1.11,1.11,0,0,0,.85.35h.12v1.13h-.15a1.32,1.32,0,0,1-1.41-.9h0a1.42,1.42,0,0,1-1.36.9h-.14c-.37,0-.47-.35-.47-.59a.49.49,0,0,1,.47-.54Zm.75-3.32c-.28-.34-.53-.62-.8-.91a8.23,8.23,0,0,1,.54-.84,7.63,7.63,0,0,1,.78.94A4.75,4.75,0,0,1,437.67,596.37Zm1.32-.12c-.28-.34-.53-.62-.8-.91a9.25,9.25,0,0,1,.54-.83,7.63,7.63,0,0,1,.78.94A4.27,4.27,0,0,1,439,596.25Z" transform="translate(-296.49 -390.77)"/><path class="cls-4" d="M443.94,598.07a5.24,5.24,0,0,0-2.15-.61,1,1,0,0,0-.87.43l.08.44-.21.79h-.07l-.33-1.16a1.49,1.49,0,0,1,1.49-1.57,5.51,5.51,0,0,1,2.24.75,2.59,2.59,0,0,0,1.17.29h.6v0l-.42.9a1.86,1.86,0,0,0-1.16.33l-1.14,1a4.58,4.58,0,0,1-3,1.18h-.32c-.37,0-.47-.35-.47-.59a.49.49,0,0,1,.47-.54h.42a6.13,6.13,0,0,0,3.66-1.58Zm-1.58,4a7,7,0,0,1,.82.94,3.36,3.36,0,0,1-.56.86c-.27-.32-.54-.6-.81-.9C442,602.7,442.18,602.4,442.36,602.12Zm2.35-3.45h0c0,.74.5,1,1.21,1h.18v1.13h-.21a1.3,1.3,0,0,1-1.47-1.45,3.93,3.93,0,0,1,0-.49Z" transform="translate(-296.49 -390.77)"/><path class="cls-4" d="M446.27,599.69c.51,0,.91-.44,1.15-1.55a3,3,0,0,1,.51-1.06,1.18,1.18,0,0,1,.86-.51c.84,0,1.33,1.47,1.44,3-.14.8-.39,1.13-.72,1.13a3.13,3.13,0,0,1-2-1h-.05c-.17.77-.56,1.14-1.18,1.14h-.12c-.37,0-.48-.35-.48-.59a.49.49,0,0,1,.48-.54Zm2.4-.35a1.79,1.79,0,0,0,.82.26c.1,0,.19,0,.22-.1-.2-1.32-.66-1.91-1.09-1.91s-.72.28-.91.86A2.19,2.19,0,0,0,448.67,599.34Z" transform="translate(-296.49 -390.77)"/><path class="cls-4" d="M458.76,600.82h-.14c-.61,0-1.13-.34-1.39-1.43h0a1.27,1.27,0,0,1-.49.84,2.36,2.36,0,0,1-1.38.59c-.76,0-1.19-.6-1.19-1.63,0-.22,0-.43,0-.65l.27,0c0,.73.31,1.17,1,1.17a2,2,0,0,0,1.12-.44,1,1,0,0,0,.45-.65,21.85,21.85,0,0,0-.57-3.27c.16-.3.31-.62.48-.9l.05,0c.25,1.27.46,2.62.65,3.91.12.87.56,1.32,1.08,1.32h.12Z" transform="translate(-296.49 -390.77)"/><path class="cls-4" d="M461.5,599.69v1.13h-2.74c-.38,0-.48-.35-.48-.59a.49.49,0,0,1,.48-.54Z" transform="translate(-296.49 -390.77)"/><path class="cls-4" d="M461.65,599.69a1.13,1.13,0,0,0,1.17-.77l.2-.95.48-.43,0,.06a5.39,5.39,0,0,0-.15,1,1,1,0,0,0,.22.73,1.11,1.11,0,0,0,.85.35h.13v1.13h-.16a1.32,1.32,0,0,1-1.41-.9h0a1.42,1.42,0,0,1-1.36.9h-.13c-.38,0-.48-.35-.48-.59a.49.49,0,0,1,.48-.54Zm.77,4.63c-.28-.35-.53-.63-.8-.92a9.25,9.25,0,0,1,.54-.83,7.63,7.63,0,0,1,.78.94A4.75,4.75,0,0,1,462.42,604.32Zm1.32-.12c-.28-.34-.52-.62-.8-.91a8,8,0,0,1,.54-.83,6.83,6.83,0,0,1,.78.94A4.62,4.62,0,0,1,463.74,604.2Z" transform="translate(-296.49 -390.77)"/><path class="cls-4" d="M470.11,597.06a13.46,13.46,0,0,1,.11,1.56,3.77,3.77,0,0,1-.25,1.21c-.26.55-.62,1-1,1s-.61-.28-.86-.73H468a1.5,1.5,0,0,1-1.19.76c-.38,0-.62-.23-.66-.75h0a1.66,1.66,0,0,1-1.46.75h-.12c-.37,0-.47-.35-.47-.59a.49.49,0,0,1,.47-.54h.24a1.51,1.51,0,0,0,1.44-.81l.38-.7.53-.23,0,0a3.69,3.69,0,0,0-.47,1.26c0,.28.14.44.36.44a1,1,0,0,0,.61-.25c.24-.23.27-.48.48-1.4l.41-.3,0,0a5.47,5.47,0,0,0-.09.86c0,.67.39,1,.72,1a.35.35,0,0,0,.36-.39,9.9,9.9,0,0,0-.17-1.43,6.07,6.07,0,0,1,.62-.78Z" transform="translate(-296.49 -390.77)"/><path class="cls-4" d="M478.25,597.11a12.84,12.84,0,0,1,.56,1.69c.2.77.57.89,1.23.89h.1v1.13H480a1.29,1.29,0,0,1-1-.4h0a5.31,5.31,0,0,1-.42,2,3.09,3.09,0,0,1-2.33,1.42c-1.28,0-2.1-1.1-2.1-2.66a5.71,5.71,0,0,1,.59-2.55l.26.18a5,5,0,0,0-.38,1.64,2.23,2.23,0,0,0,.46,1.53,1.77,1.77,0,0,0,1.29.59,2.61,2.61,0,0,0,1.66-.77,1.28,1.28,0,0,0,.5-.9,5.12,5.12,0,0,0-.25-1.46c-.22-.64-.39-1.09-.54-1.43a9,9,0,0,1,.47-.93Zm-1.63-2.67a6.42,6.42,0,0,1,.82.94,3.74,3.74,0,0,1-.56.86c-.27-.33-.54-.61-.81-.91C476.25,595,476.44,594.71,476.62,594.44Z" transform="translate(-296.49 -390.77)"/><path class="cls-4" d="M482.88,599.69v1.13h-2.74c-.38,0-.48-.35-.48-.59a.49.49,0,0,1,.48-.54Z" transform="translate(-296.49 -390.77)"/><path class="cls-4" d="M483.51,599.69l.37-.8a8.4,8.4,0,0,0,.1-1.74c0-1.19-.1-3-.17-4,0-.27,0-.59,0-.86a1.39,1.39,0,0,1,.53-1l.05.06a4.7,4.7,0,0,0,.58,1.93l-.44.44c0,1,.06,1.9.06,2.85a5.41,5.41,0,0,1-.24,1.75h0a10.32,10.32,0,0,1,1.5-1.64,2.17,2.17,0,0,1,1.29-.53,1.39,1.39,0,0,1,1,.49,2.4,2.4,0,0,1,.52,1.56,7.55,7.55,0,0,1-.16.93c-.34,1.52-2.74,1.73-4.09,1.73h-1.54c-.38,0-.48-.35-.48-.59a.49.49,0,0,1,.48-.54Zm1.07,0a5.73,5.73,0,0,0,3.16-.65,1.22,1.22,0,0,0,.41-.41,1.4,1.4,0,0,0-1.31-1.35c-.89,0-1.87.92-2.86,2.41Z" transform="translate(-296.49 -390.77)"/><path class="cls-4" d="M491.74,599.9a1.45,1.45,0,0,1-1.49-1.65,2.79,2.79,0,0,1,.44-1.51c.31-.44.65-.73,1-.73s.76.36,1,1a6.25,6.25,0,0,1,.44,2.41,5.08,5.08,0,0,1-.52,2.31c-.61,1.18-1.19,1.67-1.76,1.67a3,3,0,0,1-2-.86l.1-.28a1.77,1.77,0,0,0,1,.29,2.59,2.59,0,0,0,2-1.34,3.18,3.18,0,0,0,.64-1.46A2.81,2.81,0,0,1,491.74,599.9Zm-.3-2.79a1,1,0,0,0-.77.78,1.1,1.1,0,0,0,1.17.94,2.53,2.53,0,0,0,.77-.12C492.43,597.82,492,597.11,491.44,597.11Z" transform="translate(-296.49 -390.77)"/><path class="cls-4" d="M504.17,592.16c.06,2.16.1,4.07.1,6.16a1.85,1.85,0,0,0,.34,1.13,1,1,0,0,0,.67.24h.08v1.13h-.13a1.12,1.12,0,0,1-1.08-.66h0a7.79,7.79,0,0,1-.24,1.31,3.08,3.08,0,0,1-.79,1,2.21,2.21,0,0,1-1.43.54,1.65,1.65,0,0,1-1.42-.75,3.52,3.52,0,0,1-.49-2,6.52,6.52,0,0,1,.46-2.21l.25.13a4.76,4.76,0,0,0-.29,1.52,2.53,2.53,0,0,0,.35,1.36,1.32,1.32,0,0,0,1.19.71,2,2,0,0,0,1.18-.41,2.1,2.1,0,0,0,.75-.83,3.25,3.25,0,0,0,0-.58c0-1.37-.05-3.64-.2-7.07a6.18,6.18,0,0,1,.63-.77Z" transform="translate(-296.49 -390.77)"/><path class="cls-4" d="M505.79,599.69a3.13,3.13,0,0,0,1-.18v0a2.14,2.14,0,0,1-.81-1.71,2.63,2.63,0,0,1,.3-1.15,1.71,1.71,0,0,1,1.42-1.18c.63,0,1.16.54,1.52,1.43l-.13.18a1.51,1.51,0,0,0-1.23-.57c-.73,0-1.25.43-1.25.74a1.8,1.8,0,0,0,.59,1.25,1.55,1.55,0,0,0,.83.47,5.72,5.72,0,0,0,2-.62l0,0-.36,1.09c-1.08.49-1.6.56-2.44.91a4.42,4.42,0,0,1-1.67.48h-.21c-.38,0-.48-.35-.48-.59a.49.49,0,0,1,.48-.54Z" transform="translate(-296.49 -390.77)"/><path class="cls-4" d="M512.83,600.82h-.07a1.32,1.32,0,0,1-1.17-.5c-.42-.55-.43-1.17-.43-2.46,0-1.67-.07-3.41-.18-5.27a7.34,7.34,0,0,1,.65-.82l.05,0c.11,1.92.11,4.19.11,6.35v.5a.92.92,0,0,0,.51.94,1.06,1.06,0,0,0,.44.09h.09Z" transform="translate(-296.49 -390.77)"/><path class="cls-4" d="M513.41,599.69a4.36,4.36,0,0,0,1.49-.17c.44-.17.81-.5.81-.73a1.21,1.21,0,0,0,0-.19,6.78,6.78,0,0,1-.78,0,1.54,1.54,0,0,1-1.64-1,2,2,0,0,1-.1-.63,3,3,0,0,1,.51-1.73,1.21,1.21,0,0,1,.88-.58c.56,0,1,.67,1.31,1.73a7.26,7.26,0,0,1,.29,2.09,2.45,2.45,0,0,1-.34,1.39c-.43.63-1.22.87-2.44.87h-.56c-.37,0-.48-.35-.48-.59a.49.49,0,0,1,.48-.54Zm1-3.8a.87.87,0,0,0-.82.78c0,.71.91.93,2,.92C515.45,596.75,515,595.89,514.42,595.89Zm-.14-3.94a7.65,7.65,0,0,1,.82.93,3.35,3.35,0,0,1-.57.87c-.26-.33-.53-.61-.81-.91C513.91,592.53,514.09,592.22,514.28,592Z" transform="translate(-296.49 -390.77)"/><path class="cls-4" d="M524.23,597.11a12.84,12.84,0,0,1,.56,1.69c.2.77.57.89,1.23.89h.1v1.13H526a1.29,1.29,0,0,1-1-.4h0a5.31,5.31,0,0,1-.42,2,3.07,3.07,0,0,1-2.32,1.42c-1.29,0-2.11-1.1-2.11-2.66a5.71,5.71,0,0,1,.59-2.55l.26.18a5,5,0,0,0-.38,1.64,2.23,2.23,0,0,0,.46,1.53,1.77,1.77,0,0,0,1.29.59,2.61,2.61,0,0,0,1.66-.77,1.28,1.28,0,0,0,.5-.9,5.12,5.12,0,0,0-.25-1.46c-.22-.64-.39-1.09-.54-1.43a9,9,0,0,1,.47-.93Zm-1.63-2.67a7.12,7.12,0,0,1,.83.94,4.14,4.14,0,0,1-.57.86c-.27-.33-.54-.61-.81-.91C522.23,595,522.42,594.71,522.6,594.44Z" transform="translate(-296.49 -390.77)"/><path class="cls-4" d="M526.75,599.69l.37-.8a8.4,8.4,0,0,0,.1-1.74c0-1.19-.1-3-.17-4,0-.27,0-.59,0-.86a1.39,1.39,0,0,1,.53-1l.05.06a4.7,4.7,0,0,0,.58,1.93l-.44.44c0,1,.06,1.9.06,2.85a5.41,5.41,0,0,1-.24,1.75h0a10.32,10.32,0,0,1,1.5-1.64,2.17,2.17,0,0,1,1.29-.53,1.37,1.37,0,0,1,1,.49,2.4,2.4,0,0,1,.52,1.56,7.55,7.55,0,0,1-.16.93c-.34,1.52-2.73,1.73-4.09,1.73h-1.54c-.38,0-.48-.35-.48-.59a.49.49,0,0,1,.48-.54Zm1.07,0A5.73,5.73,0,0,0,531,599a1.22,1.22,0,0,0,.41-.41,1.4,1.4,0,0,0-1.31-1.35c-.89,0-1.87.92-2.86,2.41Z" transform="translate(-296.49 -390.77)"/><path class="cls-4" d="M533.21,601a14.63,14.63,0,0,0,.07-1.76v-.86c0-1.6-.13-3.94-.24-5.46a7.38,7.38,0,0,1,.67-.93l.06,0c.14,1.91.18,4.13.18,6.18,0,.53,0,1.06-.05,1.44a2.56,2.56,0,0,1-.6,1.42Z" transform="translate(-296.49 -390.77)"/><path class="cls-4" d="M538.88,599.69v1.13h-.57a4.78,4.78,0,0,1-.52,1.8,2.53,2.53,0,0,1-1.65,1.5,3.44,3.44,0,0,1-2-.89l.11-.29a1.78,1.78,0,0,0,1,.32,2.48,2.48,0,0,0,1.9-1.22,2.91,2.91,0,0,0,.65-1.22h-.34c-1.4,0-2.11-.57-2.11-1.8a2.79,2.79,0,0,1,.35-1.41,1.34,1.34,0,0,1,1.06-.85c.63,0,1.28,1.13,1.47,2.93Zm-1.56-1.28a1,1,0,0,0-.72-.49.87.87,0,0,0-.78.77c0,.45.33.71.75.87a3.78,3.78,0,0,0,1.23.13A2.93,2.93,0,0,0,537.32,598.41Z" transform="translate(-296.49 -390.77)"/><path class="cls-4" d="M539,599.69c.51,0,.9-.44,1.15-1.55a3,3,0,0,1,.51-1.06,1.17,1.17,0,0,1,.86-.51c.84,0,1.33,1.47,1.44,3-.14.8-.4,1.13-.73,1.13a3.13,3.13,0,0,1-2-1h-.05c-.18.77-.57,1.14-1.18,1.14h-.12c-.38,0-.48-.35-.48-.59a.49.49,0,0,1,.48-.54Zm2.4-.35a1.79,1.79,0,0,0,.81.26c.11,0,.2,0,.22-.1-.2-1.32-.65-1.91-1.08-1.91s-.72.28-.92.86A2.27,2.27,0,0,0,541.43,599.34Z" transform="translate(-296.49 -390.77)"/><text class="cls-5" transform="translate(60.8 170.89)">ديدج لاع ف انتمصب</text><path class="cls-6" d="M377.18,561.66h-.33c-1.53,0-2.8-.65-3.47-2.77h-.08a2.41,2.41,0,0,1-1.22,1.63,6.79,6.79,0,0,1-3.42,1.14c-1.9,0-3-1.16-3-3.14,0-.43,0-.84.05-1.26l.67,0a2.11,2.11,0,0,0,2.39,2.27,6.05,6.05,0,0,0,2.77-.85c.63-.35,1.11-.86,1.11-1.27a33.22,33.22,0,0,0-1.41-6.32,20,20,0,0,1,1.2-1.75l.11.06c.62,2.45,1.15,5.07,1.61,7.57a2.78,2.78,0,0,0,2.69,2.56h.29Z" transform="translate(-296.49 -390.77)"/><path class="cls-6" d="M377.46,559.48a11.07,11.07,0,0,0,3.35-.32c.6-.22,1-.46,1-.75,0-.8-.82-2.46-1.7-4.2a13.33,13.33,0,0,1,1.28-1.92h.08a12.07,12.07,0,0,1,1.7,5.19,5.1,5.1,0,0,1-1.19,3.16c-.76.77-2,1-4.57,1h-.21a1.09,1.09,0,0,1-1.19-1.14,1.06,1.06,0,0,1,1.19-1Zm1.67,9c-.7-.66-1.31-1.2-2-1.77a15.64,15.64,0,0,1,1.34-1.61,15.6,15.6,0,0,1,1.94,1.82A9.38,9.38,0,0,1,379.13,568.44Zm3.28-.22c-.7-.66-1.31-1.21-2-1.77a15.64,15.64,0,0,1,1.34-1.61,14.89,14.89,0,0,1,1.94,1.82A8.5,8.5,0,0,1,382.41,568.22Z" transform="translate(-296.49 -390.77)"/><path class="cls-6" d="M397.76,561.66h-.32c-1.53,0-2.81-.65-3.47-2.77h-.09a2.38,2.38,0,0,1-1.22,1.63,6.76,6.76,0,0,1-3.42,1.14c-1.9,0-3-1.16-3-3.14,0-.43,0-.84.06-1.26l.66,0a2.12,2.12,0,0,0,2.4,2.27,6.05,6.05,0,0,0,2.77-.85c.62-.35,1.1-.86,1.1-1.27a33.22,33.22,0,0,0-1.41-6.32,18.09,18.09,0,0,1,1.21-1.75l.1.06c.63,2.45,1.15,5.07,1.61,7.57a2.78,2.78,0,0,0,2.69,2.56h.29Z" transform="translate(-296.49 -390.77)"/><path class="cls-6" d="M398.79,559.48c2.76,0,5.58-1,9.08-3.07l0-.07a16,16,0,0,0-5.34-1.19,2.75,2.75,0,0,0-2.16.85l.21.85-.52,1.53h-.16l-.84-2.24c.14-1.89,1.65-3.06,3.69-3.06a16.4,16.4,0,0,1,5.58,1.47,8.27,8.27,0,0,0,2.9.55l1.38,0,.05,0-.9,1.78a5.26,5.26,0,0,0-2.94.63L406,559.38a13.28,13.28,0,0,1-7.36,2.28h-.88a1.09,1.09,0,0,1-1.19-1.14,1.06,1.06,0,0,1,1.19-1Zm5.19,4.71a16.08,16.08,0,0,1,2,1.82,7.41,7.41,0,0,1-1.41,1.67c-.67-.63-1.33-1.18-2-1.75C403.06,565.31,403.52,564.72,404,564.19Z" transform="translate(-296.49 -390.77)"/><path class="cls-6" d="M423.15,560c0,3,2.58,8.08,2.58,10.65a9.33,9.33,0,0,1-.39,2.1h-.29c0-2.07-3.23-8.75-3.23-11.33a6,6,0,0,1,.6-2.62,6.18,6.18,0,0,1,3.58-3.27c-.22-3.6-.28-6.42-.28-7.31,0-.68-.31-2-.31-2.75a1.78,1.78,0,0,1,.46-1.39,6.35,6.35,0,0,1,.95-.89l.17.11a3.62,3.62,0,0,0,0,.71c0,.53.34,1.38,1.46,3.11l-1.26.82c0,2.34.07,5.25.24,7.29a6.08,6.08,0,0,1,1.78-.22c2.11,0,3.67,1.25,3.67,3.35a3.32,3.32,0,0,1-3,3.51c-2.7,0-3.57-2.75-3.81-4.38C424.53,558,423.15,559.14,423.15,560Zm7.32-.15a2,2,0,0,0,1.25-.44c.06-1.68-1.76-2.41-3-2.41a4.33,4.33,0,0,0-1.15.11A3.1,3.1,0,0,0,430.47,559.84Z" transform="translate(-296.49 -390.77)"/><path class="cls-6" d="M440.2,561.66H440a3.75,3.75,0,0,1-2.91-1c-1-1.05-1.05-2.26-1.05-4.76,0-3.23-.19-6.61-.44-10.21a15.83,15.83,0,0,1,1.59-1.59l.12.07c.28,3.73.28,8.13.28,12.31v1a1.78,1.78,0,0,0,1.27,1.82,3.51,3.51,0,0,0,1.09.18h.24Z" transform="translate(-296.49 -390.77)"/><path class="cls-6" d="M441.27,559.48a9.58,9.58,0,0,0,2.51-.35V559a3.89,3.89,0,0,1-2-3.33,4.39,4.39,0,0,1,.73-2.23,4.22,4.22,0,0,1,3.52-2.27c1.58,0,2.89,1,3.78,2.77l-.33.34a4.27,4.27,0,0,0-3-1.09c-1.8,0-3.11.83-3.11,1.43a3.2,3.2,0,0,0,1.46,2.41,4.29,4.29,0,0,0,2.06.92,17.09,17.09,0,0,0,4.86-1.21l.09.09-.91,2.1c-2.66,1-4,1.09-6,1.77a13.54,13.54,0,0,1-4.15.92h-.52a1.09,1.09,0,0,1-1.19-1.14,1.06,1.06,0,0,1,1.19-1Z" transform="translate(-296.49 -390.77)"/><path class="cls-6" d="M473.14,555.92a7.53,7.53,0,0,1-1.77.18c-1.84,0-3.25-.47-3.79-1.7a2.69,2.69,0,0,1-.24-1.15,4.55,4.55,0,0,1,1.19-3.15,2.94,2.94,0,0,1,2.06-1.05c1.29,0,2.32,1.2,3.06,3.14a11.71,11.71,0,0,1,.64,4,4.22,4.22,0,0,1-.78,2.41c1.6.53,1.8,1,1.8,2.24a4.34,4.34,0,0,1-.46,1.94,6.33,6.33,0,0,1-2.09,2,9.81,9.81,0,0,1-5.81,1.82,6.12,6.12,0,0,1-4.22-1.61,6.36,6.36,0,0,1-1.75-4.54,13.08,13.08,0,0,1,1.12-5.34l.68.26a10.45,10.45,0,0,0-.64,3.57,5.69,5.69,0,0,0,1,3.35,5,5,0,0,0,4,1.93,9.47,9.47,0,0,0,4.91-1.25,7.16,7.16,0,0,0,2.25-1.74c0-.64-3.11-1.26-6-1.26l-.06-.11.74-1.76c2.79-.32,4.24-.79,4.24-1.68C473.19,556.29,473.15,556.14,473.14,555.92Zm-6.65,15.91c-.7-.67-1.31-1.21-2-1.77a15.83,15.83,0,0,1,1.34-1.62,16.39,16.39,0,0,1,1.94,1.82A9.93,9.93,0,0,1,466.49,571.83Zm3.28-.23c-.7-.66-1.31-1.2-2-1.76a14.81,14.81,0,0,1,1.34-1.62,16.39,16.39,0,0,1,1.94,1.82A8.5,8.5,0,0,1,469.77,571.6Zm-.12-27.81a15.5,15.5,0,0,1,2,1.82,6.56,6.56,0,0,1-1.41,1.67c-.66-.63-1.33-1.17-2-1.75C468.73,544.92,469.19,544.32,469.65,543.79Zm.58,7.35a1.94,1.94,0,0,0-1.94,1.49c0,.85,1.63,1.48,3.23,1.48a9.12,9.12,0,0,0,1.39-.07C472.3,552.14,471.38,551.14,470.23,551.14Z" transform="translate(-296.49 -390.77)"/><path class="cls-6" d="M489.55,561.66h-.18a3.74,3.74,0,0,1-2.91-1c-1-1.05-1.06-2.26-1.06-4.76,0-3.23-.18-6.61-.44-10.21a16.93,16.93,0,0,1,1.6-1.59l.12.07c.27,3.73.27,8.13.27,12.31v1a1.77,1.77,0,0,0,1.28,1.82,3.41,3.41,0,0,0,1.08.18h.24Z" transform="translate(-296.49 -390.77)"/><path class="cls-6" d="M489.93,559.48c1.3,0,2.67-.52,2.92-1.49l.49-1.84,1.18-.85.1.12a9.17,9.17,0,0,0-.38,2,1.68,1.68,0,0,0,.57,1.41,3.1,3.1,0,0,0,2.1.68h.31v2.18h-.39c-1.67,0-2.93-.46-3.5-1.73h-.07a3.65,3.65,0,0,1-3.38,1.73h-.33a1.09,1.09,0,0,1-1.19-1.14,1.06,1.06,0,0,1,1.19-1Zm2.95-10.26a14.81,14.81,0,0,1,2,1.82,6.69,6.69,0,0,1-1.41,1.66c-.66-.63-1.32-1.17-2-1.75C492,550.34,492.43,549.74,492.88,549.22Z" transform="translate(-296.49 -390.77)"/><path class="cls-6" d="M497.59,559.48c1.31,0,2.67-.52,2.93-1.49l.49-1.84,1.17-.85.1.12a9,9,0,0,0-.37,2,1.67,1.67,0,0,0,.56,1.41,3.13,3.13,0,0,0,2.11.68h.3v2.18h-.39c-1.66,0-2.92-.46-3.5-1.73h-.07a3.64,3.64,0,0,1-3.38,1.73h-.32a1.09,1.09,0,0,1-1.19-1.14,1.06,1.06,0,0,1,1.19-1Zm1.87-6.44c-.7-.66-1.31-1.21-2-1.77a15.64,15.64,0,0,1,1.34-1.61,14.89,14.89,0,0,1,1.94,1.82A8.5,8.5,0,0,1,499.46,553Zm3.28-.22c-.7-.66-1.31-1.21-2-1.77a14.47,14.47,0,0,1,1.35-1.61,15.5,15.5,0,0,1,1.93,1.82A8.5,8.5,0,0,1,502.74,552.82Z" transform="translate(-296.49 -390.77)"/><path class="cls-6" d="M505.38,559.48c1.78,0,2.36-.88,2.87-2.49.66-2.13,2-3.23,3.14-3.23a2.28,2.28,0,0,1,2,1.13,21.54,21.54,0,0,1,1.7,3.2,2.74,2.74,0,0,0,2.65,1.39h.29v2.18h-.32a2.88,2.88,0,0,1-2.62-1.48h-.07a2.6,2.6,0,0,1-.54,1.29,1.54,1.54,0,0,1-1.12.56,7.49,7.49,0,0,1-4.81-2.38h-.07a3.44,3.44,0,0,1-3.38,2h-.26a1.09,1.09,0,0,1-1.19-1.14,1.06,1.06,0,0,1,1.19-1Zm5.72-.28a5.52,5.52,0,0,0,2.35.74c.32,0,.63,0,.63-.42a4.86,4.86,0,0,0-.85-2.26,2.84,2.84,0,0,0-2.18-1.53,2.08,2.08,0,0,0-1.95,1.53C509.27,557.89,510.36,558.77,511.1,559.2Z" transform="translate(-296.49 -390.77)"/><path class="cls-6" d="M518.44,559.48c1.45,0,2.61-.47,2.81-1.49.14-.66.27-1.31.44-1.94a7.82,7.82,0,0,1,1.12-.88l.11.1a5.79,5.79,0,0,0-.28,1.6,1.93,1.93,0,0,0,.94,1.88,19.87,19.87,0,0,1,3.52-4.28,5.81,5.81,0,0,1,3.8-1.75,3.68,3.68,0,0,1,3.85,3.76,7.07,7.07,0,0,1-.87,3h2.26v2.18h-.44a21.56,21.56,0,0,1-5.08-.59,12.6,12.6,0,0,1-4,.59c-2.21,0-3.87-.53-4.81-1.78h-.05a4,4,0,0,1-3.52,1.78h-.2a1.09,1.09,0,0,1-1.19-1.14,1.06,1.06,0,0,1,1.19-1Zm9.2,0a13.3,13.3,0,0,0,4.42-.76c.83-.34,1.39-.78,1.39-1.28a3.18,3.18,0,0,0-3.17-2.53c-2,0-3.88,1.65-5.75,4.22A10.49,10.49,0,0,0,527.64,559.48Z" transform="translate(-296.49 -390.77)"/><path class="cls-6" d="M536.43,559.48a11.11,11.11,0,0,0,3.35-.32c.59-.22,1-.46,1-.75,0-.8-.81-2.46-1.7-4.2a14.22,14.22,0,0,1,1.28-1.92h.08a11.94,11.94,0,0,1,1.7,5.19,5.1,5.1,0,0,1-1.19,3.16c-.76.77-2,1-4.57,1h-.2a1.09,1.09,0,0,1-1.19-1.14,1.06,1.06,0,0,1,1.19-1Zm3.21,5.39a15.5,15.5,0,0,1,2,1.82,6.92,6.92,0,0,1-1.41,1.67c-.66-.63-1.33-1.18-2-1.75C538.72,566,539.18,565.4,539.64,564.87Z" transform="translate(-296.49 -390.77)"/><path class="cls-7" d="M710.89,415l17.3-24a129.3,129.3,0,0,0-21.23.6L693.2,414.29A100,100,0,0,1,710.89,415Z" transform="translate(-296.49 -390.77)"/><path class="cls-8" d="M731.31,420.36l22.86-24.8a104.23,104.23,0,0,0-20.38-4.15l-19.08,24.21A82.5,82.5,0,0,1,731.31,420.36Z" transform="translate(-296.49 -390.77)"/><path class="cls-9" d="M726.82,430.59a75.91,75.91,0,0,0-16.6-6.24l-15.79,19.5L708.07,450Z" transform="translate(-296.49 -390.77)"/><path class="cls-10" d="M661.59,425.91c-1.44.4-2.87.82-4.31,1.27a133.52,133.52,0,0,0-12.73,4.75l-3.76,14.85,14.88-4.35Z" transform="translate(-296.49 -390.77)"/><path class="cls-11" d="M625.22,454.05l13.46-6.45,2.79-14.29a142.8,142.8,0,0,0-15.08,8.07Z" transform="translate(-296.49 -390.77)"/><path class="cls-12" d="M611.87,462.67l11.71-7.7.43-12.1a151.29,151.29,0,0,0-12.89,9.21Z" transform="translate(-296.49 -390.77)"/><path class="cls-13" d="M588.61,474.54l3,6.91,8.3-8.74-2.54-8.19A129.9,129.9,0,0,0,588.61,474.54Z" transform="translate(-296.49 -390.77)"/><path class="cls-14" d="M760.51,486.86l-23.59,8.52-.32,15.2,22-5.79A85.27,85.27,0,0,0,760.51,486.86Z" transform="translate(-296.49 -390.77)"/><path class="cls-15" d="M739.41,545.48l0,0,0,0h0a112.65,112.65,0,0,0,9.76-15.19l-17.95.85L724,545l15.36.54Z" transform="translate(-296.49 -390.77)"/><path class="cls-16" d="M734.21,580.16l-.51-.18-.34-.13-.1,0,0,0-14.17-5.17,0,0-1.55-.56q-7.17,4.5-13.85,8l15.63,7.28c5.19-2.69,10.46-5.82,15.5-9l-.44-.15Z" transform="translate(-296.49 -390.77)"/><path class="cls-17" d="M749.2,430.64l28.23-24.12a91.8,91.8,0,0,0-17.91-9.11L734.9,421.93Z" transform="translate(-296.49 -390.77)"/><path class="cls-18" d="M594.38,463l-2.84-8.26c-3,3.55-5.71,7.13-8.32,10.9l3.18,6.94Z" transform="translate(-296.49 -390.77)"/><path class="cls-19" d="M604.68,452.76c-.8.72-1.6,1.45-2.38,2.18.78-.73,1.58-1.46,2.38-2.18h0l.11-.09-1.88-10.22c-3.59,3.5-7,7.13-10.2,10.88l2.49,8.74Z" transform="translate(-296.49 -390.77)"/><path class="cls-20" d="M653.56,407.27a186.49,186.49,0,0,0-16.81,9.08l-2.44,15.41,15-7.2Z" transform="translate(-296.49 -390.77)"/><path class="cls-21" d="M689.49,414.52l12.17-22.26A158.73,158.73,0,0,0,681,396.77l-9.15,20.49Z" transform="translate(-296.49 -390.77)"/><path class="cls-22" d="M806.82,452.21l-34.21,15.65,1.72,16.86L808.2,472.3A80.88,80.88,0,0,0,806.82,452.21Z" transform="translate(-296.49 -390.77)"/><path class="cls-23" d="M565.38,504.6c-.21.87-.39,1.74-.57,2.61-.14.69-.28,1.39-.4,2.08-.17.94-.33,1.89-.46,2.83l2.55,2.31c.19-.9.38-1.79.61-2.68h0c.08-.33.16-.67.25-1s.17-.64.26-1h0c.22-.83.46-1.66.71-2.49Z" transform="translate(-296.49 -390.77)"/><path class="cls-24" d="M570.09,502c.21-.61.44-1.22.68-1.83.34-.87.69-1.74,1.06-2.61l-3.49-3.16c-.32.91-.62,1.82-.91,2.74-.21.64-.4,1.28-.59,1.92-.35,1.17-.67,2.35-1,3.53l3.06,2.78C569.3,504.24,569.68,503.12,570.09,502Z" transform="translate(-296.49 -390.77)"/><path class="cls-25" d="M585.9,473.22l-3.44-6.5a129.36,129.36,0,0,0-9,15.53l4.1,3.73A121.59,121.59,0,0,1,585.9,473.22Z" transform="translate(-296.49 -390.77)"/><path class="cls-26" d="M574.45,491.81c.27-.56.56-1.13.84-1.69.43-.84.88-1.68,1.34-2.51l-4-3.65c-.41.88-.82,1.76-1.2,2.64-.26.59-.51,1.18-.76,1.77-.58,1.38-1.14,2.78-1.65,4.18l3.57,3.25C573.17,494.46,573.8,493.13,574.45,491.81Z" transform="translate(-296.49 -390.77)"/><path class="cls-27" d="M563.44,516.29c-.07.76-.13,1.52-.19,2.27s-.1,1.58-.13,2.37l1.8,1.64.44-2.09.19-1c.06-.38.13-.77.19-1.15.1-.63.21-1.25.33-1.87l-2.41-2.19C563.58,515,563.51,515.63,563.44,516.29Z" transform="translate(-296.49 -390.77)"/><path class="cls-28" d="M771.6,464l33.91-17.28a74.54,74.54,0,0,0-7.59-17.85l-32.9,20Z" transform="translate(-296.49 -390.77)"/><path class="cls-29" d="M762.91,445.58l32-21.39c-3.54-5-7.72-10.29-12.85-14.43l-29.83,23.37Z" transform="translate(-296.49 -390.77)"/><path class="cls-30" d="M668.58,418.06l7.8-19.87a175.17,175.17,0,0,0-19,7.3L652,423.44Z" transform="translate(-296.49 -390.77)"/><path class="cls-31" d="M633.73,418.22q-7.5,4.69-14.53,10.12l-.22,13L632.12,433Z" transform="translate(-296.49 -390.77)"/><path class="cls-32" d="M617.31,442.54l-.42-12.4q-6.39,5.07-12.29,10.68L606,451.6Z" transform="translate(-296.49 -390.77)"/><path class="cls-33" d="M771,506.13l32-7.44a103.47,103.47,0,0,0,4.71-20.61l-33.56,10.66Z" transform="translate(-296.49 -390.77)"/><path class="cls-34" d="M769.8,510l-7.22,16.65,28.78-3c2.27-3.8,4.35-7.69,6.25-11.64h0c1.17-2.45,2.41-5.34,3.48-7.85Z" transform="translate(-296.49 -390.77)"/><path class="cls-35" d="M564.36,538.92c.31,1.78.71,3.56,1.15,5.32-.26-1.77-.49-3.53-.63-5.3Z" transform="translate(-296.49 -390.77)"/><path class="cls-36" d="M569.14,539.4a50.25,50.25,0,0,0,1.56,5.54,54.05,54.05,0,0,1-.9-5.51Z" transform="translate(-296.49 -390.77)"/><path class="cls-37" d="M564.63,530q0-.84.06-1.68c0-.78.07-1.55.14-2.33,0-.32,0-.66.07-1l-1.85-1.68c0,.34,0,.7,0,1,0,.84,0,1.67,0,2.49h0c0,.59,0,1.19.07,1.79h0Z" transform="translate(-296.49 -390.77)"/><path class="cls-38" d="M564.59,532.41l-1.26-1.14h0c.18,2.28.48,4.56.88,6.82h.61C564.67,536.2,564.6,534.3,564.59,532.41Z" transform="translate(-296.49 -390.77)"/><path class="cls-39" d="M569.68,537l-.06-2.51,0-1.77-1.52-1.38-.1,0c0,.6.09,1.19.15,1.79.1.93.22,1.86.38,2.79h0q.21,1.37.51,2.73h.74Z" transform="translate(-296.49 -390.77)"/><path class="cls-40" d="M579.62,487.87l-.94,1.6-1.43,2.43,4,3.68c.55-.89,1.1-1.77,1.69-2.65.27-.42.54-.84.82-1.26.73-1.06,1.47-2.11,2.23-3.16l-3.44-5.69Z" transform="translate(-296.49 -390.77)"/><polygon class="cls-41" points="277.22 107.59 277.12 107.49 277.22 107.59 277.22 107.59"/><path class="cls-42" d="M574.49,497.52c-.27.59-.52,1.18-.77,1.77-.35.83-.68,1.67-1,2.51l0,.1,3.54,3.22c.38-.84.78-1.66,1.19-2.49.27-.56.56-1.12.85-1.67.67-1.27,1.36-2.53,2.11-3.78l-4-3.63C575.7,494.87,575.08,496.19,574.49,497.52Z" transform="translate(-296.49 -390.77)"/><path class="cls-43" d="M568.66,516.4c-.11.72-.23,1.44-.32,2.16h0c-.09.66-.16,1.3-.23,1.95l2.42,2.2q.16-.91.36-1.83h0c.15-.68.3-1.36.47-2,.22-.87.44-1.74.69-2.61h0l-2.85-2.6Q568.9,515,568.66,516.4Z" transform="translate(-296.49 -390.77)"/><path class="cls-44" d="M570.87,507.13c-.2.65-.39,1.3-.56,1.94-.24.85-.46,1.69-.65,2.54h0l3,2.7q.38-1.2.81-2.4c.21-.61.44-1.22.68-1.83.41-1.08.84-2.15,1.31-3.22L572,503.74C571.6,504.87,571.22,506,570.87,507.13Z" transform="translate(-296.49 -390.77)"/><path class="cls-45" d="M706,423.43a86.6,86.6,0,0,0-15.91-1.5c-.77,0-1.53,0-2.3,0l-11.25,18.74L691.71,443Z" transform="translate(-296.49 -390.77)"/><path class="cls-46" d="M569.67,529.34c.05-.76.12-1.51.21-2.27s.18-1.48.29-2.22l-2.26-2.05c0,.8-.09,1.59-.12,2.38s0,1.63,0,2.43h0c0,.36,0,.71,0,1.07l1.82,1.64Q569.63,529.84,569.67,529.34Z" transform="translate(-296.49 -390.77)"/><path class="cls-47" d="M683.62,422.13a107.74,107.74,0,0,0-18.27,2.81l-7.14,17,15.57-1.34Z" transform="translate(-296.49 -390.77)"/><path class="cls-48" d="M587.8,475.57c-.85,1.1-1.68,2.21-2.49,3.32s-1.58,2.24-2.34,3.38l3.62,5.49,4.55-5.73Z" transform="translate(-296.49 -390.77)"/><path class="cls-49" d="M724,462.92l7.84,12.36L756.07,461a39.86,39.86,0,0,0-8.7-14.73Z" transform="translate(-296.49 -390.77)"/><path class="cls-50" d="M744.39,443.15a75.43,75.43,0,0,0-13.8-10.46L710.53,451.5,722,460.8Z" transform="translate(-296.49 -390.77)"/><path class="cls-51" d="M600.73,472l10-8.39-1.32-10.07c-3.74,3.09-7.34,6.36-10.76,9.79l2.12,8.67Z" transform="translate(-296.49 -390.77)"/><path class="cls-52" d="M760.38,482.49a77.85,77.85,0,0,0-3-17.31L733,478l3.61,14.42Z" transform="translate(-296.49 -390.77)"/><path class="cls-53" d="M757.6,509l-21.42,4.48-3.94,15,19-2.17A98.7,98.7,0,0,0,757.6,509Z" transform="translate(-296.49 -390.77)"/><path class="cls-54" d="M737,548.51l-14.51-1.28a82.83,82.83,0,0,1-10.09,12c.43.07,11.82,2.26,12.26,2.33C728.82,557.3,733.05,553.27,737,548.51Z" transform="translate(-296.49 -390.77)"/><path class="cls-55" d="M760.71,530l-10.15,15,24,.64,1,0a175.1,175.1,0,0,0,13-17.25s-5.85.34-5.87.33Z" transform="translate(-296.49 -390.77)"/><path class="cls-56" d="M698.51,597.7l-.31-.23-.7-.53-.16-.12-.84-.64-.44-.33-2-1.54-4.95-3.75h0l-1.47-1.11q-3.5,1.39-6.81,2.53c-1.26.43-2.5.84-3.72,1.21.14.17,1.93,2.43,3.72,4.65l3.59,4.5q7.39-1.79,14.62-4.29l-.28-.2Z" transform="translate(-296.49 -390.77)"/><path class="cls-57" d="M688.89,588.94c.28.06,12.21,8.42,12.56,8.24a144.54,144.54,0,0,0,15.13-6.43l-14.45-7.9Q695.23,586.38,688.89,588.94Z" transform="translate(-296.49 -390.77)"/><path class="cls-58" d="M719.75,572.65l4.71,1.48-3.25-1-.06,0,16.66,5.15L733.48,577l4.33,1.35c5.29-3.53,10.6-7.54,15.64-11.59l-19.3-4.11Q726.74,568.17,719.75,572.65Z" transform="translate(-296.49 -390.77)"/><path class="cls-59" d="M736.37,560.53l20.45,3.33c5.27-4.47,10.45-9.42,15.35-14.41l-23.8-1.77Z" transform="translate(-296.49 -390.77)"/><path class="cls-60" d="M661.27,584.73c-1.56.33-3.14.63-4.75.91h0c.28.44.57.9.89,1.38l4.25,6.68h0q6-1.1,11.74-2.74c-2.28-2.87-4.3-5.61-6-7.64C665.39,583.83,663.36,584.31,661.27,584.73Z" transform="translate(-296.49 -390.77)"/><path class="cls-61" d="M706.5,575.74l-9.81-4.28c-2,1.18-4,2.28-6.06,3.3-1.87,1-3.82,1.83-5.82,2.64l-.06,0-1.65.69,1,.54,1.42.8c2.44,1.38,5.52,3.17,7.15,4.13A122.6,122.6,0,0,0,706.5,575.74Z" transform="translate(-296.49 -390.77)"/><path class="cls-62" d="M680.78,588.58c3.38-1.21,6.72-2.57,10-4.11-1.6-1-7.38-4.74-9.07-5.81l-1,.39a115.43,115.43,0,0,1-11.92,3.87l6,7.59C676.89,589.91,678.84,589.27,680.78,588.58Z" transform="translate(-296.49 -390.77)"/><path class="cls-63" d="M722.09,563.77l-11.39-2.85a83,83,0,0,1-12.31,9.5l10.53,3.69A139.48,139.48,0,0,0,722.09,563.77Z" transform="translate(-296.49 -390.77)"/><path class="cls-64" d="M675.51,593.67a117.62,117.62,0,0,1-12,2.93h0c2.08,3.24,4,6.2,5.15,8l.34.54-.16,0,0,.06.16,0h0c.92-.12,1.83-.25,2.73-.4l2.31-.36,2.24-.4h.07l1.46-.28q1.46-.28,2.91-.6l1.68-.38.07,0-1.75-2.28Z" transform="translate(-296.49 -390.77)"/><path class="cls-65" d="M653.33,584.36a1.19,1.19,0,0,0-.09-.15h0Z" transform="translate(-296.49 -390.77)"/><path class="cls-66" d="M666.62,604.9c-1.26-2-3.13-4.85-5.13-7.93h0a91.44,91.44,0,0,1-9.58,1.15l-1.86-3.72,9.51-.41h0l-.15-.22-1.9-2.95-1.45-2.23-.51-.8-.5-.77-.31-.48-.36-.55c-2.52.4-5.1.75-7.73,1H606.3l48.29-30.12,27.24-16.75c15.11-9.3,35.91-29.22,27-49.08-8.18-18.26-33.75-20.78-50.9-18.09-32.24,4.59-66,30.19-66.48,53.41,0,.33,0,.69,0,1a23.24,23.24,0,0,0,3.42,12.35,26.41,26.41,0,0,0,7.13,8.18l20-11.81,28.87-17,3.21,3.44,16.24-22.3-31,6.54,2.7,2.91-30.45,17.59-.36.21a15.48,15.48,0,0,1-2.16-8.81l1.2-6c4.88-14.11,24.67-27.21,44.24-30,18.55-2.69,34.25,4.23,34.88,17.26.79,16.29-15.94,25.47-27.57,32.88-15.15,9.63-31.69,16.85-46.84,26.49-8.95,5.7-18.31,12.45-23.85,21.72-4.84,8.11-6.78,25.2,6.59,25.22q29.12,0,58.21,0h1.5c3.07-.16,6.13-.43,9.17-.79l.34,0h0C666.88,605.29,666.75,605.11,666.62,604.9Z" transform="translate(-296.49 -390.77)"/><polygon class="cls-41" points="277.12 107.49 277.22 107.59 277.22 107.59 277.12 107.49"/></svg>