<svg xmlns="http://www.w3.org/2000/svg" xmlns:xlink="http://www.w3.org/1999/xlink" viewBox="0 0 505.32 215.37"><defs><style>.cls-1{fill:url(#linear-gradient);}.cls-2{fill:url(#linear-gradient-2);}.cls-3{fill:url(#linear-gradient-3);}.cls-4{fill:url(#linear-gradient-4);}.cls-5{fill:url(#linear-gradient-5);}.cls-6{fill:url(#linear-gradient-6);}.cls-7{fill:url(#linear-gradient-7);}.cls-8{fill:url(#linear-gradient-8);}.cls-9{fill:url(#linear-gradient-9);}.cls-10{fill:url(#linear-gradient-10);}.cls-11{fill:url(#linear-gradient-11);}.cls-12{fill:url(#linear-gradient-12);}.cls-13{fill:url(#linear-gradient-13);}.cls-14{fill:url(#linear-gradient-14);}.cls-15{fill:url(#linear-gradient-15);}.cls-16{fill:url(#linear-gradient-16);}.cls-17{fill:url(#linear-gradient-17);}.cls-18{fill:url(#linear-gradient-18);}.cls-19{fill:url(#linear-gradient-19);}.cls-20{fill:url(#linear-gradient-20);}.cls-21{fill:url(#linear-gradient-21);}.cls-22{fill:url(#linear-gradient-22);}.cls-23{fill:url(#linear-gradient-23);}.cls-24{fill:url(#linear-gradient-24);}.cls-25{fill:url(#linear-gradient-25);}.cls-26{fill:url(#linear-gradient-26);}.cls-27{fill:url(#linear-gradient-27);}.cls-28{fill:url(#linear-gradient-28);}.cls-29{fill:url(#linear-gradient-29);}.cls-30{fill:url(#linear-gradient-30);}.cls-31{fill:url(#linear-gradient-31);}.cls-32{fill:url(#linear-gradient-32);}.cls-33{fill:url(#linear-gradient-33);}.cls-34{fill:url(#linear-gradient-34);}.cls-35{fill:url(#linear-gradient-35);}.cls-36{fill:url(#linear-gradient-36);}.cls-37{fill:url(#linear-gradient-37);}.cls-38{fill:url(#linear-gradient-38);}.cls-39{fill:url(#linear-gradient-39);}.cls-40{fill:url(#linear-gradient-40);}.cls-41{fill:url(#linear-gradient-41);}.cls-42{fill:url(#linear-gradient-42);}.cls-43{fill:url(#linear-gradient-43);}.cls-44{fill:url(#linear-gradient-44);}.cls-45{fill:url(#linear-gradient-45);}.cls-46{fill:url(#linear-gradient-46);}.cls-47{fill:url(#linear-gradient-47);}.cls-48{fill:url(#linear-gradient-48);}.cls-49{fill:url(#linear-gradient-49);}.cls-50{fill:url(#linear-gradient-50);}.cls-51{fill:url(#linear-gradient-51);}.cls-52{fill:url(#linear-gradient-52);}.cls-53{fill:url(#linear-gradient-53);}.cls-54{fill:url(#linear-gradient-54);}.cls-55{fill:url(#linear-gradient-55);}.cls-56{fill:url(#linear-gradient-56);}.cls-57{fill:url(#linear-gradient-57);}.cls-58{fill:url(#linear-gradient-58);}.cls-59{fill:url(#linear-gradient-59);}.cls-60{fill:#22b573;}.cls-61{fill:url(#linear-gradient-60);}.cls-62{fill:url(#linear-gradient-61);}.cls-63{fill:url(#linear-gradient-62);}.cls-64{fill:url(#linear-gradient-63);}.cls-65{fill:url(#linear-gradient-64);}.cls-66{fill:url(#linear-gradient-65);}.cls-67{fill:url(#linear-gradient-66);}.cls-68{fill:url(#linear-gradient-67);}.cls-69{fill:url(#linear-gradient-68);}.cls-70{fill:url(#linear-gradient-69);}.cls-71{fill:url(#linear-gradient-70);}.cls-72{fill:url(#linear-gradient-71);}.cls-73{fill:url(#linear-gradient-72);}.cls-74{fill:url(#linear-gradient-73);}.cls-75{fill:url(#linear-gradient-74);}.cls-76{fill:url(#linear-gradient-75);}.cls-77{fill:url(#linear-gradient-76);}.cls-78{fill:url(#linear-gradient-77);}.cls-79{fill:url(#linear-gradient-78);}.cls-80{fill:url(#linear-gradient-79);}.cls-81{fill:url(#linear-gradient-80);}.cls-82{fill:url(#linear-gradient-81);}.cls-83{fill:url(#linear-gradient-82);}.cls-84{fill:url(#linear-gradient-83);}.cls-85{fill:url(#linear-gradient-84);}.cls-86{fill:url(#linear-gradient-85);}.cls-87{fill:url(#linear-gradient-86);}.cls-88{fill:url(#linear-gradient-87);}.cls-89{fill:url(#linear-gradient-88);}.cls-90{fill:url(#linear-gradient-89);}.cls-91{fill:url(#linear-gradient-90);}.cls-92{fill:url(#linear-gradient-91);}.cls-93{fill:url(#linear-gradient-92);}.cls-94{fill:url(#linear-gradient-93);}.cls-95{fill:url(#linear-gradient-94);}.cls-96{fill:url(#linear-gradient-95);}.cls-97{fill:url(#linear-gradient-96);}.cls-98{fill:url(#linear-gradient-97);}.cls-99{fill:url(#linear-gradient-98);}.cls-100{fill:url(#linear-gradient-99);}.cls-101{fill:url(#linear-gradient-100);}.cls-102{fill:url(#linear-gradient-101);}.cls-103{fill:url(#linear-gradient-102);}.cls-104{fill:url(#linear-gradient-103);}.cls-105{fill:url(#linear-gradient-104);}.cls-106{fill:url(#linear-gradient-105);}.cls-107{fill:url(#linear-gradient-106);}.cls-108{fill:url(#linear-gradient-107);}.cls-109{fill:url(#linear-gradient-108);}.cls-110{fill:url(#linear-gradient-109);}.cls-111{fill:url(#linear-gradient-110);}.cls-112{fill:url(#linear-gradient-111);}.cls-113{fill:url(#linear-gradient-112);}.cls-114{fill:url(#linear-gradient-113);}.cls-115{fill:url(#linear-gradient-114);}.cls-116{fill:url(#linear-gradient-115);}.cls-117{fill:url(#linear-gradient-116);}.cls-118{fill:url(#linear-gradient-117);}.cls-119{fill:url(#linear-gradient-118);}.cls-120{fill:url(#linear-gradient-119);}.cls-121{fill:url(#linear-gradient-120);}.cls-122{fill:url(#linear-gradient-121);}.cls-123{fill:url(#linear-gradient-122);}.cls-124{fill:url(#linear-gradient-123);}.cls-125{fill:url(#linear-gradient-124);}.cls-126{fill:url(#linear-gradient-125);}.cls-127{fill:url(#linear-gradient-126);}.cls-128{fill:url(#linear-gradient-127);}.cls-129{fill:url(#linear-gradient-128);}.cls-130{fill:url(#linear-gradient-129);}.cls-131{fill:url(#linear-gradient-130);}.cls-132{fill:url(#linear-gradient-131);}.cls-133{fill:url(#linear-gradient-132);}.cls-134{fill:url(#linear-gradient-133);}.cls-135{fill:url(#linear-gradient-134);}.cls-136{fill:url(#linear-gradient-135);}.cls-137{fill:url(#linear-gradient-136);}.cls-138{fill:url(#linear-gradient-137);}.cls-139{fill:url(#linear-gradient-138);}.cls-140{fill:url(#linear-gradient-139);}.cls-141{fill:url(#linear-gradient-140);}.cls-142{fill:url(#linear-gradient-141);}.cls-143{fill:url(#linear-gradient-142);}.cls-144{fill:url(#linear-gradient-144);}.cls-145{fill:url(#linear-gradient-145);}.cls-146{fill:url(#linear-gradient-146);}.cls-147{fill:url(#linear-gradient-147);}.cls-148{fill:url(#linear-gradient-148);}.cls-149{fill:url(#linear-gradient-149);}.cls-150{fill:url(#linear-gradient-150);}.cls-151{fill:url(#linear-gradient-151);}.cls-152{fill:url(#linear-gradient-152);}.cls-153{fill:url(#linear-gradient-153);}.cls-154{fill:url(#linear-gradient-154);}.cls-155{fill:url(#linear-gradient-155);}.cls-156{fill:url(#linear-gradient-156);}</style><linearGradient id="linear-gradient" x1="604.65" y1="1515.73" x2="717.01" y2="1227.8" gradientTransform="translate(-296.49 -1248.85)" gradientUnits="userSpaceOnUse"><stop offset="0.12" stop-color="#25c17b"/><stop offset="0.18" stop-color="#28b288"/><stop offset="0.34" stop-color="#2e90a4"/><stop offset="0.49" stop-color="#3476ba"/><stop offset="0.65" stop-color="#3764ca"/><stop offset="0.82" stop-color="#3959d3"/><stop offset="1" stop-color="#3a55d6"/></linearGradient><linearGradient id="linear-gradient-2" x1="626.25" y1="1524.17" x2="738.62" y2="1236.23" xlink:href="#linear-gradient"/><linearGradient id="linear-gradient-3" x1="616.28" y1="1520.28" x2="728.65" y2="1232.35" xlink:href="#linear-gradient"/><linearGradient id="linear-gradient-4" x1="563.77" y1="1499.78" x2="676.14" y2="1211.85" xlink:href="#linear-gradient"/><linearGradient id="linear-gradient-5" x1="550.99" y1="1494.8" x2="663.36" y2="1206.86" xlink:href="#linear-gradient"/><linearGradient id="linear-gradient-6" x1="540.87" y1="1490.85" x2="653.23" y2="1202.92" xlink:href="#linear-gradient"/><linearGradient id="linear-gradient-7" x1="527.64" y1="1485.69" x2="640" y2="1197.76" xlink:href="#linear-gradient"/><linearGradient id="linear-gradient-8" x1="669.8" y1="1541.16" x2="782.16" y2="1253.22" xlink:href="#linear-gradient"/><linearGradient id="linear-gradient-9" x1="672.83" y1="1542.35" x2="785.2" y2="1254.41" xlink:href="#linear-gradient"/><linearGradient id="linear-gradient-10" x1="672.57" y1="1542.24" x2="784.94" y2="1254.31" xlink:href="#linear-gradient"/><linearGradient id="linear-gradient-11" x1="648.03" y1="1532.67" x2="760.4" y2="1244.73" xlink:href="#linear-gradient"/><linearGradient id="linear-gradient-12" x1="519.75" y1="1482.6" x2="632.11" y2="1194.67" xlink:href="#linear-gradient"/><linearGradient id="linear-gradient-13" x1="524.57" y1="1484.48" x2="636.94" y2="1196.54" xlink:href="#linear-gradient"/><linearGradient id="linear-gradient-14" x1="551.97" y1="1495.18" x2="664.33" y2="1207.24" xlink:href="#linear-gradient"/><linearGradient id="linear-gradient-15" x1="584.6" y1="1507.91" x2="696.96" y2="1219.98" xlink:href="#linear-gradient"/><linearGradient id="linear-gradient-16" x1="696.66" y1="1551.64" x2="809.03" y2="1263.71" xlink:href="#linear-gradient"/><linearGradient id="linear-gradient-17" x1="515.22" y1="1480.84" x2="627.59" y2="1192.9" xlink:href="#linear-gradient"/><linearGradient id="linear-gradient-18" x1="514.28" y1="1480.48" x2="626.64" y2="1192.54" xlink:href="#linear-gradient"/><linearGradient id="linear-gradient-19" x1="516.39" y1="1481.3" x2="628.76" y2="1193.36" xlink:href="#linear-gradient"/><linearGradient id="linear-gradient-20" x1="514.63" y1="1480.6" x2="627" y2="1192.67" xlink:href="#linear-gradient"/><linearGradient id="linear-gradient-21" x1="516.84" y1="1481.48" x2="629.2" y2="1193.55" xlink:href="#linear-gradient"/><linearGradient id="linear-gradient-22" x1="684.64" y1="1546.95" x2="797" y2="1259.02" xlink:href="#linear-gradient"/><linearGradient id="linear-gradient-23" x1="668.02" y1="1540.47" x2="780.39" y2="1252.54" xlink:href="#linear-gradient"/><linearGradient id="linear-gradient-24" x1="566.35" y1="1500.8" x2="678.71" y2="1212.86" xlink:href="#linear-gradient"/><linearGradient id="linear-gradient-25" x1="540.34" y1="1490.64" x2="652.71" y2="1202.71" xlink:href="#linear-gradient"/><linearGradient id="linear-gradient-26" x1="531.3" y1="1487.12" x2="643.67" y2="1199.18" xlink:href="#linear-gradient"/><linearGradient id="linear-gradient-27" x1="703.07" y1="1554.15" x2="815.44" y2="1266.22" xlink:href="#linear-gradient"/><linearGradient id="linear-gradient-28" x1="704.57" y1="1554.73" x2="816.94" y2="1266.8" xlink:href="#linear-gradient"/><linearGradient id="linear-gradient-29" x1="525.21" y1="1484.73" x2="637.57" y2="1196.8" xlink:href="#linear-gradient"/><linearGradient id="linear-gradient-30" x1="529.73" y1="1486.5" x2="642.1" y2="1198.57" xlink:href="#linear-gradient"/><linearGradient id="linear-gradient-31" x1="519.2" y1="1482.39" x2="631.57" y2="1194.46" xlink:href="#linear-gradient"/><linearGradient id="linear-gradient-32" x1="522.12" y1="1483.53" x2="634.48" y2="1195.6" xlink:href="#linear-gradient"/><linearGradient id="linear-gradient-33" x1="526.4" y1="1485.21" x2="638.77" y2="1197.27" xlink:href="#linear-gradient"/><linearGradient id="linear-gradient-34" x1="522.28" y1="1483.59" x2="634.65" y2="1195.66" xlink:href="#linear-gradient"/><linearGradient id="linear-gradient-35" x1="221.63" y1="1091.19" x2="333.99" y2="803.26" gradientTransform="translate(0 -858.08)" xlink:href="#linear-gradient"/><linearGradient id="linear-gradient-36" x1="521.04" y1="1483.11" x2="633.4" y2="1195.18" xlink:href="#linear-gradient"/><linearGradient id="linear-gradient-37" x1="521.56" y1="1483.31" x2="633.93" y2="1195.38" xlink:href="#linear-gradient"/><linearGradient id="linear-gradient-38" x1="520.59" y1="1482.94" x2="632.96" y2="1195.01" xlink:href="#linear-gradient"/><linearGradient id="linear-gradient-39" x1="597.74" y1="1513.04" x2="710.11" y2="1225.11" xlink:href="#linear-gradient"/><linearGradient id="linear-gradient-40" x1="523.45" y1="1484.05" x2="635.81" y2="1196.11" xlink:href="#linear-gradient"/><linearGradient id="linear-gradient-41" x1="580.08" y1="1506.15" x2="692.44" y2="1218.22" xlink:href="#linear-gradient"/><linearGradient id="linear-gradient-42" x1="524.28" y1="1484.37" x2="636.64" y2="1196.44" xlink:href="#linear-gradient"/><linearGradient id="linear-gradient-43" x1="650.19" y1="1533.52" x2="762.56" y2="1245.58" xlink:href="#linear-gradient"/><linearGradient id="linear-gradient-44" x1="634.31" y1="1527.31" x2="746.67" y2="1239.38" xlink:href="#linear-gradient"/><linearGradient id="linear-gradient-45" x1="533.25" y1="1487.87" x2="645.62" y2="1199.94" xlink:href="#linear-gradient"/><linearGradient id="linear-gradient-46" x1="662.17" y1="1538.18" x2="774.53" y2="1250.25" xlink:href="#linear-gradient"/><linearGradient id="linear-gradient-47" x1="673.13" y1="1542.47" x2="785.5" y2="1254.53" xlink:href="#linear-gradient"/><linearGradient id="linear-gradient-48" x1="668.01" y1="1540.47" x2="780.38" y2="1252.54" xlink:href="#linear-gradient"/><linearGradient id="linear-gradient-49" x1="701.13" y1="1553.39" x2="813.5" y2="1265.45" xlink:href="#linear-gradient"/><linearGradient id="linear-gradient-50" x1="650.35" y1="1533.57" x2="762.72" y2="1245.64" xlink:href="#linear-gradient"/><linearGradient id="linear-gradient-51" x1="661.14" y1="1537.78" x2="773.51" y2="1249.85" xlink:href="#linear-gradient"/><linearGradient id="linear-gradient-52" x1="683.73" y1="1546.6" x2="796.1" y2="1258.67" xlink:href="#linear-gradient"/><linearGradient id="linear-gradient-53" x1="694.06" y1="1550.63" x2="806.43" y2="1262.69" xlink:href="#linear-gradient"/><linearGradient id="linear-gradient-54" x1="627.84" y1="1524.78" x2="740.2" y2="1236.85" xlink:href="#linear-gradient"/><linearGradient id="linear-gradient-55" x1="649.86" y1="1533.39" x2="762.23" y2="1245.45" xlink:href="#linear-gradient"/><linearGradient id="linear-gradient-56" x1="639.14" y1="1529.19" x2="751.5" y2="1241.26" xlink:href="#linear-gradient"/><linearGradient id="linear-gradient-57" x1="659.96" y1="1537.33" x2="772.33" y2="1249.39" xlink:href="#linear-gradient"/><linearGradient id="linear-gradient-58" x1="638.66" y1="1529.01" x2="751.02" y2="1241.07" xlink:href="#linear-gradient"/><linearGradient id="linear-gradient-59" x1="616.34" y1="1520.3" x2="728.7" y2="1232.37" xlink:href="#linear-gradient"/><linearGradient id="linear-gradient-60" x1="299.07" y1="1358.36" x2="390.75" y2="1123.44" xlink:href="#linear-gradient"/><linearGradient id="linear-gradient-61" x1="308.78" y1="1362.15" x2="400.46" y2="1127.23" xlink:href="#linear-gradient"/><linearGradient id="linear-gradient-62" x1="314.88" y1="1364.54" x2="406.56" y2="1129.62" xlink:href="#linear-gradient"/><linearGradient id="linear-gradient-63" x1="320.98" y1="1366.91" x2="412.66" y2="1131.99" xlink:href="#linear-gradient"/><linearGradient id="linear-gradient-64" x1="327.08" y1="1369.29" x2="418.76" y2="1134.37" xlink:href="#linear-gradient"/><linearGradient id="linear-gradient-65" x1="333.18" y1="1371.67" x2="424.86" y2="1136.75" xlink:href="#linear-gradient"/><linearGradient id="linear-gradient-66" x1="337.37" y1="1373.31" x2="429.05" y2="1138.39" xlink:href="#linear-gradient"/><linearGradient id="linear-gradient-67" x1="344.2" y1="1375.97" x2="435.88" y2="1141.05" xlink:href="#linear-gradient"/><linearGradient id="linear-gradient-68" x1="351.36" y1="1378.77" x2="443.04" y2="1143.85" xlink:href="#linear-gradient"/><linearGradient id="linear-gradient-69" x1="357.46" y1="1381.15" x2="449.14" y2="1146.23" xlink:href="#linear-gradient"/><linearGradient id="linear-gradient-70" x1="363.56" y1="1383.53" x2="455.24" y2="1148.61" xlink:href="#linear-gradient"/><linearGradient id="linear-gradient-71" x1="369.69" y1="1385.92" x2="461.37" y2="1151" xlink:href="#linear-gradient"/><linearGradient id="linear-gradient-72" x1="375.76" y1="1388.28" x2="467.44" y2="1153.36" xlink:href="#linear-gradient"/><linearGradient id="linear-gradient-73" x1="381.09" y1="1390.37" x2="472.77" y2="1155.45" xlink:href="#linear-gradient"/><linearGradient id="linear-gradient-74" x1="386.21" y1="1392.37" x2="477.89" y2="1157.45" xlink:href="#linear-gradient"/><linearGradient id="linear-gradient-75" x1="391.52" y1="1394.44" x2="483.2" y2="1159.52" xlink:href="#linear-gradient"/><linearGradient id="linear-gradient-76" x1="409.13" y1="1401.31" x2="500.81" y2="1166.39" xlink:href="#linear-gradient"/><linearGradient id="linear-gradient-77" x1="415.56" y1="1403.83" x2="507.24" y2="1168.91" xlink:href="#linear-gradient"/><linearGradient id="linear-gradient-78" x1="421.65" y1="1406.2" x2="513.33" y2="1171.28" xlink:href="#linear-gradient"/><linearGradient id="linear-gradient-79" x1="430.64" y1="1409.71" x2="522.32" y2="1174.79" xlink:href="#linear-gradient"/><linearGradient id="linear-gradient-80" x1="439.6" y1="1413.2" x2="531.28" y2="1178.28" xlink:href="#linear-gradient"/><linearGradient id="linear-gradient-81" x1="445.71" y1="1415.59" x2="537.39" y2="1180.67" xlink:href="#linear-gradient"/><linearGradient id="linear-gradient-82" x1="451.81" y1="1417.97" x2="543.49" y2="1183.05" xlink:href="#linear-gradient"/><linearGradient id="linear-gradient-83" x1="455.27" y1="1419.32" x2="546.95" y2="1184.4" xlink:href="#linear-gradient"/><linearGradient id="linear-gradient-84" x1="465.75" y1="1423.41" x2="557.43" y2="1188.49" xlink:href="#linear-gradient"/><linearGradient id="linear-gradient-85" x1="477.14" y1="1427.85" x2="568.82" y2="1192.93" xlink:href="#linear-gradient"/><linearGradient id="linear-gradient-86" x1="486.08" y1="1431.34" x2="577.76" y2="1196.42" xlink:href="#linear-gradient"/><linearGradient id="linear-gradient-87" x1="492.19" y1="1433.73" x2="583.87" y2="1198.81" xlink:href="#linear-gradient"/><linearGradient id="linear-gradient-88" x1="495.75" y1="1435.12" x2="587.43" y2="1200.2" xlink:href="#linear-gradient"/><linearGradient id="linear-gradient-89" x1="501.06" y1="1437.19" x2="592.74" y2="1202.27" xlink:href="#linear-gradient"/><linearGradient id="linear-gradient-90" x1="360.65" y1="1407.16" x2="417.92" y2="1260.4" xlink:href="#linear-gradient"/><linearGradient id="linear-gradient-91" x1="364.74" y1="1408.75" x2="422.01" y2="1261.99" xlink:href="#linear-gradient"/><linearGradient id="linear-gradient-92" x1="368.06" y1="1410.05" x2="425.33" y2="1263.29" xlink:href="#linear-gradient"/><linearGradient id="linear-gradient-93" x1="371.74" y1="1411.49" x2="429.01" y2="1264.73" xlink:href="#linear-gradient"/><linearGradient id="linear-gradient-94" x1="374.51" y1="1412.57" x2="431.78" y2="1265.81" xlink:href="#linear-gradient"/><linearGradient id="linear-gradient-95" x1="378.42" y1="1414.09" x2="435.69" y2="1267.33" xlink:href="#linear-gradient"/><linearGradient id="linear-gradient-96" x1="382.76" y1="1415.79" x2="440.03" y2="1269.03" xlink:href="#linear-gradient"/><linearGradient id="linear-gradient-97" x1="389.15" y1="1418.28" x2="446.42" y2="1271.52" xlink:href="#linear-gradient"/><linearGradient id="linear-gradient-98" x1="391.5" y1="1419.2" x2="448.77" y2="1272.44" xlink:href="#linear-gradient"/><linearGradient id="linear-gradient-99" x1="395.52" y1="1420.76" x2="452.79" y2="1274" xlink:href="#linear-gradient"/><linearGradient id="linear-gradient-100" x1="399.12" y1="1422.16" x2="456.39" y2="1275.4" xlink:href="#linear-gradient"/><linearGradient id="linear-gradient-101" x1="407.2" y1="1425.32" x2="464.47" y2="1278.56" xlink:href="#linear-gradient"/><linearGradient id="linear-gradient-102" x1="412.68" y1="1427.46" x2="469.95" y2="1280.7" xlink:href="#linear-gradient"/><linearGradient id="linear-gradient-103" x1="418.29" y1="1429.65" x2="475.56" y2="1282.89" xlink:href="#linear-gradient"/><linearGradient id="linear-gradient-104" x1="422.94" y1="1431.46" x2="480.21" y2="1284.7" xlink:href="#linear-gradient"/><linearGradient id="linear-gradient-105" x1="426.49" y1="1432.85" x2="483.76" y2="1286.09" xlink:href="#linear-gradient"/><linearGradient id="linear-gradient-106" x1="434.55" y1="1435.99" x2="491.82" y2="1289.23" xlink:href="#linear-gradient"/><linearGradient id="linear-gradient-107" x1="438.53" y1="1437.55" x2="495.8" y2="1290.79" xlink:href="#linear-gradient"/><linearGradient id="linear-gradient-108" x1="441.62" y1="1438.76" x2="498.89" y2="1292" xlink:href="#linear-gradient"/><linearGradient id="linear-gradient-109" x1="446.22" y1="1440.55" x2="503.49" y2="1293.79" xlink:href="#linear-gradient"/><linearGradient id="linear-gradient-110" x1="450.59" y1="1442.25" x2="507.86" y2="1295.49" xlink:href="#linear-gradient"/><linearGradient id="linear-gradient-111" x1="457.87" y1="1445.1" x2="515.14" y2="1298.34" xlink:href="#linear-gradient"/><linearGradient id="linear-gradient-112" x1="461.1" y1="1446.35" x2="518.37" y2="1299.59" xlink:href="#linear-gradient"/><linearGradient id="linear-gradient-113" x1="463.93" y1="1447.46" x2="521.2" y2="1300.7" xlink:href="#linear-gradient"/><linearGradient id="linear-gradient-114" x1="467.15" y1="1448.72" x2="524.42" y2="1301.96" xlink:href="#linear-gradient"/><linearGradient id="linear-gradient-115" x1="541.21" y1="1452.2" x2="598.48" y2="1305.44" xlink:href="#linear-gradient"/><linearGradient id="linear-gradient-116" x1="542.05" y1="1453.6" x2="599.32" y2="1306.84" xlink:href="#linear-gradient"/><linearGradient id="linear-gradient-117" x1="482.26" y1="1454.61" x2="539.53" y2="1307.85" xlink:href="#linear-gradient"/><linearGradient id="linear-gradient-118" x1="488.22" y1="1456.94" x2="545.49" y2="1310.18" xlink:href="#linear-gradient"/><linearGradient id="linear-gradient-119" x1="498" y1="1460.76" x2="555.27" y2="1314" xlink:href="#linear-gradient"/><linearGradient id="linear-gradient-120" x1="501.99" y1="1462.32" x2="559.26" y2="1315.56" xlink:href="#linear-gradient"/><linearGradient id="linear-gradient-121" x1="504.98" y1="1463.48" x2="562.25" y2="1316.72" xlink:href="#linear-gradient"/><linearGradient id="linear-gradient-122" x1="507.37" y1="1464.41" x2="564.64" y2="1317.65" xlink:href="#linear-gradient"/><linearGradient id="linear-gradient-123" x1="515.99" y1="1467.78" x2="573.26" y2="1321.02" xlink:href="#linear-gradient"/><linearGradient id="linear-gradient-124" x1="519.78" y1="1469.25" x2="577.05" y2="1322.49" xlink:href="#linear-gradient"/><linearGradient id="linear-gradient-125" x1="523.59" y1="1470.74" x2="580.86" y2="1323.98" xlink:href="#linear-gradient"/><linearGradient id="linear-gradient-126" x1="527.86" y1="1472.4" x2="585.13" y2="1325.64" xlink:href="#linear-gradient"/><linearGradient id="linear-gradient-127" x1="531.05" y1="1473.65" x2="588.32" y2="1326.89" xlink:href="#linear-gradient"/><linearGradient id="linear-gradient-128" x1="382.32" y1="1393.18" x2="427.2" y2="1278.16" xlink:href="#linear-gradient"/><linearGradient id="linear-gradient-129" x1="391.02" y1="1396.58" x2="435.9" y2="1281.56" xlink:href="#linear-gradient"/><linearGradient id="linear-gradient-130" x1="400.23" y1="1400.17" x2="445.11" y2="1285.15" xlink:href="#linear-gradient"/><linearGradient id="linear-gradient-131" x1="410.54" y1="1404.19" x2="455.42" y2="1289.17" xlink:href="#linear-gradient"/><linearGradient id="linear-gradient-132" x1="429.93" y1="1411.77" x2="474.81" y2="1296.75" xlink:href="#linear-gradient"/><linearGradient id="linear-gradient-133" x1="438.08" y1="1414.94" x2="482.96" y2="1299.92" xlink:href="#linear-gradient"/><linearGradient id="linear-gradient-134" x1="446.27" y1="1418.13" x2="491.15" y2="1303.11" xlink:href="#linear-gradient"/><linearGradient id="linear-gradient-135" x1="466.38" y1="1425.99" x2="511.26" y2="1310.97" xlink:href="#linear-gradient"/><linearGradient id="linear-gradient-136" x1="480.89" y1="1431.65" x2="525.77" y2="1316.63" xlink:href="#linear-gradient"/><linearGradient id="linear-gradient-137" x1="487.94" y1="1434.4" x2="532.82" y2="1319.38" xlink:href="#linear-gradient"/><linearGradient id="linear-gradient-138" x1="493.92" y1="1436.73" x2="538.8" y2="1321.71" xlink:href="#linear-gradient"/><linearGradient id="linear-gradient-139" x1="503.84" y1="1440.6" x2="548.72" y2="1325.58" xlink:href="#linear-gradient"/><linearGradient id="linear-gradient-140" x1="517.48" y1="1445.93" x2="562.36" y2="1330.91" xlink:href="#linear-gradient"/><linearGradient id="linear-gradient-141" x1="528.55" y1="1450.24" x2="573.43" y2="1335.22" xlink:href="#linear-gradient"/><linearGradient id="linear-gradient-142" x1="590.66" y1="1510.28" x2="703.03" y2="1222.35" xlink:href="#linear-gradient"/><linearGradient id="linear-gradient-144" x1="79.7" y1="147.16" x2="83.12" y2="143.75" gradientUnits="userSpaceOnUse"><stop offset="0.12" stop-color="#25c17b"/><stop offset="0.4" stop-color="#28b288"/><stop offset="0.55" stop-color="#2e90a4"/><stop offset="0.89" stop-color="#3959d3"/><stop offset="0.92" stop-color="#3a55d6"/><stop offset="0.97" stop-color="#3476ba"/><stop offset="0.99" stop-color="#3761cc"/><stop offset="1" stop-color="#3764ca"/></linearGradient><linearGradient id="linear-gradient-145" x1="93.68" y1="125.19" x2="95.41" y2="123.46" xlink:href="#linear-gradient-144"/><linearGradient id="linear-gradient-146" x1="80.69" y1="144.9" x2="105.87" y2="119.72" xlink:href="#linear-gradient-144"/><linearGradient id="linear-gradient-147" x1="114.79" y1="140.72" x2="134.37" y2="121.15" xlink:href="#linear-gradient-144"/><linearGradient id="linear-gradient-148" x1="130.96" y1="131.57" x2="140.67" y2="121.86" xlink:href="#linear-gradient-144"/><linearGradient id="linear-gradient-149" x1="148.11" y1="135.17" x2="154.52" y2="128.76" xlink:href="#linear-gradient-144"/><linearGradient id="linear-gradient-150" x1="166.05" y1="125.19" x2="167.78" y2="123.46" xlink:href="#linear-gradient-144"/><linearGradient id="linear-gradient-151" x1="174.15" y1="141.38" x2="175.88" y2="139.65" xlink:href="#linear-gradient-144"/><linearGradient id="linear-gradient-152" x1="161.21" y1="135.65" x2="181.35" y2="115.51" xlink:href="#linear-gradient-144"/><linearGradient id="linear-gradient-153" x1="183.58" y1="131.57" x2="193.29" y2="121.86" xlink:href="#linear-gradient-144"/><linearGradient id="linear-gradient-154" x1="204.42" y1="120.35" x2="207.84" y2="116.94" xlink:href="#linear-gradient-144"/><linearGradient id="linear-gradient-155" x1="204.54" y1="136.38" x2="223.33" y2="117.59" xlink:href="#linear-gradient-144"/><linearGradient id="linear-gradient-156" x1="221.43" y1="143.36" x2="240.73" y2="124.06" xlink:href="#linear-gradient-144"/></defs><g id="Layer_2" data-name="Layer 2"><g id="Layer_1-2" data-name="Layer 1"><path class="cls-1" d="M407.89,24.19l17.3-24A129.73,129.73,0,0,0,404,.79L390.2,23.48A99.67,99.67,0,0,1,407.89,24.19Z"/><path class="cls-2" d="M428.31,29.55l22.86-24.8A104.25,104.25,0,0,0,430.79.6L411.71,24.81A82.13,82.13,0,0,1,428.31,29.55Z"/><path class="cls-3" d="M423.82,39.78a76.1,76.1,0,0,0-16.6-6.24L391.43,53l13.64,6.15Z"/><path class="cls-4" d="M358.59,35.1c-1.44.4-2.87.82-4.31,1.27a127.1,127.1,0,0,0-12.73,4.75L337.79,56l14.88-4.35Z"/><path class="cls-5" d="M322.22,63.24l13.46-6.45,2.81-14.29a138,138,0,0,0-15.08,8.07Z"/><path class="cls-6" d="M308.87,71.86l11.71-7.7.43-12.1a147.88,147.88,0,0,0-12.89,9.21Z"/><path class="cls-7" d="M285.61,83.73l3,6.91,8.3-8.74-2.54-8.19A124.38,124.38,0,0,0,285.61,83.73Z"/><path class="cls-8" d="M457.49,96.05l-23.59,8.52-.32,15.2,22-5.79A86.55,86.55,0,0,0,457.49,96.05Z"/><path class="cls-9" d="M436.41,154.67h0a115.74,115.74,0,0,0,9.76-15.19l-17.95.85L421,154.19l15.36.54Z"/><path class="cls-10" d="M431.21,189.35l-.51-.18-.34-.13h-.1l-14.17-5.17h0l-1.55-.56q-7.17,4.5-13.85,8l15.63,7.28c5.19-2.69,10.46-5.82,15.5-9l-.44-.15Z"/><path class="cls-11" d="M446.2,39.83l28.23-24.12A91.72,91.72,0,0,0,456.49,6.6L431.9,31.12Z"/><path class="cls-12" d="M291.38,72.19l-2.84-8.26c-3,3.55-5.71,7.13-8.32,10.9l3.18,6.94Z"/><path class="cls-13" d="M301.68,62c-.8.72-1.6,1.45-2.38,2.18.78-.73,1.58-1.46,2.38-2.18h0l.11-.09-1.88-10.22q-5.4,5.25-10.2,10.88l2.49,8.74Z"/><path class="cls-14" d="M350.56,16.46a181.41,181.41,0,0,0-16.81,9.08L331.31,41l15-7.2Z"/><path class="cls-15" d="M386.49,23.71,398.66,1.45A156.3,156.3,0,0,0,378,6l-9.15,20.49Z"/><path class="cls-16" d="M503.82,61.4,469.61,77.05l1.72,16.86L505.2,81.49A82,82,0,0,0,503.82,61.4Z"/><path class="cls-17" d="M262.38,113.79c-.21.87-.39,1.74-.57,2.61-.14.69-.28,1.39-.4,2.08-.17.94-.33,1.89-.46,2.83l2.55,2.31c.19-.9.38-1.79.61-2.68h0c.08-.33.16-.67.25-1s.17-.64.26-1h0c.22-.83.46-1.66.71-2.49Z"/><path class="cls-18" d="M267.09,111.19c.21-.61.44-1.22.68-1.83.34-.87.69-1.74,1.06-2.61l-3.49-3.16c-.32.91-.62,1.82-.91,2.74-.21.64-.4,1.28-.59,1.92-.35,1.17-.67,2.35-1,3.53l3.06,2.78C266.3,113.43,266.68,112.31,267.09,111.19Z"/><path class="cls-19" d="M282.9,82.41l-3.41-6.5a126.38,126.38,0,0,0-9,15.53l4.1,3.73A117.7,117.7,0,0,1,282.9,82.41Z"/><path class="cls-20" d="M271.49,101c.27-.56.56-1.13.84-1.69.43-.84.88-1.68,1.34-2.51l-4-3.65c-.41.88-.82,1.76-1.2,2.64-.26.59-.51,1.18-.76,1.77-.58,1.38-1.14,2.78-1.65,4.18l3.53,3.26C270.17,103.65,270.8,102.32,271.49,101Z"/><path class="cls-21" d="M260.49,125.48c-.07.76-.13,1.52-.19,2.27s-.1,1.58-.13,2.37l1.8,1.64.44-2.09.19-1c.06-.38.13-.77.19-1.15.1-.63.21-1.25.33-1.87l-2.41-2.19A11.32,11.32,0,0,0,260.49,125.48Z"/><path class="cls-22" d="M468.6,73.19l33.89-17.28a75,75,0,0,0-7.59-17.85l-32.9,20Z"/><path class="cls-23" d="M459.91,54.77l32-21.39c-3.54-5-7.72-10.29-12.85-14.43L449.23,42.32Z"/><path class="cls-24" d="M365.58,27.25l7.8-19.87a171.13,171.13,0,0,0-19,7.3l-5.38,18Z"/><path class="cls-25" d="M330.73,27.41A173,173,0,0,0,316.2,37.53l-.22,13,13.14-8.34Z"/><path class="cls-26" d="M314.31,51.73l-.42-12.4Q307.49,44.4,301.6,50L303,60.78Z"/><path class="cls-27" d="M468,115.32l32-7.44a105.6,105.6,0,0,0,4.71-20.61L471.15,97.93Z"/><path class="cls-28" d="M466.8,119.19l-7.22,16.65,28.78-3c2.27-3.8,4.35-7.69,6.25-11.64h0c1.17-2.45,2.41-5.34,3.48-7.85Z"/><path class="cls-29" d="M261.36,148.11c.31,1.78.71,3.56,1.15,5.32-.26-1.77-.49-3.53-.63-5.3Z"/><path class="cls-30" d="M266.14,148.59a49,49,0,0,0,1.56,5.54,51.42,51.42,0,0,1-.9-5.51Z"/><path class="cls-31" d="M261.63,139.19q0-.84.06-1.68c0-.78.07-1.55.14-2.33a4.18,4.18,0,0,1,.07-1l-1.85-1.68V136h0a13.46,13.46,0,0,0,.07,1.79h0Z"/><path class="cls-32" d="M261.59,141.6l-1.26-1.14h0c.18,2.28.48,4.56.88,6.82h.61C261.67,145.39,261.6,143.49,261.59,141.6Z"/><path class="cls-33" d="M266.68,146.19l-.06-2.51v-1.77l-1.52-1.38H265c0,.6.09,1.19.15,1.79.1.93.22,1.86.38,2.79h0q.21,1.37.51,2.73h.74Z"/><path class="cls-34" d="M276.62,97.06l-.94,1.6-1.43,2.43,4,3.68c.55-.89,1.1-1.77,1.69-2.65.27-.42.54-.84.82-1.26.73-1.06,1.47-2.11,2.23-3.16L279.55,92Z"/><polygon class="cls-35" points="270.69 107.55 270.61 107.45 270.69 107.55 270.69 107.55"/><path class="cls-36" d="M271.49,106.71c-.27.59-.52,1.18-.77,1.77-.35.83-.68,1.67-1,2.51v.1l3.54,3.22c.38-.84.78-1.66,1.19-2.49.27-.56.56-1.12.85-1.67.67-1.27,1.36-2.53,2.11-3.78l-4-3.63C272.7,104.06,272.08,105.38,271.49,106.71Z"/><path class="cls-37" d="M265.66,125.59c-.11.72-.23,1.44-.32,2.16h0c-.09.66-.16,1.3-.23,1.95l2.42,2.2q.15-.93.36-1.83h0c.15-.68.3-1.36.47-2,.22-.87.44-1.74.69-2.61h0l-2.85-2.6Q265.9,124.18,265.66,125.59Z"/><path class="cls-38" d="M267.87,116.32c-.2.65-.39,1.3-.56,1.94-.24.85-.46,1.69-.65,2.54h0l3,2.7q.38-1.2.81-2.4c.21-.61.44-1.22.68-1.83.41-1.08.84-2.15,1.31-3.22L269,112.93C268.6,114.06,268.22,115.19,267.87,116.32Z"/><path class="cls-39" d="M403,32.62a86.77,86.77,0,0,0-15.91-1.5h-2.3L373.54,49.86l15.17,2.33Z"/><path class="cls-40" d="M266.67,138.53c.05-.76.12-1.51.21-2.27s.18-1.48.29-2.22l-2.26-2c0,.8-.09,1.59-.12,2.38s0,1.63,0,2.43h0v1.07l1.82,1.64C266.62,139.19,266.64,138.86,266.67,138.53Z"/><path class="cls-41" d="M380.62,31.32a107.28,107.28,0,0,0-18.27,2.81l-7.14,17,15.57-1.34Z"/><path class="cls-42" d="M284.8,84.76c-.85,1.1-1.68,2.21-2.49,3.32s-1.58,2.24-2.34,3.38L283.59,97l4.55-5.73Z"/><path class="cls-43" d="M421,72.11l7.84,12.36,24.23-14.28a39.88,39.88,0,0,0-8.7-14.73Z"/><path class="cls-44" d="M441.39,52.34a75.4,75.4,0,0,0-13.8-10.46l-20.1,18.81L419,70Z"/><path class="cls-45" d="M297.73,81.19l10-8.39-1.32-10.07c-3.74,3.09-7.34,6.36-10.76,9.79l2.12,8.67Z"/><path class="cls-46" d="M457.38,91.68a78.76,78.76,0,0,0-3-17.31L430,87.19l3.61,14.42Z"/><path class="cls-47" d="M454.6,118.19l-21.42,4.48-3.94,15,19-2.17A100.58,100.58,0,0,0,454.6,118.19Z"/><path class="cls-48" d="M434,157.7l-14.51-1.28a83.84,83.84,0,0,1-10.09,12c.43.07,11.82,2.26,12.26,2.33C425.82,166.49,430.05,162.46,434,157.7Z"/><path class="cls-49" d="M457.71,139.19l-10.15,15,24,.64h1a177.29,177.29,0,0,0,13-17.25s-5.85.34-5.87.33Z"/><path class="cls-50" d="M395.49,206.89l-.31-.23-.7-.53-.16-.12-.84-.64L393,205l-2-1.54-5-3.75h0l-1.47-1.11c-2.34.92-4.61,1.77-6.81,2.53-1.26.43-2.5.84-3.72,1.21.14.17,1.93,2.43,3.72,4.65l3.59,4.5q7.38-1.78,14.62-4.29l-.28-.2Z"/><path class="cls-51" d="M385.89,198.13c.28.06,12.21,8.42,12.56,8.24a148,148,0,0,0,15.13-6.43L399.13,192Q392.23,195.57,385.89,198.13Z"/><path class="cls-52" d="M416.75,181.84l4.71,1.48-3.25-1h-.06l16.66,5.15-4.32-1.28,4.33,1.35C440.1,184,445.41,180,450.49,176l-19.3-4.11Q423.74,177.35,416.75,181.84Z"/><path class="cls-53" d="M433.37,169.72l20.45,3.33c5.27-4.47,10.45-9.42,15.35-14.41l-23.8-1.77Z"/><path class="cls-54" d="M358.27,193.92c-1.56.33-3.14.63-4.75.91h0c.28.44.57.9.89,1.38l4.25,6.68h0q6-1.11,11.74-2.74c-2.28-2.87-4.3-5.61-6-7.64C362.39,193,360.36,193.5,358.27,193.92Z"/><path class="cls-55" d="M403.49,184.93l-9.81-4.28c-2,1.18-4,2.28-6.06,3.3a63.31,63.31,0,0,1-5.82,2.64h-.06l-1.65.69,1,.54,1.42.8c2.44,1.38,5.52,3.17,7.15,4.13A124.59,124.59,0,0,0,403.49,184.93Z"/><path class="cls-56" d="M377.78,197.77c3.38-1.21,6.72-2.57,10-4.11-1.6-1-7.38-4.74-9.07-5.81l-1,.39a119.17,119.17,0,0,1-11.92,3.87l6,7.59C373.89,199.1,375.84,198.46,377.78,197.77Z"/><path class="cls-57" d="M419.09,173l-11.39-2.85a85,85,0,0,1-12.31,9.5l10.53,3.69A141.25,141.25,0,0,0,419.09,173Z"/><path class="cls-58" d="M372.49,202.86c-3.95,1.18-8,2.15-12,2.93h0c2.08,3.24,4,6.2,5.15,8l.34.54h-.16v.06H366c.92-.12,1.83-.25,2.73-.4l2.31-.36,2.24-.4h.07l1.46-.28q1.45-.28,2.91-.6l1.68-.38h.11l-1.75-2.28Z"/><path class="cls-59" d="M350.33,193.55l-.09-.15h0Z"/><path class="cls-60" d="M16.3,94v2.21h-1c0,.42.07.84.07,1.26a6.67,6.67,0,0,1-.79,2.2,13.33,13.33,0,0,1-8.19,3.27A6.2,6.2,0,0,1,1.56,101,7.12,7.12,0,0,1,0,96.21a12.58,12.58,0,0,1,1.65-5.8l.67.29a11.86,11.86,0,0,0-1.07,4.42A5.5,5.5,0,0,0,2.66,99a5.88,5.88,0,0,0,4.26,1.65,13,13,0,0,0,5.6-1.51,4.12,4.12,0,0,0,1.59-1.21c-.41-.85-2.32-1.6-5.12-1.6L8.89,96l1.21-2ZM5.6,108.21c-.72-.68-1.35-1.24-2.06-1.82a13.1,13.1,0,0,1,1.39-1.67,16.92,16.92,0,0,1,2,1.88A10.25,10.25,0,0,1,5.6,108.21ZM9,107.94c-.72-.69-1.35-1.25-2-1.83a14.33,14.33,0,0,1,1.38-1.71,16.92,16.92,0,0,1,2,1.88A10.09,10.09,0,0,1,9,107.94Z"/><path class="cls-60" d="M23.34,94v2.21h-7a1.14,1.14,0,0,1-1.23-1,.28.28,0,0,1,0-.13A1.08,1.08,0,0,1,16.19,94h7.15Z"/><path class="cls-60" d="M30.37,94v2.21h-7a1.14,1.14,0,0,1-1.24-1,.33.33,0,0,1,0-.14A1.1,1.1,0,0,1,23.25,94h7.12Z"/><path class="cls-60" d="M37.4,94v2.21h-7a1.13,1.13,0,0,1-1.23-1,.38.38,0,0,1,0-.15A1.08,1.08,0,0,1,30.25,94H37.4Z"/><path class="cls-60" d="M44.43,94v2.21h-7a1.13,1.13,0,0,1-1.23-1,.38.38,0,0,1,0-.15A1.08,1.08,0,0,1,37.28,94h7.15Z"/><path class="cls-60" d="M51.46,94v2.21h-7a1.13,1.13,0,0,1-1.23-1,.38.38,0,0,1,0-.15A1.08,1.08,0,0,1,44.31,94h7.15Z"/><path class="cls-60" d="M51.76,94a11.87,11.87,0,0,0,3.46-.34c.62-.23,1-.47,1-.77,0-.83-.84-2.55-1.75-4.34a12.76,12.76,0,0,1,1.31-2h.09a12.45,12.45,0,0,1,1.76,5.36,5.34,5.34,0,0,1-1.23,3.3c-.79.79-2,1.06-4.73,1.06h-.21a1.13,1.13,0,0,1-1.23-1,.38.38,0,0,1,0-.15A1.08,1.08,0,0,1,51.31,94h.45ZM54.2,80.92a15.67,15.67,0,0,1,2.11,1.88,7.49,7.49,0,0,1-1.46,1.72c-.68-.65-1.37-1.21-2.07-1.81C53.25,82.08,53.73,81.46,54.2,80.92Z"/><path class="cls-60" d="M65.36,96.21h-.19a3.84,3.84,0,0,1-3-1c-1.08-1.09-1.09-2.33-1.09-4.92,0-3.34-.2-6.84-.46-10.56a15,15,0,0,1,1.65-1.64l.12.07c.29,3.85.29,8.41.29,12.73v1A1.82,1.82,0,0,0,64,93.81a4,4,0,0,0,1.13.2h.24Z"/><path class="cls-60" d="M72.4,94v2.21h-7a1.14,1.14,0,0,1-1.23-1,.28.28,0,0,1,0-.13A1.1,1.1,0,0,1,65.29,94H72.4Z"/><path class="cls-60" d="M79.43,94v2.21h-7a1.13,1.13,0,0,1-1.23-1,.38.38,0,0,1,0-.15A1.08,1.08,0,0,1,72.28,94h7.15Z"/><path class="cls-60" d="M86.46,94v2.21h-7a1.13,1.13,0,0,1-1.23-1,.38.38,0,0,1,0-.15A1.08,1.08,0,0,1,79.31,94h7.15Z"/><path class="cls-60" d="M93.52,94v2.21h-7a1.13,1.13,0,0,1-1.23-1,.38.38,0,0,1,0-.15A1.08,1.08,0,0,1,86.37,94h7.15Z"/><path class="cls-60" d="M100.52,94v2.21h-7a1.13,1.13,0,0,1-1.23-1,.38.38,0,0,1,0-.15A1.08,1.08,0,0,1,93.37,94h7.15Z"/><path class="cls-60" d="M100.91,94c1.35,0,2.76-.55,3-1.55l.51-1.9,1.21-.88.11.13a8.53,8.53,0,0,0-.39,2,1.76,1.76,0,0,0,.58,1.46,3.31,3.31,0,0,0,2.18.71h.32v2.24H108c-1.72,0-3-.48-3.62-1.8h-.07a3.8,3.8,0,0,1-3.5,1.8h-.31a1.13,1.13,0,0,1-1.23-1,.38.38,0,0,1,0-.15,1.08,1.08,0,0,1,1.13-1h.49Zm1.93-6.67c-.72-.68-1.35-1.24-2.06-1.82a13.1,13.1,0,0,1,1.39-1.67,16.92,16.92,0,0,1,2,1.88A9.73,9.73,0,0,1,102.84,87.33Zm1-3.74c-.72-.69-1.35-1.25-2.06-1.83a14.83,14.83,0,0,1,1.39-1.67,16.92,16.92,0,0,1,2,1.88A10.81,10.81,0,0,1,103.84,83.59Zm2.44,3.52c-.72-.69-1.35-1.25-2-1.83a13.1,13.1,0,0,1,1.39-1.67,16.92,16.92,0,0,1,2,1.88A9.75,9.75,0,0,1,106.28,87.11Z"/><path class="cls-60" d="M108.84,94a4,4,0,0,0,2-.48,2,2,0,0,0,.94-1.9c0-2.81-.23-5.89-.51-9.12-.07-.81-.18-1.55-.18-2.2a1.72,1.72,0,0,1,.53-1.17,7.27,7.27,0,0,1,1-1l.13.09a7.9,7.9,0,0,0,1.42,4,12.11,12.11,0,0,1-1.11.9c.07,2,.23,4.15.23,6.1a10.41,10.41,0,0,1-.7,4.41,3.61,3.61,0,0,1-1.6,2,5.09,5.09,0,0,1-2.2.53h-.26a1.13,1.13,0,0,1-1.23-1,.38.38,0,0,1,0-.15,1.08,1.08,0,0,1,1.08-1.08h.15Z"/><path class="cls-60" d="M117.13,96.55a24.44,24.44,0,0,0,.2-3.52V91.31c0-3.22-.36-7.9-.64-10.94a14.5,14.5,0,0,1,1.73-1.86h.15c.37,3.84.46,8.28.46,12.38a28.12,28.12,0,0,1-.12,2.9,4.63,4.63,0,0,1-1.55,2.83Z"/><path class="cls-60" d="M135.08,90.21c1,2.41,1.92,3.8,4,3.8h.32v2.2H139a2.43,2.43,0,0,1-1.77-.57h-.07v.62a6.14,6.14,0,0,1-.7,2.72c-1.39,2.45-2.9,3.5-4.2,3.5a10.39,10.39,0,0,1-4.4-1.37l.27-.6a4.58,4.58,0,0,0,2,.39c2.35,0,5.45-2.67,5.83-5.27a3.3,3.3,0,0,0-.47-.79A16.75,16.75,0,0,1,134,92.22a16.22,16.22,0,0,1,1-2Z"/><path class="cls-60" d="M146.38,94v2.21h-7a1.13,1.13,0,0,1-1.23-1,.38.38,0,0,1,0-.15A1.08,1.08,0,0,1,139.23,94h7.15Z"/><path class="cls-60" d="M153.41,94v2.21h-7a1.14,1.14,0,0,1-1.23-1h0a.28.28,0,0,1,0-.13A1.08,1.08,0,0,1,146.26,94h7.15Z"/><path class="cls-60" d="M153.92,94c1.85,0,2.45-.92,3-2.59.69-2.19,2.08-3.34,3.26-3.34a2.37,2.37,0,0,1,2.11,1.18A22.74,22.74,0,0,1,164,92.56,2.86,2.86,0,0,0,166.79,94h.29v2.21h-.33A3,3,0,0,1,164,94.68h0a2.86,2.86,0,0,1-.56,1.33,1.6,1.6,0,0,1-1.16.58,7.82,7.82,0,0,1-5-2.46h-.07a3.56,3.56,0,0,1-3.5,2.08h-.27a1.14,1.14,0,0,1-1.23-1h0a.28.28,0,0,1,0-.13A1.08,1.08,0,0,1,153.3,94H154Zm5.93-.3a5.93,5.93,0,0,0,2.42.77c.34,0,.65,0,.65-.44a5.18,5.18,0,0,0-.88-2.34,3,3,0,0,0-2.25-1.58,2.17,2.17,0,0,0-2,1.58,5,5,0,0,0,2.06,2Z"/><path class="cls-60" d="M174.09,94v2.21h-7a1.14,1.14,0,0,1-1.23-1h0a.28.28,0,0,1,0-.13A1.08,1.08,0,0,1,166.94,94h7.15Z"/><path class="cls-60" d="M181.12,94v2.21h-7a1.14,1.14,0,0,1-1.24-1,.33.33,0,0,1,0-.14A1.1,1.1,0,0,1,174,94h7.12Z"/><path class="cls-60" d="M188.15,94v2.21h-7a1.13,1.13,0,0,1-1.23-1,.38.38,0,0,1,0-.15A1.08,1.08,0,0,1,181,94h7.15Z"/><path class="cls-60" d="M188.45,94a11.87,11.87,0,0,0,3.46-.34c.61-.23,1-.47,1-.77,0-.83-.84-2.55-1.76-4.34a12.81,12.81,0,0,1,1.32-2h0a12.45,12.45,0,0,1,1.76,5.36,5.33,5.33,0,0,1-1.22,3.3c-.79.79-2,1.06-4.73,1.06h-.21a1.13,1.13,0,0,1-1.23-1,.38.38,0,0,1,0-.15A1.08,1.08,0,0,1,187.92,94h.49Zm1.32-9c-.73-.69-1.36-1.25-2.06-1.83a14.83,14.83,0,0,1,1.39-1.67,15.46,15.46,0,0,1,2,1.88,10.16,10.16,0,0,1-1.33,1.67Zm3.39-.23c-.72-.68-1.36-1.25-2.06-1.83a14.83,14.83,0,0,1,1.39-1.67,16.92,16.92,0,0,1,2,1.88,10.16,10.16,0,0,1-1.33,1.67Z"/><path class="cls-60" d="M207,94v2.21h-1.45a8.38,8.38,0,0,1-1.34,3.6,6.28,6.28,0,0,1-4.24,3,10.25,10.25,0,0,1-5.06-1.78l.3-.58a5.38,5.38,0,0,0,2.58.63,6.92,6.92,0,0,0,4.89-2.42,5.89,5.89,0,0,0,1.65-2.46h-.86c-3.59,0-5.41-1.15-5.41-3.61a4.69,4.69,0,0,1,.89-2.83,3.41,3.41,0,0,1,2.71-1.68c1.62,0,3.29,2.26,3.78,5.87Zm-3.83-10.34a11.89,11.89,0,0,1-.68,1.2,17.44,17.44,0,0,0-4.57,1.31h0l.42-.74a2.23,2.23,0,0,1,.81-.58h0a1.66,1.66,0,0,1-1.37-1.53,2.28,2.28,0,0,1,.83-1.55,3.26,3.26,0,0,1,2.12-1c.71,0,1.11.41,1.11.86a2,2,0,0,1-.56,1.15h0c-.19-.39-.37-.64-.56-.69a2.44,2.44,0,0,0-.54,0c-.62,0-1.23.35-1.23.61,0,.85,1.47,1.13,2.51,1.13a15.22,15.22,0,0,0,1.79-.07ZM203,91.43a2.54,2.54,0,0,0-1.86-1c-1,0-2,.84-2,1.54,0,.9.83,1.43,1.92,1.74a12,12,0,0,0,3.16.27A5.38,5.38,0,0,0,203,91.4Z"/><path class="cls-60" d="M207.52,94c1.85,0,2.45-.92,3-2.59.69-2.19,2.08-3.34,3.26-3.34a2.37,2.37,0,0,1,2.11,1.18,22.74,22.74,0,0,1,1.75,3.31A2.86,2.86,0,0,0,220.39,94h.29v2.21h-.33a3,3,0,0,1-2.71-1.53h-.12A2.86,2.86,0,0,1,217,96a1.6,1.6,0,0,1-1.16.58,7.82,7.82,0,0,1-5-2.46h-.07a3.56,3.56,0,0,1-3.5,2.08H207a1.14,1.14,0,0,1-1.23-1h0a.28.28,0,0,1,0-.13A1.08,1.08,0,0,1,206.86,94h.71Zm5.93-.3a5.93,5.93,0,0,0,2.42.77c.34,0,.65,0,.65-.44a5.18,5.18,0,0,0-.88-2.34,3,3,0,0,0-2.25-1.58,2.17,2.17,0,0,0-2,1.58,5.06,5.06,0,0,0,2,2Z"/><path class="cls-60" d="M227.65,94v2.21h-7a1.14,1.14,0,0,1-1.23-1h0a.28.28,0,0,1,0-.13A1.1,1.1,0,0,1,220.54,94h7.11Z"/><path class="cls-60" d="M234.68,94v2.21h-7a1.13,1.13,0,0,1-1.23-1,.38.38,0,0,1,0-.15A1.08,1.08,0,0,1,227.53,94h7.15Z"/><path class="cls-60" d="M235.06,94a4,4,0,0,0,2-.48,2,2,0,0,0,.93-1.9c0-2.81-.22-5.89-.51-9.12-.07-.81-.17-1.55-.17-2.2a1.7,1.7,0,0,1,.53-1.17,7.27,7.27,0,0,1,1-1l.13.09a7.9,7.9,0,0,0,1.42,4,12.11,12.11,0,0,1-1.11.9c.07,2,.23,4.15.23,6.1a10.41,10.41,0,0,1-.7,4.41,3.61,3.61,0,0,1-1.6,2,5.09,5.09,0,0,1-2.2.53h-.26a1.13,1.13,0,0,1-1.23-1,.38.38,0,0,1,0-.15,1.08,1.08,0,0,1,1.08-1.08h.15Z"/><path class="cls-60" d="M243.36,96.55a24.43,24.43,0,0,0,.19-3.52V91.31c0-3.22-.35-7.9-.63-10.94a14.42,14.42,0,0,1,1.72-1.86h.16c.37,3.84.46,8.28.46,12.38a20.1,20.1,0,0,1-.12,2.9,4.63,4.63,0,0,1-1.55,2.83Z"/><path class="cls-61" d="M16.3,94v2.21h-1c0,.42.07.84.07,1.26a6.67,6.67,0,0,1-.79,2.2,13.33,13.33,0,0,1-8.19,3.27A6.2,6.2,0,0,1,1.56,101,7.12,7.12,0,0,1,0,96.21a12.58,12.58,0,0,1,1.65-5.8l.67.29a11.86,11.86,0,0,0-1.07,4.42A5.5,5.5,0,0,0,2.66,99a5.88,5.88,0,0,0,4.26,1.65,13,13,0,0,0,5.6-1.51,4.12,4.12,0,0,0,1.59-1.21c-.41-.85-2.32-1.6-5.12-1.6L8.89,96l1.21-2ZM5.6,108.21c-.72-.68-1.35-1.24-2.06-1.82a13.1,13.1,0,0,1,1.39-1.67,16.92,16.92,0,0,1,2,1.88A10.25,10.25,0,0,1,5.6,108.21ZM9,107.94c-.72-.69-1.35-1.25-2-1.83a14.33,14.33,0,0,1,1.38-1.71,16.92,16.92,0,0,1,2,1.88A10.09,10.09,0,0,1,9,107.94Z"/><path class="cls-62" d="M23.34,94v2.21h-7a1.14,1.14,0,0,1-1.23-1,.28.28,0,0,1,0-.13A1.08,1.08,0,0,1,16.19,94h7.15Z"/><path class="cls-63" d="M30.37,94v2.21h-7a1.14,1.14,0,0,1-1.24-1,.33.33,0,0,1,0-.14A1.1,1.1,0,0,1,23.25,94h7.12Z"/><path class="cls-64" d="M37.4,94v2.21h-7a1.13,1.13,0,0,1-1.23-1,.38.38,0,0,1,0-.15A1.08,1.08,0,0,1,30.25,94H37.4Z"/><path class="cls-65" d="M44.43,94v2.21h-7a1.13,1.13,0,0,1-1.23-1,.38.38,0,0,1,0-.15A1.08,1.08,0,0,1,37.28,94h7.15Z"/><path class="cls-66" d="M51.46,94v2.21h-7a1.13,1.13,0,0,1-1.23-1,.38.38,0,0,1,0-.15A1.08,1.08,0,0,1,44.31,94h7.15Z"/><path class="cls-67" d="M51.76,94a11.87,11.87,0,0,0,3.46-.34c.62-.23,1-.47,1-.77,0-.83-.84-2.55-1.75-4.34a12.76,12.76,0,0,1,1.31-2h.09a12.45,12.45,0,0,1,1.76,5.36,5.34,5.34,0,0,1-1.23,3.3c-.79.79-2,1.06-4.73,1.06h-.21a1.13,1.13,0,0,1-1.23-1,.38.38,0,0,1,0-.15A1.08,1.08,0,0,1,51.31,94h.45ZM54.2,80.92a15.67,15.67,0,0,1,2.11,1.88,7.49,7.49,0,0,1-1.46,1.72c-.68-.65-1.37-1.21-2.07-1.81C53.25,82.08,53.73,81.46,54.2,80.92Z"/><path class="cls-68" d="M65.36,96.21h-.19a3.84,3.84,0,0,1-3-1c-1.08-1.09-1.09-2.33-1.09-4.92,0-3.34-.2-6.84-.46-10.56a15,15,0,0,1,1.65-1.64l.12.07c.29,3.85.29,8.41.29,12.73v1A1.82,1.82,0,0,0,64,93.81a4,4,0,0,0,1.13.2h.24Z"/><path class="cls-69" d="M72.4,94v2.21h-7a1.14,1.14,0,0,1-1.23-1,.28.28,0,0,1,0-.13A1.1,1.1,0,0,1,65.29,94H72.4Z"/><path class="cls-70" d="M79.43,94v2.21h-7a1.13,1.13,0,0,1-1.23-1,.38.38,0,0,1,0-.15A1.08,1.08,0,0,1,72.28,94h7.15Z"/><path class="cls-71" d="M86.46,94v2.21h-7a1.13,1.13,0,0,1-1.23-1,.38.38,0,0,1,0-.15A1.08,1.08,0,0,1,79.31,94h7.15Z"/><path class="cls-72" d="M93.52,94v2.21h-7a1.13,1.13,0,0,1-1.23-1,.38.38,0,0,1,0-.15A1.08,1.08,0,0,1,86.37,94h7.15Z"/><path class="cls-73" d="M100.52,94v2.21h-7a1.13,1.13,0,0,1-1.23-1,.38.38,0,0,1,0-.15A1.08,1.08,0,0,1,93.37,94h7.15Z"/><path class="cls-74" d="M100.91,94c1.35,0,2.76-.55,3-1.55l.51-1.9,1.21-.88.11.13a8.53,8.53,0,0,0-.39,2,1.76,1.76,0,0,0,.58,1.46,3.31,3.31,0,0,0,2.18.71h.32v2.24H108c-1.72,0-3-.48-3.62-1.8h-.07a3.8,3.8,0,0,1-3.5,1.8h-.31a1.13,1.13,0,0,1-1.23-1,.38.38,0,0,1,0-.15,1.08,1.08,0,0,1,1.13-1h.49Zm1.93-6.67c-.72-.68-1.35-1.24-2.06-1.82a13.1,13.1,0,0,1,1.39-1.67,16.92,16.92,0,0,1,2,1.88A9.73,9.73,0,0,1,102.84,87.33Zm1-3.74c-.72-.69-1.35-1.25-2.06-1.83a14.83,14.83,0,0,1,1.39-1.67,16.92,16.92,0,0,1,2,1.88A10.81,10.81,0,0,1,103.84,83.59Zm2.44,3.52c-.72-.69-1.35-1.25-2-1.83a13.1,13.1,0,0,1,1.39-1.67,16.92,16.92,0,0,1,2,1.88A9.75,9.75,0,0,1,106.28,87.11Z"/><path class="cls-75" d="M108.84,94a4,4,0,0,0,2-.48,2,2,0,0,0,.94-1.9c0-2.81-.23-5.89-.51-9.12-.07-.81-.18-1.55-.18-2.2a1.72,1.72,0,0,1,.53-1.17,7.27,7.27,0,0,1,1-1l.13.09a7.9,7.9,0,0,0,1.42,4,12.11,12.11,0,0,1-1.11.9c.07,2,.23,4.15.23,6.1a10.41,10.41,0,0,1-.7,4.41,3.61,3.61,0,0,1-1.6,2,5.09,5.09,0,0,1-2.2.53h-.26a1.13,1.13,0,0,1-1.23-1,.38.38,0,0,1,0-.15,1.08,1.08,0,0,1,1.08-1.08h.15Z"/><path class="cls-76" d="M117.13,96.55a24.44,24.44,0,0,0,.2-3.52V91.31c0-3.22-.36-7.9-.64-10.94a14.5,14.5,0,0,1,1.73-1.86h.15c.37,3.84.46,8.28.46,12.38a28.12,28.12,0,0,1-.12,2.9,4.63,4.63,0,0,1-1.55,2.83Z"/><path class="cls-77" d="M135.08,90.21c1,2.41,1.92,3.8,4,3.8h.32v2.2H139a2.43,2.43,0,0,1-1.77-.57h-.07v.62a6.14,6.14,0,0,1-.7,2.72c-1.39,2.45-2.9,3.5-4.2,3.5a10.39,10.39,0,0,1-4.4-1.37l.27-.6a4.58,4.58,0,0,0,2,.39c2.35,0,5.45-2.67,5.83-5.27a3.3,3.3,0,0,0-.47-.79A16.75,16.75,0,0,1,134,92.22a16.22,16.22,0,0,1,1-2Z"/><path class="cls-78" d="M146.38,94v2.21h-7a1.13,1.13,0,0,1-1.23-1,.38.38,0,0,1,0-.15A1.08,1.08,0,0,1,139.23,94h7.15Z"/><path class="cls-79" d="M153.41,94v2.21h-7a1.14,1.14,0,0,1-1.23-1h0a.28.28,0,0,1,0-.13A1.08,1.08,0,0,1,146.26,94h7.15Z"/><path class="cls-80" d="M153.92,94c1.85,0,2.45-.92,3-2.59.69-2.19,2.08-3.34,3.26-3.34a2.37,2.37,0,0,1,2.11,1.18A22.74,22.74,0,0,1,164,92.56,2.86,2.86,0,0,0,166.79,94h.29v2.21h-.33A3,3,0,0,1,164,94.68h0a2.86,2.86,0,0,1-.56,1.33,1.6,1.6,0,0,1-1.16.58,7.82,7.82,0,0,1-5-2.46h-.07a3.56,3.56,0,0,1-3.5,2.08h-.27a1.14,1.14,0,0,1-1.23-1h0a.28.28,0,0,1,0-.13A1.08,1.08,0,0,1,153.3,94H154Zm5.93-.3a5.93,5.93,0,0,0,2.42.77c.34,0,.65,0,.65-.44a5.18,5.18,0,0,0-.88-2.34,3,3,0,0,0-2.25-1.58,2.17,2.17,0,0,0-2,1.58,5,5,0,0,0,2.06,2Z"/><path class="cls-81" d="M174.09,94v2.21h-7a1.14,1.14,0,0,1-1.23-1h0a.28.28,0,0,1,0-.13A1.08,1.08,0,0,1,166.94,94h7.15Z"/><path class="cls-82" d="M181.12,94v2.21h-7a1.14,1.14,0,0,1-1.24-1,.33.33,0,0,1,0-.14A1.1,1.1,0,0,1,174,94h7.12Z"/><path class="cls-83" d="M188.15,94v2.21h-7a1.13,1.13,0,0,1-1.23-1,.38.38,0,0,1,0-.15A1.08,1.08,0,0,1,181,94h7.15Z"/><path class="cls-84" d="M188.45,94a11.87,11.87,0,0,0,3.46-.34c.61-.23,1-.47,1-.77,0-.83-.84-2.55-1.76-4.34a12.81,12.81,0,0,1,1.32-2h0a12.45,12.45,0,0,1,1.76,5.36,5.33,5.33,0,0,1-1.22,3.3c-.79.79-2,1.06-4.73,1.06h-.21a1.13,1.13,0,0,1-1.23-1,.38.38,0,0,1,0-.15A1.08,1.08,0,0,1,187.92,94h.49Zm1.32-9c-.73-.69-1.36-1.25-2.06-1.83a14.83,14.83,0,0,1,1.39-1.67,15.46,15.46,0,0,1,2,1.88,10.16,10.16,0,0,1-1.33,1.67Zm3.39-.23c-.72-.68-1.36-1.25-2.06-1.83a14.83,14.83,0,0,1,1.39-1.67,16.92,16.92,0,0,1,2,1.88,10.16,10.16,0,0,1-1.33,1.67Z"/><path class="cls-85" d="M207,94v2.21h-1.45a8.38,8.38,0,0,1-1.34,3.6,6.28,6.28,0,0,1-4.24,3,10.25,10.25,0,0,1-5.06-1.78l.3-.58a5.38,5.38,0,0,0,2.58.63,6.92,6.92,0,0,0,4.89-2.42,5.89,5.89,0,0,0,1.65-2.46h-.86c-3.59,0-5.41-1.15-5.41-3.61a4.69,4.69,0,0,1,.89-2.83,3.41,3.41,0,0,1,2.71-1.68c1.62,0,3.29,2.26,3.78,5.87Zm-3.83-10.34a11.89,11.89,0,0,1-.68,1.2,17.44,17.44,0,0,0-4.57,1.31h0l.42-.74a2.23,2.23,0,0,1,.81-.58h0a1.66,1.66,0,0,1-1.37-1.53,2.28,2.28,0,0,1,.83-1.55,3.26,3.26,0,0,1,2.12-1c.71,0,1.11.41,1.11.86a2,2,0,0,1-.56,1.15h0c-.19-.39-.37-.64-.56-.69a2.44,2.44,0,0,0-.54,0c-.62,0-1.23.35-1.23.61,0,.85,1.47,1.13,2.51,1.13a15.22,15.22,0,0,0,1.79-.07ZM203,91.43a2.54,2.54,0,0,0-1.86-1c-1,0-2,.84-2,1.54,0,.9.83,1.43,1.92,1.74a12,12,0,0,0,3.16.27A5.38,5.38,0,0,0,203,91.4Z"/><path class="cls-86" d="M207.52,94c1.85,0,2.45-.92,3-2.59.69-2.19,2.08-3.34,3.26-3.34a2.37,2.37,0,0,1,2.11,1.18,22.74,22.74,0,0,1,1.75,3.31A2.86,2.86,0,0,0,220.39,94h.29v2.21h-.33a3,3,0,0,1-2.71-1.53h-.12A2.86,2.86,0,0,1,217,96a1.6,1.6,0,0,1-1.16.58,7.82,7.82,0,0,1-5-2.46h-.07a3.56,3.56,0,0,1-3.5,2.08H207a1.14,1.14,0,0,1-1.23-1h0a.28.28,0,0,1,0-.13A1.08,1.08,0,0,1,206.86,94h.71Zm5.93-.3a5.93,5.93,0,0,0,2.42.77c.34,0,.65,0,.65-.44a5.18,5.18,0,0,0-.88-2.34,3,3,0,0,0-2.25-1.58,2.17,2.17,0,0,0-2,1.58,5.06,5.06,0,0,0,2,2Z"/><path class="cls-87" d="M227.65,94v2.21h-7a1.14,1.14,0,0,1-1.23-1h0a.28.28,0,0,1,0-.13A1.1,1.1,0,0,1,220.54,94h7.11Z"/><path class="cls-88" d="M234.68,94v2.21h-7a1.13,1.13,0,0,1-1.23-1,.38.38,0,0,1,0-.15A1.08,1.08,0,0,1,227.53,94h7.15Z"/><path class="cls-89" d="M235.06,94a4,4,0,0,0,2-.48,2,2,0,0,0,.93-1.9c0-2.81-.22-5.89-.51-9.12-.07-.81-.17-1.55-.17-2.2a1.7,1.7,0,0,1,.53-1.17,7.27,7.27,0,0,1,1-1l.13.09a7.9,7.9,0,0,0,1.42,4,12.11,12.11,0,0,1-1.11.9c.07,2,.23,4.15.23,6.1a10.41,10.41,0,0,1-.7,4.41,3.61,3.61,0,0,1-1.6,2,5.09,5.09,0,0,1-2.2.53h-.26a1.13,1.13,0,0,1-1.23-1,.38.38,0,0,1,0-.15,1.08,1.08,0,0,1,1.08-1.08h.15Z"/><path class="cls-90" d="M243.36,96.55a24.43,24.43,0,0,0,.19-3.52V91.31c0-3.22-.35-7.9-.63-10.94a14.42,14.42,0,0,1,1.72-1.86h.16c.37,3.84.46,8.28.46,12.38a20.1,20.1,0,0,1-.12,2.9,4.63,4.63,0,0,1-1.55,2.83Z"/><path class="cls-91" d="M44.36,209.19c-.72,0-1.24-.32-1.24-1a2.85,2.85,0,0,1,.22-1,5.52,5.52,0,0,1,2.15-2.41v-.66a3.76,3.76,0,0,1,.54-.72h.07v4.09a1.74,1.74,0,0,0,.26,1.23.88.88,0,0,0,.71.23h.17v1.13h-.15c-.67,0-1.16-.23-1.42-1.22A2.77,2.77,0,0,1,44.36,209.19Zm1.22-3.49c-1.22.81-1.86,1.46-1.86,1.92s.41.49.88.49a2.71,2.71,0,0,0,1-.24Zm-.81-3.11c-.28-.34-.53-.62-.8-.91a6.56,6.56,0,0,1,.54-.83,7.94,7.94,0,0,1,.78.94,5.88,5.88,0,0,1-.52.78Zm1.32-.11c-.28-.34-.53-.62-.8-.91a4.92,4.92,0,0,1,.54-.83,8.73,8.73,0,0,1,.78.93,8.28,8.28,0,0,1-.52.79Z"/><path class="cls-92" d="M47.41,208.88a3.88,3.88,0,0,0,1.35-.16c.24-.12.39-.24.39-.39a9.63,9.63,0,0,0-.69-2.17,5.88,5.88,0,0,1,.51-1h0a8,8,0,0,1,.68,2.68,3,3,0,0,1-.48,1.63c-.3.39-.79.53-1.84.53h-.08c-.38,0-.48-.35-.48-.59a.49.49,0,0,1,.43-.54h.21Zm.67,4.63c-.28-.35-.53-.63-.8-.92a4.92,4.92,0,0,1,.54-.83,7.94,7.94,0,0,1,.78.94A5.85,5.85,0,0,1,48.08,213.51Zm1.32-.12c-.28-.34-.53-.62-.8-.91a4.92,4.92,0,0,1,.54-.83,7.94,7.94,0,0,1,.78.94A6.09,6.09,0,0,1,49.4,213.39Z"/><path class="cls-93" d="M53.24,205.48l.49,1.18a4.3,4.3,0,0,1,.34,1.67v1a4.85,4.85,0,0,1-.86,2.43c-.42.57-.79.8-1.13.8a3.49,3.49,0,0,1-1.76-.67l.07-.3a2,2,0,0,0,.76.16c1,0,2-1.07,2.41-2.37a2.66,2.66,0,0,0,.07-.39,3.4,3.4,0,0,0-.09-.46,16.49,16.49,0,0,0-.83-1.93c.16-.38.32-.74.49-1.1Z"/><path class="cls-94" d="M59,208.88V210h-.57a5.17,5.17,0,0,1-.52,1.8,2.57,2.57,0,0,1-1.65,1.5,3.4,3.4,0,0,1-2-.89l.11-.29a1.85,1.85,0,0,0,1,.32,2.55,2.55,0,0,0,1.9-1.22,3.13,3.13,0,0,0,.65-1.22h-.34c-1.4,0-2.11-.57-2.11-1.8a2.76,2.76,0,0,1,.35-1.41,1.28,1.28,0,0,1,1.06-.85c.63,0,1.28,1.13,1.47,2.93Zm-1.51-1.28a1,1,0,0,0-.72-.49.83.83,0,0,0-.78.77c0,.45.33.71.75.87a3.91,3.91,0,0,0,1.23.13,3.14,3.14,0,0,0-.53-1.28Z"/><path class="cls-95" d="M61.69,208.88V210H59c-.38,0-.48-.35-.48-.59a.49.49,0,0,1,.43-.54h2.74Z"/><path class="cls-96" d="M65.77,207.26a5.11,5.11,0,0,0-2.15-.61,1,1,0,0,0-.87.43l.08.44-.2.79h-.07l-.34-1.16a1.5,1.5,0,0,1,1.42-1.57h0a5.5,5.5,0,0,1,2.25.75,2.77,2.77,0,0,0,1.17.29h.6l-.43.9a1.75,1.75,0,0,0-1.15.33l-1.15,1A4.65,4.65,0,0,1,62,210h-.26c-.38,0-.48-.35-.48-.59a.49.49,0,0,1,.43-.54h.47a6.26,6.26,0,0,0,3.66-1.58Zm.77.6h0c0,.74.51,1,1.21,1H68V210h-.21a1.3,1.3,0,0,1-1.48-1.1.69.69,0,0,1,0-.35v-.49Z"/><path class="cls-97" d="M68.11,208.88c.51,0,.9-.44,1.15-1.55a2.49,2.49,0,0,1,.51-1.06,1.12,1.12,0,0,1,.86-.51c.84,0,1.33,1.47,1.44,3-.15.8-.4,1.13-.73,1.13a3.13,3.13,0,0,1-2-1h0c-.18.77-.57,1.14-1.19,1.14h-.1c-.38,0-.48-.35-.48-.59a.49.49,0,0,1,.43-.54h0Zm2.4-.35a1.76,1.76,0,0,0,.81.26c.1,0,.19,0,.22-.1-.2-1.32-.65-1.91-1.08-1.91s-.72.28-.92.86a2.22,2.22,0,0,0,1,.89Z"/><path class="cls-98" d="M77.18,209.19c-.72,0-1.25-.32-1.25-1a2.86,2.86,0,0,1,.23-1,5.58,5.58,0,0,1,2.18-2.41v-.66a4.83,4.83,0,0,1,.54-.72H79v4.09a1.85,1.85,0,0,0,.26,1.23.93.93,0,0,0,.72.23h.16v1.13H80c-.67,0-1.15-.23-1.41-1.22A2.9,2.9,0,0,1,77.18,209.19Zm1.21-3.49c-1.22.81-1.86,1.46-1.86,1.92s.42.49.88.49a2.93,2.93,0,0,0,1-.24Zm-.81-3.11c-.28-.34-.52-.62-.8-.91a6.56,6.56,0,0,1,.54-.83,7.94,7.94,0,0,1,.78.94,5.88,5.88,0,0,1-.52.78Zm1.32-.11c-.28-.34-.52-.62-.8-.91a4.92,4.92,0,0,1,.54-.83,10.19,10.19,0,0,1,.79.93,6.05,6.05,0,0,1-.53.79Z"/><path class="cls-99" d="M80.25,208.88a1.34,1.34,0,0,0,.77-.23,1.18,1.18,0,0,0,.36-1c0-1.4-.08-2.94-.19-4.55,0-.41-.07-.78-.07-1.1a1,1,0,0,1,.2-.59,2.86,2.86,0,0,1,.38-.48h0a4.54,4.54,0,0,0,.55,2,6.14,6.14,0,0,1-.43.45c0,1,.09,2.07.09,3a7.2,7.2,0,0,1-.27,2.21,1.93,1.93,0,0,1-.63,1,1.74,1.74,0,0,1-.85.27H80.1c-.37,0-.48-.35-.48-.59a.49.49,0,0,1,.43-.54h0Z"/><path class="cls-100" d="M84.92,209.09a1.45,1.45,0,0,1-1.51-1.4,1,1,0,0,1,0-.25,2.68,2.68,0,0,1,.43-1.51c.32-.44.66-.73,1-.73s.77.36,1,1a6.36,6.36,0,0,1,.44,2.41,5.27,5.27,0,0,1-.52,2.31c-.61,1.18-1.2,1.67-1.76,1.67a3,3,0,0,1-2-.86l.1-.28a1.83,1.83,0,0,0,1,.29,2.67,2.67,0,0,0,2-1.34,3.55,3.55,0,0,0,.64-1.46A3.94,3.94,0,0,1,84.92,209.09Zm-.3-2.79a1,1,0,0,0-.77.78A1.1,1.1,0,0,0,85,208a2.53,2.53,0,0,0,.77-.12C85.6,207,85.21,206.3,84.62,206.3Z"/><path class="cls-101" d="M87.8,207.62c0,.75.26,1.35,1.12,1.35a2.64,2.64,0,0,0,1.49-.57.36.36,0,0,0,.13-.21,3.33,3.33,0,0,0-.64-1.67,5.53,5.53,0,0,0-1.41-1.32.4.4,0,0,1-.22-.33,2.78,2.78,0,0,1,.35-1h.06a7.88,7.88,0,0,1,1.63,1.82,4,4,0,0,1,.68,2.08,5.1,5.1,0,0,1-.28,1.54,3.48,3.48,0,0,1-1.91.81c-.78,0-1.31-.55-1.31-1.85a3.42,3.42,0,0,1,0-.64Z"/><path class="cls-102" d="M100.49,200.93c.07,1.49.1,3.18.1,5.51a4.57,4.57,0,0,0,.27,1.9.82.82,0,0,0,.76.54h.13V210h-.16c-.7,0-1.2-.47-1.4-1.62h0a2.6,2.6,0,0,1-1,1,4,4,0,0,1-2.13.61c-1,0-2.1-.77-2.1-2.78a4.62,4.62,0,0,1,.38-1.91l.29.13a3.5,3.5,0,0,0-.24,1.28,1.8,1.8,0,0,0,1.51,2h0a2,2,0,0,0,.35,0,3.64,3.64,0,0,0,1.94-.58,2.36,2.36,0,0,0,.77-.77,3.84,3.84,0,0,0,0-.48c0-1.68-.11-3.64-.22-5.22a5,5,0,0,1,.66-.85Zm-2.17,2.92h-.07a1.24,1.24,0,0,0-.74.85h.54a.58.58,0,0,1,.67.49v.19a1.22,1.22,0,0,1-1.15,1.25h-.09a1.69,1.69,0,0,1-.45,0l-.45-.34v-.1c.88,0,1.76-.33,1.76-.67,0-.09-.16-.09-.62-.09s-.6,0-.6-.11V205a2.13,2.13,0,0,1,.44-1.21c.26-.4.6-.71.77-.71s.16.07.16.21-.09.42-.15.63Z"/><path class="cls-103" d="M107.3,206.25a15.48,15.48,0,0,1,.11,1.56,4.21,4.21,0,0,1-.25,1.21c-.26.55-.61,1-1,1s-.61-.28-.86-.73h0a1.58,1.58,0,0,1-1.2.76c-.38,0-.62-.23-.66-.75h0a1.68,1.68,0,0,1-1.45.75h-.12c-.38,0-.48-.35-.48-.59a.49.49,0,0,1,.43-.54h.23a1.54,1.54,0,0,0,1.45-.81l.37-.7.53-.23h0a3.56,3.56,0,0,0-.47,1.26c0,.28.15.44.36.44a1.07,1.07,0,0,0,.61-.25c.24-.23.27-.48.49-1.4l.41-.3h0a4.12,4.12,0,0,0-.09.86c0,.67.38,1,.71,1a.36.36,0,0,0,.36-.34h0a13.61,13.61,0,0,0-.17-1.43,4.62,4.62,0,0,1,.62-.78Z"/><path class="cls-104" d="M111,208.68a3.06,3.06,0,0,0,.78-1.39,7.53,7.53,0,0,1,.63-1.35h.08a23.69,23.69,0,0,0,1.31,2,1.87,1.87,0,0,0,1.42.94h.08V210h-.08a1.61,1.61,0,0,1-1.39-.92h0v.14c0,1.21-.47,1.82-.86,1.82-.66,0-1.29-.85-1.44-1.89h0a1.37,1.37,0,0,1-1.16.84,1.23,1.23,0,0,1-1-.51c-.42-.55-.45-1.16-.45-2.45,0-1.67-.08-3.41-.18-5.27a4.69,4.69,0,0,1,.65-.82h0c.11,1.92.11,4.19.11,6.35v.5a.91.91,0,0,0,.52.94,1,1,0,0,0,.44.09A1.49,1.49,0,0,0,111,208.68Zm1.26-1.54a2.76,2.76,0,0,0-.33,1.19c0,.69.44,1.56,1.07,1.56.17,0,.37-.26.37-.64a1.55,1.55,0,0,0-.24-.76c-.25-.46-.55-.88-.83-1.35Z"/><path class="cls-105" d="M115.38,208.88a1.15,1.15,0,0,0,1.18-.77l.2-1,.47-.43v.06a5.62,5.62,0,0,0-.15,1,.94.94,0,0,0,.23.73,1.1,1.1,0,0,0,.85.35h.12V210h-.15a1.34,1.34,0,0,1-1.42-.9h0a1.5,1.5,0,0,1-1.37.9h-.13c-.37,0-.48-.35-.48-.59a.49.49,0,0,1,.43-.54h.22Zm.76-3.32c-.28-.34-.53-.62-.8-.91a4.62,4.62,0,0,1,.54-.84,7.94,7.94,0,0,1,.78.94A5.85,5.85,0,0,1,116.14,205.56Zm1.32-.12c-.28-.34-.53-.62-.8-.91a6.56,6.56,0,0,1,.54-.83,7.94,7.94,0,0,1,.78.94A6.09,6.09,0,0,1,117.46,205.44Z"/><path class="cls-106" d="M118.49,208.88c.51,0,.91-.44,1.15-1.55a2.61,2.61,0,0,1,.51-1.06,1.12,1.12,0,0,1,.86-.51c.84,0,1.33,1.47,1.44,3-.14.8-.39,1.13-.72,1.13a3.13,3.13,0,0,1-2-1h0c-.17.77-.56,1.14-1.18,1.14h-.12c-.37,0-.48-.35-.48-.59a.49.49,0,0,1,.43-.54h.05Zm2.4-.35a1.76,1.76,0,0,0,.82.26c.1,0,.19,0,.22-.1-.2-1.32-.66-1.91-1.09-1.91s-.72.28-.91.86a2.13,2.13,0,0,0,.94.89Z"/><path class="cls-107" d="M128.72,208.88c-1.22.79-2,1.64-2,2.58,0,1.48,1.27,2.49,3.14,2.49a6.11,6.11,0,0,0,1.74-.26v.16c-.37.35-.75.69-1.15,1a2.1,2.1,0,0,1-1.17.26,2.94,2.94,0,0,1-3.09-2.79h0a2,2,0,0,1,0-.49,4.51,4.51,0,0,1,1.91-3.54,9.67,9.67,0,0,1-.82-1c-.17-.2-.32-.43-.46-.43a.8.8,0,0,0-.34.11v-.08l.3-1,.32-.07a6.32,6.32,0,0,1,1.84-.29,4,4,0,0,1,1.95.41l-.16,1-1.24,1.45h0a2.86,2.86,0,0,0,1.64.47h.4V210h-.32a3.61,3.61,0,0,1-2.37-1.14Zm.11-.94a10.06,10.06,0,0,0,1.41-1.28h0a5.33,5.33,0,0,0-1.31-.2,4.16,4.16,0,0,0-1.32.17h0l.51.55.68.76Z"/><path class="cls-108" d="M131.65,208.88c.72,0,1-.45,1.16-1.29.26-1.09.8-1.66,1.26-1.66a.9.9,0,0,1,.83.58,13.29,13.29,0,0,1,.68,1.65,1.07,1.07,0,0,0,1.07.72h.12V210h-.13a1.14,1.14,0,0,1-1.06-.77h0a2,2,0,0,1-.22.67.65.65,0,0,1-.45.29A2.8,2.8,0,0,1,133,209h0a1.46,1.46,0,0,1-1.37,1h-.11c-.38,0-.48-.35-.48-.59a.49.49,0,0,1,.43-.54h0Zm2.31-.15a1.87,1.87,0,0,0,.94.39c.13,0,.26,0,.26-.22a3.18,3.18,0,0,0-.35-1.17c-.26-.51-.58-.79-.87-.79a1,1,0,0,0-.79.79,2.12,2.12,0,0,0,.85,1Z"/><path class="cls-109" d="M136.92,208.88a1.18,1.18,0,0,0,1.17-.77l.2-1,.48-.43v.06a4.17,4.17,0,0,0-.15,1,1,1,0,0,0,.22.73,1.1,1.1,0,0,0,.85.35h.12V210h-.15a1.3,1.3,0,0,1-1.41-.9h0a1.47,1.47,0,0,1-1.36.9h-.14c-.37,0-.47-.35-.47-.59a.49.49,0,0,1,.43-.54h.21Zm.75-3.32c-.28-.34-.53-.62-.8-.91a6.67,6.67,0,0,1,.54-.84,7.94,7.94,0,0,1,.78.94A5.85,5.85,0,0,1,137.67,205.56Zm1.32-.12c-.28-.34-.53-.62-.8-.91a6.56,6.56,0,0,1,.54-.83,7.94,7.94,0,0,1,.78.94,6,6,0,0,1-.51.8Z"/><path class="cls-110" d="M143.94,207.26a5.11,5.11,0,0,0-2.15-.61,1,1,0,0,0-.87.43l.08.44-.21.79h-.07l-.33-1.16a1.46,1.46,0,0,1,1.38-1.57h.11a5.46,5.46,0,0,1,2.24.75,2.77,2.77,0,0,0,1.17.29h.6l-.42.9a1.76,1.76,0,0,0-1.16.33l-1.14,1a4.65,4.65,0,0,1-3,1.18h-.32c-.37,0-.47-.35-.47-.59a.49.49,0,0,1,.43-.54h.46a6.26,6.26,0,0,0,3.66-1.58Zm-1.58,4a8.24,8.24,0,0,1,.82.94,4.38,4.38,0,0,1-.56.86c-.27-.32-.54-.6-.81-.9.19-.27.37-.57.55-.85Zm2.35-3.45h0c0,.74.5,1,1.21,1h.18v1.13h-.21a1.3,1.3,0,0,1-1.47-1.11h0a1,1,0,0,1,0-.34,4,4,0,0,1,0-.49Z"/><path class="cls-111" d="M146.27,208.88c.51,0,.91-.44,1.15-1.55a2.61,2.61,0,0,1,.51-1.06,1.12,1.12,0,0,1,.86-.51c.84,0,1.33,1.47,1.44,3-.14.8-.39,1.13-.72,1.13a3.13,3.13,0,0,1-2-1h0c-.17.77-.56,1.14-1.18,1.14h-.12c-.37,0-.48-.35-.48-.59a.49.49,0,0,1,.43-.54h0Zm2.4-.35a1.76,1.76,0,0,0,.82.26c.1,0,.19,0,.22-.1-.2-1.32-.66-1.91-1.09-1.91s-.72.28-.91.86a2.07,2.07,0,0,0,1,.89Z"/><path class="cls-112" d="M158.76,210h-.14c-.61,0-1.13-.34-1.39-1.43h0a1.4,1.4,0,0,1-.49.84,2.45,2.45,0,0,1-1.38.59c-.76,0-1.19-.6-1.19-1.63v-.65h.32c0,.73.31,1.17,1,1.17a2,2,0,0,0,1.12-.44,1,1,0,0,0,.45-.65,22.36,22.36,0,0,0-.57-3.27c.16-.3.31-.62.48-.9h0c.25,1.27.46,2.62.65,3.91.12.87.56,1.32,1.08,1.32h.12Z"/><path class="cls-113" d="M161.49,208.88V210h-2.74c-.38,0-.48-.35-.48-.59a.49.49,0,0,1,.43-.54h2.79Z"/><path class="cls-114" d="M161.65,208.88a1.18,1.18,0,0,0,1.17-.77l.2-1,.48-.43v.06a4.17,4.17,0,0,0-.15,1,1,1,0,0,0,.22.73,1.1,1.1,0,0,0,.85.35h.13V210h-.16a1.3,1.3,0,0,1-1.41-.9h0a1.47,1.47,0,0,1-1.36.9h-.13c-.38,0-.48-.35-.48-.59a.49.49,0,0,1,.43-.54h.21Zm.77,4.63c-.28-.35-.53-.63-.8-.92a6.56,6.56,0,0,1,.54-.83,7.94,7.94,0,0,1,.78.94,5.85,5.85,0,0,1-.52.81Zm1.32-.12c-.28-.34-.52-.62-.8-.91a4.92,4.92,0,0,1,.54-.83,7.94,7.94,0,0,1,.78.94,6.09,6.09,0,0,1-.52.8Z"/><path class="cls-115" d="M170.11,206.25a15.48,15.48,0,0,1,.11,1.56A4.57,4.57,0,0,1,170,209c-.26.55-.62,1-1,1s-.61-.28-.86-.73H168a1.56,1.56,0,0,1-1.19.76c-.38,0-.62-.23-.66-.75h0a1.71,1.71,0,0,1-1.46.75h-.12c-.37,0-.47-.35-.47-.59a.49.49,0,0,1,.43-.54h.28a1.54,1.54,0,0,0,1.44-.81l.38-.7.53-.23h0a3.32,3.32,0,0,0-.47,1.26c0,.28.14.44.36.44a1.07,1.07,0,0,0,.61-.25c.24-.23.27-.48.48-1.4l.41-.3h0a4.12,4.12,0,0,0-.09.86c0,.67.39,1,.72,1a.36.36,0,0,0,.36-.34h0a13.61,13.61,0,0,0-.17-1.43,4.62,4.62,0,0,1,.62-.78Z"/><path class="cls-116" d="M243.38,206.3a13.94,13.94,0,0,1,.56,1.69c.2.77.57.89,1.23.89h.1V210h-.14a1.29,1.29,0,0,1-1-.4h0a5.55,5.55,0,0,1-.42,2,3.15,3.15,0,0,1-2.33,1.42c-1.28,0-2.1-1.1-2.1-2.66a5.49,5.49,0,0,1,.59-2.55l.26.18a4.85,4.85,0,0,0-.38,1.64,2.18,2.18,0,0,0,.46,1.53,1.76,1.76,0,0,0,1.29.59,2.68,2.68,0,0,0,1.66-.77,1.35,1.35,0,0,0,.5-.9,5.52,5.52,0,0,0-.25-1.46c-.22-.64-.39-1.09-.54-1.43a6.23,6.23,0,0,1,.47-.93Zm-1.63-2.67a6.14,6.14,0,0,1,.82.94,4.38,4.38,0,0,1-.56.86c-.27-.33-.54-.61-.81-.91.18-.33.42-.62.55-.89Z"/><path class="cls-117" d="M245.27,208.88V210h-2.74c-.38,0-.48-.35-.48-.59a.49.49,0,0,1,.43-.54h2.79Z"/><path class="cls-118" d="M183.49,208.88l.37-.8a10.16,10.16,0,0,0,.1-1.74c0-1.19-.1-3-.17-4v-.86a1.27,1.27,0,0,1,.53-1l.05.06a4.42,4.42,0,0,0,.58,1.93l-.44.44c0,1,.06,1.9.06,2.85a6.11,6.11,0,0,1-.24,1.75h0a8.65,8.65,0,0,1,1.5-1.64,2,2,0,0,1,1.29-.53,1.42,1.42,0,0,1,1,.49,2.49,2.49,0,0,1,.52,1.56,4.32,4.32,0,0,1-.16.93c-.34,1.52-2.74,1.73-4.09,1.73h-1.54c-.38,0-.48-.35-.48-.59a.49.49,0,0,1,.43-.54h0Zm1.07,0a5.88,5.88,0,0,0,3.16-.65,1.6,1.6,0,0,0,.41-.41,1.41,1.41,0,0,0-1.31-1.35c-.89,0-1.87.92-2.86,2.41Z"/><path class="cls-119" d="M191.74,209.09a1.45,1.45,0,0,1-1.51-1.4,1,1,0,0,1,0-.25,2.61,2.61,0,0,1,.44-1.51c.31-.44.65-.73,1-.73s.76.36,1,1a6.36,6.36,0,0,1,.44,2.41,5.27,5.27,0,0,1-.52,2.31c-.61,1.18-1.19,1.67-1.76,1.67a3,3,0,0,1-2-.86l.1-.28a1.83,1.83,0,0,0,1,.29,2.65,2.65,0,0,0,2-1.34,3.55,3.55,0,0,0,.64-1.46A3.91,3.91,0,0,1,191.74,209.09Zm-.3-2.79a1,1,0,0,0-.77.78,1.1,1.1,0,0,0,1.17.94,2.53,2.53,0,0,0,.77-.12C192.43,207,192,206.3,191.44,206.3Z"/><path class="cls-120" d="M204.17,201.35c.06,2.16.1,4.07.1,6.16a1.78,1.78,0,0,0,.34,1.13,1,1,0,0,0,.67.24h.08V210h-.13a1.11,1.11,0,0,1-1.08-.66h0a9.73,9.73,0,0,1-.24,1.31,3.5,3.5,0,0,1-.79,1,2.28,2.28,0,0,1-1.43.54,1.64,1.64,0,0,1-1.42-.75,3.52,3.52,0,0,1-.49-2,6,6,0,0,1,.46-2.21l.25.13a4.37,4.37,0,0,0-.29,1.52,2.35,2.35,0,0,0,.35,1.36,1.34,1.34,0,0,0,1.19.71,2,2,0,0,0,1.18-.41,2.31,2.31,0,0,0,.75-.83,5.61,5.61,0,0,0,0-.58c0-1.37,0-3.64-.2-7.07a4.24,4.24,0,0,1,.63-.77Z"/><path class="cls-121" d="M205.79,208.88a3.45,3.45,0,0,0,1-.18h0A2.09,2.09,0,0,1,206,207a2.43,2.43,0,0,1,.3-1.15,1.66,1.66,0,0,1,1.42-1.18c.63,0,1.16.54,1.52,1.43l-.13.18a1.49,1.49,0,0,0-1.23-.57c-.73,0-1.25.43-1.25.74a1.73,1.73,0,0,0,.59,1.25,1.57,1.57,0,0,0,.83.47,6.2,6.2,0,0,0,2-.62h0l-.36,1.09c-1.08.49-1.6.56-2.44.91a4.65,4.65,0,0,1-1.67.48h-.21c-.38,0-.48-.35-.48-.59a.49.49,0,0,1,.43-.54h.49Z"/><path class="cls-122" d="M212.83,210h-.07a1.35,1.35,0,0,1-1.17-.5c-.42-.55-.43-1.17-.43-2.46,0-1.67-.07-3.41-.18-5.27a5.71,5.71,0,0,1,.65-.82h.05c.11,1.92.11,4.19.11,6.35v.5a.89.89,0,0,0,.51.94,1,1,0,0,0,.44.09h.09Z"/><path class="cls-123" d="M213.41,208.88a4.44,4.44,0,0,0,1.49-.17c.44-.17.81-.5.81-.73v-.19h-.78a1.57,1.57,0,0,1-1.74-1.63,2.8,2.8,0,0,1,.51-1.73,1.16,1.16,0,0,1,.88-.58c.56,0,1,.67,1.31,1.73a8.17,8.17,0,0,1,.29,2.09,2.73,2.73,0,0,1-.34,1.39c-.43.63-1.22.87-2.44.87h-.56c-.37,0-.48-.35-.48-.59a.49.49,0,0,1,.43-.54h0Zm1-3.8a.86.86,0,0,0-.82.78c0,.71.91.93,2,.92-.14-.84-.59-1.7-1.17-1.7Zm-.14-3.94a10.48,10.48,0,0,1,.82.93,3.84,3.84,0,0,1-.57.87c-.26-.33-.53-.61-.81-.91a6.89,6.89,0,0,1,.57-.84Z"/><path class="cls-124" d="M224.23,206.3a15.93,15.93,0,0,1,.56,1.69c.2.77.57.89,1.23.89h.1V210H226a1.28,1.28,0,0,1-1-.4h0a5.77,5.77,0,0,1-.42,2,3.13,3.13,0,0,1-2.32,1.42c-1.29,0-2.11-1.1-2.11-2.66a5.37,5.37,0,0,1,.59-2.55l.26.18a4.62,4.62,0,0,0-.38,1.64,2.13,2.13,0,0,0,.46,1.53,1.74,1.74,0,0,0,1.29.59A2.7,2.7,0,0,0,224,211a1.35,1.35,0,0,0,.5-.9,6,6,0,0,0-.25-1.46c-.22-.64-.39-1.09-.54-1.43a6.23,6.23,0,0,1,.47-.93Zm-1.63-2.67a7.44,7.44,0,0,1,.83.94,5.34,5.34,0,0,1-.57.86c-.27-.33-.54-.61-.81-.91C222.23,204.19,222.42,203.9,222.6,203.63Z"/><path class="cls-125" d="M226.75,208.88l.37-.8a10.16,10.16,0,0,0,.1-1.74c0-1.19-.1-3-.17-4v-.86a1.27,1.27,0,0,1,.53-1v.06a4.42,4.42,0,0,0,.58,1.93l-.44.44c0,1,.06,1.9.06,2.85a6.11,6.11,0,0,1-.24,1.75h0a8.65,8.65,0,0,1,1.5-1.64,2,2,0,0,1,1.29-.53,1.36,1.36,0,0,1,1,.49,2.49,2.49,0,0,1,.52,1.56,4.32,4.32,0,0,1-.16.93c-.34,1.52-2.73,1.73-4.09,1.73h-1.54c-.38,0-.48-.35-.48-.59a.49.49,0,0,1,.43-.54h.05Zm1.07,0a5.79,5.79,0,0,0,3.18-.69,1.6,1.6,0,0,0,.41-.41,1.41,1.41,0,0,0-1.31-1.35c-.89,0-1.87.92-2.86,2.41Z"/><path class="cls-126" d="M233.21,210.19c0-.59.07-1.18.07-1.76v-.86c0-1.6-.13-3.94-.24-5.46a5.48,5.48,0,0,1,.67-.93h.06c.14,1.91.18,4.13.18,6.18a13.86,13.86,0,0,1,0,1.44,2.66,2.66,0,0,1-.6,1.42Z"/><path class="cls-127" d="M238.88,208.88V210h-.57a5.17,5.17,0,0,1-.52,1.8,2.57,2.57,0,0,1-1.65,1.5,3.52,3.52,0,0,1-2-.89l.11-.29a1.85,1.85,0,0,0,1,.32,2.53,2.53,0,0,0,1.9-1.22,3.13,3.13,0,0,0,.65-1.22h-.31c-1.4,0-2.11-.57-2.11-1.8a2.76,2.76,0,0,1,.35-1.41,1.28,1.28,0,0,1,1.06-.85c.63,0,1.28,1.13,1.47,2.93Zm-1.56-1.28a1,1,0,0,0-.72-.49.85.85,0,0,0-.78.77c0,.45.33.71.75.87a3.91,3.91,0,0,0,1.23.13A3.2,3.2,0,0,0,237.32,207.6Z"/><path class="cls-128" d="M239,208.88c.51,0,.9-.44,1.15-1.55a2.61,2.61,0,0,1,.51-1.06,1.12,1.12,0,0,1,.86-.51c.84,0,1.33,1.47,1.44,3-.14.8-.4,1.13-.73,1.13a3.13,3.13,0,0,1-2-1h0c-.18.77-.57,1.14-1.18,1.14h-.12c-.38,0-.48-.35-.48-.59a.49.49,0,0,1,.43-.54h0Zm2.4-.35a1.76,1.76,0,0,0,.81.26c.11,0,.2,0,.22-.1-.2-1.32-.65-1.91-1.08-1.91s-.72.28-.92.86a2.22,2.22,0,0,0,1,.89Z"/><path class="cls-129" d="M80.26,175.58h-.33c-1.53,0-2.8-.65-3.47-2.77h-.08a2.44,2.44,0,0,1-1.22,1.63,6.87,6.87,0,0,1-3.42,1.14,2.81,2.81,0,0,1-3-2.59,2.52,2.52,0,0,1,0-.55,8.83,8.83,0,0,1,0-1.26h.67a2.12,2.12,0,0,0,1.92,2.29h.47a6.15,6.15,0,0,0,2.77-.85c.63-.35,1.11-.86,1.11-1.27A34,34,0,0,0,74.27,165a15,15,0,0,1,1.2-1.75l.11.06c.62,2.45,1.15,5.07,1.61,7.57a2.78,2.78,0,0,0,2.69,2.56h.29Z"/><path class="cls-130" d="M80.57,173.4a10.78,10.78,0,0,0,3.35-.32c.6-.22,1-.46,1-.75,0-.8-.82-2.46-1.7-4.2a13.09,13.09,0,0,1,1.28-1.92h.07a12.25,12.25,0,0,1,1.7,5.19,5.17,5.17,0,0,1-1.19,3.16c-.76.77-2,1-4.57,1H80.3a1.09,1.09,0,0,1-1.19-1v0a.43.43,0,0,1,0-.16,1,1,0,0,1,1-1h.47Zm1.67,9c-.7-.66-1.31-1.2-2-1.77A14.77,14.77,0,0,1,81.57,179a16.66,16.66,0,0,1,1.94,1.82,11.57,11.57,0,0,1-1.28,1.52Zm3.28-.22c-.7-.66-1.31-1.21-2-1.77a14.85,14.85,0,0,1,1.34-1.61,15.9,15.9,0,0,1,1.94,1.82,9.29,9.29,0,0,1-1.28,1.52Z"/><path class="cls-131" d="M100.84,175.58h-.27c-1.53,0-2.81-.65-3.47-2.77H97a2.41,2.41,0,0,1-1.22,1.63,6.74,6.74,0,0,1-3.42,1.14,2.81,2.81,0,0,1-3-2.59,2.52,2.52,0,0,1,0-.55,8.79,8.79,0,0,1,.06-1.26h.66A2.12,2.12,0,0,0,92,173.47h.47a6.15,6.15,0,0,0,2.77-.85c.62-.35,1.1-.86,1.1-1.27A34,34,0,0,0,95,165a16.47,16.47,0,0,1,1.21-1.75l.1.06c.63,2.45,1.15,5.07,1.61,7.57a2.78,2.78,0,0,0,2.69,2.56h.29Z"/><path class="cls-132" d="M101.87,173.4c2.76,0,5.58-1,9.08-3.07v-.07a16.11,16.11,0,0,0-5.34-1.19,2.74,2.74,0,0,0-2.16.85l.21.85-.52,1.53H103l-.84-2.24c.14-1.89,1.65-3.06,3.69-3.06a16.65,16.65,0,0,1,5.58,1.47,8,8,0,0,0,2.9.55h1.43l-.9,1.78a5.2,5.2,0,0,0-2.94.63l-2.82,1.87a13.32,13.32,0,0,1-7.36,2.28h-.88a1.09,1.09,0,0,1-1.19-1v0a.43.43,0,0,1,0-.16,1,1,0,0,1,1-1h.2Zm5.19,4.71a17.2,17.2,0,0,1,2,1.82,7.49,7.49,0,0,1-1.41,1.67c-.67-.63-1.33-1.18-2-1.75.49-.62,1-1.21,1.43-1.74Z"/><path class="cls-133" d="M126.23,173.92c0,3,2.58,8.08,2.58,10.65a9.48,9.48,0,0,1-.39,2.1h-.29c0-2.07-3.23-8.75-3.23-11.33a5.79,5.79,0,0,1,.6-2.62,6.14,6.14,0,0,1,3.58-3.27c-.22-3.6-.28-6.42-.28-7.31,0-.68-.31-2-.31-2.75A1.73,1.73,0,0,1,129,158a5.64,5.64,0,0,1,1-.89l.17.11a2.81,2.81,0,0,0,0,.71c0,.53.34,1.38,1.46,3.11l-1.26.82c0,2.34.07,5.25.24,7.29a6,6,0,0,1,1.78-.22c2.11,0,3.67,1.25,3.67,3.35a3.33,3.33,0,0,1-3,3.51c-2.7,0-3.57-2.75-3.81-4.38C127.57,171.92,126.23,173.06,126.23,173.92Zm7.32-.15a2,2,0,0,0,1.25-.44c.06-1.68-1.76-2.41-3-2.41a4.45,4.45,0,0,0-1.15.11,3.07,3.07,0,0,0,2.9,2.73Z"/><path class="cls-134" d="M143.28,175.58h-.2a3.75,3.75,0,0,1-2.91-1c-1-1.05-1-2.26-1-4.76,0-3.23-.19-6.61-.44-10.21a14.92,14.92,0,0,1,1.59-1.59l.12.07c.28,3.73.28,8.13.28,12.31v1a1.76,1.76,0,0,0,1.27,1.82,3.37,3.37,0,0,0,1.09.18h.24Z"/><path class="cls-135" d="M144.35,173.4a9.68,9.68,0,0,0,2.51-.35v-.13a3.86,3.86,0,0,1-2-3.33,4.91,4.91,0,0,1,4.25-4.5c1.58,0,2.89,1,3.78,2.77l-.33.34a4.36,4.36,0,0,0-3-1.09c-1.8,0-3.11.83-3.11,1.43a3.15,3.15,0,0,0,1.46,2.41,4.15,4.15,0,0,0,2.06.92,17.33,17.33,0,0,0,4.86-1.21l.09.09-.91,2.1c-2.66,1-4,1.09-6,1.77a13.21,13.21,0,0,1-4.15.92h-.52a1.09,1.09,0,0,1-1.19-1v0a.43.43,0,0,1,0-.16,1,1,0,0,1,1-1h1.21Z"/><path class="cls-136" d="M176.22,169.84a7.55,7.55,0,0,1-1.77.18c-1.84,0-3.25-.47-3.79-1.7a2.56,2.56,0,0,1-.24-1.15,4.46,4.46,0,0,1,1.19-3.15,3,3,0,0,1,2.06-1.05c1.29,0,2.32,1.2,3.06,3.14a11.8,11.8,0,0,1,.64,4,4.27,4.27,0,0,1-.78,2.41c1.6.53,1.8,1,1.8,2.24a4.53,4.53,0,0,1-.46,1.94,6.34,6.34,0,0,1-2.09,2,9.82,9.82,0,0,1-5.81,1.82,6.15,6.15,0,0,1-4.22-1.61,6.3,6.3,0,0,1-1.75-4.54,12.92,12.92,0,0,1,1.12-5.34l.68.26a10.34,10.34,0,0,0-.64,3.57,5.64,5.64,0,0,0,1,3.35,5,5,0,0,0,4,1.93,9.48,9.48,0,0,0,4.91-1.25,7.36,7.36,0,0,0,2.25-1.74c0-.64-3.11-1.26-6-1.26l-.06-.11.74-1.76c2.79-.32,4.24-.79,4.24-1.68A2.89,2.89,0,0,1,176.22,169.84Zm-6.65,15.91c-.7-.67-1.31-1.21-2-1.77a13.89,13.89,0,0,1,1.34-1.62,17.56,17.56,0,0,1,1.94,1.82,12,12,0,0,1-1.28,1.57Zm3.28-.23c-.7-.66-1.31-1.2-2-1.76a12.27,12.27,0,0,1,1.34-1.62,17.56,17.56,0,0,1,1.94,1.82,9.58,9.58,0,0,1-1.28,1.56Zm-.12-27.84a17.2,17.2,0,0,1,2,1.82,6.84,6.84,0,0,1-1.41,1.67c-.66-.63-1.33-1.17-2-1.75C171.81,158.81,172.27,158.21,172.73,157.68Zm.58,7.35a1.92,1.92,0,0,0-1.94,1.49c0,.85,1.63,1.48,3.23,1.48a9.25,9.25,0,0,0,1.39-.07C175.38,166,174.46,165,173.31,165Z"/><path class="cls-137" d="M192.63,175.58h-.18a3.75,3.75,0,0,1-2.91-1c-1-1.05-1.06-2.26-1.06-4.76,0-3.23-.18-6.61-.44-10.21a16,16,0,0,1,1.6-1.59l.12.07c.27,3.73.27,8.13.27,12.31v1a1.76,1.76,0,0,0,1.28,1.82,3.31,3.31,0,0,0,1.08.18h.24Z"/><path class="cls-138" d="M193,173.4c1.3,0,2.67-.52,2.92-1.49l.49-1.84,1.18-.85.1.12a8.52,8.52,0,0,0-.38,2,1.65,1.65,0,0,0,.57,1.41,3.07,3.07,0,0,0,2.1.68h.31v2.18h-.39c-1.67,0-2.93-.46-3.5-1.73h-.07a3.67,3.67,0,0,1-3.38,1.73h-.33a1.09,1.09,0,0,1-1.19-1v0a.43.43,0,0,1,0-.16,1,1,0,0,1,1-1h.2Zm3-10.26a15,15,0,0,1,2,1.82,7.22,7.22,0,0,1-1.41,1.66c-.66-.63-1.32-1.17-2-1.75C195.08,164.26,195.51,163.68,196,163.14Z"/><path class="cls-139" d="M200.67,173.4c1.31,0,2.67-.52,2.93-1.49l.49-1.84,1.17-.85.1.12a8.5,8.5,0,0,0-.37,2,1.62,1.62,0,0,0,.56,1.41,3.1,3.1,0,0,0,2.11.68h.3v2.18h-.39c-1.66,0-2.92-.46-3.5-1.73H204a3.66,3.66,0,0,1-3.38,1.73h-.32a1.09,1.09,0,0,1-1.19-1v0a.43.43,0,0,1,0-.16,1,1,0,0,1,1-1h.2Zm1.87-6.44c-.7-.66-1.31-1.21-2-1.77a14.85,14.85,0,0,1,1.34-1.61,15.9,15.9,0,0,1,1.94,1.82,9.29,9.29,0,0,1-1.28,1.52Zm3.28-.22c-.7-.66-1.31-1.21-2-1.77a13.87,13.87,0,0,1,1.35-1.61,15.81,15.81,0,0,1,1.93,1.82A9.58,9.58,0,0,1,205.82,166.74Z"/><path class="cls-140" d="M208.46,173.4c1.78,0,2.36-.88,2.87-2.49.66-2.13,2-3.23,3.14-3.23a2.29,2.29,0,0,1,2,1.13,22.79,22.79,0,0,1,1.7,3.2,2.71,2.71,0,0,0,2.65,1.39h.29v2.18h-.32a2.87,2.87,0,0,1-2.62-1.48h-.07a2.69,2.69,0,0,1-.54,1.29,1.58,1.58,0,0,1-1.12.56,7.48,7.48,0,0,1-4.81-2.38h-.06a3.43,3.43,0,0,1-3.38,2h-.26a1.09,1.09,0,0,1-1.19-1v0a.43.43,0,0,1,0-.16,1,1,0,0,1,1-1h.73Zm5.72-.28a5.54,5.54,0,0,0,2.35.74c.32,0,.63,0,.63-.42a5.1,5.1,0,0,0-.85-2.26,2.86,2.86,0,0,0-2.18-1.53,2.06,2.06,0,0,0-1.95,1.53c.17.63,1.26,1.51,2,1.94Z"/><path class="cls-141" d="M221.57,173.4c1.45,0,2.61-.47,2.81-1.49.14-.66.27-1.31.44-1.94a7.89,7.89,0,0,1,1.12-.88l.11.1a5.38,5.38,0,0,0-.28,1.6,1.92,1.92,0,0,0,.94,1.88,19.6,19.6,0,0,1,3.52-4.28,5.77,5.77,0,0,1,3.8-1.75,3.68,3.68,0,0,1,3.84,3.51v.25a7.22,7.22,0,0,1-.87,3h2.26v2.18h-.44a21.19,21.19,0,0,1-5.08-.59,12.59,12.59,0,0,1-4,.59c-2.21,0-3.87-.53-4.81-1.78h0a4,4,0,0,1-3.52,1.78h-.2a1.09,1.09,0,0,1-1.19-1v0a.43.43,0,0,1,0-.16,1,1,0,0,1,1-1h.2Zm9.2,0a13.6,13.6,0,0,0,4.42-.76c.83-.34,1.39-.78,1.39-1.28a3.2,3.2,0,0,0-3.17-2.53c-2,0-3.88,1.65-5.75,4.22a10.9,10.9,0,0,0,3.06.35Z"/><path class="cls-142" d="M239.51,173.4a10.78,10.78,0,0,0,3.35-.32c.59-.22,1-.46,1-.75,0-.8-.81-2.46-1.7-4.2a13.09,13.09,0,0,1,1.28-1.92h.13a11.93,11.93,0,0,1,1.7,5.19,5.17,5.17,0,0,1-1.19,3.16c-.76.77-2,1-4.57,1h-.2a1.09,1.09,0,0,1-1.19-1v0a.43.43,0,0,1,0-.16,1,1,0,0,1,1-1h.4Zm3.21,5.39a17.2,17.2,0,0,1,2,1.82,7.27,7.27,0,0,1-1.41,1.67c-.66-.63-1.33-1.18-2-1.75.49-.61.95-1.21,1.41-1.74Z"/><path class="cls-143" d="M363.62,214.09c-1.26-2-3.13-4.85-5.13-7.93h0c-3.18.54-6.37.93-9.58,1.15l-1.86-3.72,9.51-.41h0l-.15-.22-1.9-3-1.45-2.23-.51-.8-.5-.77-.31-.48-.36-.55c-2.52.4-5.1.75-7.73,1H303.3L351.59,166l27.24-16.75c15.11-9.3,35.91-29.22,27-49.08-8.18-18.26-33.75-20.78-50.9-18.09-32.24,4.59-66,30.19-66.48,53.41v1a23.13,23.13,0,0,0,3.42,12.35A26.39,26.39,0,0,0,299,157l20-11.81,28.87-17,3.21,3.44,16.24-22.3-31,6.54,2.7,2.91L308.57,136.4l-.36.21a15.42,15.42,0,0,1-2.16-8.81l1.2-6c4.88-14.11,24.67-27.21,44.24-30C370,89.11,385.74,96,386.37,109.06c.79,16.29-15.94,25.47-27.57,32.88-15.15,9.63-31.69,16.85-46.84,26.49-9,5.7-18.31,12.45-23.85,21.72-4.84,8.11-6.78,25.2,6.59,25.22h59.71c3.07-.16,6.13-.43,9.17-.79h.34A3.37,3.37,0,0,0,363.62,214.09Z"/><polygon class="cls-35" points="270.61 107.45 270.69 107.55 270.69 107.55 270.61 107.45"/><path class="cls-144" d="M79.4,143.8A16.83,16.83,0,0,0,78,145.47c.7.58,1.34,1.14,2.06,1.83a9.6,9.6,0,0,0,1.33-1.62A15.86,15.86,0,0,0,79.4,143.8Zm3.39-.23a16.83,16.83,0,0,0-1.39,1.67c.71.58,1.34,1.14,2.06,1.83a9.7,9.7,0,0,0,1.34-1.62A17.47,17.47,0,0,0,82.79,143.57Z"/><path class="cls-145" d="M94.22,122.51c-.48.55-1,1.16-1.43,1.8.71.59,1.39,1.16,2.08,1.81a7,7,0,0,0,1.46-1.73A16.47,16.47,0,0,0,94.22,122.51Z"/><path class="cls-146" d="M112.23,126.94a3.92,3.92,0,0,0-2.61-1,6.5,6.5,0,0,0-3.31,1.05,24.43,24.43,0,0,0-3.87,3.29h-.07a8.63,8.63,0,0,0,.62-3.51c0-1.9-.07-3.8-.16-5.7l1.14-.9a7.85,7.85,0,0,1-1.49-3.85l-.12-.12c-.88.67-1.38,1.23-1.38,2,0,.55.06,1.18.11,1.72.19,2,.44,5.68.44,8.07a13.85,13.85,0,0,1-.26,3.5l-1,1.6H98.38a3.33,3.33,0,0,1-2.18-.7,1.77,1.77,0,0,1-.58-1.46,9.25,9.25,0,0,1,.39-2l-.11-.12-1.21.88-.51,1.89c-.26,1-1.67,1.55-3,1.55H84.57l-1.22,2,.11.25c2.79,0,4.71.76,5.11,1.6A4,4,0,0,1,87,138.19a12.94,12.94,0,0,1-5.6,1.52,5.81,5.81,0,0,1-4.26-1.66,5.5,5.5,0,0,1-1.4-3.83,11.85,11.85,0,0,1,1.07-4.41l-.67-.3a12.71,12.71,0,0,0-1.65,5.8A7.16,7.16,0,0,0,76,140.22a6.23,6.23,0,0,0,4.83,1.89A13.26,13.26,0,0,0,89,138.84a6.33,6.33,0,0,0,.79-2.19,10.27,10.27,0,0,0-.07-1.27h1.36a3.76,3.76,0,0,0,3.49-1.79h.07c.6,1.32,1.9,1.79,3.63,1.79h4.35c3.49,0,9.62-.42,10.5-3.46a10.25,10.25,0,0,0,.4-1.87A4.18,4.18,0,0,0,112.23,126.94Zm-1,4.87c-1.86.93-4.29,1.32-8.1,1.32h-1.55c2.53-3,5.06-4.83,7.33-4.83,1.92,0,3.36,1.46,3.37,2.7A2.67,2.67,0,0,1,111.18,131.81Z"/><path class="cls-147" d="M132,121.41a8,8,0,0,1-1.43-4l-.12-.09a8.84,8.84,0,0,0-1,1,1.78,1.78,0,0,0-.52,1.18c0,.65.1,1.39.17,2.19.28,3.24.48,6.32.51,9.13a2,2,0,0,1-.93,1.9,4,4,0,0,1-2,.47h-2c-.49-3.6-2.16-5.87-3.78-5.87a3.41,3.41,0,0,0-2.71,1.69,4.74,4.74,0,0,0-.89,2.83c0,2.46,1.83,3.6,5.41,3.6h.86a5.6,5.6,0,0,1-1.65,2.46,6.85,6.85,0,0,1-4.89,2.43,5.34,5.34,0,0,1-2.58-.64l-.3.59a10.31,10.31,0,0,0,5.06,1.77,6.24,6.24,0,0,0,4.24-3,8.13,8.13,0,0,0,1.34-3.6h1.72a5,5,0,0,0,2.2-.53,3.58,3.58,0,0,0,1.6-2,10.39,10.39,0,0,0,.7-4.41c0-2-.16-4.08-.23-6.1A10.78,10.78,0,0,0,132,121.41Zm-11.57,11.46c-1.09-.32-1.91-.85-1.91-1.74,0-.71,1-1.55,2-1.55a2.59,2.59,0,0,1,1.87,1,5.61,5.61,0,0,1,1.23,2.57A12.35,12.35,0,0,1,120.46,132.87Z"/><path class="cls-148" d="M135.07,135.68a24.05,24.05,0,0,0,.19-3.52v-1.72c0-3.22-.35-7.89-.63-10.94a16.25,16.25,0,0,1,1.72-1.86l.16,0c.37,3.84.46,8.28.46,12.38a27,27,0,0,1-.13,2.9,4.52,4.52,0,0,1-1.54,2.83Z"/><path class="cls-149" d="M155.69,131.84l-.86,1.75a15.59,15.59,0,0,0-6.33,2l-.18-.17.8-1.29a2.92,2.92,0,0,1,1-.7v-.09c-1.11-.38-1.94-1.05-1.94-2.11a3.48,3.48,0,0,1,1.18-2.4,4.83,4.83,0,0,1,3-1.32,1.53,1.53,0,0,1,1.7,1.37,2.18,2.18,0,0,1-.81,1.63h-.1a4.48,4.48,0,0,0-.51-1,1.11,1.11,0,0,0-.94-.42,3.11,3.11,0,0,0-1.51.49c-.28.18-.49.4-.49.61a1.37,1.37,0,0,0,.67,1.11,4.19,4.19,0,0,0,2.27.71,18.31,18.31,0,0,0,3-.29Z"/><path class="cls-150" d="M166.59,122.51c-.48.55-1,1.16-1.42,1.8.7.59,1.38,1.16,2.07,1.81a7,7,0,0,0,1.46-1.73A16.47,16.47,0,0,0,166.59,122.51Z"/><path class="cls-151" d="M174.69,138.7c-.47.55-.95,1.16-1.42,1.8.7.59,1.39,1.16,2.07,1.81a6.83,6.83,0,0,0,1.46-1.73A15.82,15.82,0,0,0,174.69,138.7Z"/><path class="cls-152" d="M183.53,122.3c.08,2,.23,4.15.23,6.1a10.39,10.39,0,0,1-.7,4.41,3.54,3.54,0,0,1-1.6,2,4.94,4.94,0,0,1-2.2.53h-.66c-1.73,0-3-.47-3.63-1.79h-.07a3.76,3.76,0,0,1-3.49,1.79h-.74c-1.73,0-3-.47-3.62-1.79H167a3.78,3.78,0,0,1-3.5,1.79H163a3.9,3.9,0,0,1-3-1c-1.07-1.09-1.08-2.34-1.08-4.92,0-3.34-.2-6.84-.46-10.57a15.57,15.57,0,0,1,1.65-1.63l.12.07c.28,3.85.28,8.4.28,12.72v1a1.85,1.85,0,0,0,1.32,1.88,3.5,3.5,0,0,0,1.13.19h.63c1.35,0,2.76-.54,3-1.55l.51-1.89,1.22-.88.1.12a9.71,9.71,0,0,0-.38,2,1.74,1.74,0,0,0,.58,1.46,3.29,3.29,0,0,0,2.18.7h.7c1.35,0,2.76-.54,3-1.55l.51-1.89,1.21-.88.11.12a9.25,9.25,0,0,0-.39,2,1.77,1.77,0,0,0,.58,1.46,3.33,3.33,0,0,0,2.18.7h.71a4,4,0,0,0,2-.47,2,2,0,0,0,.93-1.9c0-2.81-.23-5.89-.51-9.13-.07-.8-.18-1.54-.18-2.19a1.8,1.8,0,0,1,.53-1.18,8,8,0,0,1,1-1l.12.09a7.94,7.94,0,0,0,1.42,4A9,9,0,0,1,183.53,122.3Z"/><path class="cls-153" d="M187.68,135.68a22.73,22.73,0,0,0,.2-3.52v-1.72c0-3.22-.36-7.89-.64-10.94a15.46,15.46,0,0,1,1.73-1.86l.15,0c.37,3.84.46,8.28.46,12.38a27.3,27.3,0,0,1-.12,2.9,4.6,4.6,0,0,1-1.55,2.83Z"/><path class="cls-154" d="M207.51,116.77a13.79,13.79,0,0,0-1.38,1.67c.7.58,1.33,1.14,2.05,1.82a9.13,9.13,0,0,0,1.34-1.61A16.63,16.63,0,0,0,207.51,116.77Zm-3.39.22a16.83,16.83,0,0,0-1.39,1.67c.71.58,1.34,1.15,2.06,1.83a9.59,9.59,0,0,0,1.34-1.61A17.59,17.59,0,0,0,204.12,117Z"/><path class="cls-155" d="M218,119.49c1-.33,1.94-.63,2.83-.86.48-.72.93-1.44,1.32-2.16l-.12-.14a76.35,76.35,0,0,0-9.46,3.51,3.16,3.16,0,0,0-1.32,1.07,2.38,2.38,0,0,0-.4,1.13,1.93,1.93,0,0,0,.63,1.62,28.39,28.39,0,0,1,5.29,5,5.14,5.14,0,0,1,1.22,2.64c0,.21-.34.56-1,.95a9.14,9.14,0,0,1-4.69.91h-1.53a2.8,2.8,0,0,1-1.85-.46c-.53-.45-.65-1.24-.67-2.47,0-2.73,0-5.47-.1-8.2H208a17.47,17.47,0,0,0-1.39,1.45l.11,1.31c-3,1.67-4.87,3.27-5.61,4.84a5.28,5.28,0,0,0-.58,2.05c0,1.41,1.36,2.06,3.2,2.06a8.38,8.38,0,0,0,3.48-.77c.67,2,1.92,2.44,3.64,2.44H212c3.27,0,5-.65,6.14-1.63a5.34,5.34,0,0,0,1.12-3.64c0-1.85-1.81-4.08-4.52-6.28l.43-.88-2.87-1.1v-.06C214.26,120.91,216.18,120.14,218,119.49Zm-13.69,12.06c-1.2,0-2.25-.3-2.25-1,0-.93,1.63-2.23,4.76-3.84l.09,4.34A8.54,8.54,0,0,1,204.35,131.55Z"/><path class="cls-156" d="M245.27,128.61l-.93,1.85a5.39,5.39,0,0,0-3,.65L238.36,133a13.78,13.78,0,0,1-7.61,2.35h-1.28a2.49,2.49,0,0,1-1.78-.56h-.07c0,.21,0,.42,0,.61a6,6,0,0,1-.7,2.73c-1.39,2.44-2.91,3.5-4.21,3.5a10.3,10.3,0,0,1-4.39-1.37l.26-.6a4.64,4.64,0,0,0,2,.38c2.36,0,5.45-2.67,5.84-5.27A4.24,4.24,0,0,0,226,134a16.56,16.56,0,0,1-1.53-2.62c.35-.81.66-1.46,1-2l.13,0c1,2.41,1.91,3.8,4,3.8h1.39c2.85,0,5.77-1,9.39-3.18v-.07a16.37,16.37,0,0,0-5.52-1.23,2.79,2.79,0,0,0-2.23.88l.21.88-.52,1.58h-.18l-.86-2.32c.14-1.95,1.7-3.17,3.81-3.17a17.14,17.14,0,0,1,5.77,1.53,8.61,8.61,0,0,0,3,.57l1.43,0Z"/></g></g></svg>