<svg id="Layer_1" data-name="Layer 1" xmlns="http://www.w3.org/2000/svg" viewBox="0 0 245.29 215.54"><defs><style>.cls-1{fill:#fff;}</style></defs><g id="Layer_2" data-name="Layer 2"><g id="Layer_1-2" data-name="Layer 1-2"><path class="cls-1" d="M147.85,24.25,165.15.19A128.69,128.69,0,0,0,143.92.8L130.16,23.52A97.75,97.75,0,0,1,147.85,24.25Z" transform="translate(0 0)"/><path class="cls-1" d="M168.26,29.58,191.12,4.79A104,104,0,0,0,170.75.64l-19.08,24.2A83.17,83.17,0,0,1,168.26,29.58Z" transform="translate(0 0)"/><path class="cls-1" d="M163.78,39.81a79.5,79.5,0,0,0-8.18-3.63,72.67,72.67,0,0,0-8.43-2.6l-15.78,19.5L145,59.21Z" transform="translate(0 0)"/><path class="cls-1" d="M98.55,35.14c-1.44.39-2.87.81-4.31,1.26a131.6,131.6,0,0,0-12.73,4.76L77.75,56l14.88-4.34Z" transform="translate(0 0)"/><path class="cls-1" d="M62.18,63.27l13.45-6.44,2.8-14.3A146.44,146.44,0,0,0,63.35,50.6Z" transform="translate(0 0)"/><path class="cls-1" d="M48.83,71.9l11.71-7.7L61,52.1a149.92,149.92,0,0,0-12.89,9.2Z" transform="translate(0 0)"/><path class="cls-1" d="M25.57,83.77l3,6.9,8.3-8.74-2.54-8.19A128.33,128.33,0,0,0,25.57,83.77Z" transform="translate(0 0)"/><path class="cls-1" d="M197.47,96.08l-23.59,8.53-.32,15.19,22-5.79A85.06,85.06,0,0,0,197.47,96.08Z" transform="translate(0 0)"/><path class="cls-1" d="M176.37,154.71h0a112.44,112.44,0,0,0,9.76-15.19l-17.95.84L161,154.22l15.36.54Z" transform="translate(0 0)"/><path class="cls-1" d="M171.17,189.39l-.51-.18-.34-.13h-.1L156,183.86h0l-1.55-.57q-7.17,4.5-13.85,8l15.63,7.29c5.19-2.69,10.46-5.83,15.5-9l-.44-.15Z" transform="translate(0 0)"/><path class="cls-1" d="M186.16,39.87l28.23-24.12a91.24,91.24,0,0,0-17.91-9.12L171.86,31.15Z" transform="translate(0 0)"/><path class="cls-1" d="M31.34,72.19,28.5,63.93c-3,3.55-5.71,7.14-8.32,10.91l3.18,6.94Z" transform="translate(0 0)"/><path class="cls-1" d="M41.64,62c-.8.72-1.6,1.44-2.38,2.18.78-.74,1.58-1.46,2.38-2.18h0l.11-.1L39.87,51.67q-5.38,5.27-10.21,10.88l2.5,8.75Z" transform="translate(0 0)"/><path class="cls-1" d="M90.52,16.49a189.12,189.12,0,0,0-16.81,9.09L71.27,41l15-7.2Z" transform="translate(0 0)"/><path class="cls-1" d="M126.45,23.74,138.61,1.49A157.77,157.77,0,0,0,118,6l-9.14,20.48Z" transform="translate(0 0)"/><path class="cls-1" d="M243.78,61.44,209.57,77.08l1.71,16.86,33.88-12.41A80.57,80.57,0,0,0,243.78,61.44Z" transform="translate(0 0)"/><path class="cls-1" d="M2.34,113.82c-.21.87-.39,1.75-.57,2.61-.14.7-.28,1.39-.4,2.09-.17.94-.33,1.88-.46,2.83l2.54,2.3c.2-.89.39-1.78.62-2.68h0c.08-.34.16-.68.25-1s.17-.64.26-1h0c.22-.84.46-1.67.71-2.49Z" transform="translate(0 0)"/><path class="cls-1" d="M7.05,111.23c.21-.61.44-1.22.68-1.84.34-.86.69-1.73,1-2.6L5.3,103.63c-.32.91-.62,1.82-.91,2.73-.21.64-.4,1.28-.59,1.92-.35,1.18-.67,2.35-1,3.53l3.06,2.78C6.25,113.47,6.64,112.35,7.05,111.23Z" transform="translate(0 0)"/><path class="cls-1" d="M22.86,82.45,19.42,76a128.87,128.87,0,0,0-9,15.52l4.1,3.73A118.48,118.48,0,0,1,22.86,82.45Z" transform="translate(0 0)"/><path class="cls-1" d="M11.41,101c.27-.56.56-1.12.84-1.68.43-.84.88-1.69,1.34-2.52l-4-3.64c-.41.87-.82,1.76-1.21,2.64l-.75,1.76C7,99,6.48,100.37,6,101.78L9.54,105C10.13,103.68,10.76,102.36,11.41,101Z" transform="translate(0 0)"/><path class="cls-1" d="M.4,125.52c-.07.75-.14,1.51-.19,2.27s-.11,1.58-.13,2.37l1.8,1.64.43-2.1.2-.94c.06-.39.12-.78.19-1.16.1-.62.21-1.25.33-1.87L.62,123.54C.54,124.2.47,124.86.4,125.52Z" transform="translate(0 0)"/><path class="cls-1" d="M208.56,73.24,242.47,56a74.29,74.29,0,0,0-7.59-17.84l-32.9,20Z" transform="translate(0 0)"/><path class="cls-1" d="M199.87,54.8l32-21.38c-3.54-5-7.72-10.3-12.86-14.43L189.2,42.35Z" transform="translate(0 0)"/><path class="cls-1" d="M105.54,27.28l7.8-19.86a174.69,174.69,0,0,0-19,7.3L89,32.67Z" transform="translate(0 0)"/><path class="cls-1" d="M70.69,27.44c-5,3.14-9.86,6.52-14.53,10.12l-.22,13,13.14-8.37Z" transform="translate(0 0)"/><path class="cls-1" d="M54.27,51.76l-.42-12.4c-4.26,3.38-8.37,7-12.29,10.69l1.38,10.77Z" transform="translate(0 0)"/><path class="cls-1" d="M208,115.35l32-7.43a103.25,103.25,0,0,0,4.71-20.62L211.1,98Z" transform="translate(0 0)"/><path class="cls-1" d="M206.76,119.2l-7.23,16.65,28.79-3q3.41-5.7,6.25-11.65h0c1.17-2.44,2.4-5.33,3.48-7.85Z" transform="translate(0 0)"/><path class="cls-1" d="M1.32,148.14c.3,1.79.71,3.56,1.15,5.33-.26-1.77-.49-3.53-.63-5.31Z" transform="translate(0 0)"/><path class="cls-1" d="M6.09,148.62a53.15,53.15,0,0,0,1.57,5.55,51.19,51.19,0,0,1-.9-5.52Z" transform="translate(0 0)"/><path class="cls-1" d="M1.58,139.22a13.33,13.33,0,0,1,.07-1.67c0-.78.07-1.55.14-2.33a4.86,4.86,0,0,1,.07-1L0,132.55V136H0a15.22,15.22,0,0,0,.07,1.79h0Z" transform="translate(0 0)"/><path class="cls-1" d="M1.55,141.64.29,140.49h0c.19,2.28.48,4.56.89,6.83h.61C1.63,145.42,1.56,143.52,1.55,141.64Z" transform="translate(0 0)"/><path class="cls-1" d="M6.64,146.26l-.07-2.51V142L5,140.6H4.9q.06.9.15,1.8c.1.93.22,1.86.37,2.78h0c.15.92.32,1.83.52,2.74h.74Z" transform="translate(0 0)"/><path class="cls-1" d="M16.58,97.09l-.94,1.6-1.44,2.44,4.06,3.68c.55-.89,1.1-1.77,1.68-2.66.28-.41.55-.84.83-1.25.72-1.07,1.47-2.12,2.23-3.17L19.56,92Z" transform="translate(0 0)"/><polygon class="cls-1" points="10.67 107.59 10.56 107.49 10.67 107.59 10.67 107.59"/><path class="cls-1" d="M11.45,106.75c-.27.59-.52,1.17-.77,1.76-.35.84-.68,1.68-1,2.52v.1l3.54,3.21c.38-.83.77-1.66,1.18-2.49.28-.56.57-1.11.86-1.67.67-1.26,1.36-2.53,2.1-3.77l-4-3.63C12.66,104.09,12,105.42,11.45,106.75Z" transform="translate(0 0)"/><path class="cls-1" d="M5.62,125.63c-.12.71-.23,1.44-.32,2.16h0c-.09.65-.16,1.3-.23,2L7.48,132c.12-.62.24-1.23.37-1.84h0c.15-.68.3-1.35.47-2,.21-.86.44-1.73.69-2.6H9L6.15,123C6,123.82,5.78,124.7,5.62,125.63Z" transform="translate(0 0)"/><path class="cls-1" d="M7.83,116.36c-.2.64-.39,1.29-.56,1.94-.24.84-.46,1.69-.65,2.53h0l3,2.7c.25-.8.52-1.59.81-2.39.21-.62.44-1.23.67-1.84.41-1.08.85-2.15,1.32-3.22L9,113C8.55,114.09,8.18,115.23,7.83,116.36Z" transform="translate(0 0)"/><path class="cls-1" d="M143,32.65a86.68,86.68,0,0,0-15.91-1.5h-2.3L113.52,49.91l15.14,2.36Z" transform="translate(0 0)"/><path class="cls-1" d="M6.63,138.56a19,19,0,0,1,.21-2.26c.09-.75.18-1.48.29-2.23l-2.26-2c0,.79-.1,1.58-.12,2.38s0,1.62,0,2.43h0V138l1.82,1.64C6.58,139.22,6.6,138.89,6.63,138.56Z" transform="translate(0 0)"/><path class="cls-1" d="M120.58,31.35a107.55,107.55,0,0,0-18.28,2.81l-7.13,17,15.57-1.33Z" transform="translate(0 0)"/><path class="cls-1" d="M24.76,84.79q-1.28,1.65-2.49,3.33c-.8,1.11-1.58,2.24-2.34,3.37L23.55,97l4.55-5.73Z" transform="translate(0 0)"/><path class="cls-1" d="M161,72.15l7.84,12.36L193,70.25a40.24,40.24,0,0,0-8.7-14.73Z" transform="translate(0 0)"/><path class="cls-1" d="M181.35,52.38a75.62,75.62,0,0,0-13.8-10.46L147.49,60.73,158.92,70Z" transform="translate(0 0)"/><path class="cls-1" d="M37.69,81.18l10-8.4L46.33,62.72q-5.61,4.64-10.76,9.78Z" transform="translate(0 0)"/><path class="cls-1" d="M197.34,91.72a77.7,77.7,0,0,0-3-17.31L170,87.24l3.61,14.42Z" transform="translate(0 0)"/><path class="cls-1" d="M194.55,118.22l-21.41,4.49-3.94,15,19-2.17A97.13,97.13,0,0,0,194.55,118.22Z" transform="translate(0 0)"/><path class="cls-1" d="M174,157.73l-14.51-1.28a82.72,82.72,0,0,1-10.1,12c.43.06,11.83,2.26,12.26,2.33C165.78,166.52,170,162.49,174,157.73Z" transform="translate(0 0)"/><path class="cls-1" d="M197.67,139.19l-10.15,15,23.95.65h.95a177.29,177.29,0,0,0,13-17.25s-5.85.34-5.88.32Z" transform="translate(0 0)"/><path class="cls-1" d="M135.47,206.92l-.31-.23-.7-.53-.16-.11-.84-.65-.44-.33-2-1.53-5-3.75h0l-1.47-1.1q-3.5,1.4-6.81,2.52c-1.26.44-2.51.84-3.72,1.22l3.72,4.65,3.59,4.5q7.39-1.8,14.61-4.3l-.27-.2Z" transform="translate(0 0)"/><path class="cls-1" d="M125.85,198.17c.28.05,12.21,8.42,12.56,8.24A145.64,145.64,0,0,0,153.54,200l-14.45-7.9Q132.19,195.6,125.85,198.17Z" transform="translate(0 0)"/><path class="cls-1" d="M156.71,181.88l4.7,1.47-3.25-1h0l16.66,5.14-4.33-1.35,4.33,1.35c5.29-3.52,10.59-7.54,15.64-11.59l-19.3-4.11Q163.7,177.4,156.71,181.88Z" transform="translate(0 0)"/><path class="cls-1" d="M173.33,169.76l20.45,3.32c5.26-4.47,10.45-9.42,15.35-14.4l-23.8-1.77Z" transform="translate(0 0)"/><path class="cls-1" d="M98.23,194c-1.56.34-3.14.64-4.75.92h0l.88,1.38L98.62,203h0a118.64,118.64,0,0,0,11.74-2.75c-2.28-2.87-4.3-5.6-6-7.63Q101.35,193.32,98.23,194Z" transform="translate(0 0)"/><path class="cls-1" d="M143.46,185l-9.81-4.27c-2,1.18-4,2.27-6.06,3.3q-2.82,1.41-5.82,2.63h-.06l-1.65.7,1,.54,1.43.79c2.44,1.38,5.52,3.18,7.15,4.14A123.63,123.63,0,0,0,143.46,185Z" transform="translate(0 0)"/><path class="cls-1" d="M117.74,197.8q5.07-1.8,10-4.1c-1.6-1-7.39-4.75-9.07-5.81l-1,.38a118.4,118.4,0,0,1-11.92,3.88c1.85,2.31,4.32,5.41,6,7.59C113.84,199.14,115.8,198.5,117.74,197.8Z" transform="translate(0 0)"/><path class="cls-1" d="M159.05,173l-11.39-2.84a83.2,83.2,0,0,1-12.31,9.49l10.53,3.69A139.6,139.6,0,0,0,159.05,173Z" transform="translate(0 0)"/><path class="cls-1" d="M112.47,202.9a120.55,120.55,0,0,1-12,2.92h0c2.07,3.24,4,6.2,5.15,8,.12.19.23.37.34.53a.43.43,0,0,1-.16,0v.06H106c.92-.12,1.83-.25,2.73-.4l2.31-.37,2.24-.39h.07l1.45-.28c1-.18,2-.39,2.92-.59l1.68-.39h.07c-.57-.73-1.15-1.49-1.75-2.28Z" transform="translate(0 0)"/><path class="cls-1" d="M90.29,193.59a.51.51,0,0,0-.09-.16h0Z" transform="translate(0 0)"/><path class="cls-1" d="M103.58,214.13c-1.26-2-3.13-4.86-5.13-7.94h0a90.55,90.55,0,0,1-9.57,1.16L87,203.62l9.51-.4h0l-.15-.22-1.9-2.95L93,197.81c-.17-.27-.35-.53-.51-.8l-.5-.76-.31-.48-.36-.56c-2.52.41-5.1.75-7.74,1H43.26l48.28-30.12,27.25-16.76c15.11-9.29,35.91-29.22,27-49.08-8.17-18.25-33.74-20.73-50.89-18-32.24,4.59-66,30.18-66.48,53.4v1A23.31,23.31,0,0,0,31.81,149a26.73,26.73,0,0,0,7.13,8.17L59,145.36l28.87-17,3.2,3.45,16.25-22.3-31,6.54L79,119,48.6,136.52l-.36.21a15.51,15.51,0,0,1-2.16-8.82l1.2-6C52.16,107.8,72,94.7,91.52,91.92c18.54-2.7,34.25,4.22,34.88,17.26.79,16.29-15.94,25.47-27.57,32.87C83.68,151.68,67.14,158.9,52,168.55c-9,5.7-18.31,12.44-23.85,21.71-4.85,8.11-6.78,25.2,6.59,25.22q29.11.06,58.21.06h1.5c3.07-.17,6.12-.43,9.17-.79H104C103.84,214.52,103.71,214.33,103.58,214.13Z" transform="translate(0 0)"/><polygon class="cls-1" points="45.05 106.15 45.16 106.25 45.16 106.25 45.05 106.15"/></g></g></svg>