<svg xmlns="http://www.w3.org/2000/svg" xmlns:xlink="http://www.w3.org/1999/xlink" viewBox="0 0 245.28 215.54"><defs><style>.cls-1{fill:url(#linear-gradient);}.cls-2{fill:url(#linear-gradient-2);}.cls-3{fill:url(#linear-gradient-3);}.cls-4{fill:url(#linear-gradient-4);}.cls-5{fill:url(#linear-gradient-5);}.cls-6{fill:url(#linear-gradient-6);}.cls-7{fill:url(#linear-gradient-7);}.cls-8{fill:url(#linear-gradient-8);}.cls-9{fill:url(#linear-gradient-9);}.cls-10{fill:url(#linear-gradient-10);}.cls-11{fill:url(#linear-gradient-11);}.cls-12{fill:url(#linear-gradient-12);}.cls-13{fill:url(#linear-gradient-13);}.cls-14{fill:url(#linear-gradient-14);}.cls-15{fill:url(#linear-gradient-15);}.cls-16{fill:url(#linear-gradient-16);}.cls-17{fill:url(#linear-gradient-17);}.cls-18{fill:url(#linear-gradient-18);}.cls-19{fill:url(#linear-gradient-19);}.cls-20{fill:url(#linear-gradient-20);}.cls-21{fill:url(#linear-gradient-21);}.cls-22{fill:url(#linear-gradient-22);}.cls-23{fill:url(#linear-gradient-23);}.cls-24{fill:url(#linear-gradient-24);}.cls-25{fill:url(#linear-gradient-25);}.cls-26{fill:url(#linear-gradient-26);}.cls-27{fill:url(#linear-gradient-27);}.cls-28{fill:url(#linear-gradient-28);}.cls-29{fill:url(#linear-gradient-29);}.cls-30{fill:url(#linear-gradient-30);}.cls-31{fill:url(#linear-gradient-31);}.cls-32{fill:url(#linear-gradient-32);}.cls-33{fill:url(#linear-gradient-33);}.cls-34{fill:url(#linear-gradient-34);}.cls-35{fill:url(#linear-gradient-35);}.cls-36{fill:url(#linear-gradient-36);}.cls-37{fill:url(#linear-gradient-37);}.cls-38{fill:url(#linear-gradient-38);}.cls-39{fill:url(#linear-gradient-39);}.cls-40{fill:url(#linear-gradient-40);}.cls-41{fill:url(#linear-gradient-41);}.cls-42{fill:url(#linear-gradient-42);}.cls-43{fill:url(#linear-gradient-43);}.cls-44{fill:url(#linear-gradient-44);}.cls-45{fill:url(#linear-gradient-45);}.cls-46{fill:url(#linear-gradient-46);}.cls-47{fill:url(#linear-gradient-47);}.cls-48{fill:url(#linear-gradient-48);}.cls-49{fill:url(#linear-gradient-49);}.cls-50{fill:url(#linear-gradient-50);}.cls-51{fill:url(#linear-gradient-51);}.cls-52{fill:url(#linear-gradient-52);}.cls-53{fill:url(#linear-gradient-53);}.cls-54{fill:url(#linear-gradient-54);}.cls-55{fill:url(#linear-gradient-55);}.cls-56{fill:url(#linear-gradient-56);}.cls-57{fill:url(#linear-gradient-57);}.cls-58{fill:url(#linear-gradient-58);}.cls-59{fill:url(#linear-gradient-59);}.cls-60{fill:url(#linear-gradient-60);}.cls-61{fill:url(#linear-gradient-61);}</style><linearGradient id="linear-gradient" x1="48.12" y1="266.92" x2="160.48" y2="-21.01" gradientUnits="userSpaceOnUse"><stop offset="0.12" stop-color="#25c17b"/><stop offset="0.18" stop-color="#28b288"/><stop offset="0.34" stop-color="#2e90a4"/><stop offset="0.49" stop-color="#3476ba"/><stop offset="0.65" stop-color="#3764ca"/><stop offset="0.82" stop-color="#3959d3"/><stop offset="1" stop-color="#3a55d6"/></linearGradient><linearGradient id="linear-gradient-2" x1="69.72" y1="275.35" x2="182.09" y2="-12.58" xlink:href="#linear-gradient"/><linearGradient id="linear-gradient-3" x1="59.77" y1="271.47" x2="172.13" y2="-16.47" xlink:href="#linear-gradient"/><linearGradient id="linear-gradient-4" x1="7.24" y1="250.97" x2="119.61" y2="-36.97" xlink:href="#linear-gradient"/><linearGradient id="linear-gradient-5" x1="-5.54" y1="245.98" x2="106.83" y2="-41.95" xlink:href="#linear-gradient"/><linearGradient id="linear-gradient-6" x1="-15.65" y1="242.03" x2="96.71" y2="-45.9" xlink:href="#linear-gradient"/><linearGradient id="linear-gradient-7" x1="-28.87" y1="236.87" x2="83.49" y2="-51.06" xlink:href="#linear-gradient"/><linearGradient id="linear-gradient-8" x1="113.29" y1="292.35" x2="225.65" y2="4.42" xlink:href="#linear-gradient"/><linearGradient id="linear-gradient-9" x1="116.31" y1="293.53" x2="228.68" y2="5.6" xlink:href="#linear-gradient"/><linearGradient id="linear-gradient-10" x1="115.97" y1="293.4" x2="228.34" y2="5.47" xlink:href="#linear-gradient"/><linearGradient id="linear-gradient-11" x1="91.5" y1="283.85" x2="203.87" y2="-4.08" xlink:href="#linear-gradient"/><linearGradient id="linear-gradient-12" x1="-36.78" y1="233.79" x2="75.58" y2="-54.15" xlink:href="#linear-gradient"/><linearGradient id="linear-gradient-13" x1="-31.98" y1="235.66" x2="80.39" y2="-52.27" xlink:href="#linear-gradient"/><linearGradient id="linear-gradient-14" x1="-4.58" y1="246.35" x2="107.78" y2="-41.58" xlink:href="#linear-gradient"/><linearGradient id="linear-gradient-15" x1="28.08" y1="259.1" x2="140.44" y2="-28.83" xlink:href="#linear-gradient"/><linearGradient id="linear-gradient-16" x1="140.13" y1="302.83" x2="252.5" y2="14.9" xlink:href="#linear-gradient"/><linearGradient id="linear-gradient-17" x1="-41.31" y1="232.02" x2="71.05" y2="-55.91" xlink:href="#linear-gradient"/><linearGradient id="linear-gradient-18" x1="-42.23" y1="231.66" x2="70.13" y2="-56.27" xlink:href="#linear-gradient"/><linearGradient id="linear-gradient-19" x1="-40.16" y1="232.47" x2="72.21" y2="-55.46" xlink:href="#linear-gradient"/><linearGradient id="linear-gradient-20" x1="-41.93" y1="231.78" x2="70.43" y2="-56.15" xlink:href="#linear-gradient"/><linearGradient id="linear-gradient-21" x1="-39.71" y1="232.64" x2="72.65" y2="-55.29" xlink:href="#linear-gradient"/><linearGradient id="linear-gradient-22" x1="128.13" y1="298.15" x2="240.5" y2="10.21" xlink:href="#linear-gradient"/><linearGradient id="linear-gradient-23" x1="111.51" y1="291.66" x2="223.88" y2="3.73" xlink:href="#linear-gradient"/><linearGradient id="linear-gradient-24" x1="9.84" y1="251.98" x2="122.2" y2="-35.95" xlink:href="#linear-gradient"/><linearGradient id="linear-gradient-25" x1="-16.19" y1="241.83" x2="96.18" y2="-46.11" xlink:href="#linear-gradient"/><linearGradient id="linear-gradient-26" x1="-25.22" y1="238.3" x2="87.15" y2="-49.63" xlink:href="#linear-gradient"/><linearGradient id="linear-gradient-27" x1="146.54" y1="305.33" x2="258.91" y2="17.4" xlink:href="#linear-gradient"/><linearGradient id="linear-gradient-28" x1="148.04" y1="305.91" x2="260.41" y2="17.98" xlink:href="#linear-gradient"/><linearGradient id="linear-gradient-29" x1="-31.32" y1="235.92" x2="81.04" y2="-52.01" xlink:href="#linear-gradient"/><linearGradient id="linear-gradient-30" x1="-26.8" y1="237.68" x2="85.57" y2="-50.25" xlink:href="#linear-gradient"/><linearGradient id="linear-gradient-31" x1="-37.33" y1="233.58" x2="75.04" y2="-54.36" xlink:href="#linear-gradient"/><linearGradient id="linear-gradient-32" x1="-34.4" y1="234.72" x2="77.96" y2="-53.22" xlink:href="#linear-gradient"/><linearGradient id="linear-gradient-33" x1="-30.16" y1="236.37" x2="82.21" y2="-51.56" xlink:href="#linear-gradient"/><linearGradient id="linear-gradient-34" x1="-34.22" y1="234.79" x2="78.14" y2="-53.15" xlink:href="#linear-gradient"/><linearGradient id="linear-gradient-35" x1="-38.4" y1="233.15" x2="73.96" y2="-54.78" xlink:href="#linear-gradient"/><linearGradient id="linear-gradient-36" x1="-35.5" y1="234.29" x2="76.86" y2="-53.65" xlink:href="#linear-gradient"/><linearGradient id="linear-gradient-37" x1="-34.97" y1="234.5" x2="77.39" y2="-53.44" xlink:href="#linear-gradient"/><linearGradient id="linear-gradient-38" x1="-35.94" y1="234.12" x2="76.43" y2="-53.82" xlink:href="#linear-gradient"/><linearGradient id="linear-gradient-39" x1="41.24" y1="264.24" x2="153.61" y2="-23.7" xlink:href="#linear-gradient"/><linearGradient id="linear-gradient-40" x1="-33.09" y1="235.23" x2="79.28" y2="-52.7" xlink:href="#linear-gradient"/><linearGradient id="linear-gradient-41" x1="23.56" y1="257.33" x2="135.92" y2="-30.6" xlink:href="#linear-gradient"/><linearGradient id="linear-gradient-42" x1="-32.25" y1="235.56" x2="80.11" y2="-52.38" xlink:href="#linear-gradient"/><linearGradient id="linear-gradient-43" x1="93.68" y1="284.7" x2="206.05" y2="-3.23" xlink:href="#linear-gradient"/><linearGradient id="linear-gradient-44" x1="77.81" y1="278.5" x2="190.17" y2="-9.43" xlink:href="#linear-gradient"/><linearGradient id="linear-gradient-45" x1="-23.33" y1="239.04" x2="89.04" y2="-48.89" xlink:href="#linear-gradient"/><linearGradient id="linear-gradient-46" x1="105.65" y1="289.37" x2="218.01" y2="1.44" xlink:href="#linear-gradient"/><linearGradient id="linear-gradient-47" x1="116.59" y1="293.64" x2="228.96" y2="5.71" xlink:href="#linear-gradient"/><linearGradient id="linear-gradient-48" x1="111.53" y1="291.67" x2="223.89" y2="3.73" xlink:href="#linear-gradient"/><linearGradient id="linear-gradient-49" x1="144.55" y1="304.55" x2="256.92" y2="16.62" xlink:href="#linear-gradient"/><linearGradient id="linear-gradient-50" x1="93.8" y1="284.75" x2="206.17" y2="-3.18" xlink:href="#linear-gradient"/><linearGradient id="linear-gradient-51" x1="104.61" y1="288.97" x2="216.98" y2="1.03" xlink:href="#linear-gradient"/><linearGradient id="linear-gradient-52" x1="127.17" y1="297.77" x2="239.54" y2="9.84" xlink:href="#linear-gradient"/><linearGradient id="linear-gradient-53" x1="137.53" y1="301.81" x2="249.9" y2="13.88" xlink:href="#linear-gradient"/><linearGradient id="linear-gradient-54" x1="71.31" y1="275.97" x2="183.67" y2="-11.96" xlink:href="#linear-gradient"/><linearGradient id="linear-gradient-55" x1="93.35" y1="284.57" x2="205.71" y2="-3.36" xlink:href="#linear-gradient"/><linearGradient id="linear-gradient-56" x1="82.66" y1="280.4" x2="195.02" y2="-7.53" xlink:href="#linear-gradient"/><linearGradient id="linear-gradient-57" x1="103.42" y1="288.5" x2="215.79" y2="0.57" xlink:href="#linear-gradient"/><linearGradient id="linear-gradient-58" x1="82.15" y1="280.2" x2="194.52" y2="-7.73" xlink:href="#linear-gradient"/><linearGradient id="linear-gradient-59" x1="59.82" y1="271.48" x2="172.18" y2="-16.45" xlink:href="#linear-gradient"/><linearGradient id="linear-gradient-60" x1="34.17" y1="261.48" x2="146.53" y2="-26.46" xlink:href="#linear-gradient"/><linearGradient id="linear-gradient-61" x1="-3.91" y1="231.81" x2="108.45" y2="-56.12" xlink:href="#linear-gradient"/></defs><g id="Layer_2" data-name="Layer 2"><g id="Layer_1-2" data-name="Layer 1"><path class="cls-1" d="M147.85,24.25,165.15.19A128.22,128.22,0,0,0,143.92.8L130.16,23.52A98.09,98.09,0,0,1,147.85,24.25Z"/><path class="cls-2" d="M168.26,29.58,191.12,4.79A103.4,103.4,0,0,0,170.75.64l-19.08,24.2A82.88,82.88,0,0,1,168.26,29.58Z"/><path class="cls-3" d="M163.78,39.81a79,79,0,0,0-8.18-3.63,72.67,72.67,0,0,0-8.43-2.6l-15.78,19.5L145,59.21Z"/><path class="cls-4" d="M98.55,35.14c-1.44.39-2.87.81-4.31,1.26a130.94,130.94,0,0,0-12.73,4.76L77.75,56l14.88-4.34Z"/><path class="cls-5" d="M62.18,63.27l13.45-6.44,2.8-14.3A146.57,146.57,0,0,0,63.35,50.6Z"/><path class="cls-6" d="M48.83,71.9l11.71-7.7L61,52.1a149.62,149.62,0,0,0-12.89,9.2Z"/><path class="cls-7" d="M25.57,83.77l3,6.9,8.3-8.74-2.54-8.19A128.19,128.19,0,0,0,25.57,83.77Z"/><path class="cls-8" d="M197.47,96.08l-23.59,8.53-.32,15.19,22-5.79A85.27,85.27,0,0,0,197.47,96.08Z"/><path class="cls-9" d="M176.37,154.71l0,0,0,0h0a112.65,112.65,0,0,0,9.76-15.19l-17.95.84L161,154.22l15.36.54Z"/><path class="cls-10" d="M171.17,189.39l-.51-.18-.34-.13-.1,0h0L156,183.86l0,0-1.55-.57q-7.17,4.5-13.85,8l15.63,7.29c5.19-2.69,10.46-5.83,15.5-9l-.44-.15Z"/><path class="cls-11" d="M186.16,39.87l28.23-24.12a91.57,91.57,0,0,0-17.91-9.12L171.86,31.15Z"/><path class="cls-12" d="M31.34,72.19,28.5,63.93c-3,3.55-5.71,7.14-8.32,10.91l3.18,6.94Z"/><path class="cls-13" d="M41.64,62c-.8.72-1.6,1.44-2.38,2.18.78-.74,1.58-1.46,2.38-2.18h0l.11-.1L39.87,51.67c-3.59,3.51-7,7.14-10.21,10.88l2.5,8.75Z"/><path class="cls-14" d="M90.52,16.49a189.12,189.12,0,0,0-16.81,9.09L71.27,41l15-7.2Z"/><path class="cls-15" d="M126.45,23.74,138.61,1.49A157.8,157.8,0,0,0,118,6l-9.14,20.48Z"/><path class="cls-16" d="M243.78,61.44,209.57,77.08l1.71,16.86,33.88-12.41A80.88,80.88,0,0,0,243.78,61.44Z"/><path class="cls-17" d="M2.34,113.82c-.21.87-.39,1.75-.57,2.61-.14.7-.28,1.39-.4,2.09-.17.94-.33,1.88-.46,2.83l2.54,2.3c.2-.89.39-1.78.62-2.68h0c.08-.34.16-.68.25-1s.17-.64.26-1h0c.22-.84.46-1.67.71-2.49Z"/><path class="cls-18" d="M7.05,111.23c.21-.61.44-1.22.68-1.84.34-.86.69-1.73,1-2.6L5.3,103.63c-.32.91-.62,1.82-.91,2.73-.21.64-.4,1.28-.59,1.92-.35,1.18-.67,2.35-1,3.53l3.06,2.78C6.25,113.47,6.64,112.35,7.05,111.23Z"/><path class="cls-19" d="M22.86,82.45,19.42,76a129.23,129.23,0,0,0-9,15.52l4.1,3.73A119.36,119.36,0,0,1,22.86,82.45Z"/><path class="cls-20" d="M11.41,101c.27-.56.56-1.12.84-1.68.43-.84.88-1.69,1.34-2.52l-4-3.64c-.41.87-.82,1.76-1.21,2.64l-.75,1.76C7,99,6.48,100.37,6,101.78L9.54,105C10.13,103.68,10.76,102.36,11.41,101Z"/><path class="cls-21" d="M.4,125.52c-.07.75-.14,1.51-.19,2.27s-.11,1.58-.13,2.37l1.8,1.64.43-2.1.2-.94c.06-.39.12-.78.19-1.16.1-.62.21-1.25.33-1.87L.62,123.54C.54,124.2.47,124.86.4,125.52Z"/><path class="cls-22" d="M208.56,73.24,242.47,56a74.3,74.3,0,0,0-7.59-17.84l-32.9,20Z"/><path class="cls-23" d="M199.87,54.8l32-21.38c-3.54-5-7.72-10.3-12.86-14.43L189.2,42.35Z"/><path class="cls-24" d="M105.54,27.28l7.8-19.86a175.17,175.17,0,0,0-19,7.3L89,32.67Z"/><path class="cls-25" d="M70.69,27.44c-5,3.14-9.86,6.52-14.53,10.12l-.22,13,13.14-8.37Z"/><path class="cls-26" d="M54.27,51.76l-.42-12.4c-4.26,3.38-8.37,7-12.29,10.69l1.38,10.77Z"/><path class="cls-27" d="M208,115.35l32-7.43a103.73,103.73,0,0,0,4.71-20.62L211.1,98Z"/><path class="cls-28" d="M206.76,119.2l-7.23,16.65,28.79-3q3.41-5.7,6.25-11.65h0c1.17-2.44,2.4-5.33,3.48-7.85Z"/><path class="cls-29" d="M1.32,148.14c.3,1.79.71,3.56,1.15,5.33-.26-1.77-.49-3.53-.63-5.31Z"/><path class="cls-30" d="M6.09,148.62a53.48,53.48,0,0,0,1.57,5.55,51.19,51.19,0,0,1-.9-5.52Z"/><path class="cls-31" d="M1.58,139.22c0-.55,0-1.12.07-1.67,0-.78.07-1.55.14-2.33,0-.33,0-.66.07-1L0,132.55c0,.35,0,.7,0,1,0,.83,0,1.66,0,2.49H0c0,.6,0,1.2.07,1.79h0Z"/><path class="cls-32" d="M1.55,141.64.29,140.49h0q.28,3.42.89,6.83h.61C1.63,145.42,1.56,143.52,1.55,141.64Z"/><path class="cls-33" d="M6.64,146.26l-.07-2.51,0-1.77L5,140.6l-.1,0q.06.9.15,1.8c.1.93.22,1.86.37,2.78h0c.15.92.32,1.83.52,2.74l.74,0Z"/><path class="cls-34" d="M16.58,97.09l-.94,1.6-1.44,2.44,4.06,3.68c.55-.89,1.1-1.77,1.68-2.66.28-.41.55-.84.83-1.25.72-1.07,1.47-2.12,2.23-3.17L19.56,92Z"/><polygon class="cls-35" points="10.67 107.59 10.56 107.49 10.67 107.59 10.67 107.59"/><path class="cls-36" d="M11.45,106.75c-.27.59-.52,1.17-.77,1.76-.35.84-.68,1.68-1,2.52l0,.1,3.54,3.21c.38-.83.77-1.66,1.18-2.49.28-.56.57-1.11.86-1.67.67-1.26,1.36-2.53,2.1-3.77l-4-3.63C12.66,104.09,12,105.42,11.45,106.75Z"/><path class="cls-37" d="M5.62,125.63c-.12.71-.23,1.44-.32,2.16h0c-.09.65-.16,1.3-.23,2L7.48,132c.12-.62.24-1.23.37-1.84h0c.15-.68.3-1.35.47-2,.21-.86.44-1.73.69-2.6H9l-2.85-2.59Q5.86,124.24,5.62,125.63Z"/><path class="cls-38" d="M7.83,116.36c-.2.64-.39,1.29-.56,1.94-.24.84-.46,1.69-.65,2.53h0l3,2.7c.25-.8.52-1.59.81-2.39.21-.62.44-1.23.67-1.84.41-1.08.85-2.15,1.32-3.22L9,113C8.55,114.09,8.18,115.23,7.83,116.36Z"/><path class="cls-39" d="M143,32.65a86.6,86.6,0,0,0-15.91-1.5l-2.3,0L113.52,49.91l15.14,2.36Z"/><path class="cls-40" d="M6.63,138.56c0-.76.12-1.51.21-2.26s.18-1.48.29-2.23l-2.26-2c0,.79-.1,1.58-.12,2.38s0,1.62,0,2.43h0c0,.37,0,.71,0,1.08l1.82,1.64C6.58,139.22,6.6,138.89,6.63,138.56Z"/><path class="cls-41" d="M120.58,31.35a108,108,0,0,0-18.28,2.81l-7.13,17,15.57-1.33Z"/><path class="cls-42" d="M24.76,84.79q-1.28,1.65-2.49,3.33c-.8,1.11-1.58,2.24-2.34,3.37L23.55,97l4.55-5.73Z"/><path class="cls-43" d="M161,72.15l7.84,12.36L193,70.25a40.16,40.16,0,0,0-8.7-14.73Z"/><path class="cls-44" d="M181.35,52.38a75.43,75.43,0,0,0-13.8-10.46L147.49,60.73,158.92,70Z"/><path class="cls-45" d="M37.69,81.18l10-8.4L46.33,62.72C42.59,65.81,39,69.07,35.57,72.5l2.12,8.68Z"/><path class="cls-46" d="M197.34,91.72a77.75,77.75,0,0,0-3-17.31L170,87.24l3.61,14.42Z"/><path class="cls-47" d="M194.55,118.22l-21.41,4.49-3.94,15,19-2.17A97.58,97.58,0,0,0,194.55,118.22Z"/><path class="cls-48" d="M174,157.73l-14.51-1.28a83.51,83.51,0,0,1-10.1,12c.43.06,11.83,2.26,12.26,2.33C165.78,166.52,170,162.49,174,157.73Z"/><path class="cls-49" d="M197.67,139.19l-10.15,15,23.95.65.95,0a179.13,179.13,0,0,0,13-17.25s-5.85.34-5.88.32Z"/><path class="cls-50" d="M135.47,206.92l-.31-.23-.7-.53-.16-.11-.84-.65-.44-.33-2-1.53L126,199.79h0l-1.47-1.1q-3.49,1.4-6.81,2.52c-1.26.44-2.51.84-3.72,1.22l3.72,4.65,3.59,4.5q7.4-1.8,14.61-4.3l-.27-.2Z"/><path class="cls-51" d="M125.85,198.17c.28.05,12.21,8.42,12.56,8.24A147.64,147.64,0,0,0,153.54,200l-14.45-7.9Q132.19,195.59,125.85,198.17Z"/><path class="cls-52" d="M156.71,181.88l4.7,1.47-3.25-1,0,0,16.66,5.14-4.33-1.35,4.33,1.35c5.29-3.52,10.59-7.54,15.64-11.59l-19.3-4.11Q163.7,177.4,156.71,181.88Z"/><path class="cls-53" d="M173.33,169.76l20.45,3.32c5.26-4.47,10.45-9.42,15.35-14.4l-23.8-1.77Z"/><path class="cls-54" d="M98.23,194c-1.56.34-3.14.64-4.75.92h0l.88,1.38,4.26,6.68h0q6-1.09,11.74-2.75c-2.28-2.87-4.3-5.6-6-7.63Q101.35,193.32,98.23,194Z"/><path class="cls-55" d="M143.46,185l-9.81-4.27c-2,1.18-4,2.27-6.06,3.3q-2.82,1.41-5.82,2.63l-.06,0-1.65.7c.28.15.62.33,1,.54s.92.51,1.43.79c2.44,1.38,5.52,3.18,7.15,4.14A123.58,123.58,0,0,0,143.46,185Z"/><path class="cls-56" d="M117.74,197.8q5.07-1.8,10-4.1c-1.6-1-7.39-4.75-9.07-5.81l-1,.38a117.92,117.92,0,0,1-11.92,3.88c1.85,2.31,4.32,5.41,6.05,7.59C113.84,199.14,115.8,198.5,117.74,197.8Z"/><path class="cls-57" d="M159.05,173l-11.39-2.84a83.43,83.43,0,0,1-12.31,9.49l10.53,3.69A139.48,139.48,0,0,0,159.05,173Z"/><path class="cls-58" d="M112.47,202.9a120.15,120.15,0,0,1-12,2.92l0,0c2.07,3.24,4,6.2,5.15,8,.12.19.23.37.34.53a.76.76,0,0,1-.16,0l0,.06.16,0h0c.92-.12,1.83-.25,2.73-.4s1.54-.24,2.31-.37,1.49-.26,2.24-.39l.07,0,1.45-.28c1-.18,2-.39,2.92-.59l1.68-.39h.07c-.57-.73-1.15-1.49-1.75-2.28Z"/><path class="cls-59" d="M90.29,193.59a.83.83,0,0,0-.09-.16h0Z"/><path class="cls-60" d="M103.58,214.13c-1.26-2-3.13-4.86-5.13-7.94h0a91,91,0,0,1-9.57,1.16L87,203.62l9.51-.4h0l-.15-.22-1.9-2.95L93,197.81c-.17-.27-.35-.53-.51-.8l-.5-.76-.31-.48-.36-.56c-2.52.41-5.1.75-7.74,1H43.26l48.28-30.12,27.25-16.76c15.11-9.29,35.91-29.22,27-49.08C137.62,82,112.05,79.52,94.9,82.21c-32.24,4.59-66,30.18-66.48,53.4,0,.34,0,.69,0,1A23.34,23.34,0,0,0,31.81,149a26.64,26.64,0,0,0,7.13,8.17L59,145.36l28.87-17,3.2,3.45,16.25-22.3-31,6.54,2.7,2.9L48.6,136.52l-.36.21a15.51,15.51,0,0,1-2.16-8.82l1.2-6C52.16,107.8,72,94.7,91.52,91.92c18.54-2.7,34.25,4.22,34.88,17.26.79,16.29-15.94,25.47-27.57,32.87C83.68,151.68,67.14,158.9,52,168.55c-9,5.7-18.31,12.44-23.85,21.71-4.85,8.11-6.78,25.2,6.59,25.22q29.12.06,58.21.06h1.5c3.07-.17,6.12-.43,9.17-.79l.34,0h0C103.84,214.52,103.71,214.33,103.58,214.13Z"/><polygon class="cls-61" points="45.05 106.15 45.16 106.25 45.16 106.25 45.05 106.15"/></g></g></svg>