<svg xmlns="http://www.w3.org/2000/svg" viewBox="0 0 354.01 45.96"><defs><style>.cls-1{fill:#47929f;}</style></defs><g id="Layer_2" data-name="Layer 2"><g id="Layer_1-2" data-name="Layer 1"><path class="cls-1" d="M8.33,0C23.14,0,30.67,10.47,36.17,18.11,41.46,25.46,44.5,29.3,50.5,29.3s9-3.84,14.32-11.19C70.32,10.47,77.85,0,92.66,0S115,10.47,120.51,18.11c5.29,7.35,8.33,11.19,14.32,11.19s9-3.84,14.32-11.19C154.65,10.47,162.19,0,177,0s22.34,10.47,27.84,18.11c5.29,7.35,8.33,11.19,14.33,11.19s9-3.84,14.32-11.19C239,10.47,246.52,0,261.33,0s22.35,10.47,27.85,18.11c5.29,7.35,8.33,11.19,14.33,11.19s9-3.84,14.32-11.19c5.5-7.64,13-18.11,27.85-18.11a8.33,8.33,0,0,1,0,16.66c-6,0-9,3.83-14.33,11.18-5.5,7.65-13,18.12-27.84,18.12s-22.35-10.47-27.85-18.12c-5.29-7.35-8.33-11.18-14.33-11.18s-9,3.83-14.32,11.18C241.51,35.49,234,46,219.17,46s-22.35-10.47-27.85-18.12C186,20.49,183,16.66,177,16.66s-9,3.83-14.32,11.18c-5.51,7.65-13,18.12-27.85,18.12S112.49,35.49,107,27.84c-5.29-7.35-8.33-11.18-14.33-11.18s-9,3.83-14.32,11.18C72.84,35.49,65.31,46,50.5,46S28.15,35.49,22.65,27.84c-5.29-7.35-8.33-11.18-14.32-11.18A8.33,8.33,0,0,1,8.33,0Z"/></g></g></svg>